<?xml version="1.0" encoding="utf-8" standalone="no"?>
<!DOCTYPE svg PUBLIC "-//W3C//DTD SVG 1.1//EN"
  "http://www.w3.org/Graphics/SVG/1.1/DTD/svg11.dtd">
<svg xmlns:xlink="http://www.w3.org/1999/xlink" width="177.12pt" height="337.109264pt" viewBox="0 0 177.12 337.109264" xmlns="http://www.w3.org/2000/svg" version="1.1">
 <metadata>
  <rdf:RDF xmlns:dc="http://purl.org/dc/elements/1.1/" xmlns:cc="http://creativecommons.org/ns#" xmlns:rdf="http://www.w3.org/1999/02/22-rdf-syntax-ns#">
   <cc:Work>
    <dc:type rdf:resource="http://purl.org/dc/dcmitype/StillImage"/>
    <dc:date>2026-05-07T20:19:58.137397</dc:date>
    <dc:format>image/svg+xml</dc:format>
    <dc:creator>
     <cc:Agent>
      <dc:title>Matplotlib v3.10.9, https://matplotlib.org/</dc:title>
     </cc:Agent>
    </dc:creator>
   </cc:Work>
  </rdf:RDF>
 </metadata>
 <defs>
  <style type="text/css">*{stroke-linejoin: round; stroke-linecap: butt}</style>
 </defs>
 <g id="figure_1">
  <g id="patch_1">
   <path d="M 0 337.109264 
L 177.12 337.109264 
L 177.12 0 
L 0 0 
L 0 337.109264 
z
" style="fill: none"/>
  </g>
  <g id="axes_1">
   <g id="patch_2">
    <path d="M 32.230837 111.984107 
C 36.991913 111.984107 41.558628 110.092512 44.925217 106.725923 
C 48.291806 103.359334 50.183402 98.792618 50.183402 94.031543 
C 50.183402 89.270467 48.291806 84.703752 44.925217 81.337163 
C 41.558628 77.970574 36.991913 76.078978 32.230837 76.078978 
C 27.469761 76.078978 22.903046 77.970574 19.536457 81.337163 
C 16.169868 84.703752 14.278273 89.270467 14.278273 94.031543 
C 14.278273 98.792618 16.169868 103.359334 19.536457 106.725923 
C 22.903046 110.092512 27.469761 111.984107 32.230837 111.984107 
L 32.230837 111.984107 
z
" clip-path="url(#pf3b1801bbc)" style="fill: none; stroke: #000000; stroke-width: 2; stroke-linejoin: miter"/>
   </g>
   <g id="line2d_1">
    <path d="M 32.230837 165.8418 
L 32.230837 111.984107 
L 32.230837 111.984107 
M 32.230837 76.078978 
L 32.230837 76.078978 
L 32.230837 22.221285 
" clip-path="url(#pf3b1801bbc)" style="fill: none; stroke: #000000; stroke-width: 2; stroke-linecap: round"/>
   </g>
   <g id="line2d_2">
    <path d="M 28.640324 85.05526 
L 35.82135 85.05526 
" clip-path="url(#pf3b1801bbc)" style="fill: none; stroke: #000000; stroke-width: 2; stroke-linecap: round"/>
   </g>
   <g id="line2d_3">
    <path d="M 32.230837 106.598338 
L 32.230837 99.417312 
" clip-path="url(#pf3b1801bbc)" style="fill: none; stroke: #000000; stroke-width: 2; stroke-linecap: round"/>
   </g>
   <g id="line2d_4">
    <path d="M 28.640324 103.007825 
L 35.82135 103.007825 
" clip-path="url(#pf3b1801bbc)" style="fill: none; stroke: #000000; stroke-width: 2; stroke-linecap: round"/>
   </g>
   <g id="line2d_5">
    <path d="M 32.230837 22.221285 
L 86.08853 22.221285 
L 139.946223 22.221285 
" clip-path="url(#pf3b1801bbc)" style="fill: none; stroke: #000000; stroke-width: 2; stroke-linecap: round"/>
   </g>
   <g id="line2d_6">
    <path d="M 139.946223 22.221285 
L 139.946223 76.078978 
L 148.922506 79.071072 
L 130.969941 85.05526 
L 148.922506 91.039449 
L 130.969941 97.023637 
L 148.922506 103.007825 
L 130.969941 108.992013 
L 139.946223 111.984107 
L 139.946223 165.8418 
" clip-path="url(#pf3b1801bbc)" style="fill: none; stroke: #000000; stroke-width: 2; stroke-linecap: round"/>
   </g>
   <g id="line2d_7">
    <path d="M 139.946223 165.8418 
L 139.946223 219.699493 
L 148.922506 222.691587 
L 130.969941 228.675775 
L 148.922506 234.659964 
L 130.969941 240.644152 
L 148.922506 246.62834 
L 130.969941 252.612528 
L 139.946223 255.604622 
L 139.946223 309.462315 
" clip-path="url(#pf3b1801bbc)" style="fill: none; stroke: #000000; stroke-width: 2; stroke-linecap: round"/>
   </g>
   <g id="line2d_8">
    <path d="M 139.946223 309.462315 
L 139.946223 323.824367 
L 130.969941 323.824367 
L 148.922506 323.824367 
M 133.662826 328.132982 
L 146.229621 328.132982 
M 138.150967 332.441597 
L 141.74148 332.441597 
" clip-path="url(#pf3b1801bbc)" style="fill: none; stroke: #000000; stroke-width: 2; stroke-linecap: round"/>
   </g>
   <g id="line2d_9">
    <path d="M 139.946223 309.462315 
L 86.08853 309.462315 
L 32.230837 309.462315 
" clip-path="url(#pf3b1801bbc)" style="fill: none; stroke: #000000; stroke-width: 2; stroke-linecap: round"/>
   </g>
   <g id="line2d_10">
    <path d="M 32.230837 309.462315 
L 32.230837 237.652058 
L 32.230837 165.8418 
" clip-path="url(#pf3b1801bbc)" style="fill: none; stroke: #000000; stroke-width: 2; stroke-linecap: round"/>
   </g>
   <g id="text_1">
    <!-- $V_1 = 10V$ -->
    <g transform="translate(1.780837 180.070125) scale(0.14 -0.14)">
     <defs>
      <path id="DejaVuSans-Oblique-56" d="M 1319 0 
L 500 4666 
L 1119 4666 
L 1797 653 
L 4063 4666 
L 4750 4666 
L 2053 0 
L 1319 0 
z
" transform="scale(0.015625)"/>
      <path id="DejaVuSans-31" d="M 794 531 
L 1825 531 
L 1825 4091 
L 703 3866 
L 703 4441 
L 1819 4666 
L 2450 4666 
L 2450 531 
L 3481 531 
L 3481 0 
L 794 0 
L 794 531 
z
" transform="scale(0.015625)"/>
      <path id="DejaVuSans-3d" d="M 678 2906 
L 4684 2906 
L 4684 2381 
L 678 2381 
L 678 2906 
z
M 678 1631 
L 4684 1631 
L 4684 1100 
L 678 1100 
L 678 1631 
z
" transform="scale(0.015625)"/>
      <path id="DejaVuSans-30" d="M 2034 4250 
Q 1547 4250 1301 3770 
Q 1056 3291 1056 2328 
Q 1056 1369 1301 889 
Q 1547 409 2034 409 
Q 2525 409 2770 889 
Q 3016 1369 3016 2328 
Q 3016 3291 2770 3770 
Q 2525 4250 2034 4250 
z
M 2034 4750 
Q 2819 4750 3233 4129 
Q 3647 3509 3647 2328 
Q 3647 1150 3233 529 
Q 2819 -91 2034 -91 
Q 1250 -91 836 529 
Q 422 1150 422 2328 
Q 422 3509 836 4129 
Q 1250 4750 2034 4750 
z
" transform="scale(0.015625)"/>
     </defs>
     <use xlink:href="#DejaVuSans-Oblique-56" transform="translate(0 0.78125)"/>
     <use xlink:href="#DejaVuSans-31" transform="translate(68.408203 -15.625) scale(0.7)"/>
     <use xlink:href="#DejaVuSans-3d" transform="translate(135.161133 0.78125)"/>
     <use xlink:href="#DejaVuSans-31" transform="translate(238.432617 0.78125)"/>
     <use xlink:href="#DejaVuSans-30" transform="translate(302.055664 0.78125)"/>
     <use xlink:href="#DejaVuSans-Oblique-56" transform="translate(365.678711 0.78125)"/>
    </g>
   </g>
   <g id="text_2">
    <!-- $R_1 = 1\,k\Omega$ -->
    <g transform="translate(108.166223 15.71921) scale(0.14 -0.14)">
     <defs>
      <path id="DejaVuSans-Oblique-52" d="M 1613 4147 
L 1294 2491 
L 2106 2491 
Q 2584 2491 2879 2755 
Q 3175 3019 3175 3444 
Q 3175 3784 2976 3965 
Q 2778 4147 2406 4147 
L 1613 4147 
z
M 2772 2241 
Q 2972 2194 3105 2009 
Q 3238 1825 3413 1275 
L 3809 0 
L 3144 0 
L 2778 1197 
Q 2638 1659 2453 1815 
Q 2269 1972 1888 1972 
L 1191 1972 
L 806 0 
L 172 0 
L 1081 4666 
L 2503 4666 
Q 3150 4666 3495 4373 
Q 3841 4081 3841 3531 
Q 3841 3044 3547 2687 
Q 3253 2331 2772 2241 
z
" transform="scale(0.015625)"/>
      <path id="DejaVuSans-Oblique-6b" d="M 1172 4863 
L 1747 4863 
L 1197 2028 
L 3169 3500 
L 3916 3500 
L 1716 1825 
L 3322 0 
L 2625 0 
L 1131 1709 
L 800 0 
L 225 0 
L 1172 4863 
z
" transform="scale(0.015625)"/>
      <path id="DejaVuSans-3a9" d="M 4647 556 
L 4647 0 
L 2772 0 
L 2772 556 
Q 3325 859 3634 1378 
Q 3944 1897 3944 2528 
Q 3944 3278 3531 3731 
Q 3119 4184 2444 4184 
Q 1769 4184 1355 3729 
Q 941 3275 941 2528 
Q 941 1897 1250 1378 
Q 1563 859 2119 556 
L 2119 0 
L 244 0 
L 244 556 
L 1241 556 
Q 747 991 519 1456 
Q 294 1922 294 2497 
Q 294 3491 894 4106 
Q 1491 4722 2444 4722 
Q 3391 4722 3994 4106 
Q 4594 3494 4594 2528 
Q 4594 1922 4372 1459 
Q 4150 997 3647 556 
L 4647 556 
z
" transform="scale(0.015625)"/>
     </defs>
     <use xlink:href="#DejaVuSans-Oblique-52" transform="translate(0 0.015625)"/>
     <use xlink:href="#DejaVuSans-31" transform="translate(69.482422 -16.390625) scale(0.7)"/>
     <use xlink:href="#DejaVuSans-3d" transform="translate(136.235352 0.015625)"/>
     <use xlink:href="#DejaVuSans-31" transform="translate(239.506836 0.015625)"/>
     <use xlink:href="#DejaVuSans-Oblique-6b" transform="translate(319.365559 0.015625)"/>
     <use xlink:href="#DejaVuSans-3a9" transform="translate(377.275715 0.015625)"/>
    </g>
   </g>
   <g id="text_3">
    <!-- $R_2 = 2\,k\Omega$ -->
    <g transform="translate(108.166223 159.339725) scale(0.14 -0.14)">
     <defs>
      <path id="DejaVuSans-32" d="M 1228 531 
L 3431 531 
L 3431 0 
L 469 0 
L 469 531 
Q 828 903 1448 1529 
Q 2069 2156 2228 2338 
Q 2531 2678 2651 2914 
Q 2772 3150 2772 3378 
Q 2772 3750 2511 3984 
Q 2250 4219 1831 4219 
Q 1534 4219 1204 4116 
Q 875 4013 500 3803 
L 500 4441 
Q 881 4594 1212 4672 
Q 1544 4750 1819 4750 
Q 2544 4750 2975 4387 
Q 3406 4025 3406 3419 
Q 3406 3131 3298 2873 
Q 3191 2616 2906 2266 
Q 2828 2175 2409 1742 
Q 1991 1309 1228 531 
z
" transform="scale(0.015625)"/>
     </defs>
     <use xlink:href="#DejaVuSans-Oblique-52" transform="translate(0 0.015625)"/>
     <use xlink:href="#DejaVuSans-32" transform="translate(69.482422 -16.390625) scale(0.7)"/>
     <use xlink:href="#DejaVuSans-3d" transform="translate(136.235352 0.015625)"/>
     <use xlink:href="#DejaVuSans-32" transform="translate(239.506836 0.015625)"/>
     <use xlink:href="#DejaVuSans-Oblique-6b" transform="translate(319.365559 0.015625)"/>
     <use xlink:href="#DejaVuSans-3a9" transform="translate(377.275715 0.015625)"/>
    </g>
   </g>
   <g id="patch_3">
    <path d="M 139.946223 24.91417 
C 140.660385 24.91417 141.345392 24.630431 141.85038 24.125442 
C 142.355369 23.620454 142.639108 22.935447 142.639108 22.221285 
C 142.639108 21.507124 142.355369 20.822117 141.85038 20.317128 
C 141.345392 19.81214 140.660385 19.528401 139.946223 19.528401 
C 139.232062 19.528401 138.547055 19.81214 138.042066 20.317128 
C 137.537078 20.822117 137.253339 21.507124 137.253339 22.221285 
C 137.253339 22.935447 137.537078 23.620454 138.042066 24.125442 
C 138.547055 24.630431 139.232062 24.91417 139.946223 24.91417 
z
" clip-path="url(#pf3b1801bbc)" style="stroke: #000000; stroke-width: 2; stroke-linejoin: miter"/>
   </g>
   <g id="text_4">
    <!-- 1 -->
    <g transform="translate(146.229621 26.08441) scale(0.14 -0.14)">
     <use xlink:href="#DejaVuSans-31"/>
    </g>
   </g>
   <g id="patch_4">
    <path d="M 139.946223 168.534685 
C 140.660385 168.534685 141.345392 168.250945 141.85038 167.745957 
C 142.355369 167.240969 142.639108 166.555961 142.639108 165.8418 
C 142.639108 165.127639 142.355369 164.442631 141.85038 163.937643 
C 141.345392 163.432655 140.660385 163.148915 139.946223 163.148915 
C 139.232062 163.148915 138.547055 163.432655 138.042066 163.937643 
C 137.537078 164.442631 137.253339 165.127639 137.253339 165.8418 
C 137.253339 166.555961 137.537078 167.240969 138.042066 167.745957 
C 138.547055 168.250945 139.232062 168.534685 139.946223 168.534685 
z
" clip-path="url(#pf3b1801bbc)" style="stroke: #000000; stroke-width: 2; stroke-linejoin: miter"/>
   </g>
   <g id="text_5">
    <!-- 2 -->
    <g transform="translate(146.229621 169.704925) scale(0.14 -0.14)">
     <use xlink:href="#DejaVuSans-32"/>
    </g>
   </g>
  </g>
 </g>
 <defs>
  <clipPath id="pf3b1801bbc">
   <rect x="0" y="-0" width="177.12" height="337.109264"/>
  </clipPath>
 </defs>
</svg>
