<?xml version="1.0" encoding="utf-8" standalone="no"?>
<!DOCTYPE svg PUBLIC "-//W3C//DTD SVG 1.1//EN"
  "http://www.w3.org/Graphics/SVG/1.1/DTD/svg11.dtd">
<svg xmlns:xlink="http://www.w3.org/1999/xlink" width="219.863038pt" height="202.32pt" viewBox="0 0 219.863038 202.32" xmlns="http://www.w3.org/2000/svg" version="1.1">
 <metadata>
  <rdf:RDF xmlns:dc="http://purl.org/dc/elements/1.1/" xmlns:cc="http://creativecommons.org/ns#" xmlns:rdf="http://www.w3.org/1999/02/22-rdf-syntax-ns#">
   <cc:Work>
    <dc:type rdf:resource="http://purl.org/dc/dcmitype/StillImage"/>
    <dc:date>2026-05-07T20:19:58.215121</dc:date>
    <dc:format>image/svg+xml</dc:format>
    <dc:creator>
     <cc:Agent>
      <dc:title>Matplotlib v3.10.9, https://matplotlib.org/</dc:title>
     </cc:Agent>
    </dc:creator>
   </cc:Work>
  </rdf:RDF>
 </metadata>
 <defs>
  <style type="text/css">*{stroke-linejoin: round; stroke-linecap: butt}</style>
 </defs>
 <g id="figure_1">
  <g id="patch_1">
   <path d="M 0 202.32 
L 219.863038 202.32 
L 219.863038 0 
L 0 0 
L 0 202.32 
z
" style="fill: none"/>
  </g>
  <g id="axes_1">
   <g id="patch_2">
    <path d="M 39.198254 120.873742 
C 43.955919 120.873742 48.519363 118.983501 51.883541 115.619324 
C 55.247718 112.255147 57.137959 107.691703 57.137959 102.934037 
C 57.137959 98.176372 55.247718 93.612928 51.883541 90.248751 
C 48.519363 86.884573 43.955919 84.994333 39.198254 84.994333 
C 34.440589 84.994333 29.877145 86.884573 26.512968 90.248751 
C 23.14879 93.612928 21.25855 98.176372 21.25855 102.934037 
C 21.25855 107.691703 23.14879 112.255147 26.512968 115.619324 
C 29.877145 118.983501 34.440589 120.873742 39.198254 120.873742 
L 39.198254 120.873742 
z
" clip-path="url(#p3e498480b9)" style="fill: none; stroke: #000000; stroke-width: 2; stroke-linejoin: miter"/>
   </g>
   <g id="line2d_1">
    <path d="M 39.198254 174.692855 
L 39.198254 120.873742 
L 39.198254 120.873742 
M 39.198254 84.994333 
L 39.198254 84.994333 
L 39.198254 31.17522 
" clip-path="url(#p3e498480b9)" style="fill: none; stroke: #000000; stroke-width: 2; stroke-linecap: round"/>
   </g>
   <g id="line2d_2">
    <path d="M 39.198254 111.90389 
L 39.198254 102.934037 
" clip-path="url(#p3e498480b9)" style="fill: none; stroke: #000000; stroke-width: 2; stroke-linecap: round"/>
   </g>
   <g id="patch_3">
    <path d="M 36.507299 102.934037 
L 39.198254 93.964185 
L 41.88921 102.934037 
z
" clip-path="url(#p3e498480b9)"/>
   </g>
   <g id="line2d_3">
    <path d="M 39.198254 31.17522 
L 93.017367 31.17522 
L 96.007318 22.205367 
L 101.98722 40.145072 
L 107.967121 22.205367 
L 113.947023 40.145072 
L 119.926924 22.205367 
L 125.906826 40.145072 
L 128.896776 31.17522 
L 182.71589 31.17522 
" clip-path="url(#p3e498480b9)" style="fill: none; stroke: #000000; stroke-width: 2; stroke-linecap: round"/>
   </g>
   <g id="line2d_4">
    <path d="M 182.71589 31.17522 
L 182.71589 84.994333 
L 191.685742 87.984284 
L 173.746037 93.964185 
L 191.685742 99.944087 
L 173.746037 105.923988 
L 191.685742 111.90389 
L 173.746037 117.883791 
L 182.71589 120.873742 
L 182.71589 174.692855 
" clip-path="url(#p3e498480b9)" style="fill: none; stroke: #000000; stroke-width: 2; stroke-linecap: round"/>
   </g>
   <g id="line2d_5">
    <path d="M 182.71589 174.692855 
L 182.71589 189.044619 
L 173.746037 189.044619 
L 191.685742 189.044619 
M 176.436993 193.350148 
L 188.994786 193.350148 
M 180.921919 197.655677 
L 184.50986 197.655677 
" clip-path="url(#p3e498480b9)" style="fill: none; stroke: #000000; stroke-width: 2; stroke-linecap: round"/>
   </g>
   <g id="line2d_6">
    <path d="M 182.71589 174.692855 
L 110.957072 174.692855 
L 39.198254 174.692855 
" clip-path="url(#p3e498480b9)" style="fill: none; stroke: #000000; stroke-width: 2; stroke-linecap: round"/>
   </g>
   <g id="line2d_7">
    <path d="M 39.198254 174.692855 
L 39.198254 174.692855 
L 39.198254 174.692855 
" clip-path="url(#p3e498480b9)" style="fill: none; stroke: #000000; stroke-width: 2; stroke-linecap: round"/>
   </g>
   <g id="line2d_8">
    <path d="M 39.198254 31.17522 
L 39.198254 84.994333 
L 48.168106 87.984284 
L 30.228402 93.964185 
L 48.168106 99.944087 
L 30.228402 105.923988 
L 48.168106 111.90389 
L 30.228402 117.883791 
L 39.198254 120.873742 
L 39.198254 174.692855 
" clip-path="url(#p3e498480b9)" style="fill: none; stroke: #000000; stroke-width: 2; stroke-linecap: round"/>
   </g>
   <g id="line2d_9">
    <path d="M 39.198254 174.692855 
" clip-path="url(#p3e498480b9)" style="fill: none; stroke: #000000; stroke-width: 2; stroke-linecap: round"/>
   </g>
   <g id="text_1">
    <!-- $I_s = 2\,mA$ -->
    <g transform="translate(8.538254 188.918609) scale(0.14 -0.14)">
     <defs>
      <path id="DejaVuSans-Oblique-49" d="M 1081 4666 
L 1716 4666 
L 806 0 
L 172 0 
L 1081 4666 
z
" transform="scale(0.015625)"/>
      <path id="DejaVuSans-Oblique-73" d="M 3200 3397 
L 3091 2853 
Q 2863 2978 2609 3040 
Q 2356 3103 2088 3103 
Q 1634 3103 1373 2948 
Q 1113 2794 1113 2528 
Q 1113 2219 1719 2053 
Q 1766 2041 1788 2034 
L 1972 1978 
Q 2547 1819 2739 1644 
Q 2931 1469 2931 1166 
Q 2931 609 2489 259 
Q 2047 -91 1331 -91 
Q 1053 -91 747 -37 
Q 441 16 72 128 
L 184 722 
Q 500 559 806 475 
Q 1113 391 1394 391 
Q 1816 391 2080 572 
Q 2344 753 2344 1031 
Q 2344 1331 1650 1516 
L 1591 1531 
L 1394 1581 
Q 956 1697 753 1886 
Q 550 2075 550 2369 
Q 550 2928 970 3256 
Q 1391 3584 2113 3584 
Q 2397 3584 2667 3537 
Q 2938 3491 3200 3397 
z
" transform="scale(0.015625)"/>
      <path id="DejaVuSans-3d" d="M 678 2906 
L 4684 2906 
L 4684 2381 
L 678 2381 
L 678 2906 
z
M 678 1631 
L 4684 1631 
L 4684 1100 
L 678 1100 
L 678 1631 
z
" transform="scale(0.015625)"/>
      <path id="DejaVuSans-32" d="M 1228 531 
L 3431 531 
L 3431 0 
L 469 0 
L 469 531 
Q 828 903 1448 1529 
Q 2069 2156 2228 2338 
Q 2531 2678 2651 2914 
Q 2772 3150 2772 3378 
Q 2772 3750 2511 3984 
Q 2250 4219 1831 4219 
Q 1534 4219 1204 4116 
Q 875 4013 500 3803 
L 500 4441 
Q 881 4594 1212 4672 
Q 1544 4750 1819 4750 
Q 2544 4750 2975 4387 
Q 3406 4025 3406 3419 
Q 3406 3131 3298 2873 
Q 3191 2616 2906 2266 
Q 2828 2175 2409 1742 
Q 1991 1309 1228 531 
z
" transform="scale(0.015625)"/>
      <path id="DejaVuSans-Oblique-6d" d="M 5747 2113 
L 5338 0 
L 4763 0 
L 5166 2094 
Q 5191 2228 5203 2325 
Q 5216 2422 5216 2491 
Q 5216 2772 5059 2928 
Q 4903 3084 4622 3084 
Q 4203 3084 3875 2770 
Q 3547 2456 3450 1953 
L 3066 0 
L 2491 0 
L 2900 2094 
Q 2925 2209 2937 2307 
Q 2950 2406 2950 2484 
Q 2950 2769 2794 2926 
Q 2638 3084 2363 3084 
Q 1938 3084 1609 2770 
Q 1281 2456 1184 1953 
L 800 0 
L 225 0 
L 909 3500 
L 1484 3500 
L 1375 2956 
Q 1609 3263 1923 3423 
Q 2238 3584 2597 3584 
Q 2978 3584 3223 3384 
Q 3469 3184 3519 2828 
Q 3781 3197 4126 3390 
Q 4472 3584 4856 3584 
Q 5306 3584 5551 3325 
Q 5797 3066 5797 2591 
Q 5797 2488 5784 2364 
Q 5772 2241 5747 2113 
z
" transform="scale(0.015625)"/>
      <path id="DejaVuSans-Oblique-41" d="M 2356 4666 
L 3072 4666 
L 3938 0 
L 3278 0 
L 3084 1197 
L 984 1197 
L 325 0 
L -341 0 
L 2356 4666 
z
M 2584 4044 
L 1275 1722 
L 2988 1722 
L 2584 4044 
z
" transform="scale(0.015625)"/>
     </defs>
     <use xlink:href="#DejaVuSans-Oblique-49" transform="translate(0 0.78125)"/>
     <use xlink:href="#DejaVuSans-Oblique-73" transform="translate(29.492188 -15.625) scale(0.7)"/>
     <use xlink:href="#DejaVuSans-3d" transform="translate(88.178711 0.78125)"/>
     <use xlink:href="#DejaVuSans-32" transform="translate(191.450195 0.78125)"/>
     <use xlink:href="#DejaVuSans-Oblique-6d" transform="translate(271.308918 0.78125)"/>
     <use xlink:href="#DejaVuSans-Oblique-41" transform="translate(368.721028 0.78125)"/>
    </g>
   </g>
   <g id="text_2">
    <!-- $R_1 = 1\,k\Omega$ -->
    <g transform="translate(79.177072 15.705864) scale(0.14 -0.14)">
     <defs>
      <path id="DejaVuSans-Oblique-52" d="M 1613 4147 
L 1294 2491 
L 2106 2491 
Q 2584 2491 2879 2755 
Q 3175 3019 3175 3444 
Q 3175 3784 2976 3965 
Q 2778 4147 2406 4147 
L 1613 4147 
z
M 2772 2241 
Q 2972 2194 3105 2009 
Q 3238 1825 3413 1275 
L 3809 0 
L 3144 0 
L 2778 1197 
Q 2638 1659 2453 1815 
Q 2269 1972 1888 1972 
L 1191 1972 
L 806 0 
L 172 0 
L 1081 4666 
L 2503 4666 
Q 3150 4666 3495 4373 
Q 3841 4081 3841 3531 
Q 3841 3044 3547 2687 
Q 3253 2331 2772 2241 
z
" transform="scale(0.015625)"/>
      <path id="DejaVuSans-31" d="M 794 531 
L 1825 531 
L 1825 4091 
L 703 3866 
L 703 4441 
L 1819 4666 
L 2450 4666 
L 2450 531 
L 3481 531 
L 3481 0 
L 794 0 
L 794 531 
z
" transform="scale(0.015625)"/>
      <path id="DejaVuSans-Oblique-6b" d="M 1172 4863 
L 1747 4863 
L 1197 2028 
L 3169 3500 
L 3916 3500 
L 1716 1825 
L 3322 0 
L 2625 0 
L 1131 1709 
L 800 0 
L 225 0 
L 1172 4863 
z
" transform="scale(0.015625)"/>
      <path id="DejaVuSans-3a9" d="M 4647 556 
L 4647 0 
L 2772 0 
L 2772 556 
Q 3325 859 3634 1378 
Q 3944 1897 3944 2528 
Q 3944 3278 3531 3731 
Q 3119 4184 2444 4184 
Q 1769 4184 1355 3729 
Q 941 3275 941 2528 
Q 941 1897 1250 1378 
Q 1563 859 2119 556 
L 2119 0 
L 244 0 
L 244 556 
L 1241 556 
Q 747 991 519 1456 
Q 294 1922 294 2497 
Q 294 3491 894 4106 
Q 1491 4722 2444 4722 
Q 3391 4722 3994 4106 
Q 4594 3494 4594 2528 
Q 4594 1922 4372 1459 
Q 4150 997 3647 556 
L 4647 556 
z
" transform="scale(0.015625)"/>
     </defs>
     <use xlink:href="#DejaVuSans-Oblique-52" transform="translate(0 0.015625)"/>
     <use xlink:href="#DejaVuSans-31" transform="translate(69.482422 -16.390625) scale(0.7)"/>
     <use xlink:href="#DejaVuSans-3d" transform="translate(136.235352 0.015625)"/>
     <use xlink:href="#DejaVuSans-31" transform="translate(239.506836 0.015625)"/>
     <use xlink:href="#DejaVuSans-Oblique-6b" transform="translate(319.365559 0.015625)"/>
     <use xlink:href="#DejaVuSans-3a9" transform="translate(377.275715 0.015625)"/>
    </g>
   </g>
   <g id="text_3">
    <!-- $R_3 = 3\,k\Omega$ -->
    <g transform="translate(150.93589 24.675716) scale(0.14 -0.14)">
     <defs>
      <path id="DejaVuSans-33" d="M 2597 2516 
Q 3050 2419 3304 2112 
Q 3559 1806 3559 1356 
Q 3559 666 3084 287 
Q 2609 -91 1734 -91 
Q 1441 -91 1130 -33 
Q 819 25 488 141 
L 488 750 
Q 750 597 1062 519 
Q 1375 441 1716 441 
Q 2309 441 2620 675 
Q 2931 909 2931 1356 
Q 2931 1769 2642 2001 
Q 2353 2234 1838 2234 
L 1294 2234 
L 1294 2753 
L 1863 2753 
Q 2328 2753 2575 2939 
Q 2822 3125 2822 3475 
Q 2822 3834 2567 4026 
Q 2313 4219 1838 4219 
Q 1578 4219 1281 4162 
Q 984 4106 628 3988 
L 628 4550 
Q 988 4650 1302 4700 
Q 1616 4750 1894 4750 
Q 2613 4750 3031 4423 
Q 3450 4097 3450 3541 
Q 3450 3153 3228 2886 
Q 3006 2619 2597 2516 
z
" transform="scale(0.015625)"/>
     </defs>
     <use xlink:href="#DejaVuSans-Oblique-52" transform="translate(0 0.015625)"/>
     <use xlink:href="#DejaVuSans-33" transform="translate(69.482422 -16.390625) scale(0.7)"/>
     <use xlink:href="#DejaVuSans-3d" transform="translate(136.235352 0.015625)"/>
     <use xlink:href="#DejaVuSans-33" transform="translate(239.506836 0.015625)"/>
     <use xlink:href="#DejaVuSans-Oblique-6b" transform="translate(319.365559 0.015625)"/>
     <use xlink:href="#DejaVuSans-3a9" transform="translate(377.275715 0.015625)"/>
    </g>
   </g>
   <g id="text_4">
    <!-- $R_2 = 2\,k\Omega$ -->
    <g transform="translate(7.418254 24.675716) scale(0.14 -0.14)">
     <use xlink:href="#DejaVuSans-Oblique-52" transform="translate(0 0.015625)"/>
     <use xlink:href="#DejaVuSans-32" transform="translate(69.482422 -16.390625) scale(0.7)"/>
     <use xlink:href="#DejaVuSans-3d" transform="translate(136.235352 0.015625)"/>
     <use xlink:href="#DejaVuSans-32" transform="translate(239.506836 0.015625)"/>
     <use xlink:href="#DejaVuSans-Oblique-6b" transform="translate(319.365559 0.015625)"/>
     <use xlink:href="#DejaVuSans-3a9" transform="translate(377.275715 0.015625)"/>
    </g>
   </g>
   <g id="patch_4">
    <path d="M 39.198254 33.866175 
C 39.911904 33.866175 40.596421 33.582639 41.101047 33.078013 
C 41.605674 32.573386 41.88921 31.888869 41.88921 31.17522 
C 41.88921 30.46157 41.605674 29.777053 41.101047 29.272427 
C 40.596421 28.7678 39.911904 28.484264 39.198254 28.484264 
C 38.484604 28.484264 37.800088 28.7678 37.295461 29.272427 
C 36.790835 29.777053 36.507299 30.46157 36.507299 31.17522 
C 36.507299 31.888869 36.790835 32.573386 37.295461 33.078013 
C 37.800088 33.582639 38.484604 33.866175 39.198254 33.866175 
z
" clip-path="url(#p3e498480b9)" style="stroke: #000000; stroke-width: 2; stroke-linejoin: miter"/>
   </g>
   <g id="text_5">
    <!-- 1 -->
    <g transform="translate(34.744504 21.984761) scale(0.14 -0.14)">
     <use xlink:href="#DejaVuSans-31"/>
    </g>
   </g>
   <g id="patch_5">
    <path d="M 182.71589 33.866175 
C 183.429539 33.866175 184.114056 33.582639 184.618683 33.078013 
C 185.123309 32.573386 185.406845 31.888869 185.406845 31.17522 
C 185.406845 30.46157 185.123309 29.777053 184.618683 29.272427 
C 184.114056 28.7678 183.429539 28.484264 182.71589 28.484264 
C 182.00224 28.484264 181.317723 28.7678 180.813097 29.272427 
C 180.30847 29.777053 180.024934 30.46157 180.024934 31.17522 
C 180.024934 31.888869 180.30847 32.573386 180.813097 33.078013 
C 181.317723 33.582639 182.00224 33.866175 182.71589 33.866175 
z
" clip-path="url(#p3e498480b9)" style="stroke: #000000; stroke-width: 2; stroke-linejoin: miter"/>
   </g>
   <g id="text_6">
    <!-- 2 -->
    <g transform="translate(178.26214 21.984761) scale(0.14 -0.14)">
     <use xlink:href="#DejaVuSans-32"/>
    </g>
   </g>
  </g>
 </g>
 <defs>
  <clipPath id="p3e498480b9">
   <rect x="0" y="-0" width="219.863038" height="202.32"/>
  </clipPath>
 </defs>
</svg>
