<?xml version="1.0" encoding="utf-8" standalone="no"?>
<!DOCTYPE svg PUBLIC "-//W3C//DTD SVG 1.1//EN"
  "http://www.w3.org/Graphics/SVG/1.1/DTD/svg11.dtd">
<svg xmlns:xlink="http://www.w3.org/1999/xlink" width="306.702191pt" height="62.64pt" viewBox="0 0 306.702191 62.64" xmlns="http://www.w3.org/2000/svg" version="1.1">
 <metadata>
  <rdf:RDF xmlns:dc="http://purl.org/dc/elements/1.1/" xmlns:cc="http://creativecommons.org/ns#" xmlns:rdf="http://www.w3.org/1999/02/22-rdf-syntax-ns#">
   <cc:Work>
    <dc:type rdf:resource="http://purl.org/dc/dcmitype/StillImage"/>
    <dc:date>2026-05-07T20:19:58.105119</dc:date>
    <dc:format>image/svg+xml</dc:format>
    <dc:creator>
     <cc:Agent>
      <dc:title>Matplotlib v3.10.9, https://matplotlib.org/</dc:title>
     </cc:Agent>
    </dc:creator>
   </cc:Work>
  </rdf:RDF>
 </metadata>
 <defs>
  <style type="text/css">*{stroke-linejoin: round; stroke-linecap: butt}</style>
 </defs>
 <g id="figure_1">
  <g id="patch_1">
   <path d="M 0 62.64 
L 306.702191 62.64 
L 306.702191 0 
L 0 0 
L 0 62.64 
z
" style="fill: none"/>
  </g>
  <g id="axes_1">
   <g id="patch_2">
    <path d="M 153.351096 57.983787 
C 158.100489 57.983787 162.655999 56.096833 166.014327 52.738504 
C 169.372655 49.380176 171.259609 44.824666 171.259609 40.075273 
C 171.259609 35.32588 169.372655 30.77037 166.014327 27.412042 
C 162.655999 24.053714 158.100489 22.16676 153.351096 22.16676 
C 148.601702 22.16676 144.046192 24.053714 140.687864 27.412042 
C 137.329536 30.77037 135.442582 35.32588 135.442582 40.075273 
C 135.442582 44.824666 137.329536 49.380176 140.687864 52.738504 
C 144.046192 56.096833 148.601702 57.983787 153.351096 57.983787 
L 153.351096 57.983787 
z
" clip-path="url(#pc930ae9d73)" style="fill: none; stroke: #000000; stroke-width: 2; stroke-linejoin: miter"/>
   </g>
   <g id="line2d_1">
    <path d="M 81.717042 40.075273 
L 135.442582 40.075273 
L 135.442582 40.075273 
M 171.259609 40.075273 
L 171.259609 40.075273 
L 224.985149 40.075273 
" clip-path="url(#pc930ae9d73)" style="fill: none; stroke: #000000; stroke-width: 2; stroke-linecap: round"/>
   </g>
   <g id="line2d_2">
    <path d="M 162.305352 36.493571 
L 162.305352 43.656976 
" clip-path="url(#pc930ae9d73)" style="fill: none; stroke: #000000; stroke-width: 2; stroke-linecap: round"/>
   </g>
   <g id="line2d_3">
    <path d="M 140.815136 40.075273 
L 147.978542 40.075273 
" clip-path="url(#pc930ae9d73)" style="fill: none; stroke: #000000; stroke-width: 2; stroke-linecap: round"/>
   </g>
   <g id="line2d_4">
    <path d="M 144.396839 36.493571 
L 144.396839 43.656976 
" clip-path="url(#pc930ae9d73)" style="fill: none; stroke: #000000; stroke-width: 2; stroke-linecap: round"/>
   </g>
   <g id="text_1">
    <!-- $V_s$ -->
    <g transform="translate(145.791096 15.673495) scale(0.14 -0.14)">
     <defs>
      <path id="DejaVuSans-Oblique-56" d="M 1319 0 
L 500 4666 
L 1119 4666 
L 1797 653 
L 4063 4666 
L 4750 4666 
L 2053 0 
L 1319 0 
z
" transform="scale(0.015625)"/>
      <path id="DejaVuSans-Oblique-73" d="M 3200 3397 
L 3091 2853 
Q 2863 2978 2609 3040 
Q 2356 3103 2088 3103 
Q 1634 3103 1373 2948 
Q 1113 2794 1113 2528 
Q 1113 2219 1719 2053 
Q 1766 2041 1788 2034 
L 1972 1978 
Q 2547 1819 2739 1644 
Q 2931 1469 2931 1166 
Q 2931 609 2489 259 
Q 2047 -91 1331 -91 
Q 1053 -91 747 -37 
Q 441 16 72 128 
L 184 722 
Q 500 559 806 475 
Q 1113 391 1394 391 
Q 1816 391 2080 572 
Q 2344 753 2344 1031 
Q 2344 1331 1650 1516 
L 1591 1531 
L 1394 1581 
Q 956 1697 753 1886 
Q 550 2075 550 2369 
Q 550 2928 970 3256 
Q 1391 3584 2113 3584 
Q 2397 3584 2667 3537 
Q 2938 3491 3200 3397 
z
" transform="scale(0.015625)"/>
     </defs>
     <use xlink:href="#DejaVuSans-Oblique-56" transform="translate(0 0.09375)"/>
     <use xlink:href="#DejaVuSans-Oblique-73" transform="translate(68.408203 -16.3125) scale(0.7)"/>
    </g>
   </g>
   <g id="patch_3">
    <path d="M 81.717042 42.76155 
C 82.429451 42.76155 83.112778 42.478507 83.616527 41.974758 
C 84.120276 41.471009 84.403319 40.787682 84.403319 40.075273 
C 84.403319 39.362864 84.120276 38.679538 83.616527 38.175789 
C 83.112778 37.672039 82.429451 37.388996 81.717042 37.388996 
C 81.004633 37.388996 80.321307 37.672039 79.817557 38.175789 
C 79.313808 38.679538 79.030765 39.362864 79.030765 40.075273 
C 79.030765 40.787682 79.313808 41.471009 79.817557 41.974758 
C 80.321307 42.478507 81.004633 42.76155 81.717042 42.76155 
z
" clip-path="url(#pc930ae9d73)" style="fill: #ffffff; stroke: #000000; stroke-width: 2; stroke-linejoin: miter"/>
   </g>
   <g id="text_2">
    <!-- węzeł i (+) -->
    <g transform="translate(0 43.938398) scale(0.14 -0.14)">
     <defs>
      <path id="DejaVuSans-77" d="M 269 3500 
L 844 3500 
L 1563 769 
L 2278 3500 
L 2956 3500 
L 3675 769 
L 4391 3500 
L 4966 3500 
L 4050 0 
L 3372 0 
L 2619 2869 
L 1863 0 
L 1184 0 
L 269 3500 
z
" transform="scale(0.015625)"/>
      <path id="DejaVuSans-119" d="M 3597 1894 
L 3597 1613 
L 953 1613 
Q 991 1019 1311 708 
Q 1631 397 2203 397 
Q 2534 397 2845 478 
Q 3156 559 3463 722 
L 3463 178 
Q 3153 47 2828 -22 
Q 2503 -91 2169 -91 
Q 1331 -91 842 396 
Q 353 884 353 1716 
Q 353 2575 817 3079 
Q 1281 3584 2069 3584 
Q 2775 3584 3186 3129 
Q 3597 2675 3597 1894 
z
M 3022 2063 
Q 3016 2534 2758 2815 
Q 2500 3097 2075 3097 
Q 1594 3097 1305 2825 
Q 1016 2553 972 2059 
L 3022 2063 
z
M 2551 0 
L 2923 0 
Q 2782 -191 2715 -328 
Q 2648 -466 2648 -563 
Q 2648 -706 2734 -778 
Q 2820 -850 2989 -850 
Q 3089 -850 3185 -826 
Q 3282 -803 3379 -756 
L 3379 -1172 
Q 3260 -1203 3154 -1218 
Q 3048 -1234 2954 -1234 
Q 2573 -1234 2393 -1098 
Q 2214 -963 2214 -672 
Q 2214 -522 2296 -358 
Q 2379 -194 2551 0 
z
" transform="scale(0.015625)"/>
      <path id="DejaVuSans-7a" d="M 353 3500 
L 3084 3500 
L 3084 2975 
L 922 459 
L 3084 459 
L 3084 0 
L 275 0 
L 275 525 
L 2438 3041 
L 353 3041 
L 353 3500 
z
" transform="scale(0.015625)"/>
      <path id="DejaVuSans-65" d="M 3597 1894 
L 3597 1613 
L 953 1613 
Q 991 1019 1311 708 
Q 1631 397 2203 397 
Q 2534 397 2845 478 
Q 3156 559 3463 722 
L 3463 178 
Q 3153 47 2828 -22 
Q 2503 -91 2169 -91 
Q 1331 -91 842 396 
Q 353 884 353 1716 
Q 353 2575 817 3079 
Q 1281 3584 2069 3584 
Q 2775 3584 3186 3129 
Q 3597 2675 3597 1894 
z
M 3022 2063 
Q 3016 2534 2758 2815 
Q 2500 3097 2075 3097 
Q 1594 3097 1305 2825 
Q 1016 2553 972 2059 
L 3022 2063 
z
" transform="scale(0.015625)"/>
      <path id="DejaVuSans-142" d="M 622 4863 
L 1197 4863 
L 1197 2981 
L 1588 3263 
L 1825 2931 
L 1197 2491 
L 1197 0 
L 622 0 
L 622 2081 
L 238 1806 
L 6 2138 
L 622 2578 
L 622 4863 
z
" transform="scale(0.015625)"/>
      <path id="DejaVuSans-20" transform="scale(0.015625)"/>
      <path id="DejaVuSans-69" d="M 603 3500 
L 1178 3500 
L 1178 0 
L 603 0 
L 603 3500 
z
M 603 4863 
L 1178 4863 
L 1178 4134 
L 603 4134 
L 603 4863 
z
" transform="scale(0.015625)"/>
      <path id="DejaVuSans-28" d="M 1984 4856 
Q 1566 4138 1362 3434 
Q 1159 2731 1159 2009 
Q 1159 1288 1364 580 
Q 1569 -128 1984 -844 
L 1484 -844 
Q 1016 -109 783 600 
Q 550 1309 550 2009 
Q 550 2706 781 3412 
Q 1013 4119 1484 4856 
L 1984 4856 
z
" transform="scale(0.015625)"/>
      <path id="DejaVuSans-2b" d="M 2944 4013 
L 2944 2272 
L 4684 2272 
L 4684 1741 
L 2944 1741 
L 2944 0 
L 2419 0 
L 2419 1741 
L 678 1741 
L 678 2272 
L 2419 2272 
L 2419 4013 
L 2944 4013 
z
" transform="scale(0.015625)"/>
      <path id="DejaVuSans-29" d="M 513 4856 
L 1013 4856 
Q 1481 4119 1714 3412 
Q 1947 2706 1947 2009 
Q 1947 1309 1714 600 
Q 1481 -109 1013 -844 
L 513 -844 
Q 928 -128 1133 580 
Q 1338 1288 1338 2009 
Q 1338 2731 1133 3434 
Q 928 4138 513 4856 
z
" transform="scale(0.015625)"/>
     </defs>
     <use xlink:href="#DejaVuSans-77"/>
     <use xlink:href="#DejaVuSans-119" transform="translate(81.787109 0)"/>
     <use xlink:href="#DejaVuSans-7a" transform="translate(143.310547 0)"/>
     <use xlink:href="#DejaVuSans-65" transform="translate(195.800781 0)"/>
     <use xlink:href="#DejaVuSans-142" transform="translate(257.324219 0)"/>
     <use xlink:href="#DejaVuSans-20" transform="translate(285.742188 0)"/>
     <use xlink:href="#DejaVuSans-69" transform="translate(317.529297 0)"/>
     <use xlink:href="#DejaVuSans-20" transform="translate(345.3125 0)"/>
     <use xlink:href="#DejaVuSans-28" transform="translate(377.099609 0)"/>
     <use xlink:href="#DejaVuSans-2b" transform="translate(416.113281 0)"/>
     <use xlink:href="#DejaVuSans-29" transform="translate(499.902344 0)"/>
    </g>
   </g>
   <g id="patch_4">
    <path d="M 224.985149 42.76155 
C 225.697558 42.76155 226.380884 42.478507 226.884634 41.974758 
C 227.388383 41.471009 227.671426 40.787682 227.671426 40.075273 
C 227.671426 39.362864 227.388383 38.679538 226.884634 38.175789 
C 226.380884 37.672039 225.697558 37.388996 224.985149 37.388996 
C 224.27274 37.388996 223.589413 37.672039 223.085664 38.175789 
C 222.581915 38.679538 222.298872 39.362864 222.298872 40.075273 
C 222.298872 40.787682 222.581915 41.471009 223.085664 41.974758 
C 223.589413 42.478507 224.27274 42.76155 224.985149 42.76155 
z
" clip-path="url(#pc930ae9d73)" style="fill: #ffffff; stroke: #000000; stroke-width: 2; stroke-linejoin: miter"/>
   </g>
   <g id="text_3">
    <!-- węzeł j (−) -->
    <g transform="translate(231.253129 43.938398) scale(0.14 -0.14)">
     <defs>
      <path id="DejaVuSans-6a" d="M 603 3500 
L 1178 3500 
L 1178 -63 
Q 1178 -731 923 -1031 
Q 669 -1331 103 -1331 
L -116 -1331 
L -116 -844 
L 38 -844 
Q 366 -844 484 -692 
Q 603 -541 603 -63 
L 603 3500 
z
M 603 4863 
L 1178 4863 
L 1178 4134 
L 603 4134 
L 603 4863 
z
" transform="scale(0.015625)"/>
      <path id="DejaVuSans-2212" d="M 678 2272 
L 4684 2272 
L 4684 1741 
L 678 1741 
L 678 2272 
z
" transform="scale(0.015625)"/>
     </defs>
     <use xlink:href="#DejaVuSans-77"/>
     <use xlink:href="#DejaVuSans-119" transform="translate(81.787109 0)"/>
     <use xlink:href="#DejaVuSans-7a" transform="translate(143.310547 0)"/>
     <use xlink:href="#DejaVuSans-65" transform="translate(195.800781 0)"/>
     <use xlink:href="#DejaVuSans-142" transform="translate(257.324219 0)"/>
     <use xlink:href="#DejaVuSans-20" transform="translate(285.742188 0)"/>
     <use xlink:href="#DejaVuSans-6a" transform="translate(317.529297 0)"/>
     <use xlink:href="#DejaVuSans-20" transform="translate(345.3125 0)"/>
     <use xlink:href="#DejaVuSans-28" transform="translate(377.099609 0)"/>
     <use xlink:href="#DejaVuSans-2212" transform="translate(416.113281 0)"/>
     <use xlink:href="#DejaVuSans-29" transform="translate(499.902344 0)"/>
    </g>
   </g>
  </g>
 </g>
 <defs>
  <clipPath id="pc930ae9d73">
   <rect x="6.608737" y="0" width="291.813255" height="62.64"/>
  </clipPath>
 </defs>
</svg>
