<?xml version="1.0" encoding="utf-8" standalone="no"?>
<!DOCTYPE svg PUBLIC "-//W3C//DTD SVG 1.1//EN"
  "http://www.w3.org/Graphics/SVG/1.1/DTD/svg11.dtd">
<svg xmlns:xlink="http://www.w3.org/1999/xlink" width="169.92pt" height="336.952971pt" viewBox="0 0 169.92 336.952971" xmlns="http://www.w3.org/2000/svg" version="1.1">
 <metadata>
  <rdf:RDF xmlns:dc="http://purl.org/dc/elements/1.1/" xmlns:cc="http://creativecommons.org/ns#" xmlns:rdf="http://www.w3.org/1999/02/22-rdf-syntax-ns#">
   <cc:Work>
    <dc:type rdf:resource="http://purl.org/dc/dcmitype/StillImage"/>
    <dc:date>2026-05-07T20:19:58.250984</dc:date>
    <dc:format>image/svg+xml</dc:format>
    <dc:creator>
     <cc:Agent>
      <dc:title>Matplotlib v3.10.9, https://matplotlib.org/</dc:title>
     </cc:Agent>
    </dc:creator>
   </cc:Work>
  </rdf:RDF>
 </metadata>
 <defs>
  <style type="text/css">*{stroke-linejoin: round; stroke-linecap: butt}</style>
 </defs>
 <g id="figure_1">
  <g id="patch_1">
   <path d="M 0 336.952971 
L 169.92 336.952971 
L 169.92 0 
L 0 0 
L 0 336.952971 
z
" style="fill: none"/>
  </g>
  <g id="axes_1">
   <g id="patch_2">
    <path d="M 28.238254 111.932188 
C 32.997122 111.932188 37.56172 110.04147 40.926749 106.676442 
C 44.291777 103.311414 46.182495 98.746815 46.182495 93.987947 
C 46.182495 89.229079 44.291777 84.664481 40.926749 81.299453 
C 37.56172 77.934424 32.997122 76.043706 28.238254 76.043706 
C 23.479386 76.043706 18.914788 77.934424 15.549759 81.299453 
C 12.184731 84.664481 10.294013 89.229079 10.294013 93.987947 
C 10.294013 98.746815 12.184731 103.311414 15.549759 106.676442 
C 18.914788 110.04147 23.479386 111.932188 28.238254 111.932188 
L 28.238254 111.932188 
z
" clip-path="url(#p25d333c9be)" style="fill: none; stroke: #000000; stroke-width: 2; stroke-linejoin: miter"/>
   </g>
   <g id="patch_3">
    <path d="M 144.875821 231.261391 
L 135.9037 243.82236 
L 126.93158 231.261391 
L 144.875821 231.261391 
z
" clip-path="url(#p25d333c9be)" style="fill: none; stroke: #000000; stroke-width: 2; stroke-linecap: round"/>
   </g>
   <g id="line2d_1">
    <path d="M 28.238254 165.764911 
L 28.238254 111.932188 
L 28.238254 111.932188 
M 28.238254 76.043706 
L 28.238254 76.043706 
L 28.238254 22.210983 
" clip-path="url(#p25d333c9be)" style="fill: none; stroke: #000000; stroke-width: 2; stroke-linecap: round"/>
   </g>
   <g id="line2d_2">
    <path d="M 24.649406 85.015827 
L 31.827102 85.015827 
" clip-path="url(#p25d333c9be)" style="fill: none; stroke: #000000; stroke-width: 2; stroke-linecap: round"/>
   </g>
   <g id="line2d_3">
    <path d="M 28.238254 106.548916 
L 28.238254 99.371219 
" clip-path="url(#p25d333c9be)" style="fill: none; stroke: #000000; stroke-width: 2; stroke-linecap: round"/>
   </g>
   <g id="line2d_4">
    <path d="M 24.649406 102.960068 
L 31.827102 102.960068 
" clip-path="url(#p25d333c9be)" style="fill: none; stroke: #000000; stroke-width: 2; stroke-linecap: round"/>
   </g>
   <g id="line2d_5">
    <path d="M 28.238254 22.210983 
L 82.070977 22.210983 
L 135.9037 22.210983 
" clip-path="url(#p25d333c9be)" style="fill: none; stroke: #000000; stroke-width: 2; stroke-linecap: round"/>
   </g>
   <g id="line2d_6">
    <path d="M 135.9037 22.210983 
L 135.9037 76.043706 
L 144.875821 79.034413 
L 126.93158 85.015827 
L 144.875821 90.99724 
L 126.93158 96.978654 
L 144.875821 102.960068 
L 126.93158 108.941481 
L 135.9037 111.932188 
L 135.9037 165.764911 
" clip-path="url(#p25d333c9be)" style="fill: none; stroke: #000000; stroke-width: 2; stroke-linecap: round"/>
   </g>
   <g id="line2d_7">
    <path d="M 135.9037 165.764911 
L 135.9037 231.261391 
M 144.875821 243.82236 
L 126.93158 243.82236 
M 135.9037 243.82236 
L 135.9037 309.31884 
" clip-path="url(#p25d333c9be)" style="fill: none; stroke: #000000; stroke-width: 2; stroke-linecap: round"/>
   </g>
   <g id="line2d_8">
    <path d="M 135.9037 309.31884 
L 135.9037 323.674233 
L 126.93158 323.674233 
L 144.875821 323.674233 
M 129.623216 327.98085 
L 142.184185 327.98085 
M 134.109276 332.287468 
L 137.698124 332.287468 
" clip-path="url(#p25d333c9be)" style="fill: none; stroke: #000000; stroke-width: 2; stroke-linecap: round"/>
   </g>
   <g id="line2d_9">
    <path d="M 135.9037 309.31884 
L 82.070977 309.31884 
L 28.238254 309.31884 
" clip-path="url(#p25d333c9be)" style="fill: none; stroke: #000000; stroke-width: 2; stroke-linecap: round"/>
   </g>
   <g id="line2d_10">
    <path d="M 28.238254 309.31884 
L 28.238254 237.541876 
L 28.238254 165.764911 
" clip-path="url(#p25d333c9be)" style="fill: none; stroke: #000000; stroke-width: 2; stroke-linecap: round"/>
   </g>
   <g id="text_1">
    <!-- $V_1 = 5V$ -->
    <g transform="translate(2.268254 179.991572) scale(0.14 -0.14)">
     <defs>
      <path id="DejaVuSans-Oblique-56" d="M 1319 0 
L 500 4666 
L 1119 4666 
L 1797 653 
L 4063 4666 
L 4750 4666 
L 2053 0 
L 1319 0 
z
" transform="scale(0.015625)"/>
      <path id="DejaVuSans-31" d="M 794 531 
L 1825 531 
L 1825 4091 
L 703 3866 
L 703 4441 
L 1819 4666 
L 2450 4666 
L 2450 531 
L 3481 531 
L 3481 0 
L 794 0 
L 794 531 
z
" transform="scale(0.015625)"/>
      <path id="DejaVuSans-3d" d="M 678 2906 
L 4684 2906 
L 4684 2381 
L 678 2381 
L 678 2906 
z
M 678 1631 
L 4684 1631 
L 4684 1100 
L 678 1100 
L 678 1631 
z
" transform="scale(0.015625)"/>
      <path id="DejaVuSans-35" d="M 691 4666 
L 3169 4666 
L 3169 4134 
L 1269 4134 
L 1269 2991 
Q 1406 3038 1543 3061 
Q 1681 3084 1819 3084 
Q 2600 3084 3056 2656 
Q 3513 2228 3513 1497 
Q 3513 744 3044 326 
Q 2575 -91 1722 -91 
Q 1428 -91 1123 -41 
Q 819 9 494 109 
L 494 744 
Q 775 591 1075 516 
Q 1375 441 1709 441 
Q 2250 441 2565 725 
Q 2881 1009 2881 1497 
Q 2881 1984 2565 2268 
Q 2250 2553 1709 2553 
Q 1456 2553 1204 2497 
Q 953 2441 691 2322 
L 691 4666 
z
" transform="scale(0.015625)"/>
     </defs>
     <use xlink:href="#DejaVuSans-Oblique-56" transform="translate(0 0.09375)"/>
     <use xlink:href="#DejaVuSans-31" transform="translate(68.408203 -16.3125) scale(0.7)"/>
     <use xlink:href="#DejaVuSans-3d" transform="translate(135.161133 0.09375)"/>
     <use xlink:href="#DejaVuSans-35" transform="translate(238.432617 0.09375)"/>
     <use xlink:href="#DejaVuSans-Oblique-56" transform="translate(302.055664 0.09375)"/>
    </g>
   </g>
   <g id="text_2">
    <!-- $R = 1\,k\Omega$ -->
    <g transform="translate(107.4137 15.710572) scale(0.14 -0.14)">
     <defs>
      <path id="DejaVuSans-Oblique-52" d="M 1613 4147 
L 1294 2491 
L 2106 2491 
Q 2584 2491 2879 2755 
Q 3175 3019 3175 3444 
Q 3175 3784 2976 3965 
Q 2778 4147 2406 4147 
L 1613 4147 
z
M 2772 2241 
Q 2972 2194 3105 2009 
Q 3238 1825 3413 1275 
L 3809 0 
L 3144 0 
L 2778 1197 
Q 2638 1659 2453 1815 
Q 2269 1972 1888 1972 
L 1191 1972 
L 806 0 
L 172 0 
L 1081 4666 
L 2503 4666 
Q 3150 4666 3495 4373 
Q 3841 4081 3841 3531 
Q 3841 3044 3547 2687 
Q 3253 2331 2772 2241 
z
" transform="scale(0.015625)"/>
      <path id="DejaVuSans-Oblique-6b" d="M 1172 4863 
L 1747 4863 
L 1197 2028 
L 3169 3500 
L 3916 3500 
L 1716 1825 
L 3322 0 
L 2625 0 
L 1131 1709 
L 800 0 
L 225 0 
L 1172 4863 
z
" transform="scale(0.015625)"/>
      <path id="DejaVuSans-3a9" d="M 4647 556 
L 4647 0 
L 2772 0 
L 2772 556 
Q 3325 859 3634 1378 
Q 3944 1897 3944 2528 
Q 3944 3278 3531 3731 
Q 3119 4184 2444 4184 
Q 1769 4184 1355 3729 
Q 941 3275 941 2528 
Q 941 1897 1250 1378 
Q 1563 859 2119 556 
L 2119 0 
L 244 0 
L 244 556 
L 1241 556 
Q 747 991 519 1456 
Q 294 1922 294 2497 
Q 294 3491 894 4106 
Q 1491 4722 2444 4722 
Q 3391 4722 3994 4106 
Q 4594 3494 4594 2528 
Q 4594 1922 4372 1459 
Q 4150 997 3647 556 
L 4647 556 
z
" transform="scale(0.015625)"/>
     </defs>
     <use xlink:href="#DejaVuSans-Oblique-52" transform="translate(0 0.015625)"/>
     <use xlink:href="#DejaVuSans-3d" transform="translate(88.964844 0.015625)"/>
     <use xlink:href="#DejaVuSans-31" transform="translate(192.236328 0.015625)"/>
     <use xlink:href="#DejaVuSans-Oblique-6b" transform="translate(272.095051 0.015625)"/>
     <use xlink:href="#DejaVuSans-3a9" transform="translate(330.005208 0.015625)"/>
    </g>
   </g>
   <g id="text_3">
    <!-- $D$ -->
    <g transform="translate(130.4437 159.264501) scale(0.14 -0.14)">
     <defs>
      <path id="DejaVuSans-Oblique-44" d="M 1081 4666 
L 2438 4666 
Q 3519 4666 4070 4208 
Q 4622 3750 4622 2847 
Q 4622 2250 4412 1698 
Q 4203 1147 3834 769 
Q 3463 381 2891 190 
Q 2319 0 1538 0 
L 172 0 
L 1081 4666 
z
M 1613 4147 
L 909 519 
L 1734 519 
Q 2794 519 3375 1128 
Q 3956 1738 3956 2847 
Q 3956 3519 3581 3833 
Q 3206 4147 2406 4147 
L 1613 4147 
z
" transform="scale(0.015625)"/>
     </defs>
     <use xlink:href="#DejaVuSans-Oblique-44" transform="translate(0 0.09375)"/>
    </g>
   </g>
   <g id="patch_4">
    <path d="M 135.9037 24.902619 
C 136.617531 24.902619 137.30222 24.619011 137.806975 24.114257 
C 138.311729 23.609503 138.595337 22.924813 138.595337 22.210983 
C 138.595337 21.497153 138.311729 20.812463 137.806975 20.307709 
C 137.30222 19.802954 136.617531 19.519347 135.9037 19.519347 
C 135.18987 19.519347 134.50518 19.802954 134.000426 20.307709 
C 133.495672 20.812463 133.212064 21.497153 133.212064 22.210983 
C 133.212064 22.924813 133.495672 23.609503 134.000426 24.114257 
C 134.50518 24.619011 135.18987 24.902619 135.9037 24.902619 
z
" clip-path="url(#p25d333c9be)" style="stroke: #000000; stroke-width: 2; stroke-linejoin: miter"/>
   </g>
   <g id="text_4">
    <!-- 1 -->
    <g transform="translate(142.184185 26.074108) scale(0.14 -0.14)">
     <use xlink:href="#DejaVuSans-31"/>
    </g>
   </g>
   <g id="patch_5">
    <path d="M 135.9037 168.456547 
C 136.617531 168.456547 137.30222 168.17294 137.806975 167.668185 
C 138.311729 167.163431 138.595337 166.478742 138.595337 165.764911 
C 138.595337 165.051081 138.311729 164.366391 137.806975 163.861637 
C 137.30222 163.356883 136.617531 163.073275 135.9037 163.073275 
C 135.18987 163.073275 134.50518 163.356883 134.000426 163.861637 
C 133.495672 164.366391 133.212064 165.051081 133.212064 165.764911 
C 133.212064 166.478742 133.495672 167.163431 134.000426 167.668185 
C 134.50518 168.17294 135.18987 168.456547 135.9037 168.456547 
z
" clip-path="url(#p25d333c9be)" style="stroke: #000000; stroke-width: 2; stroke-linejoin: miter"/>
   </g>
   <g id="text_5">
    <!-- 2 -->
    <g transform="translate(142.184185 169.628036) scale(0.14 -0.14)">
     <defs>
      <path id="DejaVuSans-32" d="M 1228 531 
L 3431 531 
L 3431 0 
L 469 0 
L 469 531 
Q 828 903 1448 1529 
Q 2069 2156 2228 2338 
Q 2531 2678 2651 2914 
Q 2772 3150 2772 3378 
Q 2772 3750 2511 3984 
Q 2250 4219 1831 4219 
Q 1534 4219 1204 4116 
Q 875 4013 500 3803 
L 500 4441 
Q 881 4594 1212 4672 
Q 1544 4750 1819 4750 
Q 2544 4750 2975 4387 
Q 3406 4025 3406 3419 
Q 3406 3131 3298 2873 
Q 3191 2616 2906 2266 
Q 2828 2175 2409 1742 
Q 1991 1309 1228 531 
z
" transform="scale(0.015625)"/>
     </defs>
     <use xlink:href="#DejaVuSans-32"/>
    </g>
   </g>
  </g>
 </g>
 <defs>
  <clipPath id="p25d333c9be">
   <rect x="0" y="-0" width="169.92" height="336.952971"/>
  </clipPath>
 </defs>
</svg>
