<?xml version="1.0" encoding="utf-8" standalone="no"?>
<!DOCTYPE svg PUBLIC "-//W3C//DTD SVG 1.1//EN"
  "http://www.w3.org/Graphics/SVG/1.1/DTD/svg11.dtd">
<svg xmlns:xlink="http://www.w3.org/1999/xlink" width="192.96pt" height="157.641384pt" viewBox="0 0 192.96 157.641384" xmlns="http://www.w3.org/2000/svg" version="1.1">
 <metadata>
  <rdf:RDF xmlns:dc="http://purl.org/dc/elements/1.1/" xmlns:cc="http://creativecommons.org/ns#" xmlns:rdf="http://www.w3.org/1999/02/22-rdf-syntax-ns#">
   <cc:Work>
    <dc:type rdf:resource="http://purl.org/dc/dcmitype/StillImage"/>
    <dc:date>2026-05-07T20:20:13.384907</dc:date>
    <dc:format>image/svg+xml</dc:format>
    <dc:creator>
     <cc:Agent>
      <dc:title>Matplotlib v3.10.9, https://matplotlib.org/</dc:title>
     </cc:Agent>
    </dc:creator>
   </cc:Work>
  </rdf:RDF>
 </metadata>
 <defs>
  <style type="text/css">*{stroke-linejoin: round; stroke-linecap: butt}</style>
 </defs>
 <g id="figure_1">
  <g id="patch_1">
   <path d="M 0 157.641384 
L 192.96 157.641384 
L 192.96 0 
L 0 0 
L 0 157.641384 
z
" style="fill: none"/>
  </g>
  <g id="axes_1">
   <g id="patch_2">
    <path d="M 170.325747 96.784385 
C 175.089774 96.784385 179.65932 94.891617 183.027996 91.522941 
C 186.396672 88.154265 188.28944 83.584719 188.28944 78.820692 
C 188.28944 74.056665 186.396672 69.487119 183.027996 66.118443 
C 179.65932 62.749767 175.089774 60.856999 170.325747 60.856999 
C 165.56172 60.856999 160.992174 62.749767 157.623498 66.118443 
C 154.254822 69.487119 152.362054 74.056665 152.362054 78.820692 
C 152.362054 83.584719 154.254822 88.154265 157.623498 91.522941 
C 160.992174 94.891617 165.56172 96.784385 170.325747 96.784385 
L 170.325747 96.784385 
z
" clip-path="url(#p97fc0666ca)" style="fill: none; stroke: #000000; stroke-width: 2; stroke-linejoin: miter"/>
   </g>
   <g id="line2d_1">
    <path d="M 8.652512 24.929614 
L 35.598051 24.929614 
L 62.54359 24.929614 
" clip-path="url(#p97fc0666ca)" style="fill: none; stroke: #000000; stroke-width: 2; stroke-linecap: round"/>
   </g>
   <g id="line2d_2">
    <path d="M 62.54359 24.929614 
L 62.54359 60.856999 
L 71.525437 63.850948 
L 53.561744 69.838846 
L 71.525437 75.826743 
L 53.561744 81.814641 
L 71.525437 87.802538 
L 53.561744 93.790436 
L 62.54359 96.784385 
L 62.54359 132.71177 
" clip-path="url(#p97fc0666ca)" style="fill: none; stroke: #000000; stroke-width: 2; stroke-linecap: round"/>
   </g>
   <g id="line2d_3">
    <path d="M 62.54359 24.929614 
L 116.434669 24.929614 
L 170.325747 24.929614 
" clip-path="url(#p97fc0666ca)" style="fill: none; stroke: #000000; stroke-width: 2; stroke-linecap: round"/>
   </g>
   <g id="line2d_4">
    <path d="M 170.325747 24.929614 
L 170.325747 60.856999 
L 170.325747 60.856999 
M 170.325747 96.784385 
L 170.325747 96.784385 
L 170.325747 132.71177 
" clip-path="url(#p97fc0666ca)" style="fill: none; stroke: #000000; stroke-width: 2; stroke-linecap: round"/>
   </g>
   <g id="line2d_5">
    <path d="M 170.325747 69.838846 
L 170.325747 78.820692 
" clip-path="url(#p97fc0666ca)" style="fill: none; stroke: #000000; stroke-width: 2; stroke-linecap: round"/>
   </g>
   <g id="patch_3">
    <path d="M 173.020301 78.820692 
L 170.325747 87.802538 
L 167.631193 78.820692 
z
" clip-path="url(#p97fc0666ca)"/>
   </g>
   <g id="line2d_6">
    <path d="M 170.325747 132.71177 
L 116.434669 132.71177 
L 62.54359 132.71177 
" clip-path="url(#p97fc0666ca)" style="fill: none; stroke: #000000; stroke-width: 2; stroke-linecap: round"/>
   </g>
   <g id="text_1">
    <!-- $G_{eq}$ -->
    <g transform="translate(50.78359 16.996875) scale(0.14 -0.14)">
     <defs>
      <path id="DejaVuSans-Oblique-47" d="M 3494 697 
L 3738 1919 
L 2700 1919 
L 2797 2438 
L 4453 2438 
L 4050 384 
Q 3634 156 3143 32 
Q 2653 -91 2156 -91 
Q 1278 -91 783 396 
Q 288 884 288 1753 
Q 288 2475 589 3126 
Q 891 3778 1422 4213 
Q 1756 4484 2153 4617 
Q 2550 4750 3034 4750 
Q 3472 4750 3873 4639 
Q 4275 4528 4641 4306 
L 4513 3634 
Q 4231 3928 3853 4083 
Q 3475 4238 3047 4238 
Q 2550 4238 2172 4048 
Q 1794 3859 1497 3463 
Q 1244 3125 1098 2667 
Q 953 2209 953 1734 
Q 953 1081 1287 751 
Q 1622 422 2284 422 
Q 2616 422 2925 492 
Q 3234 563 3494 697 
z
" transform="scale(0.015625)"/>
      <path id="DejaVuSans-Oblique-65" d="M 3078 2063 
Q 3088 2113 3092 2166 
Q 3097 2219 3097 2272 
Q 3097 2653 2873 2875 
Q 2650 3097 2266 3097 
Q 1838 3097 1509 2826 
Q 1181 2556 1013 2059 
L 3078 2063 
z
M 3578 1613 
L 903 1613 
Q 884 1494 878 1425 
Q 872 1356 872 1306 
Q 872 872 1139 634 
Q 1406 397 1894 397 
Q 2269 397 2603 481 
Q 2938 566 3225 728 
L 3116 159 
Q 2806 34 2476 -28 
Q 2147 -91 1806 -91 
Q 1078 -91 686 257 
Q 294 606 294 1247 
Q 294 1794 489 2264 
Q 684 2734 1063 3103 
Q 1306 3334 1642 3459 
Q 1978 3584 2356 3584 
Q 2950 3584 3301 3228 
Q 3653 2872 3653 2272 
Q 3653 2128 3634 1964 
Q 3616 1800 3578 1613 
z
" transform="scale(0.015625)"/>
      <path id="DejaVuSans-Oblique-71" d="M 2669 525 
Q 2438 222 2123 65 
Q 1809 -91 1428 -91 
Q 897 -91 595 267 
Q 294 625 294 1253 
Q 294 1759 480 2231 
Q 666 2703 1013 3078 
Q 1238 3322 1530 3453 
Q 1822 3584 2144 3584 
Q 2531 3584 2781 3431 
Q 3031 3278 3144 2969 
L 3244 3494 
L 3822 3494 
L 2888 -1319 
L 2309 -1319 
L 2669 525 
z
M 891 1338 
Q 891 875 1084 633 
Q 1278 391 1644 391 
Q 2188 391 2572 911 
Q 2956 1431 2956 2175 
Q 2956 2625 2757 2864 
Q 2559 3103 2188 3103 
Q 1916 3103 1684 2976 
Q 1453 2850 1281 2606 
Q 1100 2350 995 2006 
Q 891 1663 891 1338 
z
" transform="scale(0.015625)"/>
     </defs>
     <use xlink:href="#DejaVuSans-Oblique-47" transform="translate(0 0.78125)"/>
     <use xlink:href="#DejaVuSans-Oblique-65" transform="translate(77.490234 -15.625) scale(0.7)"/>
     <use xlink:href="#DejaVuSans-Oblique-71" transform="translate(120.556641 -15.625) scale(0.7)"/>
    </g>
   </g>
   <g id="text_2">
    <!-- $I_{eq}$ -->
    <g transform="translate(161.925747 16.996875) scale(0.14 -0.14)">
     <defs>
      <path id="DejaVuSans-Oblique-49" d="M 1081 4666 
L 1716 4666 
L 806 0 
L 172 0 
L 1081 4666 
z
" transform="scale(0.015625)"/>
     </defs>
     <use xlink:href="#DejaVuSans-Oblique-49" transform="translate(0 0.09375)"/>
     <use xlink:href="#DejaVuSans-Oblique-65" transform="translate(29.492188 -16.3125) scale(0.7)"/>
     <use xlink:href="#DejaVuSans-Oblique-71" transform="translate(72.558594 -16.3125) scale(0.7)"/>
    </g>
   </g>
   <g id="patch_4">
    <path d="M 8.652512 27.624168 
C 9.367116 27.624168 10.052548 27.340252 10.557849 26.834951 
C 11.063151 26.32965 11.347066 25.644218 11.347066 24.929614 
C 11.347066 24.21501 11.063151 23.529578 10.557849 23.024276 
C 10.052548 22.518975 9.367116 22.23506 8.652512 22.23506 
C 7.937908 22.23506 7.252476 22.518975 6.747175 23.024276 
C 6.241873 23.529578 5.957958 24.21501 5.957958 24.929614 
C 5.957958 25.644218 6.241873 26.32965 6.747175 26.834951 
C 7.252476 27.340252 7.937908 27.624168 8.652512 27.624168 
z
" clip-path="url(#p97fc0666ca)" style="fill: #ffffff; stroke: #000000; stroke-width: 2; stroke-linejoin: miter"/>
   </g>
   <g id="text_3">
    <!-- a -->
    <g transform="translate(4.362825 15.730759) scale(0.14 -0.14)">
     <defs>
      <path id="DejaVuSans-61" d="M 2194 1759 
Q 1497 1759 1228 1600 
Q 959 1441 959 1056 
Q 959 750 1161 570 
Q 1363 391 1709 391 
Q 2188 391 2477 730 
Q 2766 1069 2766 1631 
L 2766 1759 
L 2194 1759 
z
M 3341 1997 
L 3341 0 
L 2766 0 
L 2766 531 
Q 2569 213 2275 61 
Q 1981 -91 1556 -91 
Q 1019 -91 701 211 
Q 384 513 384 1019 
Q 384 1609 779 1909 
Q 1175 2209 1959 2209 
L 2766 2209 
L 2766 2266 
Q 2766 2663 2505 2880 
Q 2244 3097 1772 3097 
Q 1472 3097 1187 3025 
Q 903 2953 641 2809 
L 641 3341 
Q 956 3463 1253 3523 
Q 1550 3584 1831 3584 
Q 2591 3584 2966 3190 
Q 3341 2797 3341 1997 
z
" transform="scale(0.015625)"/>
     </defs>
     <use xlink:href="#DejaVuSans-61"/>
    </g>
   </g>
   <g id="patch_5">
    <path d="M 62.54359 135.406324 
C 63.258194 135.406324 63.943626 135.122409 64.448928 134.617108 
C 64.954229 134.111806 65.238144 133.426374 65.238144 132.71177 
C 65.238144 131.997166 64.954229 131.311734 64.448928 130.806433 
C 63.943626 130.301132 63.258194 130.017216 62.54359 130.017216 
C 61.828986 130.017216 61.143554 130.301132 60.638253 130.806433 
C 60.132952 131.311734 59.849036 131.997166 59.849036 132.71177 
C 59.849036 133.426374 60.132952 134.111806 60.638253 134.617108 
C 61.143554 135.122409 61.828986 135.406324 62.54359 135.406324 
z
" clip-path="url(#p97fc0666ca)" style="fill: #ffffff; stroke: #000000; stroke-width: 2; stroke-linejoin: miter"/>
   </g>
   <g id="text_4">
    <!-- b -->
    <g transform="translate(58.099684 149.636875) scale(0.14 -0.14)">
     <defs>
      <path id="DejaVuSans-62" d="M 3116 1747 
Q 3116 2381 2855 2742 
Q 2594 3103 2138 3103 
Q 1681 3103 1420 2742 
Q 1159 2381 1159 1747 
Q 1159 1113 1420 752 
Q 1681 391 2138 391 
Q 2594 391 2855 752 
Q 3116 1113 3116 1747 
z
M 1159 2969 
Q 1341 3281 1617 3432 
Q 1894 3584 2278 3584 
Q 2916 3584 3314 3078 
Q 3713 2572 3713 1747 
Q 3713 922 3314 415 
Q 2916 -91 2278 -91 
Q 1894 -91 1617 61 
Q 1341 213 1159 525 
L 1159 0 
L 581 0 
L 581 4863 
L 1159 4863 
L 1159 2969 
z
" transform="scale(0.015625)"/>
     </defs>
     <use xlink:href="#DejaVuSans-62"/>
    </g>
   </g>
  </g>
 </g>
 <defs>
  <clipPath id="p97fc0666ca">
   <rect x="0" y="-0" width="192.96" height="157.641384"/>
  </clipPath>
 </defs>
</svg>
