<?xml version="1.0" encoding="utf-8" standalone="no"?>
<!DOCTYPE svg PUBLIC "-//W3C//DTD SVG 1.1//EN"
  "http://www.w3.org/Graphics/SVG/1.1/DTD/svg11.dtd">
<svg xmlns:xlink="http://www.w3.org/1999/xlink" width="504pt" height="288pt" viewBox="0 0 504 288" xmlns="http://www.w3.org/2000/svg" version="1.1">
 <metadata>
  <rdf:RDF xmlns:dc="http://purl.org/dc/elements/1.1/" xmlns:cc="http://creativecommons.org/ns#" xmlns:rdf="http://www.w3.org/1999/02/22-rdf-syntax-ns#">
   <cc:Work>
    <dc:type rdf:resource="http://purl.org/dc/dcmitype/StillImage"/>
    <dc:date>2026-05-07T20:24:21.648319</dc:date>
    <dc:format>image/svg+xml</dc:format>
    <dc:creator>
     <cc:Agent>
      <dc:title>Matplotlib v3.10.9, https://matplotlib.org/</dc:title>
     </cc:Agent>
    </dc:creator>
   </cc:Work>
  </rdf:RDF>
 </metadata>
 <defs>
  <style type="text/css">*{stroke-linejoin: round; stroke-linecap: butt}</style>
 </defs>
 <g id="figure_1">
  <g id="patch_1">
   <path d="M 0 288 
L 504 288 
L 504 0 
L 0 0 
z
" style="fill: #ffffff"/>
  </g>
  <g id="axes_1">
   <g id="patch_2">
    <path d="M 57.17 237.04 
L 489.96 237.04 
L 489.96 31.56 
L 57.17 31.56 
z
" style="fill: #ffffff"/>
   </g>
   <g id="matplotlib.axis_1">
    <g id="xtick_1">
     <g id="line2d_1">
      <path d="M 76.842273 237.04 
L 76.842273 31.56 
" clip-path="url(#p21bb69b0c7)" style="fill: none; stroke: #b0b0b0; stroke-opacity: 0.3; stroke-width: 0.8; stroke-linecap: square"/>
     </g>
     <g id="line2d_2">
      <defs>
       <path id="m02bee21a41" d="M 0 0 
L 0 3.5 
" style="stroke: #000000; stroke-width: 0.8"/>
      </defs>
      <g>
       <use xlink:href="#m02bee21a41" x="76.842273" y="237.04" style="stroke: #000000; stroke-width: 0.8"/>
      </g>
     </g>
     <g id="text_1">
      <!-- 0 -->
      <g transform="translate(72.706648 253.917969) scale(0.13 -0.13)">
       <defs>
        <path id="DejaVuSans-30" d="M 2034 4250 
Q 1547 4250 1301 3770 
Q 1056 3291 1056 2328 
Q 1056 1369 1301 889 
Q 1547 409 2034 409 
Q 2525 409 2770 889 
Q 3016 1369 3016 2328 
Q 3016 3291 2770 3770 
Q 2525 4250 2034 4250 
z
M 2034 4750 
Q 2819 4750 3233 4129 
Q 3647 3509 3647 2328 
Q 3647 1150 3233 529 
Q 2819 -91 2034 -91 
Q 1250 -91 836 529 
Q 422 1150 422 2328 
Q 422 3509 836 4129 
Q 1250 4750 2034 4750 
z
" transform="scale(0.015625)"/>
       </defs>
       <use xlink:href="#DejaVuSans-30"/>
      </g>
     </g>
    </g>
    <g id="xtick_2">
     <g id="line2d_3">
      <path d="M 142.416515 237.04 
L 142.416515 31.56 
" clip-path="url(#p21bb69b0c7)" style="fill: none; stroke: #b0b0b0; stroke-opacity: 0.3; stroke-width: 0.8; stroke-linecap: square"/>
     </g>
     <g id="line2d_4">
      <g>
       <use xlink:href="#m02bee21a41" x="142.416515" y="237.04" style="stroke: #000000; stroke-width: 0.8"/>
      </g>
     </g>
     <g id="text_2">
      <!-- 2 -->
      <g transform="translate(138.28089 253.917969) scale(0.13 -0.13)">
       <defs>
        <path id="DejaVuSans-32" d="M 1228 531 
L 3431 531 
L 3431 0 
L 469 0 
L 469 531 
Q 828 903 1448 1529 
Q 2069 2156 2228 2338 
Q 2531 2678 2651 2914 
Q 2772 3150 2772 3378 
Q 2772 3750 2511 3984 
Q 2250 4219 1831 4219 
Q 1534 4219 1204 4116 
Q 875 4013 500 3803 
L 500 4441 
Q 881 4594 1212 4672 
Q 1544 4750 1819 4750 
Q 2544 4750 2975 4387 
Q 3406 4025 3406 3419 
Q 3406 3131 3298 2873 
Q 3191 2616 2906 2266 
Q 2828 2175 2409 1742 
Q 1991 1309 1228 531 
z
" transform="scale(0.015625)"/>
       </defs>
       <use xlink:href="#DejaVuSans-32"/>
      </g>
     </g>
    </g>
    <g id="xtick_3">
     <g id="line2d_5">
      <path d="M 207.990758 237.04 
L 207.990758 31.56 
" clip-path="url(#p21bb69b0c7)" style="fill: none; stroke: #b0b0b0; stroke-opacity: 0.3; stroke-width: 0.8; stroke-linecap: square"/>
     </g>
     <g id="line2d_6">
      <g>
       <use xlink:href="#m02bee21a41" x="207.990758" y="237.04" style="stroke: #000000; stroke-width: 0.8"/>
      </g>
     </g>
     <g id="text_3">
      <!-- 4 -->
      <g transform="translate(203.855133 253.917969) scale(0.13 -0.13)">
       <defs>
        <path id="DejaVuSans-34" d="M 2419 4116 
L 825 1625 
L 2419 1625 
L 2419 4116 
z
M 2253 4666 
L 3047 4666 
L 3047 1625 
L 3713 1625 
L 3713 1100 
L 3047 1100 
L 3047 0 
L 2419 0 
L 2419 1100 
L 313 1100 
L 313 1709 
L 2253 4666 
z
" transform="scale(0.015625)"/>
       </defs>
       <use xlink:href="#DejaVuSans-34"/>
      </g>
     </g>
    </g>
    <g id="xtick_4">
     <g id="line2d_7">
      <path d="M 273.565 237.04 
L 273.565 31.56 
" clip-path="url(#p21bb69b0c7)" style="fill: none; stroke: #b0b0b0; stroke-opacity: 0.3; stroke-width: 0.8; stroke-linecap: square"/>
     </g>
     <g id="line2d_8">
      <g>
       <use xlink:href="#m02bee21a41" x="273.565" y="237.04" style="stroke: #000000; stroke-width: 0.8"/>
      </g>
     </g>
     <g id="text_4">
      <!-- 6 -->
      <g transform="translate(269.429375 253.917969) scale(0.13 -0.13)">
       <defs>
        <path id="DejaVuSans-36" d="M 2113 2584 
Q 1688 2584 1439 2293 
Q 1191 2003 1191 1497 
Q 1191 994 1439 701 
Q 1688 409 2113 409 
Q 2538 409 2786 701 
Q 3034 994 3034 1497 
Q 3034 2003 2786 2293 
Q 2538 2584 2113 2584 
z
M 3366 4563 
L 3366 3988 
Q 3128 4100 2886 4159 
Q 2644 4219 2406 4219 
Q 1781 4219 1451 3797 
Q 1122 3375 1075 2522 
Q 1259 2794 1537 2939 
Q 1816 3084 2150 3084 
Q 2853 3084 3261 2657 
Q 3669 2231 3669 1497 
Q 3669 778 3244 343 
Q 2819 -91 2113 -91 
Q 1303 -91 875 529 
Q 447 1150 447 2328 
Q 447 3434 972 4092 
Q 1497 4750 2381 4750 
Q 2619 4750 2861 4703 
Q 3103 4656 3366 4563 
z
" transform="scale(0.015625)"/>
       </defs>
       <use xlink:href="#DejaVuSans-36"/>
      </g>
     </g>
    </g>
    <g id="xtick_5">
     <g id="line2d_9">
      <path d="M 339.139242 237.04 
L 339.139242 31.56 
" clip-path="url(#p21bb69b0c7)" style="fill: none; stroke: #b0b0b0; stroke-opacity: 0.3; stroke-width: 0.8; stroke-linecap: square"/>
     </g>
     <g id="line2d_10">
      <g>
       <use xlink:href="#m02bee21a41" x="339.139242" y="237.04" style="stroke: #000000; stroke-width: 0.8"/>
      </g>
     </g>
     <g id="text_5">
      <!-- 8 -->
      <g transform="translate(335.003617 253.917969) scale(0.13 -0.13)">
       <defs>
        <path id="DejaVuSans-38" d="M 2034 2216 
Q 1584 2216 1326 1975 
Q 1069 1734 1069 1313 
Q 1069 891 1326 650 
Q 1584 409 2034 409 
Q 2484 409 2743 651 
Q 3003 894 3003 1313 
Q 3003 1734 2745 1975 
Q 2488 2216 2034 2216 
z
M 1403 2484 
Q 997 2584 770 2862 
Q 544 3141 544 3541 
Q 544 4100 942 4425 
Q 1341 4750 2034 4750 
Q 2731 4750 3128 4425 
Q 3525 4100 3525 3541 
Q 3525 3141 3298 2862 
Q 3072 2584 2669 2484 
Q 3125 2378 3379 2068 
Q 3634 1759 3634 1313 
Q 3634 634 3220 271 
Q 2806 -91 2034 -91 
Q 1263 -91 848 271 
Q 434 634 434 1313 
Q 434 1759 690 2068 
Q 947 2378 1403 2484 
z
M 1172 3481 
Q 1172 3119 1398 2916 
Q 1625 2713 2034 2713 
Q 2441 2713 2670 2916 
Q 2900 3119 2900 3481 
Q 2900 3844 2670 4047 
Q 2441 4250 2034 4250 
Q 1625 4250 1398 4047 
Q 1172 3844 1172 3481 
z
" transform="scale(0.015625)"/>
       </defs>
       <use xlink:href="#DejaVuSans-38"/>
      </g>
     </g>
    </g>
    <g id="xtick_6">
     <g id="line2d_11">
      <path d="M 404.713485 237.04 
L 404.713485 31.56 
" clip-path="url(#p21bb69b0c7)" style="fill: none; stroke: #b0b0b0; stroke-opacity: 0.3; stroke-width: 0.8; stroke-linecap: square"/>
     </g>
     <g id="line2d_12">
      <g>
       <use xlink:href="#m02bee21a41" x="404.713485" y="237.04" style="stroke: #000000; stroke-width: 0.8"/>
      </g>
     </g>
     <g id="text_6">
      <!-- 10 -->
      <g transform="translate(396.442235 253.917969) scale(0.13 -0.13)">
       <defs>
        <path id="DejaVuSans-31" d="M 794 531 
L 1825 531 
L 1825 4091 
L 703 3866 
L 703 4441 
L 1819 4666 
L 2450 4666 
L 2450 531 
L 3481 531 
L 3481 0 
L 794 0 
L 794 531 
z
" transform="scale(0.015625)"/>
       </defs>
       <use xlink:href="#DejaVuSans-31"/>
       <use xlink:href="#DejaVuSans-30" transform="translate(63.623047 0)"/>
      </g>
     </g>
    </g>
    <g id="xtick_7">
     <g id="line2d_13">
      <path d="M 470.287727 237.04 
L 470.287727 31.56 
" clip-path="url(#p21bb69b0c7)" style="fill: none; stroke: #b0b0b0; stroke-opacity: 0.3; stroke-width: 0.8; stroke-linecap: square"/>
     </g>
     <g id="line2d_14">
      <g>
       <use xlink:href="#m02bee21a41" x="470.287727" y="237.04" style="stroke: #000000; stroke-width: 0.8"/>
      </g>
     </g>
     <g id="text_7">
      <!-- 12 -->
      <g transform="translate(462.016477 253.917969) scale(0.13 -0.13)">
       <use xlink:href="#DejaVuSans-31"/>
       <use xlink:href="#DejaVuSans-32" transform="translate(63.623047 0)"/>
      </g>
     </g>
    </g>
    <g id="text_8">
     <!-- t -->
     <g transform="translate(271.016797 270.499531) scale(0.13 -0.13)">
      <defs>
       <path id="DejaVuSans-74" d="M 1172 4494 
L 1172 3500 
L 2356 3500 
L 2356 3053 
L 1172 3053 
L 1172 1153 
Q 1172 725 1289 603 
Q 1406 481 1766 481 
L 2356 481 
L 2356 0 
L 1766 0 
Q 1100 0 847 248 
Q 594 497 594 1153 
L 594 3053 
L 172 3053 
L 172 3500 
L 594 3500 
L 594 4494 
L 1172 4494 
z
" transform="scale(0.015625)"/>
      </defs>
      <use xlink:href="#DejaVuSans-74"/>
     </g>
    </g>
   </g>
   <g id="matplotlib.axis_2">
    <g id="ytick_1">
     <g id="line2d_15">
      <path d="M 57.17 212.3824 
L 489.96 212.3824 
" clip-path="url(#p21bb69b0c7)" style="fill: none; stroke: #b0b0b0; stroke-opacity: 0.3; stroke-width: 0.8; stroke-linecap: square"/>
     </g>
     <g id="line2d_16">
      <defs>
       <path id="m72f98d4685" d="M 0 0 
L -3.5 0 
" style="stroke: #000000; stroke-width: 0.8"/>
      </defs>
      <g>
       <use xlink:href="#m72f98d4685" x="57.17" y="212.3824" style="stroke: #000000; stroke-width: 0.8"/>
      </g>
     </g>
     <g id="text_9">
      <!-- −4 -->
      <g transform="translate(31.005156 217.321384) scale(0.13 -0.13)">
       <defs>
        <path id="DejaVuSans-2212" d="M 678 2272 
L 4684 2272 
L 4684 1741 
L 678 1741 
L 678 2272 
z
" transform="scale(0.015625)"/>
       </defs>
       <use xlink:href="#DejaVuSans-2212"/>
       <use xlink:href="#DejaVuSans-34" transform="translate(83.789062 0)"/>
      </g>
     </g>
    </g>
    <g id="ytick_2">
     <g id="line2d_17">
      <path d="M 57.17 174.2752 
L 489.96 174.2752 
" clip-path="url(#p21bb69b0c7)" style="fill: none; stroke: #b0b0b0; stroke-opacity: 0.3; stroke-width: 0.8; stroke-linecap: square"/>
     </g>
     <g id="line2d_18">
      <g>
       <use xlink:href="#m72f98d4685" x="57.17" y="174.2752" style="stroke: #000000; stroke-width: 0.8"/>
      </g>
     </g>
     <g id="text_10">
      <!-- −2 -->
      <g transform="translate(31.005156 179.214184) scale(0.13 -0.13)">
       <use xlink:href="#DejaVuSans-2212"/>
       <use xlink:href="#DejaVuSans-32" transform="translate(83.789062 0)"/>
      </g>
     </g>
    </g>
    <g id="ytick_3">
     <g id="line2d_19">
      <path d="M 57.17 136.168 
L 489.96 136.168 
" clip-path="url(#p21bb69b0c7)" style="fill: none; stroke: #b0b0b0; stroke-opacity: 0.3; stroke-width: 0.8; stroke-linecap: square"/>
     </g>
     <g id="line2d_20">
      <g>
       <use xlink:href="#m72f98d4685" x="57.17" y="136.168" style="stroke: #000000; stroke-width: 0.8"/>
      </g>
     </g>
     <g id="text_11">
      <!-- 0 -->
      <g transform="translate(41.89875 141.106984) scale(0.13 -0.13)">
       <use xlink:href="#DejaVuSans-30"/>
      </g>
     </g>
    </g>
    <g id="ytick_4">
     <g id="line2d_21">
      <path d="M 57.17 98.0608 
L 489.96 98.0608 
" clip-path="url(#p21bb69b0c7)" style="fill: none; stroke: #b0b0b0; stroke-opacity: 0.3; stroke-width: 0.8; stroke-linecap: square"/>
     </g>
     <g id="line2d_22">
      <g>
       <use xlink:href="#m72f98d4685" x="57.17" y="98.0608" style="stroke: #000000; stroke-width: 0.8"/>
      </g>
     </g>
     <g id="text_12">
      <!-- 2 -->
      <g transform="translate(41.89875 102.999784) scale(0.13 -0.13)">
       <use xlink:href="#DejaVuSans-32"/>
      </g>
     </g>
    </g>
    <g id="ytick_5">
     <g id="line2d_23">
      <path d="M 57.17 59.9536 
L 489.96 59.9536 
" clip-path="url(#p21bb69b0c7)" style="fill: none; stroke: #b0b0b0; stroke-opacity: 0.3; stroke-width: 0.8; stroke-linecap: square"/>
     </g>
     <g id="line2d_24">
      <g>
       <use xlink:href="#m72f98d4685" x="57.17" y="59.9536" style="stroke: #000000; stroke-width: 0.8"/>
      </g>
     </g>
     <g id="text_13">
      <!-- 4 -->
      <g transform="translate(41.89875 64.892584) scale(0.13 -0.13)">
       <use xlink:href="#DejaVuSans-34"/>
      </g>
     </g>
    </g>
    <g id="text_14">
     <!-- v(t) -->
     <g transform="translate(24.301563 145.767422) rotate(-90) scale(0.13 -0.13)">
      <defs>
       <path id="DejaVuSans-76" d="M 191 3500 
L 800 3500 
L 1894 563 
L 2988 3500 
L 3597 3500 
L 2284 0 
L 1503 0 
L 191 3500 
z
" transform="scale(0.015625)"/>
       <path id="DejaVuSans-28" d="M 1984 4856 
Q 1566 4138 1362 3434 
Q 1159 2731 1159 2009 
Q 1159 1288 1364 580 
Q 1569 -128 1984 -844 
L 1484 -844 
Q 1016 -109 783 600 
Q 550 1309 550 2009 
Q 550 2706 781 3412 
Q 1013 4119 1484 4856 
L 1984 4856 
z
" transform="scale(0.015625)"/>
       <path id="DejaVuSans-29" d="M 513 4856 
L 1013 4856 
Q 1481 4119 1714 3412 
Q 1947 2706 1947 2009 
Q 1947 1309 1714 600 
Q 1481 -109 1013 -844 
L 513 -844 
Q 928 -128 1133 580 
Q 1338 1288 1338 2009 
Q 1338 2731 1133 3434 
Q 928 4138 513 4856 
z
" transform="scale(0.015625)"/>
      </defs>
      <use xlink:href="#DejaVuSans-76"/>
      <use xlink:href="#DejaVuSans-28" transform="translate(59.179688 0)"/>
      <use xlink:href="#DejaVuSans-74" transform="translate(98.193359 0)"/>
      <use xlink:href="#DejaVuSans-29" transform="translate(137.402344 0)"/>
     </g>
    </g>
   </g>
   <g id="line2d_25">
    <path d="M 76.842273 40.9 
L 77.630741 127.566949 
L 78.419208 135.391474 
L 79.207676 136.097893 
L 80.784612 136.167429 
L 249.516731 136.168 
L 470.287727 136.168 
L 470.287727 136.168 
" clip-path="url(#p21bb69b0c7)" style="fill: none; stroke: #000000; stroke-width: 2; stroke-linecap: square"/>
   </g>
   <g id="line2d_26">
    <path d="M 76.842273 40.9 
L 109.629394 227.7 
L 142.416515 48.22549 
L 175.203636 220.661784 
L 207.990758 54.987698 
L 240.777879 214.164761 
L 273.565 61.229936 
L 306.352121 208.167317 
L 339.139242 66.992186 
L 371.926364 202.631037 
L 404.713485 72.311356 
L 437.500606 197.520461 
L 470.287727 77.221517 
" clip-path="url(#p21bb69b0c7)" style="fill: none; stroke: #ff0000; stroke-width: 1.5; stroke-linecap: square"/>
    <defs>
     <path id="mefac4df143" d="M 0 3 
C 0.795609 3 1.55874 2.683901 2.12132 2.12132 
C 2.683901 1.55874 3 0.795609 3 0 
C 3 -0.795609 2.683901 -1.55874 2.12132 -2.12132 
C 1.55874 -2.683901 0.795609 -3 0 -3 
C -0.795609 -3 -1.55874 -2.683901 -2.12132 -2.12132 
C -2.683901 -1.55874 -3 -0.795609 -3 0 
C -3 0.795609 -2.683901 1.55874 -2.12132 2.12132 
C -1.55874 2.683901 -0.795609 3 0 3 
z
" style="stroke: #ff0000"/>
    </defs>
    <g clip-path="url(#p21bb69b0c7)">
     <use xlink:href="#mefac4df143" x="76.842273" y="40.9" style="fill: #ff0000; stroke: #ff0000"/>
     <use xlink:href="#mefac4df143" x="109.629394" y="227.7" style="fill: #ff0000; stroke: #ff0000"/>
     <use xlink:href="#mefac4df143" x="142.416515" y="48.22549" style="fill: #ff0000; stroke: #ff0000"/>
     <use xlink:href="#mefac4df143" x="175.203636" y="220.661784" style="fill: #ff0000; stroke: #ff0000"/>
     <use xlink:href="#mefac4df143" x="207.990758" y="54.987698" style="fill: #ff0000; stroke: #ff0000"/>
     <use xlink:href="#mefac4df143" x="240.777879" y="214.164761" style="fill: #ff0000; stroke: #ff0000"/>
     <use xlink:href="#mefac4df143" x="273.565" y="61.229936" style="fill: #ff0000; stroke: #ff0000"/>
     <use xlink:href="#mefac4df143" x="306.352121" y="208.167317" style="fill: #ff0000; stroke: #ff0000"/>
     <use xlink:href="#mefac4df143" x="339.139242" y="66.992186" style="fill: #ff0000; stroke: #ff0000"/>
     <use xlink:href="#mefac4df143" x="371.926364" y="202.631037" style="fill: #ff0000; stroke: #ff0000"/>
     <use xlink:href="#mefac4df143" x="404.713485" y="72.311356" style="fill: #ff0000; stroke: #ff0000"/>
     <use xlink:href="#mefac4df143" x="437.500606" y="197.520461" style="fill: #ff0000; stroke: #ff0000"/>
     <use xlink:href="#mefac4df143" x="470.287727" y="77.221517" style="fill: #ff0000; stroke: #ff0000"/>
    </g>
   </g>
   <g id="line2d_27">
    <path d="M 76.842273 40.9 
L 109.629394 135.224752 
L 142.416515 136.158661 
L 175.203636 136.167908 
L 207.990758 136.167999 
L 240.777879 136.168 
L 273.565 136.168 
L 306.352121 136.168 
L 339.139242 136.168 
L 371.926364 136.168 
L 404.713485 136.168 
L 437.500606 136.168 
L 470.287727 136.168 
" clip-path="url(#p21bb69b0c7)" style="fill: none; stroke: #008000; stroke-width: 1.5; stroke-linecap: square"/>
    <defs>
     <path id="mac5e22bd6d" d="M -3 3 
L 3 3 
L 3 -3 
L -3 -3 
z
" style="stroke: #008000; stroke-linejoin: miter"/>
    </defs>
    <g clip-path="url(#p21bb69b0c7)">
     <use xlink:href="#mac5e22bd6d" x="76.842273" y="40.9" style="fill: #008000; stroke: #008000; stroke-linejoin: miter"/>
     <use xlink:href="#mac5e22bd6d" x="109.629394" y="135.224752" style="fill: #008000; stroke: #008000; stroke-linejoin: miter"/>
     <use xlink:href="#mac5e22bd6d" x="142.416515" y="136.158661" style="fill: #008000; stroke: #008000; stroke-linejoin: miter"/>
     <use xlink:href="#mac5e22bd6d" x="175.203636" y="136.167908" style="fill: #008000; stroke: #008000; stroke-linejoin: miter"/>
     <use xlink:href="#mac5e22bd6d" x="207.990758" y="136.167999" style="fill: #008000; stroke: #008000; stroke-linejoin: miter"/>
     <use xlink:href="#mac5e22bd6d" x="240.777879" y="136.168" style="fill: #008000; stroke: #008000; stroke-linejoin: miter"/>
     <use xlink:href="#mac5e22bd6d" x="273.565" y="136.168" style="fill: #008000; stroke: #008000; stroke-linejoin: miter"/>
     <use xlink:href="#mac5e22bd6d" x="306.352121" y="136.168" style="fill: #008000; stroke: #008000; stroke-linejoin: miter"/>
     <use xlink:href="#mac5e22bd6d" x="339.139242" y="136.168" style="fill: #008000; stroke: #008000; stroke-linejoin: miter"/>
     <use xlink:href="#mac5e22bd6d" x="371.926364" y="136.168" style="fill: #008000; stroke: #008000; stroke-linejoin: miter"/>
     <use xlink:href="#mac5e22bd6d" x="404.713485" y="136.168" style="fill: #008000; stroke: #008000; stroke-linejoin: miter"/>
     <use xlink:href="#mac5e22bd6d" x="437.500606" y="136.168" style="fill: #008000; stroke: #008000; stroke-linejoin: miter"/>
     <use xlink:href="#mac5e22bd6d" x="470.287727" y="136.168" style="fill: #008000; stroke: #008000; stroke-linejoin: miter"/>
    </g>
   </g>
   <g id="line2d_28">
    <path d="M 57.17 136.168 
L 489.96 136.168 
" clip-path="url(#p21bb69b0c7)" style="fill: none; stroke: #000000; stroke-width: 0.5; stroke-linecap: square"/>
   </g>
   <g id="patch_3">
    <path d="M 57.17 237.04 
L 57.17 31.56 
" style="fill: none; stroke: #000000; stroke-width: 0.8; stroke-linejoin: miter; stroke-linecap: square"/>
   </g>
   <g id="patch_4">
    <path d="M 489.96 237.04 
L 489.96 31.56 
" style="fill: none; stroke: #000000; stroke-width: 0.8; stroke-linejoin: miter; stroke-linecap: square"/>
   </g>
   <g id="patch_5">
    <path d="M 57.17 237.04 
L 489.96 237.04 
" style="fill: none; stroke: #000000; stroke-width: 0.8; stroke-linejoin: miter; stroke-linecap: square"/>
   </g>
   <g id="patch_6">
    <path d="M 57.17 31.56 
L 489.96 31.56 
" style="fill: none; stroke: #000000; stroke-width: 0.8; stroke-linejoin: miter; stroke-linecap: square"/>
   </g>
   <g id="text_15">
    <!-- Oscylacje metody trapezów (równanie sztywne, h/τ &gt;&gt; 1) -->
    <g transform="translate(69.725 25.56) scale(0.14 -0.14)">
     <defs>
      <path id="DejaVuSans-4f" d="M 2522 4238 
Q 1834 4238 1429 3725 
Q 1025 3213 1025 2328 
Q 1025 1447 1429 934 
Q 1834 422 2522 422 
Q 3209 422 3611 934 
Q 4013 1447 4013 2328 
Q 4013 3213 3611 3725 
Q 3209 4238 2522 4238 
z
M 2522 4750 
Q 3503 4750 4090 4092 
Q 4678 3434 4678 2328 
Q 4678 1225 4090 567 
Q 3503 -91 2522 -91 
Q 1538 -91 948 565 
Q 359 1222 359 2328 
Q 359 3434 948 4092 
Q 1538 4750 2522 4750 
z
" transform="scale(0.015625)"/>
      <path id="DejaVuSans-73" d="M 2834 3397 
L 2834 2853 
Q 2591 2978 2328 3040 
Q 2066 3103 1784 3103 
Q 1356 3103 1142 2972 
Q 928 2841 928 2578 
Q 928 2378 1081 2264 
Q 1234 2150 1697 2047 
L 1894 2003 
Q 2506 1872 2764 1633 
Q 3022 1394 3022 966 
Q 3022 478 2636 193 
Q 2250 -91 1575 -91 
Q 1294 -91 989 -36 
Q 684 19 347 128 
L 347 722 
Q 666 556 975 473 
Q 1284 391 1588 391 
Q 1994 391 2212 530 
Q 2431 669 2431 922 
Q 2431 1156 2273 1281 
Q 2116 1406 1581 1522 
L 1381 1569 
Q 847 1681 609 1914 
Q 372 2147 372 2553 
Q 372 3047 722 3315 
Q 1072 3584 1716 3584 
Q 2034 3584 2315 3537 
Q 2597 3491 2834 3397 
z
" transform="scale(0.015625)"/>
      <path id="DejaVuSans-63" d="M 3122 3366 
L 3122 2828 
Q 2878 2963 2633 3030 
Q 2388 3097 2138 3097 
Q 1578 3097 1268 2742 
Q 959 2388 959 1747 
Q 959 1106 1268 751 
Q 1578 397 2138 397 
Q 2388 397 2633 464 
Q 2878 531 3122 666 
L 3122 134 
Q 2881 22 2623 -34 
Q 2366 -91 2075 -91 
Q 1284 -91 818 406 
Q 353 903 353 1747 
Q 353 2603 823 3093 
Q 1294 3584 2113 3584 
Q 2378 3584 2631 3529 
Q 2884 3475 3122 3366 
z
" transform="scale(0.015625)"/>
      <path id="DejaVuSans-79" d="M 2059 -325 
Q 1816 -950 1584 -1140 
Q 1353 -1331 966 -1331 
L 506 -1331 
L 506 -850 
L 844 -850 
Q 1081 -850 1212 -737 
Q 1344 -625 1503 -206 
L 1606 56 
L 191 3500 
L 800 3500 
L 1894 763 
L 2988 3500 
L 3597 3500 
L 2059 -325 
z
" transform="scale(0.015625)"/>
      <path id="DejaVuSans-6c" d="M 603 4863 
L 1178 4863 
L 1178 0 
L 603 0 
L 603 4863 
z
" transform="scale(0.015625)"/>
      <path id="DejaVuSans-61" d="M 2194 1759 
Q 1497 1759 1228 1600 
Q 959 1441 959 1056 
Q 959 750 1161 570 
Q 1363 391 1709 391 
Q 2188 391 2477 730 
Q 2766 1069 2766 1631 
L 2766 1759 
L 2194 1759 
z
M 3341 1997 
L 3341 0 
L 2766 0 
L 2766 531 
Q 2569 213 2275 61 
Q 1981 -91 1556 -91 
Q 1019 -91 701 211 
Q 384 513 384 1019 
Q 384 1609 779 1909 
Q 1175 2209 1959 2209 
L 2766 2209 
L 2766 2266 
Q 2766 2663 2505 2880 
Q 2244 3097 1772 3097 
Q 1472 3097 1187 3025 
Q 903 2953 641 2809 
L 641 3341 
Q 956 3463 1253 3523 
Q 1550 3584 1831 3584 
Q 2591 3584 2966 3190 
Q 3341 2797 3341 1997 
z
" transform="scale(0.015625)"/>
      <path id="DejaVuSans-6a" d="M 603 3500 
L 1178 3500 
L 1178 -63 
Q 1178 -731 923 -1031 
Q 669 -1331 103 -1331 
L -116 -1331 
L -116 -844 
L 38 -844 
Q 366 -844 484 -692 
Q 603 -541 603 -63 
L 603 3500 
z
M 603 4863 
L 1178 4863 
L 1178 4134 
L 603 4134 
L 603 4863 
z
" transform="scale(0.015625)"/>
      <path id="DejaVuSans-65" d="M 3597 1894 
L 3597 1613 
L 953 1613 
Q 991 1019 1311 708 
Q 1631 397 2203 397 
Q 2534 397 2845 478 
Q 3156 559 3463 722 
L 3463 178 
Q 3153 47 2828 -22 
Q 2503 -91 2169 -91 
Q 1331 -91 842 396 
Q 353 884 353 1716 
Q 353 2575 817 3079 
Q 1281 3584 2069 3584 
Q 2775 3584 3186 3129 
Q 3597 2675 3597 1894 
z
M 3022 2063 
Q 3016 2534 2758 2815 
Q 2500 3097 2075 3097 
Q 1594 3097 1305 2825 
Q 1016 2553 972 2059 
L 3022 2063 
z
" transform="scale(0.015625)"/>
      <path id="DejaVuSans-20" transform="scale(0.015625)"/>
      <path id="DejaVuSans-6d" d="M 3328 2828 
Q 3544 3216 3844 3400 
Q 4144 3584 4550 3584 
Q 5097 3584 5394 3201 
Q 5691 2819 5691 2113 
L 5691 0 
L 5113 0 
L 5113 2094 
Q 5113 2597 4934 2840 
Q 4756 3084 4391 3084 
Q 3944 3084 3684 2787 
Q 3425 2491 3425 1978 
L 3425 0 
L 2847 0 
L 2847 2094 
Q 2847 2600 2669 2842 
Q 2491 3084 2119 3084 
Q 1678 3084 1418 2786 
Q 1159 2488 1159 1978 
L 1159 0 
L 581 0 
L 581 3500 
L 1159 3500 
L 1159 2956 
Q 1356 3278 1631 3431 
Q 1906 3584 2284 3584 
Q 2666 3584 2933 3390 
Q 3200 3197 3328 2828 
z
" transform="scale(0.015625)"/>
      <path id="DejaVuSans-6f" d="M 1959 3097 
Q 1497 3097 1228 2736 
Q 959 2375 959 1747 
Q 959 1119 1226 758 
Q 1494 397 1959 397 
Q 2419 397 2687 759 
Q 2956 1122 2956 1747 
Q 2956 2369 2687 2733 
Q 2419 3097 1959 3097 
z
M 1959 3584 
Q 2709 3584 3137 3096 
Q 3566 2609 3566 1747 
Q 3566 888 3137 398 
Q 2709 -91 1959 -91 
Q 1206 -91 779 398 
Q 353 888 353 1747 
Q 353 2609 779 3096 
Q 1206 3584 1959 3584 
z
" transform="scale(0.015625)"/>
      <path id="DejaVuSans-64" d="M 2906 2969 
L 2906 4863 
L 3481 4863 
L 3481 0 
L 2906 0 
L 2906 525 
Q 2725 213 2448 61 
Q 2172 -91 1784 -91 
Q 1150 -91 751 415 
Q 353 922 353 1747 
Q 353 2572 751 3078 
Q 1150 3584 1784 3584 
Q 2172 3584 2448 3432 
Q 2725 3281 2906 2969 
z
M 947 1747 
Q 947 1113 1208 752 
Q 1469 391 1925 391 
Q 2381 391 2643 752 
Q 2906 1113 2906 1747 
Q 2906 2381 2643 2742 
Q 2381 3103 1925 3103 
Q 1469 3103 1208 2742 
Q 947 2381 947 1747 
z
" transform="scale(0.015625)"/>
      <path id="DejaVuSans-72" d="M 2631 2963 
Q 2534 3019 2420 3045 
Q 2306 3072 2169 3072 
Q 1681 3072 1420 2755 
Q 1159 2438 1159 1844 
L 1159 0 
L 581 0 
L 581 3500 
L 1159 3500 
L 1159 2956 
Q 1341 3275 1631 3429 
Q 1922 3584 2338 3584 
Q 2397 3584 2469 3576 
Q 2541 3569 2628 3553 
L 2631 2963 
z
" transform="scale(0.015625)"/>
      <path id="DejaVuSans-70" d="M 1159 525 
L 1159 -1331 
L 581 -1331 
L 581 3500 
L 1159 3500 
L 1159 2969 
Q 1341 3281 1617 3432 
Q 1894 3584 2278 3584 
Q 2916 3584 3314 3078 
Q 3713 2572 3713 1747 
Q 3713 922 3314 415 
Q 2916 -91 2278 -91 
Q 1894 -91 1617 61 
Q 1341 213 1159 525 
z
M 3116 1747 
Q 3116 2381 2855 2742 
Q 2594 3103 2138 3103 
Q 1681 3103 1420 2742 
Q 1159 2381 1159 1747 
Q 1159 1113 1420 752 
Q 1681 391 2138 391 
Q 2594 391 2855 752 
Q 3116 1113 3116 1747 
z
" transform="scale(0.015625)"/>
      <path id="DejaVuSans-7a" d="M 353 3500 
L 3084 3500 
L 3084 2975 
L 922 459 
L 3084 459 
L 3084 0 
L 275 0 
L 275 525 
L 2438 3041 
L 353 3041 
L 353 3500 
z
" transform="scale(0.015625)"/>
      <path id="DejaVuSans-f3" d="M 1959 3097 
Q 1497 3097 1228 2736 
Q 959 2375 959 1747 
Q 959 1119 1226 758 
Q 1494 397 1959 397 
Q 2419 397 2687 759 
Q 2956 1122 2956 1747 
Q 2956 2369 2687 2733 
Q 2419 3097 1959 3097 
z
M 1959 3584 
Q 2709 3584 3137 3096 
Q 3566 2609 3566 1747 
Q 3566 888 3137 398 
Q 2709 -91 1959 -91 
Q 1206 -91 779 398 
Q 353 888 353 1747 
Q 353 2609 779 3096 
Q 1206 3584 1959 3584 
z
M 2394 5119 
L 3016 5119 
L 1998 3944 
L 1519 3944 
L 2394 5119 
z
" transform="scale(0.015625)"/>
      <path id="DejaVuSans-77" d="M 269 3500 
L 844 3500 
L 1563 769 
L 2278 3500 
L 2956 3500 
L 3675 769 
L 4391 3500 
L 4966 3500 
L 4050 0 
L 3372 0 
L 2619 2869 
L 1863 0 
L 1184 0 
L 269 3500 
z
" transform="scale(0.015625)"/>
      <path id="DejaVuSans-6e" d="M 3513 2113 
L 3513 0 
L 2938 0 
L 2938 2094 
Q 2938 2591 2744 2837 
Q 2550 3084 2163 3084 
Q 1697 3084 1428 2787 
Q 1159 2491 1159 1978 
L 1159 0 
L 581 0 
L 581 3500 
L 1159 3500 
L 1159 2956 
Q 1366 3272 1645 3428 
Q 1925 3584 2291 3584 
Q 2894 3584 3203 3211 
Q 3513 2838 3513 2113 
z
" transform="scale(0.015625)"/>
      <path id="DejaVuSans-69" d="M 603 3500 
L 1178 3500 
L 1178 0 
L 603 0 
L 603 3500 
z
M 603 4863 
L 1178 4863 
L 1178 4134 
L 603 4134 
L 603 4863 
z
" transform="scale(0.015625)"/>
      <path id="DejaVuSans-2c" d="M 750 794 
L 1409 794 
L 1409 256 
L 897 -744 
L 494 -744 
L 750 256 
L 750 794 
z
" transform="scale(0.015625)"/>
      <path id="DejaVuSans-68" d="M 3513 2113 
L 3513 0 
L 2938 0 
L 2938 2094 
Q 2938 2591 2744 2837 
Q 2550 3084 2163 3084 
Q 1697 3084 1428 2787 
Q 1159 2491 1159 1978 
L 1159 0 
L 581 0 
L 581 4863 
L 1159 4863 
L 1159 2956 
Q 1366 3272 1645 3428 
Q 1925 3584 2291 3584 
Q 2894 3584 3203 3211 
Q 3513 2838 3513 2113 
z
" transform="scale(0.015625)"/>
      <path id="DejaVuSans-2f" d="M 1625 4666 
L 2156 4666 
L 531 -594 
L 0 -594 
L 1625 4666 
z
" transform="scale(0.015625)"/>
      <path id="DejaVuSans-3c4" d="M 2319 638 
Q 2431 488 2769 488 
L 3047 488 
L 3047 0 
L 2700 0 
Q 2138 0 1881 300 
Q 1625 606 1625 1269 
L 1625 2925 
L 313 2925 
L 313 3500 
L 3541 3500 
L 3541 2925 
L 2213 2925 
L 2213 1234 
Q 2213 781 2319 638 
z
" transform="scale(0.015625)"/>
      <path id="DejaVuSans-3e" d="M 678 3150 
L 678 3719 
L 4684 2266 
L 4684 1747 
L 678 294 
L 678 863 
L 3897 2003 
L 678 3150 
z
" transform="scale(0.015625)"/>
     </defs>
     <use xlink:href="#DejaVuSans-4f"/>
     <use xlink:href="#DejaVuSans-73" transform="translate(78.710938 0)"/>
     <use xlink:href="#DejaVuSans-63" transform="translate(130.810547 0)"/>
     <use xlink:href="#DejaVuSans-79" transform="translate(185.791016 0)"/>
     <use xlink:href="#DejaVuSans-6c" transform="translate(244.970703 0)"/>
     <use xlink:href="#DejaVuSans-61" transform="translate(272.753906 0)"/>
     <use xlink:href="#DejaVuSans-63" transform="translate(334.033203 0)"/>
     <use xlink:href="#DejaVuSans-6a" transform="translate(389.013672 0)"/>
     <use xlink:href="#DejaVuSans-65" transform="translate(416.796875 0)"/>
     <use xlink:href="#DejaVuSans-20" transform="translate(478.320312 0)"/>
     <use xlink:href="#DejaVuSans-6d" transform="translate(510.107422 0)"/>
     <use xlink:href="#DejaVuSans-65" transform="translate(607.519531 0)"/>
     <use xlink:href="#DejaVuSans-74" transform="translate(669.042969 0)"/>
     <use xlink:href="#DejaVuSans-6f" transform="translate(708.251953 0)"/>
     <use xlink:href="#DejaVuSans-64" transform="translate(769.433594 0)"/>
     <use xlink:href="#DejaVuSans-79" transform="translate(832.910156 0)"/>
     <use xlink:href="#DejaVuSans-20" transform="translate(892.089844 0)"/>
     <use xlink:href="#DejaVuSans-74" transform="translate(923.876953 0)"/>
     <use xlink:href="#DejaVuSans-72" transform="translate(963.085938 0)"/>
     <use xlink:href="#DejaVuSans-61" transform="translate(1004.199219 0)"/>
     <use xlink:href="#DejaVuSans-70" transform="translate(1065.478516 0)"/>
     <use xlink:href="#DejaVuSans-65" transform="translate(1128.955078 0)"/>
     <use xlink:href="#DejaVuSans-7a" transform="translate(1190.478516 0)"/>
     <use xlink:href="#DejaVuSans-f3" transform="translate(1242.96875 0)"/>
     <use xlink:href="#DejaVuSans-77" transform="translate(1304.150391 0)"/>
     <use xlink:href="#DejaVuSans-20" transform="translate(1385.9375 0)"/>
     <use xlink:href="#DejaVuSans-28" transform="translate(1417.724609 0)"/>
     <use xlink:href="#DejaVuSans-72" transform="translate(1456.738281 0)"/>
     <use xlink:href="#DejaVuSans-f3" transform="translate(1495.601562 0)"/>
     <use xlink:href="#DejaVuSans-77" transform="translate(1556.783203 0)"/>
     <use xlink:href="#DejaVuSans-6e" transform="translate(1638.570312 0)"/>
     <use xlink:href="#DejaVuSans-61" transform="translate(1701.949219 0)"/>
     <use xlink:href="#DejaVuSans-6e" transform="translate(1763.228516 0)"/>
     <use xlink:href="#DejaVuSans-69" transform="translate(1826.607422 0)"/>
     <use xlink:href="#DejaVuSans-65" transform="translate(1854.390625 0)"/>
     <use xlink:href="#DejaVuSans-20" transform="translate(1915.914062 0)"/>
     <use xlink:href="#DejaVuSans-73" transform="translate(1947.701172 0)"/>
     <use xlink:href="#DejaVuSans-7a" transform="translate(1999.800781 0)"/>
     <use xlink:href="#DejaVuSans-74" transform="translate(2052.291016 0)"/>
     <use xlink:href="#DejaVuSans-79" transform="translate(2091.5 0)"/>
     <use xlink:href="#DejaVuSans-77" transform="translate(2150.679688 0)"/>
     <use xlink:href="#DejaVuSans-6e" transform="translate(2232.466797 0)"/>
     <use xlink:href="#DejaVuSans-65" transform="translate(2295.845703 0)"/>
     <use xlink:href="#DejaVuSans-2c" transform="translate(2357.369141 0)"/>
     <use xlink:href="#DejaVuSans-20" transform="translate(2389.15625 0)"/>
     <use xlink:href="#DejaVuSans-68" transform="translate(2420.943359 0)"/>
     <use xlink:href="#DejaVuSans-2f" transform="translate(2484.322266 0)"/>
     <use xlink:href="#DejaVuSans-3c4" transform="translate(2518.013672 0)"/>
     <use xlink:href="#DejaVuSans-20" transform="translate(2578.21875 0)"/>
     <use xlink:href="#DejaVuSans-3e" transform="translate(2610.005859 0)"/>
     <use xlink:href="#DejaVuSans-3e" transform="translate(2693.794922 0)"/>
     <use xlink:href="#DejaVuSans-20" transform="translate(2777.583984 0)"/>
     <use xlink:href="#DejaVuSans-31" transform="translate(2809.371094 0)"/>
     <use xlink:href="#DejaVuSans-29" transform="translate(2872.994141 0)"/>
    </g>
   </g>
   <g id="legend_1">
    <g id="patch_7">
     <path d="M 257.176719 99.724688 
L 480.86 99.724688 
Q 483.46 99.724688 483.46 97.124688 
L 483.46 40.66 
Q 483.46 38.06 480.86 38.06 
L 257.176719 38.06 
Q 254.576719 38.06 254.576719 40.66 
L 254.576719 97.124688 
Q 254.576719 99.724688 257.176719 99.724688 
z
" style="fill: #ffffff; opacity: 0.8; stroke: #cccccc; stroke-linejoin: miter"/>
    </g>
    <g id="line2d_29">
     <path d="M 259.776719 48.587969 
L 272.776719 48.587969 
L 285.776719 48.587969 
" style="fill: none; stroke: #000000; stroke-width: 2; stroke-linecap: square"/>
    </g>
    <g id="text_16">
     <!-- dokładne (→ 0 natychmiast) -->
     <g transform="translate(296.176719 53.137969) scale(0.13 -0.13)">
      <defs>
       <path id="DejaVuSans-6b" d="M 581 4863 
L 1159 4863 
L 1159 1991 
L 2875 3500 
L 3609 3500 
L 1753 1863 
L 3688 0 
L 2938 0 
L 1159 1709 
L 1159 0 
L 581 0 
L 581 4863 
z
" transform="scale(0.015625)"/>
       <path id="DejaVuSans-142" d="M 622 4863 
L 1197 4863 
L 1197 2981 
L 1588 3263 
L 1825 2931 
L 1197 2491 
L 1197 0 
L 622 0 
L 622 2081 
L 238 1806 
L 6 2138 
L 622 2578 
L 622 4863 
z
" transform="scale(0.015625)"/>
       <path id="DejaVuSans-2192" d="M 5050 2147 
L 5050 1866 
L 3822 638 
L 3447 1013 
L 4175 1741 
L 366 1741 
L 366 2272 
L 4175 2272 
L 3447 3000 
L 3822 3375 
L 5050 2147 
z
" transform="scale(0.015625)"/>
      </defs>
      <use xlink:href="#DejaVuSans-64"/>
      <use xlink:href="#DejaVuSans-6f" transform="translate(63.476562 0)"/>
      <use xlink:href="#DejaVuSans-6b" transform="translate(124.658203 0)"/>
      <use xlink:href="#DejaVuSans-142" transform="translate(182.568359 0)"/>
      <use xlink:href="#DejaVuSans-61" transform="translate(210.986328 0)"/>
      <use xlink:href="#DejaVuSans-64" transform="translate(272.265625 0)"/>
      <use xlink:href="#DejaVuSans-6e" transform="translate(335.742188 0)"/>
      <use xlink:href="#DejaVuSans-65" transform="translate(399.121094 0)"/>
      <use xlink:href="#DejaVuSans-20" transform="translate(460.644531 0)"/>
      <use xlink:href="#DejaVuSans-28" transform="translate(492.431641 0)"/>
      <use xlink:href="#DejaVuSans-2192" transform="translate(531.445312 0)"/>
      <use xlink:href="#DejaVuSans-20" transform="translate(615.234375 0)"/>
      <use xlink:href="#DejaVuSans-30" transform="translate(647.021484 0)"/>
      <use xlink:href="#DejaVuSans-20" transform="translate(710.644531 0)"/>
      <use xlink:href="#DejaVuSans-6e" transform="translate(742.431641 0)"/>
      <use xlink:href="#DejaVuSans-61" transform="translate(805.810547 0)"/>
      <use xlink:href="#DejaVuSans-74" transform="translate(867.089844 0)"/>
      <use xlink:href="#DejaVuSans-79" transform="translate(906.298828 0)"/>
      <use xlink:href="#DejaVuSans-63" transform="translate(965.478516 0)"/>
      <use xlink:href="#DejaVuSans-68" transform="translate(1020.458984 0)"/>
      <use xlink:href="#DejaVuSans-6d" transform="translate(1083.837891 0)"/>
      <use xlink:href="#DejaVuSans-69" transform="translate(1181.25 0)"/>
      <use xlink:href="#DejaVuSans-61" transform="translate(1209.033203 0)"/>
      <use xlink:href="#DejaVuSans-73" transform="translate(1270.3125 0)"/>
      <use xlink:href="#DejaVuSans-74" transform="translate(1322.412109 0)"/>
      <use xlink:href="#DejaVuSans-29" transform="translate(1361.621094 0)"/>
     </g>
    </g>
    <g id="line2d_30">
     <path d="M 259.776719 68.189531 
L 272.776719 68.189531 
L 285.776719 68.189531 
" style="fill: none; stroke: #ff0000; stroke-width: 1.5; stroke-linecap: square"/>
     <g>
      <use xlink:href="#mefac4df143" x="272.776719" y="68.189531" style="fill: #ff0000; stroke: #ff0000"/>
     </g>
    </g>
    <g id="text_17">
     <!-- Trapezów — OSCYLACJE! -->
     <g transform="translate(296.176719 72.739531) scale(0.13 -0.13)">
      <defs>
       <path id="DejaVuSans-54" d="M -19 4666 
L 3928 4666 
L 3928 4134 
L 2272 4134 
L 2272 0 
L 1638 0 
L 1638 4134 
L -19 4134 
L -19 4666 
z
" transform="scale(0.015625)"/>
       <path id="DejaVuSans-2014" d="M 313 1978 
L 6088 1978 
L 6088 1528 
L 313 1528 
L 313 1978 
z
" transform="scale(0.015625)"/>
       <path id="DejaVuSans-53" d="M 3425 4513 
L 3425 3897 
Q 3066 4069 2747 4153 
Q 2428 4238 2131 4238 
Q 1616 4238 1336 4038 
Q 1056 3838 1056 3469 
Q 1056 3159 1242 3001 
Q 1428 2844 1947 2747 
L 2328 2669 
Q 3034 2534 3370 2195 
Q 3706 1856 3706 1288 
Q 3706 609 3251 259 
Q 2797 -91 1919 -91 
Q 1588 -91 1214 -16 
Q 841 59 441 206 
L 441 856 
Q 825 641 1194 531 
Q 1563 422 1919 422 
Q 2459 422 2753 634 
Q 3047 847 3047 1241 
Q 3047 1584 2836 1778 
Q 2625 1972 2144 2069 
L 1759 2144 
Q 1053 2284 737 2584 
Q 422 2884 422 3419 
Q 422 4038 858 4394 
Q 1294 4750 2059 4750 
Q 2388 4750 2728 4690 
Q 3069 4631 3425 4513 
z
" transform="scale(0.015625)"/>
       <path id="DejaVuSans-43" d="M 4122 4306 
L 4122 3641 
Q 3803 3938 3442 4084 
Q 3081 4231 2675 4231 
Q 1875 4231 1450 3742 
Q 1025 3253 1025 2328 
Q 1025 1406 1450 917 
Q 1875 428 2675 428 
Q 3081 428 3442 575 
Q 3803 722 4122 1019 
L 4122 359 
Q 3791 134 3420 21 
Q 3050 -91 2638 -91 
Q 1578 -91 968 557 
Q 359 1206 359 2328 
Q 359 3453 968 4101 
Q 1578 4750 2638 4750 
Q 3056 4750 3426 4639 
Q 3797 4528 4122 4306 
z
" transform="scale(0.015625)"/>
       <path id="DejaVuSans-59" d="M -13 4666 
L 666 4666 
L 1959 2747 
L 3244 4666 
L 3922 4666 
L 2272 2222 
L 2272 0 
L 1638 0 
L 1638 2222 
L -13 4666 
z
" transform="scale(0.015625)"/>
       <path id="DejaVuSans-4c" d="M 628 4666 
L 1259 4666 
L 1259 531 
L 3531 531 
L 3531 0 
L 628 0 
L 628 4666 
z
" transform="scale(0.015625)"/>
       <path id="DejaVuSans-41" d="M 2188 4044 
L 1331 1722 
L 3047 1722 
L 2188 4044 
z
M 1831 4666 
L 2547 4666 
L 4325 0 
L 3669 0 
L 3244 1197 
L 1141 1197 
L 716 0 
L 50 0 
L 1831 4666 
z
" transform="scale(0.015625)"/>
       <path id="DejaVuSans-4a" d="M 628 4666 
L 1259 4666 
L 1259 325 
Q 1259 -519 939 -900 
Q 619 -1281 -91 -1281 
L -331 -1281 
L -331 -750 
L -134 -750 
Q 284 -750 456 -515 
Q 628 -281 628 325 
L 628 4666 
z
" transform="scale(0.015625)"/>
       <path id="DejaVuSans-45" d="M 628 4666 
L 3578 4666 
L 3578 4134 
L 1259 4134 
L 1259 2753 
L 3481 2753 
L 3481 2222 
L 1259 2222 
L 1259 531 
L 3634 531 
L 3634 0 
L 628 0 
L 628 4666 
z
" transform="scale(0.015625)"/>
       <path id="DejaVuSans-21" d="M 966 794 
L 1600 794 
L 1600 0 
L 966 0 
L 966 794 
z
M 966 4666 
L 1600 4666 
L 1600 2619 
L 1538 1503 
L 1031 1503 
L 966 2619 
L 966 4666 
z
" transform="scale(0.015625)"/>
      </defs>
      <use xlink:href="#DejaVuSans-54"/>
      <use xlink:href="#DejaVuSans-72" transform="translate(46.333984 0)"/>
      <use xlink:href="#DejaVuSans-61" transform="translate(87.447266 0)"/>
      <use xlink:href="#DejaVuSans-70" transform="translate(148.726562 0)"/>
      <use xlink:href="#DejaVuSans-65" transform="translate(212.203125 0)"/>
      <use xlink:href="#DejaVuSans-7a" transform="translate(273.726562 0)"/>
      <use xlink:href="#DejaVuSans-f3" transform="translate(326.216797 0)"/>
      <use xlink:href="#DejaVuSans-77" transform="translate(387.398438 0)"/>
      <use xlink:href="#DejaVuSans-20" transform="translate(469.185547 0)"/>
      <use xlink:href="#DejaVuSans-2014" transform="translate(500.972656 0)"/>
      <use xlink:href="#DejaVuSans-20" transform="translate(600.972656 0)"/>
      <use xlink:href="#DejaVuSans-4f" transform="translate(632.759766 0)"/>
      <use xlink:href="#DejaVuSans-53" transform="translate(711.470703 0)"/>
      <use xlink:href="#DejaVuSans-43" transform="translate(774.947266 0)"/>
      <use xlink:href="#DejaVuSans-59" transform="translate(843.021484 0)"/>
      <use xlink:href="#DejaVuSans-4c" transform="translate(904.105469 0)"/>
      <use xlink:href="#DejaVuSans-41" transform="translate(962.068359 0)"/>
      <use xlink:href="#DejaVuSans-43" transform="translate(1028.726562 0)"/>
      <use xlink:href="#DejaVuSans-4a" transform="translate(1098.550781 0)"/>
      <use xlink:href="#DejaVuSans-45" transform="translate(1128.042969 0)"/>
      <use xlink:href="#DejaVuSans-21" transform="translate(1191.226562 0)"/>
     </g>
    </g>
    <g id="line2d_31">
     <path d="M 259.776719 87.271094 
L 272.776719 87.271094 
L 285.776719 87.271094 
" style="fill: none; stroke: #008000; stroke-width: 1.5; stroke-linecap: square"/>
     <g>
      <use xlink:href="#mac5e22bd6d" x="272.776719" y="87.271094" style="fill: #008000; stroke: #008000; stroke-linejoin: miter"/>
     </g>
    </g>
    <g id="text_18">
     <!-- Backward Euler — OK -->
     <g transform="translate(296.176719 91.821094) scale(0.13 -0.13)">
      <defs>
       <path id="DejaVuSans-42" d="M 1259 2228 
L 1259 519 
L 2272 519 
Q 2781 519 3026 730 
Q 3272 941 3272 1375 
Q 3272 1813 3026 2020 
Q 2781 2228 2272 2228 
L 1259 2228 
z
M 1259 4147 
L 1259 2741 
L 2194 2741 
Q 2656 2741 2882 2914 
Q 3109 3088 3109 3444 
Q 3109 3797 2882 3972 
Q 2656 4147 2194 4147 
L 1259 4147 
z
M 628 4666 
L 2241 4666 
Q 2963 4666 3353 4366 
Q 3744 4066 3744 3513 
Q 3744 3084 3544 2831 
Q 3344 2578 2956 2516 
Q 3422 2416 3680 2098 
Q 3938 1781 3938 1306 
Q 3938 681 3513 340 
Q 3088 0 2303 0 
L 628 0 
L 628 4666 
z
" transform="scale(0.015625)"/>
       <path id="DejaVuSans-75" d="M 544 1381 
L 544 3500 
L 1119 3500 
L 1119 1403 
Q 1119 906 1312 657 
Q 1506 409 1894 409 
Q 2359 409 2629 706 
Q 2900 1003 2900 1516 
L 2900 3500 
L 3475 3500 
L 3475 0 
L 2900 0 
L 2900 538 
Q 2691 219 2414 64 
Q 2138 -91 1772 -91 
Q 1169 -91 856 284 
Q 544 659 544 1381 
z
M 1991 3584 
L 1991 3584 
z
" transform="scale(0.015625)"/>
       <path id="DejaVuSans-4b" d="M 628 4666 
L 1259 4666 
L 1259 2694 
L 3353 4666 
L 4166 4666 
L 1850 2491 
L 4331 0 
L 3500 0 
L 1259 2247 
L 1259 0 
L 628 0 
L 628 4666 
z
" transform="scale(0.015625)"/>
      </defs>
      <use xlink:href="#DejaVuSans-42"/>
      <use xlink:href="#DejaVuSans-61" transform="translate(68.603516 0)"/>
      <use xlink:href="#DejaVuSans-63" transform="translate(129.882812 0)"/>
      <use xlink:href="#DejaVuSans-6b" transform="translate(184.863281 0)"/>
      <use xlink:href="#DejaVuSans-77" transform="translate(242.773438 0)"/>
      <use xlink:href="#DejaVuSans-61" transform="translate(324.560547 0)"/>
      <use xlink:href="#DejaVuSans-72" transform="translate(385.839844 0)"/>
      <use xlink:href="#DejaVuSans-64" transform="translate(425.203125 0)"/>
      <use xlink:href="#DejaVuSans-20" transform="translate(488.679688 0)"/>
      <use xlink:href="#DejaVuSans-45" transform="translate(520.466797 0)"/>
      <use xlink:href="#DejaVuSans-75" transform="translate(583.650391 0)"/>
      <use xlink:href="#DejaVuSans-6c" transform="translate(647.029297 0)"/>
      <use xlink:href="#DejaVuSans-65" transform="translate(674.8125 0)"/>
      <use xlink:href="#DejaVuSans-72" transform="translate(736.335938 0)"/>
      <use xlink:href="#DejaVuSans-20" transform="translate(777.449219 0)"/>
      <use xlink:href="#DejaVuSans-2014" transform="translate(809.236328 0)"/>
      <use xlink:href="#DejaVuSans-20" transform="translate(909.236328 0)"/>
      <use xlink:href="#DejaVuSans-4f" transform="translate(941.023438 0)"/>
      <use xlink:href="#DejaVuSans-4b" transform="translate(1019.734375 0)"/>
     </g>
    </g>
   </g>
  </g>
 </g>
 <defs>
  <clipPath id="p21bb69b0c7">
   <rect x="57.17" y="31.56" width="432.79" height="205.48"/>
  </clipPath>
 </defs>
</svg>
