<?xml version="1.0" encoding="utf-8" standalone="no"?>
<!DOCTYPE svg PUBLIC "-//W3C//DTD SVG 1.1//EN"
  "http://www.w3.org/Graphics/SVG/1.1/DTD/svg11.dtd">
<svg xmlns:xlink="http://www.w3.org/1999/xlink" width="576pt" height="432pt" viewBox="0 0 576 432" xmlns="http://www.w3.org/2000/svg" version="1.1">
 <metadata>
  <rdf:RDF xmlns:dc="http://purl.org/dc/elements/1.1/" xmlns:cc="http://creativecommons.org/ns#" xmlns:rdf="http://www.w3.org/1999/02/22-rdf-syntax-ns#">
   <cc:Work>
    <dc:type rdf:resource="http://purl.org/dc/dcmitype/StillImage"/>
    <dc:date>2026-05-07T20:24:22.563296</dc:date>
    <dc:format>image/svg+xml</dc:format>
    <dc:creator>
     <cc:Agent>
      <dc:title>Matplotlib v3.10.9, https://matplotlib.org/</dc:title>
     </cc:Agent>
    </dc:creator>
   </cc:Work>
  </rdf:RDF>
 </metadata>
 <defs>
  <style type="text/css">*{stroke-linejoin: round; stroke-linecap: butt}</style>
 </defs>
 <g id="figure_1">
  <g id="patch_1">
   <path d="M 0 432 
L 576 432 
L 576 0 
L 0 0 
z
" style="fill: #ffffff"/>
  </g>
  <g id="axes_1">
   <g id="patch_2">
    <path d="M 66.8 185.38 
L 549.63 185.38 
L 549.63 58.56 
L 66.8 58.56 
z
" style="fill: #ffffff"/>
   </g>
   <g id="matplotlib.axis_1">
    <g id="xtick_1">
     <g id="line2d_1">
      <path d="M 88.746818 185.38 
L 88.746818 58.56 
" clip-path="url(#p3424be4b1b)" style="fill: none; stroke: #b0b0b0; stroke-opacity: 0.3; stroke-width: 0.8; stroke-linecap: square"/>
     </g>
     <g id="line2d_2">
      <defs>
       <path id="m818e195225" d="M 0 0 
L 0 3.5 
" style="stroke: #000000; stroke-width: 0.8"/>
      </defs>
      <g>
       <use xlink:href="#m818e195225" x="88.746818" y="185.38" style="stroke: #000000; stroke-width: 0.8"/>
      </g>
     </g>
     <g id="text_1">
      <!-- 0 -->
      <g transform="translate(84.611193 202.257969) scale(0.13 -0.13)">
       <defs>
        <path id="DejaVuSans-30" d="M 2034 4250 
Q 1547 4250 1301 3770 
Q 1056 3291 1056 2328 
Q 1056 1369 1301 889 
Q 1547 409 2034 409 
Q 2525 409 2770 889 
Q 3016 1369 3016 2328 
Q 3016 3291 2770 3770 
Q 2525 4250 2034 4250 
z
M 2034 4750 
Q 2819 4750 3233 4129 
Q 3647 3509 3647 2328 
Q 3647 1150 3233 529 
Q 2819 -91 2034 -91 
Q 1250 -91 836 529 
Q 422 1150 422 2328 
Q 422 3509 836 4129 
Q 1250 4750 2034 4750 
z
" transform="scale(0.015625)"/>
       </defs>
       <use xlink:href="#DejaVuSans-30"/>
      </g>
     </g>
    </g>
    <g id="xtick_2">
     <g id="line2d_3">
      <path d="M 158.419257 185.38 
L 158.419257 58.56 
" clip-path="url(#p3424be4b1b)" style="fill: none; stroke: #b0b0b0; stroke-opacity: 0.3; stroke-width: 0.8; stroke-linecap: square"/>
     </g>
     <g id="line2d_4">
      <g>
       <use xlink:href="#m818e195225" x="158.419257" y="185.38" style="stroke: #000000; stroke-width: 0.8"/>
      </g>
     </g>
     <g id="text_2">
      <!-- 10 -->
      <g transform="translate(150.148007 202.257969) scale(0.13 -0.13)">
       <defs>
        <path id="DejaVuSans-31" d="M 794 531 
L 1825 531 
L 1825 4091 
L 703 3866 
L 703 4441 
L 1819 4666 
L 2450 4666 
L 2450 531 
L 3481 531 
L 3481 0 
L 794 0 
L 794 531 
z
" transform="scale(0.015625)"/>
       </defs>
       <use xlink:href="#DejaVuSans-31"/>
       <use xlink:href="#DejaVuSans-30" transform="translate(63.623047 0)"/>
      </g>
     </g>
    </g>
    <g id="xtick_3">
     <g id="line2d_5">
      <path d="M 228.091696 185.38 
L 228.091696 58.56 
" clip-path="url(#p3424be4b1b)" style="fill: none; stroke: #b0b0b0; stroke-opacity: 0.3; stroke-width: 0.8; stroke-linecap: square"/>
     </g>
     <g id="line2d_6">
      <g>
       <use xlink:href="#m818e195225" x="228.091696" y="185.38" style="stroke: #000000; stroke-width: 0.8"/>
      </g>
     </g>
     <g id="text_3">
      <!-- 20 -->
      <g transform="translate(219.820446 202.257969) scale(0.13 -0.13)">
       <defs>
        <path id="DejaVuSans-32" d="M 1228 531 
L 3431 531 
L 3431 0 
L 469 0 
L 469 531 
Q 828 903 1448 1529 
Q 2069 2156 2228 2338 
Q 2531 2678 2651 2914 
Q 2772 3150 2772 3378 
Q 2772 3750 2511 3984 
Q 2250 4219 1831 4219 
Q 1534 4219 1204 4116 
Q 875 4013 500 3803 
L 500 4441 
Q 881 4594 1212 4672 
Q 1544 4750 1819 4750 
Q 2544 4750 2975 4387 
Q 3406 4025 3406 3419 
Q 3406 3131 3298 2873 
Q 3191 2616 2906 2266 
Q 2828 2175 2409 1742 
Q 1991 1309 1228 531 
z
" transform="scale(0.015625)"/>
       </defs>
       <use xlink:href="#DejaVuSans-32"/>
       <use xlink:href="#DejaVuSans-30" transform="translate(63.623047 0)"/>
      </g>
     </g>
    </g>
    <g id="xtick_4">
     <g id="line2d_7">
      <path d="M 297.764134 185.38 
L 297.764134 58.56 
" clip-path="url(#p3424be4b1b)" style="fill: none; stroke: #b0b0b0; stroke-opacity: 0.3; stroke-width: 0.8; stroke-linecap: square"/>
     </g>
     <g id="line2d_8">
      <g>
       <use xlink:href="#m818e195225" x="297.764134" y="185.38" style="stroke: #000000; stroke-width: 0.8"/>
      </g>
     </g>
     <g id="text_4">
      <!-- 30 -->
      <g transform="translate(289.492884 202.257969) scale(0.13 -0.13)">
       <defs>
        <path id="DejaVuSans-33" d="M 2597 2516 
Q 3050 2419 3304 2112 
Q 3559 1806 3559 1356 
Q 3559 666 3084 287 
Q 2609 -91 1734 -91 
Q 1441 -91 1130 -33 
Q 819 25 488 141 
L 488 750 
Q 750 597 1062 519 
Q 1375 441 1716 441 
Q 2309 441 2620 675 
Q 2931 909 2931 1356 
Q 2931 1769 2642 2001 
Q 2353 2234 1838 2234 
L 1294 2234 
L 1294 2753 
L 1863 2753 
Q 2328 2753 2575 2939 
Q 2822 3125 2822 3475 
Q 2822 3834 2567 4026 
Q 2313 4219 1838 4219 
Q 1578 4219 1281 4162 
Q 984 4106 628 3988 
L 628 4550 
Q 988 4650 1302 4700 
Q 1616 4750 1894 4750 
Q 2613 4750 3031 4423 
Q 3450 4097 3450 3541 
Q 3450 3153 3228 2886 
Q 3006 2619 2597 2516 
z
" transform="scale(0.015625)"/>
       </defs>
       <use xlink:href="#DejaVuSans-33"/>
       <use xlink:href="#DejaVuSans-30" transform="translate(63.623047 0)"/>
      </g>
     </g>
    </g>
    <g id="xtick_5">
     <g id="line2d_9">
      <path d="M 367.436573 185.38 
L 367.436573 58.56 
" clip-path="url(#p3424be4b1b)" style="fill: none; stroke: #b0b0b0; stroke-opacity: 0.3; stroke-width: 0.8; stroke-linecap: square"/>
     </g>
     <g id="line2d_10">
      <g>
       <use xlink:href="#m818e195225" x="367.436573" y="185.38" style="stroke: #000000; stroke-width: 0.8"/>
      </g>
     </g>
     <g id="text_5">
      <!-- 40 -->
      <g transform="translate(359.165323 202.257969) scale(0.13 -0.13)">
       <defs>
        <path id="DejaVuSans-34" d="M 2419 4116 
L 825 1625 
L 2419 1625 
L 2419 4116 
z
M 2253 4666 
L 3047 4666 
L 3047 1625 
L 3713 1625 
L 3713 1100 
L 3047 1100 
L 3047 0 
L 2419 0 
L 2419 1100 
L 313 1100 
L 313 1709 
L 2253 4666 
z
" transform="scale(0.015625)"/>
       </defs>
       <use xlink:href="#DejaVuSans-34"/>
       <use xlink:href="#DejaVuSans-30" transform="translate(63.623047 0)"/>
      </g>
     </g>
    </g>
    <g id="xtick_6">
     <g id="line2d_11">
      <path d="M 437.109012 185.38 
L 437.109012 58.56 
" clip-path="url(#p3424be4b1b)" style="fill: none; stroke: #b0b0b0; stroke-opacity: 0.3; stroke-width: 0.8; stroke-linecap: square"/>
     </g>
     <g id="line2d_12">
      <g>
       <use xlink:href="#m818e195225" x="437.109012" y="185.38" style="stroke: #000000; stroke-width: 0.8"/>
      </g>
     </g>
     <g id="text_6">
      <!-- 50 -->
      <g transform="translate(428.837762 202.257969) scale(0.13 -0.13)">
       <defs>
        <path id="DejaVuSans-35" d="M 691 4666 
L 3169 4666 
L 3169 4134 
L 1269 4134 
L 1269 2991 
Q 1406 3038 1543 3061 
Q 1681 3084 1819 3084 
Q 2600 3084 3056 2656 
Q 3513 2228 3513 1497 
Q 3513 744 3044 326 
Q 2575 -91 1722 -91 
Q 1428 -91 1123 -41 
Q 819 9 494 109 
L 494 744 
Q 775 591 1075 516 
Q 1375 441 1709 441 
Q 2250 441 2565 725 
Q 2881 1009 2881 1497 
Q 2881 1984 2565 2268 
Q 2250 2553 1709 2553 
Q 1456 2553 1204 2497 
Q 953 2441 691 2322 
L 691 4666 
z
" transform="scale(0.015625)"/>
       </defs>
       <use xlink:href="#DejaVuSans-35"/>
       <use xlink:href="#DejaVuSans-30" transform="translate(63.623047 0)"/>
      </g>
     </g>
    </g>
    <g id="xtick_7">
     <g id="line2d_13">
      <path d="M 506.78145 185.38 
L 506.78145 58.56 
" clip-path="url(#p3424be4b1b)" style="fill: none; stroke: #b0b0b0; stroke-opacity: 0.3; stroke-width: 0.8; stroke-linecap: square"/>
     </g>
     <g id="line2d_14">
      <g>
       <use xlink:href="#m818e195225" x="506.78145" y="185.38" style="stroke: #000000; stroke-width: 0.8"/>
      </g>
     </g>
     <g id="text_7">
      <!-- 60 -->
      <g transform="translate(498.5102 202.257969) scale(0.13 -0.13)">
       <defs>
        <path id="DejaVuSans-36" d="M 2113 2584 
Q 1688 2584 1439 2293 
Q 1191 2003 1191 1497 
Q 1191 994 1439 701 
Q 1688 409 2113 409 
Q 2538 409 2786 701 
Q 3034 994 3034 1497 
Q 3034 2003 2786 2293 
Q 2538 2584 2113 2584 
z
M 3366 4563 
L 3366 3988 
Q 3128 4100 2886 4159 
Q 2644 4219 2406 4219 
Q 1781 4219 1451 3797 
Q 1122 3375 1075 2522 
Q 1259 2794 1537 2939 
Q 1816 3084 2150 3084 
Q 2853 3084 3261 2657 
Q 3669 2231 3669 1497 
Q 3669 778 3244 343 
Q 2819 -91 2113 -91 
Q 1303 -91 875 529 
Q 447 1150 447 2328 
Q 447 3434 972 4092 
Q 1497 4750 2381 4750 
Q 2619 4750 2861 4703 
Q 3103 4656 3366 4563 
z
" transform="scale(0.015625)"/>
       </defs>
       <use xlink:href="#DejaVuSans-36"/>
       <use xlink:href="#DejaVuSans-30" transform="translate(63.623047 0)"/>
      </g>
     </g>
    </g>
    <g id="text_8">
     <!-- n -->
     <g transform="translate(304.095625 218.839531) scale(0.13 -0.13)">
      <defs>
       <path id="DejaVuSans-6e" d="M 3513 2113 
L 3513 0 
L 2938 0 
L 2938 2094 
Q 2938 2591 2744 2837 
Q 2550 3084 2163 3084 
Q 1697 3084 1428 2787 
Q 1159 2491 1159 1978 
L 1159 0 
L 581 0 
L 581 3500 
L 1159 3500 
L 1159 2956 
Q 1366 3272 1645 3428 
Q 1925 3584 2291 3584 
Q 2894 3584 3203 3211 
Q 3513 2838 3513 2113 
z
" transform="scale(0.015625)"/>
      </defs>
      <use xlink:href="#DejaVuSans-6e"/>
     </g>
    </g>
   </g>
   <g id="matplotlib.axis_2">
    <g id="ytick_1">
     <g id="line2d_15">
      <path d="M 66.8 179.615455 
L 549.63 179.615455 
" clip-path="url(#p3424be4b1b)" style="fill: none; stroke: #b0b0b0; stroke-opacity: 0.3; stroke-width: 0.8; stroke-linecap: square"/>
     </g>
     <g id="line2d_16">
      <defs>
       <path id="mef65635aaa" d="M 0 0 
L -3.5 0 
" style="stroke: #000000; stroke-width: 0.8"/>
      </defs>
      <g>
       <use xlink:href="#mef65635aaa" x="66.8" y="179.615455" style="stroke: #000000; stroke-width: 0.8"/>
      </g>
     </g>
     <g id="text_9">
      <!-- 0.0 -->
      <g transform="translate(39.125937 184.554439) scale(0.13 -0.13)">
       <defs>
        <path id="DejaVuSans-2e" d="M 684 794 
L 1344 794 
L 1344 0 
L 684 0 
L 684 794 
z
" transform="scale(0.015625)"/>
       </defs>
       <use xlink:href="#DejaVuSans-30"/>
       <use xlink:href="#DejaVuSans-2e" transform="translate(63.623047 0)"/>
       <use xlink:href="#DejaVuSans-30" transform="translate(95.410156 0)"/>
      </g>
     </g>
    </g>
    <g id="ytick_2">
     <g id="line2d_17">
      <path d="M 66.8 121.97 
L 549.63 121.97 
" clip-path="url(#p3424be4b1b)" style="fill: none; stroke: #b0b0b0; stroke-opacity: 0.3; stroke-width: 0.8; stroke-linecap: square"/>
     </g>
     <g id="line2d_18">
      <g>
       <use xlink:href="#mef65635aaa" x="66.8" y="121.97" style="stroke: #000000; stroke-width: 0.8"/>
      </g>
     </g>
     <g id="text_10">
      <!-- 0.5 -->
      <g transform="translate(39.125937 126.908984) scale(0.13 -0.13)">
       <use xlink:href="#DejaVuSans-30"/>
       <use xlink:href="#DejaVuSans-2e" transform="translate(63.623047 0)"/>
       <use xlink:href="#DejaVuSans-35" transform="translate(95.410156 0)"/>
      </g>
     </g>
    </g>
    <g id="ytick_3">
     <g id="line2d_19">
      <path d="M 66.8 64.324545 
L 549.63 64.324545 
" clip-path="url(#p3424be4b1b)" style="fill: none; stroke: #b0b0b0; stroke-opacity: 0.3; stroke-width: 0.8; stroke-linecap: square"/>
     </g>
     <g id="line2d_20">
      <g>
       <use xlink:href="#mef65635aaa" x="66.8" y="64.324545" style="stroke: #000000; stroke-width: 0.8"/>
      </g>
     </g>
     <g id="text_11">
      <!-- 1.0 -->
      <g transform="translate(39.125937 69.26353) scale(0.13 -0.13)">
       <use xlink:href="#DejaVuSans-31"/>
       <use xlink:href="#DejaVuSans-2e" transform="translate(63.623047 0)"/>
       <use xlink:href="#DejaVuSans-30" transform="translate(95.410156 0)"/>
      </g>
     </g>
    </g>
    <g id="text_12">
     <!-- w(n) -->
     <g transform="translate(32.422344 136.477188) rotate(-90) scale(0.13 -0.13)">
      <defs>
       <path id="DejaVuSans-77" d="M 269 3500 
L 844 3500 
L 1563 769 
L 2278 3500 
L 2956 3500 
L 3675 769 
L 4391 3500 
L 4966 3500 
L 4050 0 
L 3372 0 
L 2619 2869 
L 1863 0 
L 1184 0 
L 269 3500 
z
" transform="scale(0.015625)"/>
       <path id="DejaVuSans-28" d="M 1984 4856 
Q 1566 4138 1362 3434 
Q 1159 2731 1159 2009 
Q 1159 1288 1364 580 
Q 1569 -128 1984 -844 
L 1484 -844 
Q 1016 -109 783 600 
Q 550 1309 550 2009 
Q 550 2706 781 3412 
Q 1013 4119 1484 4856 
L 1984 4856 
z
" transform="scale(0.015625)"/>
       <path id="DejaVuSans-29" d="M 513 4856 
L 1013 4856 
Q 1481 4119 1714 3412 
Q 1947 2706 1947 2009 
Q 1947 1309 1714 600 
Q 1481 -109 1013 -844 
L 513 -844 
Q 928 -128 1133 580 
Q 1338 1288 1338 2009 
Q 1338 2731 1133 3434 
Q 928 4138 513 4856 
z
" transform="scale(0.015625)"/>
      </defs>
      <use xlink:href="#DejaVuSans-77"/>
      <use xlink:href="#DejaVuSans-28" transform="translate(81.787109 0)"/>
      <use xlink:href="#DejaVuSans-6e" transform="translate(120.800781 0)"/>
      <use xlink:href="#DejaVuSans-29" transform="translate(184.179688 0)"/>
     </g>
    </g>
   </g>
   <g id="line2d_21">
    <path d="M 88.746818 64.324545 
L 95.714062 64.324545 
L 102.681306 64.324545 
L 109.64855 64.324545 
L 116.615794 64.324545 
L 123.583038 64.324545 
L 130.550281 64.324545 
L 137.517525 64.324545 
L 144.484769 64.324545 
L 151.452013 64.324545 
L 158.419257 64.324545 
L 165.386501 64.324545 
L 172.353745 64.324545 
L 179.320988 64.324545 
L 186.288232 64.324545 
L 193.255476 64.324545 
L 200.22272 64.324545 
L 207.189964 64.324545 
L 214.157208 64.324545 
L 221.124452 64.324545 
L 228.091696 64.324545 
L 235.058939 64.324545 
L 242.026183 64.324545 
L 248.993427 64.324545 
L 255.960671 64.324545 
L 262.927915 64.324545 
L 269.895159 64.324545 
L 276.862403 64.324545 
L 283.829646 64.324545 
L 290.79689 64.324545 
L 297.764134 64.324545 
L 304.731378 64.324545 
L 311.698622 64.324545 
L 318.665866 64.324545 
L 325.63311 64.324545 
L 332.600354 64.324545 
L 339.567597 64.324545 
L 346.534841 64.324545 
L 353.502085 64.324545 
L 360.469329 64.324545 
L 367.436573 64.324545 
L 374.403817 64.324545 
L 381.371061 64.324545 
L 388.338304 64.324545 
L 395.305548 64.324545 
L 402.272792 64.324545 
L 409.240036 64.324545 
L 416.20728 64.324545 
L 423.174524 64.324545 
L 430.141768 64.324545 
L 437.109012 64.324545 
L 444.076255 64.324545 
L 451.043499 64.324545 
L 458.010743 64.324545 
L 464.977987 64.324545 
L 471.945231 64.324545 
L 478.912475 64.324545 
L 485.879719 64.324545 
L 492.846962 64.324545 
L 499.814206 64.324545 
L 506.78145 64.324545 
L 513.748694 64.324545 
L 520.715938 64.324545 
L 527.683182 64.324545 
" clip-path="url(#p3424be4b1b)" style="fill: none; stroke: #0000ff; stroke-width: 2; stroke-linecap: square"/>
   </g>
   <g id="line2d_22">
    <path d="M 88.746818 179.615455 
L 95.714062 179.329001 
L 102.681306 178.472489 
L 109.64855 177.054429 
L 116.615794 175.088915 
L 123.583038 172.595482 
L 130.550281 169.59891 
L 137.517525 166.12898 
L 144.484769 162.220179 
L 151.452013 157.911353 
L 158.419257 153.245326 
L 165.386501 148.268471 
L 172.353745 143.030249 
L 179.320988 137.582722 
L 186.288232 131.980028 
L 193.255476 126.27785 
L 200.22272 120.532859 
L 207.189964 114.802151 
L 214.157208 109.14268 
L 221.124452 103.610692 
L 228.091696 98.261168 
L 235.058939 93.147273 
L 242.026183 88.319831 
L 248.993427 83.826819 
L 255.960671 79.712892 
L 262.927915 76.018934 
L 269.895159 72.781659 
L 276.862403 70.03324 
L 283.829646 67.800992 
L 290.79689 66.107099 
L 297.764134 64.968398 
L 304.731378 64.396203 
L 311.698622 64.396203 
L 318.665866 64.968398 
L 325.63311 66.107099 
L 332.600354 67.800992 
L 339.567597 70.03324 
L 346.534841 72.781659 
L 353.502085 76.018934 
L 360.469329 79.712892 
L 367.436573 83.826819 
L 374.403817 88.319831 
L 381.371061 93.147273 
L 388.338304 98.261168 
L 395.305548 103.610692 
L 402.272792 109.14268 
L 409.240036 114.802151 
L 416.20728 120.532859 
L 423.174524 126.27785 
L 430.141768 131.980028 
L 437.109012 137.582722 
L 444.076255 143.030249 
L 451.043499 148.268471 
L 458.010743 153.245326 
L 464.977987 157.911353 
L 471.945231 162.220179 
L 478.912475 166.12898 
L 485.879719 169.59891 
L 492.846962 172.595482 
L 499.814206 175.088915 
L 506.78145 177.054429 
L 513.748694 178.472489 
L 520.715938 179.329001 
L 527.683182 179.615455 
" clip-path="url(#p3424be4b1b)" style="fill: none; stroke: #ff0000; stroke-width: 2; stroke-linecap: square"/>
   </g>
   <g id="line2d_23">
    <path d="M 88.746818 170.392182 
L 95.714062 170.128645 
L 102.681306 169.340653 
L 109.64855 168.036038 
L 116.615794 166.227766 
L 123.583038 163.933807 
L 130.550281 161.176961 
L 137.517525 157.984625 
L 144.484769 154.388528 
L 151.452013 150.424408 
L 158.419257 146.131664 
L 165.386501 141.552957 
L 172.353745 136.733793 
L 179.320988 131.722068 
L 186.288232 126.56759 
L 193.255476 121.321586 
L 200.22272 116.036194 
L 207.189964 110.763942 
L 214.157208 105.557229 
L 221.124452 100.467801 
L 228.091696 95.546238 
L 235.058939 90.841455 
L 242.026183 86.400208 
L 248.993427 82.266637 
L 255.960671 78.481824 
L 262.927915 75.083383 
L 269.895159 72.10509 
L 276.862403 69.576545 
L 283.829646 67.522876 
L 290.79689 65.964495 
L 297.764134 64.916889 
L 304.731378 64.390471 
L 311.698622 64.390471 
L 318.665866 64.916889 
L 325.63311 65.964495 
L 332.600354 67.522876 
L 339.567597 69.576545 
L 346.534841 72.10509 
L 353.502085 75.083383 
L 360.469329 78.481824 
L 367.436573 82.266637 
L 374.403817 86.400208 
L 381.371061 90.841455 
L 388.338304 95.546238 
L 395.305548 100.467801 
L 402.272792 105.557229 
L 409.240036 110.763942 
L 416.20728 116.036194 
L 423.174524 121.321586 
L 430.141768 126.56759 
L 437.109012 131.722068 
L 444.076255 136.733793 
L 451.043499 141.552957 
L 458.010743 146.131664 
L 464.977987 150.424408 
L 471.945231 154.388528 
L 478.912475 157.984625 
L 485.879719 161.176961 
L 492.846962 163.933807 
L 499.814206 166.227766 
L 506.78145 168.036038 
L 513.748694 169.340653 
L 520.715938 170.128645 
L 527.683182 170.392182 
" clip-path="url(#p3424be4b1b)" style="fill: none; stroke-dasharray: 7.4,3.2; stroke-dashoffset: 0; stroke: #008000; stroke-width: 2"/>
   </g>
   <g id="patch_3">
    <path d="M 66.8 185.38 
L 66.8 58.56 
" style="fill: none; stroke: #000000; stroke-width: 0.8; stroke-linejoin: miter; stroke-linecap: square"/>
   </g>
   <g id="patch_4">
    <path d="M 549.63 185.38 
L 549.63 58.56 
" style="fill: none; stroke: #000000; stroke-width: 0.8; stroke-linejoin: miter; stroke-linecap: square"/>
   </g>
   <g id="patch_5">
    <path d="M 66.8 185.38 
L 549.63 185.38 
" style="fill: none; stroke: #000000; stroke-width: 0.8; stroke-linejoin: miter; stroke-linecap: square"/>
   </g>
   <g id="patch_6">
    <path d="M 66.8 58.56 
L 549.63 58.56 
" style="fill: none; stroke: #000000; stroke-width: 0.8; stroke-linejoin: miter; stroke-linecap: square"/>
   </g>
   <g id="text_13">
    <!-- Funkcje okna -->
    <g transform="translate(262.26 52.56) scale(0.14 -0.14)">
     <defs>
      <path id="DejaVuSans-46" d="M 628 4666 
L 3309 4666 
L 3309 4134 
L 1259 4134 
L 1259 2759 
L 3109 2759 
L 3109 2228 
L 1259 2228 
L 1259 0 
L 628 0 
L 628 4666 
z
" transform="scale(0.015625)"/>
      <path id="DejaVuSans-75" d="M 544 1381 
L 544 3500 
L 1119 3500 
L 1119 1403 
Q 1119 906 1312 657 
Q 1506 409 1894 409 
Q 2359 409 2629 706 
Q 2900 1003 2900 1516 
L 2900 3500 
L 3475 3500 
L 3475 0 
L 2900 0 
L 2900 538 
Q 2691 219 2414 64 
Q 2138 -91 1772 -91 
Q 1169 -91 856 284 
Q 544 659 544 1381 
z
M 1991 3584 
L 1991 3584 
z
" transform="scale(0.015625)"/>
      <path id="DejaVuSans-6b" d="M 581 4863 
L 1159 4863 
L 1159 1991 
L 2875 3500 
L 3609 3500 
L 1753 1863 
L 3688 0 
L 2938 0 
L 1159 1709 
L 1159 0 
L 581 0 
L 581 4863 
z
" transform="scale(0.015625)"/>
      <path id="DejaVuSans-63" d="M 3122 3366 
L 3122 2828 
Q 2878 2963 2633 3030 
Q 2388 3097 2138 3097 
Q 1578 3097 1268 2742 
Q 959 2388 959 1747 
Q 959 1106 1268 751 
Q 1578 397 2138 397 
Q 2388 397 2633 464 
Q 2878 531 3122 666 
L 3122 134 
Q 2881 22 2623 -34 
Q 2366 -91 2075 -91 
Q 1284 -91 818 406 
Q 353 903 353 1747 
Q 353 2603 823 3093 
Q 1294 3584 2113 3584 
Q 2378 3584 2631 3529 
Q 2884 3475 3122 3366 
z
" transform="scale(0.015625)"/>
      <path id="DejaVuSans-6a" d="M 603 3500 
L 1178 3500 
L 1178 -63 
Q 1178 -731 923 -1031 
Q 669 -1331 103 -1331 
L -116 -1331 
L -116 -844 
L 38 -844 
Q 366 -844 484 -692 
Q 603 -541 603 -63 
L 603 3500 
z
M 603 4863 
L 1178 4863 
L 1178 4134 
L 603 4134 
L 603 4863 
z
" transform="scale(0.015625)"/>
      <path id="DejaVuSans-65" d="M 3597 1894 
L 3597 1613 
L 953 1613 
Q 991 1019 1311 708 
Q 1631 397 2203 397 
Q 2534 397 2845 478 
Q 3156 559 3463 722 
L 3463 178 
Q 3153 47 2828 -22 
Q 2503 -91 2169 -91 
Q 1331 -91 842 396 
Q 353 884 353 1716 
Q 353 2575 817 3079 
Q 1281 3584 2069 3584 
Q 2775 3584 3186 3129 
Q 3597 2675 3597 1894 
z
M 3022 2063 
Q 3016 2534 2758 2815 
Q 2500 3097 2075 3097 
Q 1594 3097 1305 2825 
Q 1016 2553 972 2059 
L 3022 2063 
z
" transform="scale(0.015625)"/>
      <path id="DejaVuSans-20" transform="scale(0.015625)"/>
      <path id="DejaVuSans-6f" d="M 1959 3097 
Q 1497 3097 1228 2736 
Q 959 2375 959 1747 
Q 959 1119 1226 758 
Q 1494 397 1959 397 
Q 2419 397 2687 759 
Q 2956 1122 2956 1747 
Q 2956 2369 2687 2733 
Q 2419 3097 1959 3097 
z
M 1959 3584 
Q 2709 3584 3137 3096 
Q 3566 2609 3566 1747 
Q 3566 888 3137 398 
Q 2709 -91 1959 -91 
Q 1206 -91 779 398 
Q 353 888 353 1747 
Q 353 2609 779 3096 
Q 1206 3584 1959 3584 
z
" transform="scale(0.015625)"/>
      <path id="DejaVuSans-61" d="M 2194 1759 
Q 1497 1759 1228 1600 
Q 959 1441 959 1056 
Q 959 750 1161 570 
Q 1363 391 1709 391 
Q 2188 391 2477 730 
Q 2766 1069 2766 1631 
L 2766 1759 
L 2194 1759 
z
M 3341 1997 
L 3341 0 
L 2766 0 
L 2766 531 
Q 2569 213 2275 61 
Q 1981 -91 1556 -91 
Q 1019 -91 701 211 
Q 384 513 384 1019 
Q 384 1609 779 1909 
Q 1175 2209 1959 2209 
L 2766 2209 
L 2766 2266 
Q 2766 2663 2505 2880 
Q 2244 3097 1772 3097 
Q 1472 3097 1187 3025 
Q 903 2953 641 2809 
L 641 3341 
Q 956 3463 1253 3523 
Q 1550 3584 1831 3584 
Q 2591 3584 2966 3190 
Q 3341 2797 3341 1997 
z
" transform="scale(0.015625)"/>
     </defs>
     <use xlink:href="#DejaVuSans-46"/>
     <use xlink:href="#DejaVuSans-75" transform="translate(52.019531 0)"/>
     <use xlink:href="#DejaVuSans-6e" transform="translate(115.398438 0)"/>
     <use xlink:href="#DejaVuSans-6b" transform="translate(178.777344 0)"/>
     <use xlink:href="#DejaVuSans-63" transform="translate(236.6875 0)"/>
     <use xlink:href="#DejaVuSans-6a" transform="translate(291.667969 0)"/>
     <use xlink:href="#DejaVuSans-65" transform="translate(319.451172 0)"/>
     <use xlink:href="#DejaVuSans-20" transform="translate(380.974609 0)"/>
     <use xlink:href="#DejaVuSans-6f" transform="translate(412.761719 0)"/>
     <use xlink:href="#DejaVuSans-6b" transform="translate(473.943359 0)"/>
     <use xlink:href="#DejaVuSans-6e" transform="translate(531.853516 0)"/>
     <use xlink:href="#DejaVuSans-61" transform="translate(595.232422 0)"/>
    </g>
   </g>
   <g id="legend_1">
    <g id="patch_7">
     <path d="M 248.780625 178.88 
L 367.649375 178.88 
Q 370.249375 178.88 370.249375 176.28 
L 370.249375 120.335313 
Q 370.249375 117.735313 367.649375 117.735313 
L 248.780625 117.735313 
Q 246.180625 117.735313 246.180625 120.335313 
L 246.180625 176.28 
Q 246.180625 178.88 248.780625 178.88 
z
" style="fill: #ffffff; opacity: 0.8; stroke: #cccccc; stroke-linejoin: miter"/>
    </g>
    <g id="line2d_24">
     <path d="M 251.380625 128.263281 
L 264.380625 128.263281 
L 277.380625 128.263281 
" style="fill: none; stroke: #0000ff; stroke-width: 2; stroke-linecap: square"/>
    </g>
    <g id="text_14">
     <!-- Prostokątne -->
     <g transform="translate(287.780625 132.813281) scale(0.13 -0.13)">
      <defs>
       <path id="DejaVuSans-50" d="M 1259 4147 
L 1259 2394 
L 2053 2394 
Q 2494 2394 2734 2622 
Q 2975 2850 2975 3272 
Q 2975 3691 2734 3919 
Q 2494 4147 2053 4147 
L 1259 4147 
z
M 628 4666 
L 2053 4666 
Q 2838 4666 3239 4311 
Q 3641 3956 3641 3272 
Q 3641 2581 3239 2228 
Q 2838 1875 2053 1875 
L 1259 1875 
L 1259 0 
L 628 0 
L 628 4666 
z
" transform="scale(0.015625)"/>
       <path id="DejaVuSans-72" d="M 2631 2963 
Q 2534 3019 2420 3045 
Q 2306 3072 2169 3072 
Q 1681 3072 1420 2755 
Q 1159 2438 1159 1844 
L 1159 0 
L 581 0 
L 581 3500 
L 1159 3500 
L 1159 2956 
Q 1341 3275 1631 3429 
Q 1922 3584 2338 3584 
Q 2397 3584 2469 3576 
Q 2541 3569 2628 3553 
L 2631 2963 
z
" transform="scale(0.015625)"/>
       <path id="DejaVuSans-73" d="M 2834 3397 
L 2834 2853 
Q 2591 2978 2328 3040 
Q 2066 3103 1784 3103 
Q 1356 3103 1142 2972 
Q 928 2841 928 2578 
Q 928 2378 1081 2264 
Q 1234 2150 1697 2047 
L 1894 2003 
Q 2506 1872 2764 1633 
Q 3022 1394 3022 966 
Q 3022 478 2636 193 
Q 2250 -91 1575 -91 
Q 1294 -91 989 -36 
Q 684 19 347 128 
L 347 722 
Q 666 556 975 473 
Q 1284 391 1588 391 
Q 1994 391 2212 530 
Q 2431 669 2431 922 
Q 2431 1156 2273 1281 
Q 2116 1406 1581 1522 
L 1381 1569 
Q 847 1681 609 1914 
Q 372 2147 372 2553 
Q 372 3047 722 3315 
Q 1072 3584 1716 3584 
Q 2034 3584 2315 3537 
Q 2597 3491 2834 3397 
z
" transform="scale(0.015625)"/>
       <path id="DejaVuSans-74" d="M 1172 4494 
L 1172 3500 
L 2356 3500 
L 2356 3053 
L 1172 3053 
L 1172 1153 
Q 1172 725 1289 603 
Q 1406 481 1766 481 
L 2356 481 
L 2356 0 
L 1766 0 
Q 1100 0 847 248 
Q 594 497 594 1153 
L 594 3053 
L 172 3053 
L 172 3500 
L 594 3500 
L 594 4494 
L 1172 4494 
z
" transform="scale(0.015625)"/>
       <path id="DejaVuSans-105" d="M 2194 1759 
Q 1497 1759 1228 1600 
Q 959 1441 959 1056 
Q 959 750 1161 570 
Q 1363 391 1709 391 
Q 2188 391 2477 730 
Q 2766 1069 2766 1631 
L 2766 1759 
L 2194 1759 
z
M 3341 1997 
L 3341 0 
L 2766 0 
L 2766 531 
Q 2569 213 2275 61 
Q 1981 -91 1556 -91 
Q 1019 -91 701 211 
Q 384 513 384 1019 
Q 384 1609 779 1909 
Q 1175 2209 1959 2209 
L 2766 2209 
L 2766 2266 
Q 2766 2663 2505 2880 
Q 2244 3097 1772 3097 
Q 1472 3097 1187 3025 
Q 903 2953 641 2809 
L 641 3341 
Q 956 3463 1253 3523 
Q 1550 3584 1831 3584 
Q 2591 3584 2966 3190 
Q 3341 2797 3341 1997 
z
M 2775 0 
L 3147 0 
Q 3006 -191 2939 -328 
Q 2872 -466 2872 -563 
Q 2872 -706 2958 -778 
Q 3044 -850 3213 -850 
Q 3313 -850 3409 -826 
Q 3506 -803 3603 -756 
L 3603 -1172 
Q 3484 -1203 3378 -1218 
Q 3272 -1234 3178 -1234 
Q 2797 -1234 2617 -1098 
Q 2438 -963 2438 -672 
Q 2438 -522 2520 -358 
Q 2603 -194 2775 0 
z
" transform="scale(0.015625)"/>
      </defs>
      <use xlink:href="#DejaVuSans-50"/>
      <use xlink:href="#DejaVuSans-72" transform="translate(58.552734 0)"/>
      <use xlink:href="#DejaVuSans-6f" transform="translate(97.416016 0)"/>
      <use xlink:href="#DejaVuSans-73" transform="translate(158.597656 0)"/>
      <use xlink:href="#DejaVuSans-74" transform="translate(210.697266 0)"/>
      <use xlink:href="#DejaVuSans-6f" transform="translate(249.90625 0)"/>
      <use xlink:href="#DejaVuSans-6b" transform="translate(311.087891 0)"/>
      <use xlink:href="#DejaVuSans-105" transform="translate(368.998047 0)"/>
      <use xlink:href="#DejaVuSans-74" transform="translate(430.277344 0)"/>
      <use xlink:href="#DejaVuSans-6e" transform="translate(469.486328 0)"/>
      <use xlink:href="#DejaVuSans-65" transform="translate(532.865234 0)"/>
     </g>
    </g>
    <g id="line2d_25">
     <path d="M 251.380625 147.344844 
L 264.380625 147.344844 
L 277.380625 147.344844 
" style="fill: none; stroke: #ff0000; stroke-width: 2; stroke-linecap: square"/>
    </g>
    <g id="text_15">
     <!-- Hanninga -->
     <g transform="translate(287.780625 151.894844) scale(0.13 -0.13)">
      <defs>
       <path id="DejaVuSans-48" d="M 628 4666 
L 1259 4666 
L 1259 2753 
L 3553 2753 
L 3553 4666 
L 4184 4666 
L 4184 0 
L 3553 0 
L 3553 2222 
L 1259 2222 
L 1259 0 
L 628 0 
L 628 4666 
z
" transform="scale(0.015625)"/>
       <path id="DejaVuSans-69" d="M 603 3500 
L 1178 3500 
L 1178 0 
L 603 0 
L 603 3500 
z
M 603 4863 
L 1178 4863 
L 1178 4134 
L 603 4134 
L 603 4863 
z
" transform="scale(0.015625)"/>
       <path id="DejaVuSans-67" d="M 2906 1791 
Q 2906 2416 2648 2759 
Q 2391 3103 1925 3103 
Q 1463 3103 1205 2759 
Q 947 2416 947 1791 
Q 947 1169 1205 825 
Q 1463 481 1925 481 
Q 2391 481 2648 825 
Q 2906 1169 2906 1791 
z
M 3481 434 
Q 3481 -459 3084 -895 
Q 2688 -1331 1869 -1331 
Q 1566 -1331 1297 -1286 
Q 1028 -1241 775 -1147 
L 775 -588 
Q 1028 -725 1275 -790 
Q 1522 -856 1778 -856 
Q 2344 -856 2625 -561 
Q 2906 -266 2906 331 
L 2906 616 
Q 2728 306 2450 153 
Q 2172 0 1784 0 
Q 1141 0 747 490 
Q 353 981 353 1791 
Q 353 2603 747 3093 
Q 1141 3584 1784 3584 
Q 2172 3584 2450 3431 
Q 2728 3278 2906 2969 
L 2906 3500 
L 3481 3500 
L 3481 434 
z
" transform="scale(0.015625)"/>
      </defs>
      <use xlink:href="#DejaVuSans-48"/>
      <use xlink:href="#DejaVuSans-61" transform="translate(75.195312 0)"/>
      <use xlink:href="#DejaVuSans-6e" transform="translate(136.474609 0)"/>
      <use xlink:href="#DejaVuSans-6e" transform="translate(199.853516 0)"/>
      <use xlink:href="#DejaVuSans-69" transform="translate(263.232422 0)"/>
      <use xlink:href="#DejaVuSans-6e" transform="translate(291.015625 0)"/>
      <use xlink:href="#DejaVuSans-67" transform="translate(354.394531 0)"/>
      <use xlink:href="#DejaVuSans-61" transform="translate(417.871094 0)"/>
     </g>
    </g>
    <g id="line2d_26">
     <path d="M 251.380625 166.426406 
L 264.380625 166.426406 
L 277.380625 166.426406 
" style="fill: none; stroke-dasharray: 7.4,3.2; stroke-dashoffset: 0; stroke: #008000; stroke-width: 2"/>
    </g>
    <g id="text_16">
     <!-- Hamminga -->
     <g transform="translate(287.780625 170.976406) scale(0.13 -0.13)">
      <defs>
       <path id="DejaVuSans-6d" d="M 3328 2828 
Q 3544 3216 3844 3400 
Q 4144 3584 4550 3584 
Q 5097 3584 5394 3201 
Q 5691 2819 5691 2113 
L 5691 0 
L 5113 0 
L 5113 2094 
Q 5113 2597 4934 2840 
Q 4756 3084 4391 3084 
Q 3944 3084 3684 2787 
Q 3425 2491 3425 1978 
L 3425 0 
L 2847 0 
L 2847 2094 
Q 2847 2600 2669 2842 
Q 2491 3084 2119 3084 
Q 1678 3084 1418 2786 
Q 1159 2488 1159 1978 
L 1159 0 
L 581 0 
L 581 3500 
L 1159 3500 
L 1159 2956 
Q 1356 3278 1631 3431 
Q 1906 3584 2284 3584 
Q 2666 3584 2933 3390 
Q 3200 3197 3328 2828 
z
" transform="scale(0.015625)"/>
      </defs>
      <use xlink:href="#DejaVuSans-48"/>
      <use xlink:href="#DejaVuSans-61" transform="translate(75.195312 0)"/>
      <use xlink:href="#DejaVuSans-6d" transform="translate(136.474609 0)"/>
      <use xlink:href="#DejaVuSans-6d" transform="translate(233.886719 0)"/>
      <use xlink:href="#DejaVuSans-69" transform="translate(331.298828 0)"/>
      <use xlink:href="#DejaVuSans-6e" transform="translate(359.082031 0)"/>
      <use xlink:href="#DejaVuSans-67" transform="translate(422.460938 0)"/>
      <use xlink:href="#DejaVuSans-61" transform="translate(485.9375 0)"/>
     </g>
    </g>
   </g>
  </g>
  <g id="axes_2">
   <g id="patch_8">
    <path d="M 66.8 381.04 
L 549.63 381.04 
L 549.63 254.22 
L 66.8 254.22 
z
" style="fill: #ffffff"/>
   </g>
   <g id="patch_9">
    <path d="M 55.725087 381.04 
L 66.286993 381.04 
L 66.286993 380.758059 
L 55.725087 380.758059 
z
" clip-path="url(#pced23ce80f)" style="fill: #4682b4; opacity: 0.7; stroke: #000000; stroke-linejoin: miter"/>
   </g>
   <g id="patch_10">
    <path d="M 85.901962 381.04 
L 96.463868 381.04 
L 96.463868 380.740499 
L 85.901962 380.740499 
z
" clip-path="url(#pced23ce80f)" style="fill: #4682b4; opacity: 0.7; stroke: #000000; stroke-linejoin: miter"/>
   </g>
   <g id="patch_11">
    <path d="M 116.078837 381.04 
L 126.640743 381.04 
L 126.640743 380.680415 
L 116.078837 380.680415 
z
" clip-path="url(#pced23ce80f)" style="fill: #4682b4; opacity: 0.7; stroke: #000000; stroke-linejoin: miter"/>
   </g>
   <g id="patch_12">
    <path d="M 146.255712 381.04 
L 156.817618 381.04 
L 156.817618 380.543595 
L 146.255712 380.543595 
z
" clip-path="url(#pced23ce80f)" style="fill: #4682b4; opacity: 0.7; stroke: #000000; stroke-linejoin: miter"/>
   </g>
   <g id="patch_13">
    <path d="M 176.432587 381.04 
L 186.994493 381.04 
L 186.994493 380.182065 
L 176.432587 380.182065 
z
" clip-path="url(#pced23ce80f)" style="fill: #4682b4; opacity: 0.7; stroke: #000000; stroke-linejoin: miter"/>
   </g>
   <g id="patch_14">
    <path d="M 206.609462 381.04 
L 217.171368 381.04 
L 217.171368 377.816404 
L 206.609462 377.816404 
z
" clip-path="url(#pced23ce80f)" style="fill: #4682b4; opacity: 0.7; stroke: #000000; stroke-linejoin: miter"/>
   </g>
   <g id="patch_15">
    <path d="M 236.786337 381.04 
L 247.348243 381.04 
L 247.348243 379.103764 
L 236.786337 379.103764 
z
" clip-path="url(#pced23ce80f)" style="fill: #4682b4; opacity: 0.7; stroke: #000000; stroke-linejoin: miter"/>
   </g>
   <g id="patch_16">
    <path d="M 266.963212 381.04 
L 277.525118 381.04 
L 277.525118 380.271941 
L 266.963212 380.271941 
z
" clip-path="url(#pced23ce80f)" style="fill: #4682b4; opacity: 0.7; stroke: #000000; stroke-linejoin: miter"/>
   </g>
   <g id="patch_17">
    <path d="M 297.140087 381.04 
L 307.701993 381.04 
L 307.701993 380.550818 
L 297.140087 380.550818 
z
" clip-path="url(#pced23ce80f)" style="fill: #4682b4; opacity: 0.7; stroke: #000000; stroke-linejoin: miter"/>
   </g>
   <g id="patch_18">
    <path d="M 327.316962 381.04 
L 337.878868 381.04 
L 337.878868 380.675711 
L 327.316962 380.675711 
z
" clip-path="url(#pced23ce80f)" style="fill: #4682b4; opacity: 0.7; stroke: #000000; stroke-linejoin: miter"/>
   </g>
   <g id="patch_19">
    <path d="M 357.493837 381.04 
L 368.055743 381.04 
L 368.055743 380.746525 
L 357.493837 380.746525 
z
" clip-path="url(#pced23ce80f)" style="fill: #4682b4; opacity: 0.7; stroke: #000000; stroke-linejoin: miter"/>
   </g>
   <g id="patch_20">
    <path d="M 387.670712 381.04 
L 398.232618 381.04 
L 398.232618 380.792123 
L 387.670712 380.792123 
z
" clip-path="url(#pced23ce80f)" style="fill: #4682b4; opacity: 0.7; stroke: #000000; stroke-linejoin: miter"/>
   </g>
   <g id="patch_21">
    <path d="M 417.847587 381.04 
L 428.409493 381.04 
L 428.409493 380.823919 
L 417.847587 380.823919 
z
" clip-path="url(#pced23ce80f)" style="fill: #4682b4; opacity: 0.7; stroke: #000000; stroke-linejoin: miter"/>
   </g>
   <g id="patch_22">
    <path d="M 448.024462 381.04 
L 458.586368 381.04 
L 458.586368 380.847332 
L 448.024462 380.847332 
z
" clip-path="url(#pced23ce80f)" style="fill: #4682b4; opacity: 0.7; stroke: #000000; stroke-linejoin: miter"/>
   </g>
   <g id="patch_23">
    <path d="M 478.201337 381.04 
L 488.763243 381.04 
L 488.763243 380.865259 
L 478.201337 380.865259 
z
" clip-path="url(#pced23ce80f)" style="fill: #4682b4; opacity: 0.7; stroke: #000000; stroke-linejoin: miter"/>
   </g>
   <g id="patch_24">
    <path d="M 508.378212 381.04 
L 518.940118 381.04 
L 518.940118 380.879392 
L 508.378212 380.879392 
z
" clip-path="url(#pced23ce80f)" style="fill: #4682b4; opacity: 0.7; stroke: #000000; stroke-linejoin: miter"/>
   </g>
   <g id="patch_25">
    <path d="M 538.555087 381.04 
L 549.116993 381.04 
L 549.116993 380.890783 
L 538.555087 380.890783 
z
" clip-path="url(#pced23ce80f)" style="fill: #4682b4; opacity: 0.7; stroke: #000000; stroke-linejoin: miter"/>
   </g>
   <g id="patch_26">
    <path d="M 568.731962 381.04 
L 579.293868 381.04 
L 579.293868 380.900122 
L 568.731962 380.900122 
z
" clip-path="url(#pced23ce80f)" style="fill: #4682b4; opacity: 0.7; stroke: #000000; stroke-linejoin: miter"/>
   </g>
   <g id="patch_27">
    <path d="M 598.908837 381.04 
L 609.470743 381.04 
L 609.470743 380.907879 
L 598.908837 380.907879 
z
" clip-path="url(#pced23ce80f)" style="fill: #4682b4; opacity: 0.7; stroke: #000000; stroke-linejoin: miter"/>
   </g>
   <g id="patch_28">
    <path d="M 629.085712 381.04 
L 639.647618 381.04 
L 639.647618 380.914385 
L 629.085712 380.914385 
z
" clip-path="url(#pced23ce80f)" style="fill: #4682b4; opacity: 0.7; stroke: #000000; stroke-linejoin: miter"/>
   </g>
   <g id="patch_29">
    <path d="M 659.262587 381.04 
L 669.824493 381.04 
L 669.824493 380.919882 
L 659.262587 380.919882 
z
" clip-path="url(#pced23ce80f)" style="fill: #4682b4; opacity: 0.7; stroke: #000000; stroke-linejoin: miter"/>
   </g>
   <g id="patch_30">
    <path d="M 689.439462 381.04 
L 700.001368 381.04 
L 700.001368 380.924547 
L 689.439462 380.924547 
z
" clip-path="url(#pced23ce80f)" style="fill: #4682b4; opacity: 0.7; stroke: #000000; stroke-linejoin: miter"/>
   </g>
   <g id="patch_31">
    <path d="M 719.616337 381.04 
L 730.178243 381.04 
L 730.178243 380.928515 
L 719.616337 380.928515 
z
" clip-path="url(#pced23ce80f)" style="fill: #4682b4; opacity: 0.7; stroke: #000000; stroke-linejoin: miter"/>
   </g>
   <g id="patch_32">
    <path d="M 749.793212 381.04 
L 760.355118 381.04 
L 760.355118 380.931888 
L 749.793212 380.931888 
z
" clip-path="url(#pced23ce80f)" style="fill: #4682b4; opacity: 0.7; stroke: #000000; stroke-linejoin: miter"/>
   </g>
   <g id="patch_33">
    <path d="M 779.970087 381.04 
L 790.531993 381.04 
L 790.531993 380.934748 
L 779.970087 380.934748 
z
" clip-path="url(#pced23ce80f)" style="fill: #4682b4; opacity: 0.7; stroke: #000000; stroke-linejoin: miter"/>
   </g>
   <g id="patch_34">
    <path d="M 810.146962 381.04 
L 820.708868 381.04 
L 820.708868 380.937156 
L 810.146962 380.937156 
z
" clip-path="url(#pced23ce80f)" style="fill: #4682b4; opacity: 0.7; stroke: #000000; stroke-linejoin: miter"/>
   </g>
   <g id="patch_35">
    <path d="M 840.323837 381.04 
L 850.885743 381.04 
L 850.885743 380.939161 
L 840.323837 380.939161 
z
" clip-path="url(#pced23ce80f)" style="fill: #4682b4; opacity: 0.7; stroke: #000000; stroke-linejoin: miter"/>
   </g>
   <g id="patch_36">
    <path d="M 870.500712 381.04 
L 881.062618 381.04 
L 881.062618 380.940802 
L 870.500712 380.940802 
z
" clip-path="url(#pced23ce80f)" style="fill: #4682b4; opacity: 0.7; stroke: #000000; stroke-linejoin: miter"/>
   </g>
   <g id="patch_37">
    <path d="M 900.677587 381.04 
L 911.239493 381.04 
L 911.239493 380.942108 
L 900.677587 380.942108 
z
" clip-path="url(#pced23ce80f)" style="fill: #4682b4; opacity: 0.7; stroke: #000000; stroke-linejoin: miter"/>
   </g>
   <g id="patch_38">
    <path d="M 930.854462 381.04 
L 941.416368 381.04 
L 941.416368 380.943102 
L 930.854462 380.943102 
z
" clip-path="url(#pced23ce80f)" style="fill: #4682b4; opacity: 0.7; stroke: #000000; stroke-linejoin: miter"/>
   </g>
   <g id="patch_39">
    <path d="M 961.031337 381.04 
L 971.593243 381.04 
L 971.593243 380.9438 
L 961.031337 380.9438 
z
" clip-path="url(#pced23ce80f)" style="fill: #4682b4; opacity: 0.7; stroke: #000000; stroke-linejoin: miter"/>
   </g>
   <g id="patch_40">
    <path d="M 991.208212 381.04 
L 1001.770118 381.04 
L 1001.770118 380.944215 
L 991.208212 380.944215 
z
" clip-path="url(#pced23ce80f)" style="fill: #4682b4; opacity: 0.7; stroke: #000000; stroke-linejoin: miter"/>
   </g>
   <g id="patch_41">
    <path d="M 67.313007 381.04 
L 77.874913 381.04 
L 77.874913 380.753368 
L 67.313007 380.753368 
z
" clip-path="url(#pced23ce80f)" style="fill: #ff4500; opacity: 0.7; stroke: #000000; stroke-linejoin: miter"/>
   </g>
   <g id="patch_42">
    <path d="M 97.489882 381.04 
L 108.051788 381.04 
L 108.051788 380.59864 
L 97.489882 380.59864 
z
" clip-path="url(#pced23ce80f)" style="fill: #ff4500; opacity: 0.7; stroke: #000000; stroke-linejoin: miter"/>
   </g>
   <g id="patch_43">
    <path d="M 127.666757 381.04 
L 138.228663 381.04 
L 138.228663 379.99469 
L 127.666757 379.99469 
z
" clip-path="url(#pced23ce80f)" style="fill: #ff4500; opacity: 0.7; stroke: #000000; stroke-linejoin: miter"/>
   </g>
   <g id="patch_44">
    <path d="M 157.843632 381.04 
L 168.405538 381.04 
L 168.405538 377.551964 
L 157.843632 377.551964 
z
" clip-path="url(#pced23ce80f)" style="fill: #ff4500; opacity: 0.7; stroke: #000000; stroke-linejoin: miter"/>
   </g>
   <g id="patch_45">
    <path d="M 188.020507 381.04 
L 198.582413 381.04 
L 198.582413 347.303985 
L 188.020507 347.303985 
z
" clip-path="url(#pced23ce80f)" style="fill: #ff4500; opacity: 0.7; stroke: #000000; stroke-linejoin: miter"/>
   </g>
   <g id="patch_46">
    <path d="M 218.197382 381.04 
L 228.759288 381.04 
L 228.759288 260.259048 
L 218.197382 260.259048 
z
" clip-path="url(#pced23ce80f)" style="fill: #ff4500; opacity: 0.7; stroke: #000000; stroke-linejoin: miter"/>
   </g>
   <g id="patch_47">
    <path d="M 248.374257 381.04 
L 258.936163 381.04 
L 258.936163 278.964824 
L 248.374257 278.964824 
z
" clip-path="url(#pced23ce80f)" style="fill: #ff4500; opacity: 0.7; stroke: #000000; stroke-linejoin: miter"/>
   </g>
   <g id="patch_48">
    <path d="M 278.551132 381.04 
L 289.113038 381.04 
L 289.113038 365.335188 
L 278.551132 365.335188 
z
" clip-path="url(#pced23ce80f)" style="fill: #ff4500; opacity: 0.7; stroke: #000000; stroke-linejoin: miter"/>
   </g>
   <g id="patch_49">
    <path d="M 308.728007 381.04 
L 319.289913 381.04 
L 319.289913 378.309295 
L 308.728007 378.309295 
z
" clip-path="url(#pced23ce80f)" style="fill: #ff4500; opacity: 0.7; stroke: #000000; stroke-linejoin: miter"/>
   </g>
   <g id="patch_50">
    <path d="M 338.904882 381.04 
L 349.466788 381.04 
L 349.466788 380.068282 
L 338.904882 380.068282 
z
" clip-path="url(#pced23ce80f)" style="fill: #ff4500; opacity: 0.7; stroke: #000000; stroke-linejoin: miter"/>
   </g>
   <g id="patch_51">
    <path d="M 369.081757 381.04 
L 379.643663 381.04 
L 379.643663 380.581549 
L 369.081757 380.581549 
z
" clip-path="url(#pced23ce80f)" style="fill: #ff4500; opacity: 0.7; stroke: #000000; stroke-linejoin: miter"/>
   </g>
   <g id="patch_52">
    <path d="M 399.258632 381.04 
L 409.820538 381.04 
L 409.820538 380.787033 
L 399.258632 380.787033 
z
" clip-path="url(#pced23ce80f)" style="fill: #ff4500; opacity: 0.7; stroke: #000000; stroke-linejoin: miter"/>
   </g>
   <g id="patch_53">
    <path d="M 429.435507 381.04 
L 439.997413 381.04 
L 439.997413 380.885695 
L 429.435507 380.885695 
z
" clip-path="url(#pced23ce80f)" style="fill: #ff4500; opacity: 0.7; stroke: #000000; stroke-linejoin: miter"/>
   </g>
   <g id="patch_54">
    <path d="M 459.612382 381.04 
L 470.174288 381.04 
L 470.174288 380.939094 
L 459.612382 380.939094 
z
" clip-path="url(#pced23ce80f)" style="fill: #ff4500; opacity: 0.7; stroke: #000000; stroke-linejoin: miter"/>
   </g>
   <g id="patch_55">
    <path d="M 489.789257 381.04 
L 500.351163 381.04 
L 500.351163 380.97057 
L 489.789257 380.97057 
z
" clip-path="url(#pced23ce80f)" style="fill: #ff4500; opacity: 0.7; stroke: #000000; stroke-linejoin: miter"/>
   </g>
   <g id="patch_56">
    <path d="M 519.966132 381.04 
L 530.528038 381.04 
L 530.528038 380.99035 
L 519.966132 380.99035 
z
" clip-path="url(#pced23ce80f)" style="fill: #ff4500; opacity: 0.7; stroke: #000000; stroke-linejoin: miter"/>
   </g>
   <g id="patch_57">
    <path d="M 550.143007 381.04 
L 560.704913 381.04 
L 560.704913 381.003414 
L 550.143007 381.003414 
z
" clip-path="url(#pced23ce80f)" style="fill: #ff4500; opacity: 0.7; stroke: #000000; stroke-linejoin: miter"/>
   </g>
   <g id="patch_58">
    <path d="M 580.319882 381.04 
L 590.881788 381.04 
L 590.881788 381.012393 
L 580.319882 381.012393 
z
" clip-path="url(#pced23ce80f)" style="fill: #ff4500; opacity: 0.7; stroke: #000000; stroke-linejoin: miter"/>
   </g>
   <g id="patch_59">
    <path d="M 610.496757 381.04 
L 621.058663 381.04 
L 621.058663 381.018768 
L 610.496757 381.018768 
z
" clip-path="url(#pced23ce80f)" style="fill: #ff4500; opacity: 0.7; stroke: #000000; stroke-linejoin: miter"/>
   </g>
   <g id="patch_60">
    <path d="M 640.673632 381.04 
L 651.235538 381.04 
L 651.235538 381.023418 
L 640.673632 381.023418 
z
" clip-path="url(#pced23ce80f)" style="fill: #ff4500; opacity: 0.7; stroke: #000000; stroke-linejoin: miter"/>
   </g>
   <g id="patch_61">
    <path d="M 670.850507 381.04 
L 681.412413 381.04 
L 681.412413 381.026888 
L 670.850507 381.026888 
z
" clip-path="url(#pced23ce80f)" style="fill: #ff4500; opacity: 0.7; stroke: #000000; stroke-linejoin: miter"/>
   </g>
   <g id="patch_62">
    <path d="M 701.027382 381.04 
L 711.589288 381.04 
L 711.589288 381.029528 
L 701.027382 381.029528 
z
" clip-path="url(#pced23ce80f)" style="fill: #ff4500; opacity: 0.7; stroke: #000000; stroke-linejoin: miter"/>
   </g>
   <g id="patch_63">
    <path d="M 731.204257 381.04 
L 741.766163 381.04 
L 741.766163 381.03157 
L 731.204257 381.03157 
z
" clip-path="url(#pced23ce80f)" style="fill: #ff4500; opacity: 0.7; stroke: #000000; stroke-linejoin: miter"/>
   </g>
   <g id="patch_64">
    <path d="M 761.381132 381.04 
L 771.943038 381.04 
L 771.943038 381.033172 
L 761.381132 381.033172 
z
" clip-path="url(#pced23ce80f)" style="fill: #ff4500; opacity: 0.7; stroke: #000000; stroke-linejoin: miter"/>
   </g>
   <g id="patch_65">
    <path d="M 791.558007 381.04 
L 802.119913 381.04 
L 802.119913 381.034445 
L 791.558007 381.034445 
z
" clip-path="url(#pced23ce80f)" style="fill: #ff4500; opacity: 0.7; stroke: #000000; stroke-linejoin: miter"/>
   </g>
   <g id="patch_66">
    <path d="M 821.734882 381.04 
L 832.296788 381.04 
L 832.296788 381.035466 
L 821.734882 381.035466 
z
" clip-path="url(#pced23ce80f)" style="fill: #ff4500; opacity: 0.7; stroke: #000000; stroke-linejoin: miter"/>
   </g>
   <g id="patch_67">
    <path d="M 851.911757 381.04 
L 862.473663 381.04 
L 862.473663 381.036292 
L 851.911757 381.036292 
z
" clip-path="url(#pced23ce80f)" style="fill: #ff4500; opacity: 0.7; stroke: #000000; stroke-linejoin: miter"/>
   </g>
   <g id="patch_68">
    <path d="M 882.088632 381.04 
L 892.650538 381.04 
L 892.650538 381.036963 
L 882.088632 381.036963 
z
" clip-path="url(#pced23ce80f)" style="fill: #ff4500; opacity: 0.7; stroke: #000000; stroke-linejoin: miter"/>
   </g>
   <g id="patch_69">
    <path d="M 912.265507 381.04 
L 922.827413 381.04 
L 922.827413 381.037506 
L 912.265507 381.037506 
z
" clip-path="url(#pced23ce80f)" style="fill: #ff4500; opacity: 0.7; stroke: #000000; stroke-linejoin: miter"/>
   </g>
   <g id="patch_70">
    <path d="M 942.442382 381.04 
L 953.004288 381.04 
L 953.004288 381.037936 
L 942.442382 381.037936 
z
" clip-path="url(#pced23ce80f)" style="fill: #ff4500; opacity: 0.7; stroke: #000000; stroke-linejoin: miter"/>
   </g>
   <g id="patch_71">
    <path d="M 972.619257 381.04 
L 983.181163 381.04 
L 983.181163 381.038257 
L 972.619257 381.038257 
z
" clip-path="url(#pced23ce80f)" style="fill: #ff4500; opacity: 0.7; stroke: #000000; stroke-linejoin: miter"/>
   </g>
   <g id="patch_72">
    <path d="M 1002.796132 381.04 
L 1013.358038 381.04 
L 1013.358038 381.038461 
L 1002.796132 381.038461 
z
" clip-path="url(#pced23ce80f)" style="fill: #ff4500; opacity: 0.7; stroke: #000000; stroke-linejoin: miter"/>
   </g>
   <g id="matplotlib.axis_3">
    <g id="xtick_8">
     <g id="line2d_27">
      <path d="M 66.8 381.04 
L 66.8 254.22 
" clip-path="url(#pced23ce80f)" style="fill: none; stroke: #b0b0b0; stroke-opacity: 0.3; stroke-width: 0.8; stroke-linecap: square"/>
     </g>
     <g id="line2d_28">
      <g>
       <use xlink:href="#m818e195225" x="66.8" y="381.04" style="stroke: #000000; stroke-width: 0.8"/>
      </g>
     </g>
     <g id="text_17">
      <!-- 0 -->
      <g transform="translate(62.664375 397.917969) scale(0.13 -0.13)">
       <use xlink:href="#DejaVuSans-30"/>
      </g>
     </g>
    </g>
    <g id="xtick_9">
     <g id="line2d_29">
      <path d="M 163.366 381.04 
L 163.366 254.22 
" clip-path="url(#pced23ce80f)" style="fill: none; stroke: #b0b0b0; stroke-opacity: 0.3; stroke-width: 0.8; stroke-linecap: square"/>
     </g>
     <g id="line2d_30">
      <g>
       <use xlink:href="#m818e195225" x="163.366" y="381.04" style="stroke: #000000; stroke-width: 0.8"/>
      </g>
     </g>
     <g id="text_18">
      <!-- 50 -->
      <g transform="translate(155.09475 397.917969) scale(0.13 -0.13)">
       <use xlink:href="#DejaVuSans-35"/>
       <use xlink:href="#DejaVuSans-30" transform="translate(63.623047 0)"/>
      </g>
     </g>
    </g>
    <g id="xtick_10">
     <g id="line2d_31">
      <path d="M 259.932 381.04 
L 259.932 254.22 
" clip-path="url(#pced23ce80f)" style="fill: none; stroke: #b0b0b0; stroke-opacity: 0.3; stroke-width: 0.8; stroke-linecap: square"/>
     </g>
     <g id="line2d_32">
      <g>
       <use xlink:href="#m818e195225" x="259.932" y="381.04" style="stroke: #000000; stroke-width: 0.8"/>
      </g>
     </g>
     <g id="text_19">
      <!-- 100 -->
      <g transform="translate(247.525125 397.917969) scale(0.13 -0.13)">
       <use xlink:href="#DejaVuSans-31"/>
       <use xlink:href="#DejaVuSans-30" transform="translate(63.623047 0)"/>
       <use xlink:href="#DejaVuSans-30" transform="translate(127.246094 0)"/>
      </g>
     </g>
    </g>
    <g id="xtick_11">
     <g id="line2d_33">
      <path d="M 356.498 381.04 
L 356.498 254.22 
" clip-path="url(#pced23ce80f)" style="fill: none; stroke: #b0b0b0; stroke-opacity: 0.3; stroke-width: 0.8; stroke-linecap: square"/>
     </g>
     <g id="line2d_34">
      <g>
       <use xlink:href="#m818e195225" x="356.498" y="381.04" style="stroke: #000000; stroke-width: 0.8"/>
      </g>
     </g>
     <g id="text_20">
      <!-- 150 -->
      <g transform="translate(344.091125 397.917969) scale(0.13 -0.13)">
       <use xlink:href="#DejaVuSans-31"/>
       <use xlink:href="#DejaVuSans-35" transform="translate(63.623047 0)"/>
       <use xlink:href="#DejaVuSans-30" transform="translate(127.246094 0)"/>
      </g>
     </g>
    </g>
    <g id="xtick_12">
     <g id="line2d_35">
      <path d="M 453.064 381.04 
L 453.064 254.22 
" clip-path="url(#pced23ce80f)" style="fill: none; stroke: #b0b0b0; stroke-opacity: 0.3; stroke-width: 0.8; stroke-linecap: square"/>
     </g>
     <g id="line2d_36">
      <g>
       <use xlink:href="#m818e195225" x="453.064" y="381.04" style="stroke: #000000; stroke-width: 0.8"/>
      </g>
     </g>
     <g id="text_21">
      <!-- 200 -->
      <g transform="translate(440.657125 397.917969) scale(0.13 -0.13)">
       <use xlink:href="#DejaVuSans-32"/>
       <use xlink:href="#DejaVuSans-30" transform="translate(63.623047 0)"/>
       <use xlink:href="#DejaVuSans-30" transform="translate(127.246094 0)"/>
      </g>
     </g>
    </g>
    <g id="xtick_13">
     <g id="line2d_37">
      <path d="M 549.63 381.04 
L 549.63 254.22 
" clip-path="url(#pced23ce80f)" style="fill: none; stroke: #b0b0b0; stroke-opacity: 0.3; stroke-width: 0.8; stroke-linecap: square"/>
     </g>
     <g id="line2d_38">
      <g>
       <use xlink:href="#m818e195225" x="549.63" y="381.04" style="stroke: #000000; stroke-width: 0.8"/>
      </g>
     </g>
     <g id="text_22">
      <!-- 250 -->
      <g transform="translate(537.223125 397.917969) scale(0.13 -0.13)">
       <use xlink:href="#DejaVuSans-32"/>
       <use xlink:href="#DejaVuSans-35" transform="translate(63.623047 0)"/>
       <use xlink:href="#DejaVuSans-30" transform="translate(127.246094 0)"/>
      </g>
     </g>
    </g>
    <g id="text_23">
     <!-- f [Hz] -->
     <g transform="translate(290.489297 414.499531) scale(0.13 -0.13)">
      <defs>
       <path id="DejaVuSans-66" d="M 2375 4863 
L 2375 4384 
L 1825 4384 
Q 1516 4384 1395 4259 
Q 1275 4134 1275 3809 
L 1275 3500 
L 2222 3500 
L 2222 3053 
L 1275 3053 
L 1275 0 
L 697 0 
L 697 3053 
L 147 3053 
L 147 3500 
L 697 3500 
L 697 3744 
Q 697 4328 969 4595 
Q 1241 4863 1831 4863 
L 2375 4863 
z
" transform="scale(0.015625)"/>
       <path id="DejaVuSans-5b" d="M 550 4863 
L 1875 4863 
L 1875 4416 
L 1125 4416 
L 1125 -397 
L 1875 -397 
L 1875 -844 
L 550 -844 
L 550 4863 
z
" transform="scale(0.015625)"/>
       <path id="DejaVuSans-7a" d="M 353 3500 
L 3084 3500 
L 3084 2975 
L 922 459 
L 3084 459 
L 3084 0 
L 275 0 
L 275 525 
L 2438 3041 
L 353 3041 
L 353 3500 
z
" transform="scale(0.015625)"/>
       <path id="DejaVuSans-5d" d="M 1947 4863 
L 1947 -844 
L 622 -844 
L 622 -397 
L 1369 -397 
L 1369 4416 
L 622 4416 
L 622 4863 
L 1947 4863 
z
" transform="scale(0.015625)"/>
      </defs>
      <use xlink:href="#DejaVuSans-66"/>
      <use xlink:href="#DejaVuSans-20" transform="translate(35.205078 0)"/>
      <use xlink:href="#DejaVuSans-5b" transform="translate(66.992188 0)"/>
      <use xlink:href="#DejaVuSans-48" transform="translate(106.005859 0)"/>
      <use xlink:href="#DejaVuSans-7a" transform="translate(181.201172 0)"/>
      <use xlink:href="#DejaVuSans-5d" transform="translate(233.691406 0)"/>
     </g>
    </g>
   </g>
   <g id="matplotlib.axis_4">
    <g id="ytick_4">
     <g id="line2d_39">
      <path d="M 66.8 381.04 
L 549.63 381.04 
" clip-path="url(#pced23ce80f)" style="fill: none; stroke: #b0b0b0; stroke-opacity: 0.3; stroke-width: 0.8; stroke-linecap: square"/>
     </g>
     <g id="line2d_40">
      <g>
       <use xlink:href="#mef65635aaa" x="66.8" y="381.04" style="stroke: #000000; stroke-width: 0.8"/>
      </g>
     </g>
     <g id="text_24">
      <!-- 0 -->
      <g transform="translate(51.52875 385.978984) scale(0.13 -0.13)">
       <use xlink:href="#DejaVuSans-30"/>
      </g>
     </g>
    </g>
    <g id="ytick_5">
     <g id="line2d_41">
      <path d="M 66.8 346.75344 
L 549.63 346.75344 
" clip-path="url(#pced23ce80f)" style="fill: none; stroke: #b0b0b0; stroke-opacity: 0.3; stroke-width: 0.8; stroke-linecap: square"/>
     </g>
     <g id="line2d_42">
      <g>
       <use xlink:href="#mef65635aaa" x="66.8" y="346.75344" style="stroke: #000000; stroke-width: 0.8"/>
      </g>
     </g>
     <g id="text_25">
      <!-- 25 -->
      <g transform="translate(43.2575 351.692424) scale(0.13 -0.13)">
       <use xlink:href="#DejaVuSans-32"/>
       <use xlink:href="#DejaVuSans-35" transform="translate(63.623047 0)"/>
      </g>
     </g>
    </g>
    <g id="ytick_6">
     <g id="line2d_43">
      <path d="M 66.8 312.46688 
L 549.63 312.46688 
" clip-path="url(#pced23ce80f)" style="fill: none; stroke: #b0b0b0; stroke-opacity: 0.3; stroke-width: 0.8; stroke-linecap: square"/>
     </g>
     <g id="line2d_44">
      <g>
       <use xlink:href="#mef65635aaa" x="66.8" y="312.46688" style="stroke: #000000; stroke-width: 0.8"/>
      </g>
     </g>
     <g id="text_26">
      <!-- 50 -->
      <g transform="translate(43.2575 317.405864) scale(0.13 -0.13)">
       <use xlink:href="#DejaVuSans-35"/>
       <use xlink:href="#DejaVuSans-30" transform="translate(63.623047 0)"/>
      </g>
     </g>
    </g>
    <g id="ytick_7">
     <g id="line2d_45">
      <path d="M 66.8 278.18032 
L 549.63 278.18032 
" clip-path="url(#pced23ce80f)" style="fill: none; stroke: #b0b0b0; stroke-opacity: 0.3; stroke-width: 0.8; stroke-linecap: square"/>
     </g>
     <g id="line2d_46">
      <g>
       <use xlink:href="#mef65635aaa" x="66.8" y="278.18032" style="stroke: #000000; stroke-width: 0.8"/>
      </g>
     </g>
     <g id="text_27">
      <!-- 75 -->
      <g transform="translate(43.2575 283.119304) scale(0.13 -0.13)">
       <defs>
        <path id="DejaVuSans-37" d="M 525 4666 
L 3525 4666 
L 3525 4397 
L 1831 0 
L 1172 0 
L 2766 4134 
L 525 4134 
L 525 4666 
z
" transform="scale(0.015625)"/>
       </defs>
       <use xlink:href="#DejaVuSans-37"/>
       <use xlink:href="#DejaVuSans-35" transform="translate(63.623047 0)"/>
      </g>
     </g>
    </g>
    <g id="text_28">
     <!-- Amplituda -->
     <g transform="translate(36.553906 350.923203) rotate(-90) scale(0.13 -0.13)">
      <defs>
       <path id="DejaVuSans-41" d="M 2188 4044 
L 1331 1722 
L 3047 1722 
L 2188 4044 
z
M 1831 4666 
L 2547 4666 
L 4325 0 
L 3669 0 
L 3244 1197 
L 1141 1197 
L 716 0 
L 50 0 
L 1831 4666 
z
" transform="scale(0.015625)"/>
       <path id="DejaVuSans-70" d="M 1159 525 
L 1159 -1331 
L 581 -1331 
L 581 3500 
L 1159 3500 
L 1159 2969 
Q 1341 3281 1617 3432 
Q 1894 3584 2278 3584 
Q 2916 3584 3314 3078 
Q 3713 2572 3713 1747 
Q 3713 922 3314 415 
Q 2916 -91 2278 -91 
Q 1894 -91 1617 61 
Q 1341 213 1159 525 
z
M 3116 1747 
Q 3116 2381 2855 2742 
Q 2594 3103 2138 3103 
Q 1681 3103 1420 2742 
Q 1159 2381 1159 1747 
Q 1159 1113 1420 752 
Q 1681 391 2138 391 
Q 2594 391 2855 752 
Q 3116 1113 3116 1747 
z
" transform="scale(0.015625)"/>
       <path id="DejaVuSans-6c" d="M 603 4863 
L 1178 4863 
L 1178 0 
L 603 0 
L 603 4863 
z
" transform="scale(0.015625)"/>
       <path id="DejaVuSans-64" d="M 2906 2969 
L 2906 4863 
L 3481 4863 
L 3481 0 
L 2906 0 
L 2906 525 
Q 2725 213 2448 61 
Q 2172 -91 1784 -91 
Q 1150 -91 751 415 
Q 353 922 353 1747 
Q 353 2572 751 3078 
Q 1150 3584 1784 3584 
Q 2172 3584 2448 3432 
Q 2725 3281 2906 2969 
z
M 947 1747 
Q 947 1113 1208 752 
Q 1469 391 1925 391 
Q 2381 391 2643 752 
Q 2906 1113 2906 1747 
Q 2906 2381 2643 2742 
Q 2381 3103 1925 3103 
Q 1469 3103 1208 2742 
Q 947 2381 947 1747 
z
" transform="scale(0.015625)"/>
      </defs>
      <use xlink:href="#DejaVuSans-41"/>
      <use xlink:href="#DejaVuSans-6d" transform="translate(68.408203 0)"/>
      <use xlink:href="#DejaVuSans-70" transform="translate(165.820312 0)"/>
      <use xlink:href="#DejaVuSans-6c" transform="translate(229.296875 0)"/>
      <use xlink:href="#DejaVuSans-69" transform="translate(257.080078 0)"/>
      <use xlink:href="#DejaVuSans-74" transform="translate(284.863281 0)"/>
      <use xlink:href="#DejaVuSans-75" transform="translate(324.072266 0)"/>
      <use xlink:href="#DejaVuSans-64" transform="translate(387.451172 0)"/>
      <use xlink:href="#DejaVuSans-61" transform="translate(450.927734 0)"/>
     </g>
    </g>
   </g>
   <g id="patch_73">
    <path d="M 66.8 381.04 
L 66.8 254.22 
" style="fill: none; stroke: #000000; stroke-width: 0.8; stroke-linejoin: miter; stroke-linecap: square"/>
   </g>
   <g id="patch_74">
    <path d="M 549.63 381.04 
L 549.63 254.22 
" style="fill: none; stroke: #000000; stroke-width: 0.8; stroke-linejoin: miter; stroke-linecap: square"/>
   </g>
   <g id="patch_75">
    <path d="M 66.8 381.04 
L 549.63 381.04 
" style="fill: none; stroke: #000000; stroke-width: 0.8; stroke-linejoin: miter; stroke-linecap: square"/>
   </g>
   <g id="patch_76">
    <path d="M 66.8 254.22 
L 549.63 254.22 
" style="fill: none; stroke: #000000; stroke-width: 0.8; stroke-linejoin: miter; stroke-linecap: square"/>
   </g>
   <g id="text_29">
    <!-- Efekt okienkowania ($f = 83.9$ Hz) -->
    <g transform="translate(194.395 248.22) scale(0.14 -0.14)">
     <defs>
      <path id="DejaVuSans-45" d="M 628 4666 
L 3578 4666 
L 3578 4134 
L 1259 4134 
L 1259 2753 
L 3481 2753 
L 3481 2222 
L 1259 2222 
L 1259 531 
L 3634 531 
L 3634 0 
L 628 0 
L 628 4666 
z
" transform="scale(0.015625)"/>
      <path id="DejaVuSans-Oblique-66" d="M 3059 4863 
L 2969 4384 
L 2419 4384 
Q 2106 4384 1964 4261 
Q 1822 4138 1753 3809 
L 1691 3500 
L 2638 3500 
L 2553 3053 
L 1606 3053 
L 1013 0 
L 434 0 
L 1031 3053 
L 481 3053 
L 563 3500 
L 1113 3500 
L 1159 3744 
Q 1278 4363 1576 4613 
Q 1875 4863 2516 4863 
L 3059 4863 
z
" transform="scale(0.015625)"/>
      <path id="DejaVuSans-3d" d="M 678 2906 
L 4684 2906 
L 4684 2381 
L 678 2381 
L 678 2906 
z
M 678 1631 
L 4684 1631 
L 4684 1100 
L 678 1100 
L 678 1631 
z
" transform="scale(0.015625)"/>
      <path id="DejaVuSans-38" d="M 2034 2216 
Q 1584 2216 1326 1975 
Q 1069 1734 1069 1313 
Q 1069 891 1326 650 
Q 1584 409 2034 409 
Q 2484 409 2743 651 
Q 3003 894 3003 1313 
Q 3003 1734 2745 1975 
Q 2488 2216 2034 2216 
z
M 1403 2484 
Q 997 2584 770 2862 
Q 544 3141 544 3541 
Q 544 4100 942 4425 
Q 1341 4750 2034 4750 
Q 2731 4750 3128 4425 
Q 3525 4100 3525 3541 
Q 3525 3141 3298 2862 
Q 3072 2584 2669 2484 
Q 3125 2378 3379 2068 
Q 3634 1759 3634 1313 
Q 3634 634 3220 271 
Q 2806 -91 2034 -91 
Q 1263 -91 848 271 
Q 434 634 434 1313 
Q 434 1759 690 2068 
Q 947 2378 1403 2484 
z
M 1172 3481 
Q 1172 3119 1398 2916 
Q 1625 2713 2034 2713 
Q 2441 2713 2670 2916 
Q 2900 3119 2900 3481 
Q 2900 3844 2670 4047 
Q 2441 4250 2034 4250 
Q 1625 4250 1398 4047 
Q 1172 3844 1172 3481 
z
" transform="scale(0.015625)"/>
      <path id="DejaVuSans-39" d="M 703 97 
L 703 672 
Q 941 559 1184 500 
Q 1428 441 1663 441 
Q 2288 441 2617 861 
Q 2947 1281 2994 2138 
Q 2813 1869 2534 1725 
Q 2256 1581 1919 1581 
Q 1219 1581 811 2004 
Q 403 2428 403 3163 
Q 403 3881 828 4315 
Q 1253 4750 1959 4750 
Q 2769 4750 3195 4129 
Q 3622 3509 3622 2328 
Q 3622 1225 3098 567 
Q 2575 -91 1691 -91 
Q 1453 -91 1209 -44 
Q 966 3 703 97 
z
M 1959 2075 
Q 2384 2075 2632 2365 
Q 2881 2656 2881 3163 
Q 2881 3666 2632 3958 
Q 2384 4250 1959 4250 
Q 1534 4250 1286 3958 
Q 1038 3666 1038 3163 
Q 1038 2656 1286 2365 
Q 1534 2075 1959 2075 
z
" transform="scale(0.015625)"/>
     </defs>
     <use xlink:href="#DejaVuSans-45" transform="translate(0 0.015625)"/>
     <use xlink:href="#DejaVuSans-66" transform="translate(63.183594 0.015625)"/>
     <use xlink:href="#DejaVuSans-65" transform="translate(98.388672 0.015625)"/>
     <use xlink:href="#DejaVuSans-6b" transform="translate(159.912109 0.015625)"/>
     <use xlink:href="#DejaVuSans-74" transform="translate(217.822266 0.015625)"/>
     <use xlink:href="#DejaVuSans-20" transform="translate(257.03125 0.015625)"/>
     <use xlink:href="#DejaVuSans-6f" transform="translate(288.818359 0.015625)"/>
     <use xlink:href="#DejaVuSans-6b" transform="translate(350 0.015625)"/>
     <use xlink:href="#DejaVuSans-69" transform="translate(407.910156 0.015625)"/>
     <use xlink:href="#DejaVuSans-65" transform="translate(435.693359 0.015625)"/>
     <use xlink:href="#DejaVuSans-6e" transform="translate(497.216797 0.015625)"/>
     <use xlink:href="#DejaVuSans-6b" transform="translate(560.595703 0.015625)"/>
     <use xlink:href="#DejaVuSans-6f" transform="translate(618.505859 0.015625)"/>
     <use xlink:href="#DejaVuSans-77" transform="translate(679.6875 0.015625)"/>
     <use xlink:href="#DejaVuSans-61" transform="translate(761.474609 0.015625)"/>
     <use xlink:href="#DejaVuSans-6e" transform="translate(822.753906 0.015625)"/>
     <use xlink:href="#DejaVuSans-69" transform="translate(886.132812 0.015625)"/>
     <use xlink:href="#DejaVuSans-61" transform="translate(913.916016 0.015625)"/>
     <use xlink:href="#DejaVuSans-20" transform="translate(975.195312 0.015625)"/>
     <use xlink:href="#DejaVuSans-28" transform="translate(1006.982422 0.015625)"/>
     <use xlink:href="#DejaVuSans-Oblique-66" transform="translate(1045.996094 0.015625)"/>
     <use xlink:href="#DejaVuSans-3d" transform="translate(1100.683594 0.015625)"/>
     <use xlink:href="#DejaVuSans-38" transform="translate(1203.955078 0.015625)"/>
     <use xlink:href="#DejaVuSans-33" transform="translate(1267.578125 0.015625)"/>
     <use xlink:href="#DejaVuSans-2e" transform="translate(1331.201172 0.015625)"/>
     <use xlink:href="#DejaVuSans-39" transform="translate(1362.988281 0.015625)"/>
     <use xlink:href="#DejaVuSans-20" transform="translate(1426.611328 0.015625)"/>
     <use xlink:href="#DejaVuSans-48" transform="translate(1458.398438 0.015625)"/>
     <use xlink:href="#DejaVuSans-7a" transform="translate(1533.59375 0.015625)"/>
     <use xlink:href="#DejaVuSans-29" transform="translate(1586.083984 0.015625)"/>
    </g>
   </g>
   <g id="legend_2">
    <g id="patch_77">
     <path d="M 421.66125 302.783125 
L 540.53 302.783125 
Q 543.13 302.783125 543.13 300.183125 
L 543.13 263.32 
Q 543.13 260.72 540.53 260.72 
L 421.66125 260.72 
Q 419.06125 260.72 419.06125 263.32 
L 419.06125 300.183125 
Q 419.06125 302.783125 421.66125 302.783125 
z
" style="fill: #ffffff; opacity: 0.8; stroke: #cccccc; stroke-linejoin: miter"/>
    </g>
    <g id="patch_78">
     <path d="M 424.26125 275.797969 
L 450.26125 275.797969 
L 450.26125 266.697969 
L 424.26125 266.697969 
z
" style="fill: #4682b4; opacity: 0.7; stroke: #000000; stroke-linejoin: miter"/>
    </g>
    <g id="text_30">
     <!-- Prostokątne -->
     <g transform="translate(460.66125 275.797969) scale(0.13 -0.13)">
      <use xlink:href="#DejaVuSans-50"/>
      <use xlink:href="#DejaVuSans-72" transform="translate(58.552734 0)"/>
      <use xlink:href="#DejaVuSans-6f" transform="translate(97.416016 0)"/>
      <use xlink:href="#DejaVuSans-73" transform="translate(158.597656 0)"/>
      <use xlink:href="#DejaVuSans-74" transform="translate(210.697266 0)"/>
      <use xlink:href="#DejaVuSans-6f" transform="translate(249.90625 0)"/>
      <use xlink:href="#DejaVuSans-6b" transform="translate(311.087891 0)"/>
      <use xlink:href="#DejaVuSans-105" transform="translate(368.998047 0)"/>
      <use xlink:href="#DejaVuSans-74" transform="translate(430.277344 0)"/>
      <use xlink:href="#DejaVuSans-6e" transform="translate(469.486328 0)"/>
      <use xlink:href="#DejaVuSans-65" transform="translate(532.865234 0)"/>
     </g>
    </g>
    <g id="patch_79">
     <path d="M 424.26125 294.879531 
L 450.26125 294.879531 
L 450.26125 285.779531 
L 424.26125 285.779531 
z
" style="fill: #ff4500; opacity: 0.7; stroke: #000000; stroke-linejoin: miter"/>
    </g>
    <g id="text_31">
     <!-- Hanninga -->
     <g transform="translate(460.66125 294.879531) scale(0.13 -0.13)">
      <use xlink:href="#DejaVuSans-48"/>
      <use xlink:href="#DejaVuSans-61" transform="translate(75.195312 0)"/>
      <use xlink:href="#DejaVuSans-6e" transform="translate(136.474609 0)"/>
      <use xlink:href="#DejaVuSans-6e" transform="translate(199.853516 0)"/>
      <use xlink:href="#DejaVuSans-69" transform="translate(263.232422 0)"/>
      <use xlink:href="#DejaVuSans-6e" transform="translate(291.015625 0)"/>
      <use xlink:href="#DejaVuSans-67" transform="translate(354.394531 0)"/>
      <use xlink:href="#DejaVuSans-61" transform="translate(417.871094 0)"/>
     </g>
    </g>
   </g>
  </g>
  <g id="text_32">
   <!-- Okienkowanie — redukcja przecieku widmowego -->
   <g transform="translate(96.555469 19.277812) scale(0.14 -0.14)">
    <defs>
     <path id="DejaVuSans-Bold-4f" d="M 2719 3878 
Q 2169 3878 1866 3472 
Q 1563 3066 1563 2328 
Q 1563 1594 1866 1187 
Q 2169 781 2719 781 
Q 3272 781 3575 1187 
Q 3878 1594 3878 2328 
Q 3878 3066 3575 3472 
Q 3272 3878 2719 3878 
z
M 2719 4750 
Q 3844 4750 4481 4106 
Q 5119 3463 5119 2328 
Q 5119 1197 4481 553 
Q 3844 -91 2719 -91 
Q 1597 -91 958 553 
Q 319 1197 319 2328 
Q 319 3463 958 4106 
Q 1597 4750 2719 4750 
z
" transform="scale(0.015625)"/>
     <path id="DejaVuSans-Bold-6b" d="M 538 4863 
L 1656 4863 
L 1656 2216 
L 2944 3500 
L 4244 3500 
L 2534 1894 
L 4378 0 
L 3022 0 
L 1656 1459 
L 1656 0 
L 538 0 
L 538 4863 
z
" transform="scale(0.015625)"/>
     <path id="DejaVuSans-Bold-69" d="M 538 3500 
L 1656 3500 
L 1656 0 
L 538 0 
L 538 3500 
z
M 538 4863 
L 1656 4863 
L 1656 3950 
L 538 3950 
L 538 4863 
z
" transform="scale(0.015625)"/>
     <path id="DejaVuSans-Bold-65" d="M 4031 1759 
L 4031 1441 
L 1416 1441 
Q 1456 1047 1700 850 
Q 1944 653 2381 653 
Q 2734 653 3104 758 
Q 3475 863 3866 1075 
L 3866 213 
Q 3469 63 3072 -14 
Q 2675 -91 2278 -91 
Q 1328 -91 801 392 
Q 275 875 275 1747 
Q 275 2603 792 3093 
Q 1309 3584 2216 3584 
Q 3041 3584 3536 3087 
Q 4031 2591 4031 1759 
z
M 2881 2131 
Q 2881 2450 2695 2645 
Q 2509 2841 2209 2841 
Q 1884 2841 1681 2658 
Q 1478 2475 1428 2131 
L 2881 2131 
z
" transform="scale(0.015625)"/>
     <path id="DejaVuSans-Bold-6e" d="M 4056 2131 
L 4056 0 
L 2931 0 
L 2931 347 
L 2931 1631 
Q 2931 2084 2911 2256 
Q 2891 2428 2841 2509 
Q 2775 2619 2662 2680 
Q 2550 2741 2406 2741 
Q 2056 2741 1856 2470 
Q 1656 2200 1656 1722 
L 1656 0 
L 538 0 
L 538 3500 
L 1656 3500 
L 1656 2988 
Q 1909 3294 2193 3439 
Q 2478 3584 2822 3584 
Q 3428 3584 3742 3212 
Q 4056 2841 4056 2131 
z
" transform="scale(0.015625)"/>
     <path id="DejaVuSans-Bold-6f" d="M 2203 2784 
Q 1831 2784 1636 2517 
Q 1441 2250 1441 1747 
Q 1441 1244 1636 976 
Q 1831 709 2203 709 
Q 2569 709 2762 976 
Q 2956 1244 2956 1747 
Q 2956 2250 2762 2517 
Q 2569 2784 2203 2784 
z
M 2203 3584 
Q 3106 3584 3614 3096 
Q 4122 2609 4122 1747 
Q 4122 884 3614 396 
Q 3106 -91 2203 -91 
Q 1297 -91 786 396 
Q 275 884 275 1747 
Q 275 2609 786 3096 
Q 1297 3584 2203 3584 
z
" transform="scale(0.015625)"/>
     <path id="DejaVuSans-Bold-77" d="M 225 3500 
L 1313 3500 
L 1900 1088 
L 2491 3500 
L 3425 3500 
L 4013 1113 
L 4603 3500 
L 5691 3500 
L 4769 0 
L 3547 0 
L 2956 2406 
L 2369 0 
L 1147 0 
L 225 3500 
z
" transform="scale(0.015625)"/>
     <path id="DejaVuSans-Bold-61" d="M 2106 1575 
Q 1756 1575 1579 1456 
Q 1403 1338 1403 1106 
Q 1403 894 1545 773 
Q 1688 653 1941 653 
Q 2256 653 2472 879 
Q 2688 1106 2688 1447 
L 2688 1575 
L 2106 1575 
z
M 3816 1997 
L 3816 0 
L 2688 0 
L 2688 519 
Q 2463 200 2181 54 
Q 1900 -91 1497 -91 
Q 953 -91 614 226 
Q 275 544 275 1050 
Q 275 1666 698 1953 
Q 1122 2241 2028 2241 
L 2688 2241 
L 2688 2328 
Q 2688 2594 2478 2717 
Q 2269 2841 1825 2841 
Q 1466 2841 1156 2769 
Q 847 2697 581 2553 
L 581 3406 
Q 941 3494 1303 3539 
Q 1666 3584 2028 3584 
Q 2975 3584 3395 3211 
Q 3816 2838 3816 1997 
z
" transform="scale(0.015625)"/>
     <path id="DejaVuSans-Bold-20" transform="scale(0.015625)"/>
     <path id="DejaVuSans-Bold-2014" d="M 344 2156 
L 6056 2156 
L 6056 1350 
L 344 1350 
L 344 2156 
z
" transform="scale(0.015625)"/>
     <path id="DejaVuSans-Bold-72" d="M 3138 2547 
Q 2991 2616 2845 2648 
Q 2700 2681 2553 2681 
Q 2122 2681 1889 2404 
Q 1656 2128 1656 1613 
L 1656 0 
L 538 0 
L 538 3500 
L 1656 3500 
L 1656 2925 
Q 1872 3269 2151 3426 
Q 2431 3584 2822 3584 
Q 2878 3584 2943 3579 
Q 3009 3575 3134 3559 
L 3138 2547 
z
" transform="scale(0.015625)"/>
     <path id="DejaVuSans-Bold-64" d="M 2919 2988 
L 2919 4863 
L 4044 4863 
L 4044 0 
L 2919 0 
L 2919 506 
Q 2688 197 2409 53 
Q 2131 -91 1766 -91 
Q 1119 -91 703 423 
Q 288 938 288 1747 
Q 288 2556 703 3070 
Q 1119 3584 1766 3584 
Q 2128 3584 2408 3439 
Q 2688 3294 2919 2988 
z
M 2181 722 
Q 2541 722 2730 984 
Q 2919 1247 2919 1747 
Q 2919 2247 2730 2509 
Q 2541 2772 2181 2772 
Q 1825 2772 1636 2509 
Q 1447 2247 1447 1747 
Q 1447 1247 1636 984 
Q 1825 722 2181 722 
z
" transform="scale(0.015625)"/>
     <path id="DejaVuSans-Bold-75" d="M 500 1363 
L 500 3500 
L 1625 3500 
L 1625 3150 
Q 1625 2866 1622 2436 
Q 1619 2006 1619 1863 
Q 1619 1441 1641 1255 
Q 1663 1069 1716 984 
Q 1784 875 1895 815 
Q 2006 756 2150 756 
Q 2500 756 2700 1025 
Q 2900 1294 2900 1772 
L 2900 3500 
L 4019 3500 
L 4019 0 
L 2900 0 
L 2900 506 
Q 2647 200 2364 54 
Q 2081 -91 1741 -91 
Q 1134 -91 817 281 
Q 500 653 500 1363 
z
" transform="scale(0.015625)"/>
     <path id="DejaVuSans-Bold-63" d="M 3366 3391 
L 3366 2478 
Q 3138 2634 2908 2709 
Q 2678 2784 2431 2784 
Q 1963 2784 1702 2511 
Q 1441 2238 1441 1747 
Q 1441 1256 1702 982 
Q 1963 709 2431 709 
Q 2694 709 2930 787 
Q 3166 866 3366 1019 
L 3366 103 
Q 3103 6 2833 -42 
Q 2563 -91 2291 -91 
Q 1344 -91 809 395 
Q 275 881 275 1747 
Q 275 2613 809 3098 
Q 1344 3584 2291 3584 
Q 2566 3584 2833 3536 
Q 3100 3488 3366 3391 
z
" transform="scale(0.015625)"/>
     <path id="DejaVuSans-Bold-6a" d="M 538 3500 
L 1656 3500 
L 1656 63 
Q 1656 -641 1318 -1011 
Q 981 -1381 341 -1381 
L -213 -1381 
L -213 -647 
L -19 -647 
Q 300 -647 419 -503 
Q 538 -359 538 63 
L 538 3500 
z
M 538 4863 
L 1656 4863 
L 1656 3950 
L 538 3950 
L 538 4863 
z
" transform="scale(0.015625)"/>
     <path id="DejaVuSans-Bold-70" d="M 1656 506 
L 1656 -1331 
L 538 -1331 
L 538 3500 
L 1656 3500 
L 1656 2988 
Q 1888 3294 2169 3439 
Q 2450 3584 2816 3584 
Q 3463 3584 3878 3070 
Q 4294 2556 4294 1747 
Q 4294 938 3878 423 
Q 3463 -91 2816 -91 
Q 2450 -91 2169 54 
Q 1888 200 1656 506 
z
M 2400 2772 
Q 2041 2772 1848 2508 
Q 1656 2244 1656 1747 
Q 1656 1250 1848 986 
Q 2041 722 2400 722 
Q 2759 722 2948 984 
Q 3138 1247 3138 1747 
Q 3138 2247 2948 2509 
Q 2759 2772 2400 2772 
z
" transform="scale(0.015625)"/>
     <path id="DejaVuSans-Bold-7a" d="M 366 3500 
L 3419 3500 
L 3419 2719 
L 1575 800 
L 3419 800 
L 3419 0 
L 288 0 
L 288 781 
L 2131 2700 
L 366 2700 
L 366 3500 
z
" transform="scale(0.015625)"/>
     <path id="DejaVuSans-Bold-6d" d="M 3781 2919 
Q 3994 3244 4286 3414 
Q 4578 3584 4928 3584 
Q 5531 3584 5847 3212 
Q 6163 2841 6163 2131 
L 6163 0 
L 5038 0 
L 5038 1825 
Q 5041 1866 5042 1909 
Q 5044 1953 5044 2034 
Q 5044 2406 4934 2573 
Q 4825 2741 4581 2741 
Q 4263 2741 4089 2478 
Q 3916 2216 3909 1719 
L 3909 0 
L 2784 0 
L 2784 1825 
Q 2784 2406 2684 2573 
Q 2584 2741 2328 2741 
Q 2006 2741 1831 2477 
Q 1656 2213 1656 1722 
L 1656 0 
L 531 0 
L 531 3500 
L 1656 3500 
L 1656 2988 
Q 1863 3284 2130 3434 
Q 2397 3584 2719 3584 
Q 3081 3584 3359 3409 
Q 3638 3234 3781 2919 
z
" transform="scale(0.015625)"/>
     <path id="DejaVuSans-Bold-67" d="M 2919 594 
Q 2688 288 2409 144 
Q 2131 0 1766 0 
Q 1125 0 706 504 
Q 288 1009 288 1791 
Q 288 2575 706 3076 
Q 1125 3578 1766 3578 
Q 2131 3578 2409 3434 
Q 2688 3291 2919 2981 
L 2919 3500 
L 4044 3500 
L 4044 353 
Q 4044 -491 3511 -936 
Q 2978 -1381 1966 -1381 
Q 1638 -1381 1331 -1331 
Q 1025 -1281 716 -1178 
L 716 -306 
Q 1009 -475 1290 -558 
Q 1572 -641 1856 -641 
Q 2406 -641 2662 -400 
Q 2919 -159 2919 353 
L 2919 594 
z
M 2181 2772 
Q 1834 2772 1640 2515 
Q 1447 2259 1447 1791 
Q 1447 1309 1634 1061 
Q 1822 813 2181 813 
Q 2531 813 2725 1069 
Q 2919 1325 2919 1791 
Q 2919 2259 2725 2515 
Q 2531 2772 2181 2772 
z
" transform="scale(0.015625)"/>
    </defs>
    <use xlink:href="#DejaVuSans-Bold-4f"/>
    <use xlink:href="#DejaVuSans-Bold-6b" transform="translate(85.009766 0)"/>
    <use xlink:href="#DejaVuSans-Bold-69" transform="translate(151.513672 0)"/>
    <use xlink:href="#DejaVuSans-Bold-65" transform="translate(185.791016 0)"/>
    <use xlink:href="#DejaVuSans-Bold-6e" transform="translate(253.613281 0)"/>
    <use xlink:href="#DejaVuSans-Bold-6b" transform="translate(324.804688 0)"/>
    <use xlink:href="#DejaVuSans-Bold-6f" transform="translate(388.683594 0)"/>
    <use xlink:href="#DejaVuSans-Bold-77" transform="translate(457.384766 0)"/>
    <use xlink:href="#DejaVuSans-Bold-61" transform="translate(549.767578 0)"/>
    <use xlink:href="#DejaVuSans-Bold-6e" transform="translate(617.248047 0)"/>
    <use xlink:href="#DejaVuSans-Bold-69" transform="translate(688.439453 0)"/>
    <use xlink:href="#DejaVuSans-Bold-65" transform="translate(722.716797 0)"/>
    <use xlink:href="#DejaVuSans-Bold-20" transform="translate(790.539062 0)"/>
    <use xlink:href="#DejaVuSans-Bold-2014" transform="translate(825.353516 0)"/>
    <use xlink:href="#DejaVuSans-Bold-20" transform="translate(925.353516 0)"/>
    <use xlink:href="#DejaVuSans-Bold-72" transform="translate(960.167969 0)"/>
    <use xlink:href="#DejaVuSans-Bold-65" transform="translate(1009.484375 0)"/>
    <use xlink:href="#DejaVuSans-Bold-64" transform="translate(1077.306641 0)"/>
    <use xlink:href="#DejaVuSans-Bold-75" transform="translate(1148.888672 0)"/>
    <use xlink:href="#DejaVuSans-Bold-6b" transform="translate(1220.080078 0)"/>
    <use xlink:href="#DejaVuSans-Bold-63" transform="translate(1286.583984 0)"/>
    <use xlink:href="#DejaVuSans-Bold-6a" transform="translate(1345.861328 0)"/>
    <use xlink:href="#DejaVuSans-Bold-61" transform="translate(1380.138672 0)"/>
    <use xlink:href="#DejaVuSans-Bold-20" transform="translate(1447.619141 0)"/>
    <use xlink:href="#DejaVuSans-Bold-70" transform="translate(1482.433594 0)"/>
    <use xlink:href="#DejaVuSans-Bold-72" transform="translate(1554.015625 0)"/>
    <use xlink:href="#DejaVuSans-Bold-7a" transform="translate(1603.332031 0)"/>
    <use xlink:href="#DejaVuSans-Bold-65" transform="translate(1661.535156 0)"/>
    <use xlink:href="#DejaVuSans-Bold-63" transform="translate(1729.357422 0)"/>
    <use xlink:href="#DejaVuSans-Bold-69" transform="translate(1788.634766 0)"/>
    <use xlink:href="#DejaVuSans-Bold-65" transform="translate(1822.912109 0)"/>
    <use xlink:href="#DejaVuSans-Bold-6b" transform="translate(1890.734375 0)"/>
    <use xlink:href="#DejaVuSans-Bold-75" transform="translate(1957.238281 0)"/>
    <use xlink:href="#DejaVuSans-Bold-20" transform="translate(2028.429688 0)"/>
    <use xlink:href="#DejaVuSans-Bold-77" transform="translate(2063.244141 0)"/>
    <use xlink:href="#DejaVuSans-Bold-69" transform="translate(2155.626953 0)"/>
    <use xlink:href="#DejaVuSans-Bold-64" transform="translate(2189.904297 0)"/>
    <use xlink:href="#DejaVuSans-Bold-6d" transform="translate(2261.486328 0)"/>
    <use xlink:href="#DejaVuSans-Bold-6f" transform="translate(2365.685547 0)"/>
    <use xlink:href="#DejaVuSans-Bold-77" transform="translate(2434.386719 0)"/>
    <use xlink:href="#DejaVuSans-Bold-65" transform="translate(2526.769531 0)"/>
    <use xlink:href="#DejaVuSans-Bold-67" transform="translate(2594.591797 0)"/>
    <use xlink:href="#DejaVuSans-Bold-6f" transform="translate(2666.173828 0)"/>
   </g>
  </g>
 </g>
 <defs>
  <clipPath id="p3424be4b1b">
   <rect x="66.8" y="58.56" width="482.83" height="126.82"/>
  </clipPath>
  <clipPath id="pced23ce80f">
   <rect x="66.8" y="254.22" width="482.83" height="126.82"/>
  </clipPath>
 </defs>
</svg>
