<?xml version="1.0" encoding="utf-8" standalone="no"?>
<!DOCTYPE svg PUBLIC "-//W3C//DTD SVG 1.1//EN"
  "http://www.w3.org/Graphics/SVG/1.1/DTD/svg11.dtd">
<svg xmlns:xlink="http://www.w3.org/1999/xlink" width="720pt" height="288pt" viewBox="0 0 720 288" xmlns="http://www.w3.org/2000/svg" version="1.1">
 <metadata>
  <rdf:RDF xmlns:dc="http://purl.org/dc/elements/1.1/" xmlns:cc="http://creativecommons.org/ns#" xmlns:rdf="http://www.w3.org/1999/02/22-rdf-syntax-ns#">
   <cc:Work>
    <dc:type rdf:resource="http://purl.org/dc/dcmitype/StillImage"/>
    <dc:date>2026-05-07T20:24:21.540043</dc:date>
    <dc:format>image/svg+xml</dc:format>
    <dc:creator>
     <cc:Agent>
      <dc:title>Matplotlib v3.10.9, https://matplotlib.org/</dc:title>
     </cc:Agent>
    </dc:creator>
   </cc:Work>
  </rdf:RDF>
 </metadata>
 <defs>
  <style type="text/css">*{stroke-linejoin: round; stroke-linecap: butt}</style>
 </defs>
 <g id="figure_1">
  <g id="patch_1">
   <path d="M 0 288 
L 720 288 
L 720 0 
L 0 0 
z
" style="fill: #ffffff"/>
  </g>
  <g id="axes_1">
   <g id="patch_2">
    <path d="M 57.17 237.04 
L 351.103244 237.04 
L 351.103244 58.56 
L 57.17 58.56 
z
" style="fill: #ffffff"/>
   </g>
   <g id="matplotlib.axis_1">
    <g id="xtick_1">
     <g id="line2d_1">
      <path d="M 70.530602 237.04 
L 70.530602 58.56 
" clip-path="url(#pbeb0d61d6c)" style="fill: none; stroke: #b0b0b0; stroke-opacity: 0.3; stroke-width: 0.8; stroke-linecap: square"/>
     </g>
     <g id="line2d_2">
      <defs>
       <path id="mcc67ffb059" d="M 0 0 
L 0 3.5 
" style="stroke: #000000; stroke-width: 0.8"/>
      </defs>
      <g>
       <use xlink:href="#mcc67ffb059" x="70.530602" y="237.04" style="stroke: #000000; stroke-width: 0.8"/>
      </g>
     </g>
     <g id="text_1">
      <!-- 0 -->
      <g transform="translate(66.394977 253.917969) scale(0.13 -0.13)">
       <defs>
        <path id="DejaVuSans-30" d="M 2034 4250 
Q 1547 4250 1301 3770 
Q 1056 3291 1056 2328 
Q 1056 1369 1301 889 
Q 1547 409 2034 409 
Q 2525 409 2770 889 
Q 3016 1369 3016 2328 
Q 3016 3291 2770 3770 
Q 2525 4250 2034 4250 
z
M 2034 4750 
Q 2819 4750 3233 4129 
Q 3647 3509 3647 2328 
Q 3647 1150 3233 529 
Q 2819 -91 2034 -91 
Q 1250 -91 836 529 
Q 422 1150 422 2328 
Q 422 3509 836 4129 
Q 1250 4750 2034 4750 
z
" transform="scale(0.015625)"/>
       </defs>
       <use xlink:href="#DejaVuSans-30"/>
      </g>
     </g>
    </g>
    <g id="xtick_2">
     <g id="line2d_3">
      <path d="M 123.97301 237.04 
L 123.97301 58.56 
" clip-path="url(#pbeb0d61d6c)" style="fill: none; stroke: #b0b0b0; stroke-opacity: 0.3; stroke-width: 0.8; stroke-linecap: square"/>
     </g>
     <g id="line2d_4">
      <g>
       <use xlink:href="#mcc67ffb059" x="123.97301" y="237.04" style="stroke: #000000; stroke-width: 0.8"/>
      </g>
     </g>
     <g id="text_2">
      <!-- 1 -->
      <g transform="translate(119.837385 253.917969) scale(0.13 -0.13)">
       <defs>
        <path id="DejaVuSans-31" d="M 794 531 
L 1825 531 
L 1825 4091 
L 703 3866 
L 703 4441 
L 1819 4666 
L 2450 4666 
L 2450 531 
L 3481 531 
L 3481 0 
L 794 0 
L 794 531 
z
" transform="scale(0.015625)"/>
       </defs>
       <use xlink:href="#DejaVuSans-31"/>
      </g>
     </g>
    </g>
    <g id="xtick_3">
     <g id="line2d_5">
      <path d="M 177.415418 237.04 
L 177.415418 58.56 
" clip-path="url(#pbeb0d61d6c)" style="fill: none; stroke: #b0b0b0; stroke-opacity: 0.3; stroke-width: 0.8; stroke-linecap: square"/>
     </g>
     <g id="line2d_6">
      <g>
       <use xlink:href="#mcc67ffb059" x="177.415418" y="237.04" style="stroke: #000000; stroke-width: 0.8"/>
      </g>
     </g>
     <g id="text_3">
      <!-- 2 -->
      <g transform="translate(173.279793 253.917969) scale(0.13 -0.13)">
       <defs>
        <path id="DejaVuSans-32" d="M 1228 531 
L 3431 531 
L 3431 0 
L 469 0 
L 469 531 
Q 828 903 1448 1529 
Q 2069 2156 2228 2338 
Q 2531 2678 2651 2914 
Q 2772 3150 2772 3378 
Q 2772 3750 2511 3984 
Q 2250 4219 1831 4219 
Q 1534 4219 1204 4116 
Q 875 4013 500 3803 
L 500 4441 
Q 881 4594 1212 4672 
Q 1544 4750 1819 4750 
Q 2544 4750 2975 4387 
Q 3406 4025 3406 3419 
Q 3406 3131 3298 2873 
Q 3191 2616 2906 2266 
Q 2828 2175 2409 1742 
Q 1991 1309 1228 531 
z
" transform="scale(0.015625)"/>
       </defs>
       <use xlink:href="#DejaVuSans-32"/>
      </g>
     </g>
    </g>
    <g id="xtick_4">
     <g id="line2d_7">
      <path d="M 230.857826 237.04 
L 230.857826 58.56 
" clip-path="url(#pbeb0d61d6c)" style="fill: none; stroke: #b0b0b0; stroke-opacity: 0.3; stroke-width: 0.8; stroke-linecap: square"/>
     </g>
     <g id="line2d_8">
      <g>
       <use xlink:href="#mcc67ffb059" x="230.857826" y="237.04" style="stroke: #000000; stroke-width: 0.8"/>
      </g>
     </g>
     <g id="text_4">
      <!-- 3 -->
      <g transform="translate(226.722201 253.917969) scale(0.13 -0.13)">
       <defs>
        <path id="DejaVuSans-33" d="M 2597 2516 
Q 3050 2419 3304 2112 
Q 3559 1806 3559 1356 
Q 3559 666 3084 287 
Q 2609 -91 1734 -91 
Q 1441 -91 1130 -33 
Q 819 25 488 141 
L 488 750 
Q 750 597 1062 519 
Q 1375 441 1716 441 
Q 2309 441 2620 675 
Q 2931 909 2931 1356 
Q 2931 1769 2642 2001 
Q 2353 2234 1838 2234 
L 1294 2234 
L 1294 2753 
L 1863 2753 
Q 2328 2753 2575 2939 
Q 2822 3125 2822 3475 
Q 2822 3834 2567 4026 
Q 2313 4219 1838 4219 
Q 1578 4219 1281 4162 
Q 984 4106 628 3988 
L 628 4550 
Q 988 4650 1302 4700 
Q 1616 4750 1894 4750 
Q 2613 4750 3031 4423 
Q 3450 4097 3450 3541 
Q 3450 3153 3228 2886 
Q 3006 2619 2597 2516 
z
" transform="scale(0.015625)"/>
       </defs>
       <use xlink:href="#DejaVuSans-33"/>
      </g>
     </g>
    </g>
    <g id="xtick_5">
     <g id="line2d_9">
      <path d="M 284.300234 237.04 
L 284.300234 58.56 
" clip-path="url(#pbeb0d61d6c)" style="fill: none; stroke: #b0b0b0; stroke-opacity: 0.3; stroke-width: 0.8; stroke-linecap: square"/>
     </g>
     <g id="line2d_10">
      <g>
       <use xlink:href="#mcc67ffb059" x="284.300234" y="237.04" style="stroke: #000000; stroke-width: 0.8"/>
      </g>
     </g>
     <g id="text_5">
      <!-- 4 -->
      <g transform="translate(280.164609 253.917969) scale(0.13 -0.13)">
       <defs>
        <path id="DejaVuSans-34" d="M 2419 4116 
L 825 1625 
L 2419 1625 
L 2419 4116 
z
M 2253 4666 
L 3047 4666 
L 3047 1625 
L 3713 1625 
L 3713 1100 
L 3047 1100 
L 3047 0 
L 2419 0 
L 2419 1100 
L 313 1100 
L 313 1709 
L 2253 4666 
z
" transform="scale(0.015625)"/>
       </defs>
       <use xlink:href="#DejaVuSans-34"/>
      </g>
     </g>
    </g>
    <g id="xtick_6">
     <g id="line2d_11">
      <path d="M 337.742642 237.04 
L 337.742642 58.56 
" clip-path="url(#pbeb0d61d6c)" style="fill: none; stroke: #b0b0b0; stroke-opacity: 0.3; stroke-width: 0.8; stroke-linecap: square"/>
     </g>
     <g id="line2d_12">
      <g>
       <use xlink:href="#mcc67ffb059" x="337.742642" y="237.04" style="stroke: #000000; stroke-width: 0.8"/>
      </g>
     </g>
     <g id="text_6">
      <!-- 5 -->
      <g transform="translate(333.607017 253.917969) scale(0.13 -0.13)">
       <defs>
        <path id="DejaVuSans-35" d="M 691 4666 
L 3169 4666 
L 3169 4134 
L 1269 4134 
L 1269 2991 
Q 1406 3038 1543 3061 
Q 1681 3084 1819 3084 
Q 2600 3084 3056 2656 
Q 3513 2228 3513 1497 
Q 3513 744 3044 326 
Q 2575 -91 1722 -91 
Q 1428 -91 1123 -41 
Q 819 9 494 109 
L 494 744 
Q 775 591 1075 516 
Q 1375 441 1709 441 
Q 2250 441 2565 725 
Q 2881 1009 2881 1497 
Q 2881 1984 2565 2268 
Q 2250 2553 1709 2553 
Q 1456 2553 1204 2497 
Q 953 2441 691 2322 
L 691 4666 
z
" transform="scale(0.015625)"/>
       </defs>
       <use xlink:href="#DejaVuSans-35"/>
      </g>
     </g>
    </g>
    <g id="text_7">
     <!-- t -->
     <g transform="translate(201.588419 270.499531) scale(0.13 -0.13)">
      <defs>
       <path id="DejaVuSans-74" d="M 1172 4494 
L 1172 3500 
L 2356 3500 
L 2356 3053 
L 1172 3053 
L 1172 1153 
Q 1172 725 1289 603 
Q 1406 481 1766 481 
L 2356 481 
L 2356 0 
L 1766 0 
Q 1100 0 847 248 
Q 594 497 594 1153 
L 594 3053 
L 172 3053 
L 172 3500 
L 594 3500 
L 594 4494 
L 1172 4494 
z
" transform="scale(0.015625)"/>
      </defs>
      <use xlink:href="#DejaVuSans-74"/>
     </g>
    </g>
   </g>
   <g id="matplotlib.axis_2">
    <g id="ytick_1">
     <g id="line2d_13">
      <path d="M 57.17 237.04 
L 351.103244 237.04 
" clip-path="url(#pbeb0d61d6c)" style="fill: none; stroke: #b0b0b0; stroke-opacity: 0.3; stroke-width: 0.8; stroke-linecap: square"/>
     </g>
     <g id="line2d_14">
      <defs>
       <path id="m8e09c9dec2" d="M 0 0 
L -3.5 0 
" style="stroke: #000000; stroke-width: 0.8"/>
      </defs>
      <g>
       <use xlink:href="#m8e09c9dec2" x="57.17" y="237.04" style="stroke: #000000; stroke-width: 0.8"/>
      </g>
     </g>
     <g id="text_8">
      <!-- −2 -->
      <g transform="translate(31.005156 241.978984) scale(0.13 -0.13)">
       <defs>
        <path id="DejaVuSans-2212" d="M 678 2272 
L 4684 2272 
L 4684 1741 
L 678 1741 
L 678 2272 
z
" transform="scale(0.015625)"/>
       </defs>
       <use xlink:href="#DejaVuSans-2212"/>
       <use xlink:href="#DejaVuSans-32" transform="translate(83.789062 0)"/>
      </g>
     </g>
    </g>
    <g id="ytick_2">
     <g id="line2d_15">
      <path d="M 57.17 192.42 
L 351.103244 192.42 
" clip-path="url(#pbeb0d61d6c)" style="fill: none; stroke: #b0b0b0; stroke-opacity: 0.3; stroke-width: 0.8; stroke-linecap: square"/>
     </g>
     <g id="line2d_16">
      <g>
       <use xlink:href="#m8e09c9dec2" x="57.17" y="192.42" style="stroke: #000000; stroke-width: 0.8"/>
      </g>
     </g>
     <g id="text_9">
      <!-- 0 -->
      <g transform="translate(41.89875 197.358984) scale(0.13 -0.13)">
       <use xlink:href="#DejaVuSans-30"/>
      </g>
     </g>
    </g>
    <g id="ytick_3">
     <g id="line2d_17">
      <path d="M 57.17 147.8 
L 351.103244 147.8 
" clip-path="url(#pbeb0d61d6c)" style="fill: none; stroke: #b0b0b0; stroke-opacity: 0.3; stroke-width: 0.8; stroke-linecap: square"/>
     </g>
     <g id="line2d_18">
      <g>
       <use xlink:href="#m8e09c9dec2" x="57.17" y="147.8" style="stroke: #000000; stroke-width: 0.8"/>
      </g>
     </g>
     <g id="text_10">
      <!-- 2 -->
      <g transform="translate(41.89875 152.738984) scale(0.13 -0.13)">
       <use xlink:href="#DejaVuSans-32"/>
      </g>
     </g>
    </g>
    <g id="ytick_4">
     <g id="line2d_19">
      <path d="M 57.17 103.18 
L 351.103244 103.18 
" clip-path="url(#pbeb0d61d6c)" style="fill: none; stroke: #b0b0b0; stroke-opacity: 0.3; stroke-width: 0.8; stroke-linecap: square"/>
     </g>
     <g id="line2d_20">
      <g>
       <use xlink:href="#m8e09c9dec2" x="57.17" y="103.18" style="stroke: #000000; stroke-width: 0.8"/>
      </g>
     </g>
     <g id="text_11">
      <!-- 4 -->
      <g transform="translate(41.89875 108.118984) scale(0.13 -0.13)">
       <use xlink:href="#DejaVuSans-34"/>
      </g>
     </g>
    </g>
    <g id="ytick_5">
     <g id="line2d_21">
      <path d="M 57.17 58.56 
L 351.103244 58.56 
" clip-path="url(#pbeb0d61d6c)" style="fill: none; stroke: #b0b0b0; stroke-opacity: 0.3; stroke-width: 0.8; stroke-linecap: square"/>
     </g>
     <g id="line2d_22">
      <g>
       <use xlink:href="#m8e09c9dec2" x="57.17" y="58.56" style="stroke: #000000; stroke-width: 0.8"/>
      </g>
     </g>
     <g id="text_12">
      <!-- 6 -->
      <g transform="translate(41.89875 63.498984) scale(0.13 -0.13)">
       <defs>
        <path id="DejaVuSans-36" d="M 2113 2584 
Q 1688 2584 1439 2293 
Q 1191 2003 1191 1497 
Q 1191 994 1439 701 
Q 1688 409 2113 409 
Q 2538 409 2786 701 
Q 3034 994 3034 1497 
Q 3034 2003 2786 2293 
Q 2538 2584 2113 2584 
z
M 3366 4563 
L 3366 3988 
Q 3128 4100 2886 4159 
Q 2644 4219 2406 4219 
Q 1781 4219 1451 3797 
Q 1122 3375 1075 2522 
Q 1259 2794 1537 2939 
Q 1816 3084 2150 3084 
Q 2853 3084 3261 2657 
Q 3669 2231 3669 1497 
Q 3669 778 3244 343 
Q 2819 -91 2113 -91 
Q 1303 -91 875 529 
Q 447 1150 447 2328 
Q 447 3434 972 4092 
Q 1497 4750 2381 4750 
Q 2619 4750 2861 4703 
Q 3103 4656 3366 4563 
z
" transform="scale(0.015625)"/>
       </defs>
       <use xlink:href="#DejaVuSans-36"/>
      </g>
     </g>
    </g>
    <g id="text_13">
     <!-- v(t) -->
     <g transform="translate(24.301563 159.267422) rotate(-90) scale(0.13 -0.13)">
      <defs>
       <path id="DejaVuSans-76" d="M 191 3500 
L 800 3500 
L 1894 563 
L 2988 3500 
L 3597 3500 
L 2284 0 
L 1503 0 
L 191 3500 
z
" transform="scale(0.015625)"/>
       <path id="DejaVuSans-28" d="M 1984 4856 
Q 1566 4138 1362 3434 
Q 1159 2731 1159 2009 
Q 1159 1288 1364 580 
Q 1569 -128 1984 -844 
L 1484 -844 
Q 1016 -109 783 600 
Q 550 1309 550 2009 
Q 550 2706 781 3412 
Q 1013 4119 1484 4856 
L 1984 4856 
z
" transform="scale(0.015625)"/>
       <path id="DejaVuSans-29" d="M 513 4856 
L 1013 4856 
Q 1481 4119 1714 3412 
Q 1947 2706 1947 2009 
Q 1947 1309 1714 600 
Q 1481 -109 1013 -844 
L 513 -844 
Q 928 -128 1133 580 
Q 1338 1288 1338 2009 
Q 1338 2731 1133 3434 
Q 928 4138 513 4856 
z
" transform="scale(0.015625)"/>
      </defs>
      <use xlink:href="#DejaVuSans-76"/>
      <use xlink:href="#DejaVuSans-28" transform="translate(59.179688 0)"/>
      <use xlink:href="#DejaVuSans-74" transform="translate(98.193359 0)"/>
      <use xlink:href="#DejaVuSans-29" transform="translate(137.402344 0)"/>
     </g>
    </g>
   </g>
   <g id="line2d_23">
    <path d="M 70.530602 80.87 
L 74.558924 88.96921 
L 78.587246 96.480369 
L 82.615569 103.446171 
L 86.643891 109.906214 
L 90.672213 115.897218 
L 94.700535 121.453239 
L 98.728857 126.605859 
L 102.75718 131.384367 
L 106.785502 135.815926 
L 110.813824 139.925727 
L 114.842146 143.737131 
L 118.870468 147.271805 
L 122.898791 150.549839 
L 126.927113 153.589868 
L 130.955435 156.409173 
L 136.326531 159.852426 
L 141.697628 162.966445 
L 147.068724 165.78271 
L 152.43982 168.329692 
L 157.810917 170.633139 
L 163.182013 172.716337 
L 168.553109 174.600345 
L 175.266979 176.704084 
L 181.98085 178.559462 
L 188.69472 180.195799 
L 196.751365 181.906461 
L 204.808009 183.377731 
L 214.207427 184.836076 
L 223.606846 186.059218 
L 234.349038 187.217464 
L 246.434005 188.270385 
L 259.861746 189.192334 
L 274.632261 189.97174 
L 292.088323 190.653952 
L 312.229934 191.208499 
L 336.399868 191.649258 
L 337.742642 191.668382 
L 337.742642 191.668382 
" clip-path="url(#pbeb0d61d6c)" style="fill: none; stroke: #0000ff; stroke-width: 2; stroke-linecap: square"/>
   </g>
   <g id="line2d_24">
    <path d="M 70.530602 80.87 
L 86.563324 114.335 
L 102.596047 137.7605 
L 118.628769 154.15835 
L 134.661492 165.636845 
L 150.694214 173.671791 
L 166.726936 179.296254 
L 182.759659 183.233378 
L 198.792381 185.989364 
L 214.825103 187.918555 
L 230.857826 189.268989 
L 246.890548 190.214292 
L 262.923271 190.876004 
L 278.955993 191.339203 
L 294.988715 191.663442 
L 311.021438 191.89041 
L 327.05416 192.049287 
" clip-path="url(#pbeb0d61d6c)" style="fill: none; stroke: #ff0000; stroke-width: 1.5; stroke-linecap: square"/>
    <defs>
     <path id="md441258e43" d="M 0 3 
C 0.795609 3 1.55874 2.683901 2.12132 2.12132 
C 2.683901 1.55874 3 0.795609 3 0 
C 3 -0.795609 2.683901 -1.55874 2.12132 -2.12132 
C 1.55874 -2.683901 0.795609 -3 0 -3 
C -0.795609 -3 -1.55874 -2.683901 -2.12132 -2.12132 
C -2.683901 -1.55874 -3 -0.795609 -3 0 
C -3 0.795609 -2.683901 1.55874 -2.12132 2.12132 
C -1.55874 2.683901 -0.795609 3 0 3 
z
" style="stroke: #ff0000"/>
    </defs>
    <g clip-path="url(#pbeb0d61d6c)">
     <use xlink:href="#md441258e43" x="70.530602" y="80.87" style="fill: #ff0000; stroke: #ff0000"/>
     <use xlink:href="#md441258e43" x="86.563324" y="114.335" style="fill: #ff0000; stroke: #ff0000"/>
     <use xlink:href="#md441258e43" x="102.596047" y="137.7605" style="fill: #ff0000; stroke: #ff0000"/>
     <use xlink:href="#md441258e43" x="118.628769" y="154.15835" style="fill: #ff0000; stroke: #ff0000"/>
     <use xlink:href="#md441258e43" x="134.661492" y="165.636845" style="fill: #ff0000; stroke: #ff0000"/>
     <use xlink:href="#md441258e43" x="150.694214" y="173.671791" style="fill: #ff0000; stroke: #ff0000"/>
     <use xlink:href="#md441258e43" x="166.726936" y="179.296254" style="fill: #ff0000; stroke: #ff0000"/>
     <use xlink:href="#md441258e43" x="182.759659" y="183.233378" style="fill: #ff0000; stroke: #ff0000"/>
     <use xlink:href="#md441258e43" x="198.792381" y="185.989364" style="fill: #ff0000; stroke: #ff0000"/>
     <use xlink:href="#md441258e43" x="214.825103" y="187.918555" style="fill: #ff0000; stroke: #ff0000"/>
     <use xlink:href="#md441258e43" x="230.857826" y="189.268989" style="fill: #ff0000; stroke: #ff0000"/>
     <use xlink:href="#md441258e43" x="246.890548" y="190.214292" style="fill: #ff0000; stroke: #ff0000"/>
     <use xlink:href="#md441258e43" x="262.923271" y="190.876004" style="fill: #ff0000; stroke: #ff0000"/>
     <use xlink:href="#md441258e43" x="278.955993" y="191.339203" style="fill: #ff0000; stroke: #ff0000"/>
     <use xlink:href="#md441258e43" x="294.988715" y="191.663442" style="fill: #ff0000; stroke: #ff0000"/>
     <use xlink:href="#md441258e43" x="311.021438" y="191.89041" style="fill: #ff0000; stroke: #ff0000"/>
     <use xlink:href="#md441258e43" x="327.05416" y="192.049287" style="fill: #ff0000; stroke: #ff0000"/>
    </g>
   </g>
   <g id="patch_3">
    <path d="M 57.17 237.04 
L 57.17 58.56 
" style="fill: none; stroke: #000000; stroke-width: 0.8; stroke-linejoin: miter; stroke-linecap: square"/>
   </g>
   <g id="patch_4">
    <path d="M 351.103244 237.04 
L 351.103244 58.56 
" style="fill: none; stroke: #000000; stroke-width: 0.8; stroke-linejoin: miter; stroke-linecap: square"/>
   </g>
   <g id="patch_5">
    <path d="M 57.17 237.04 
L 351.103244 237.04 
" style="fill: none; stroke: #000000; stroke-width: 0.8; stroke-linejoin: miter; stroke-linecap: square"/>
   </g>
   <g id="patch_6">
    <path d="M 57.17 58.56 
L 351.103244 58.56 
" style="fill: none; stroke: #000000; stroke-width: 0.8; stroke-linejoin: miter; stroke-linecap: square"/>
   </g>
   <g id="text_14">
    <!-- Forward Euler — stabilny (h=0.3) -->
    <g transform="translate(87.612872 52.56) scale(0.14 -0.14)">
     <defs>
      <path id="DejaVuSans-46" d="M 628 4666 
L 3309 4666 
L 3309 4134 
L 1259 4134 
L 1259 2759 
L 3109 2759 
L 3109 2228 
L 1259 2228 
L 1259 0 
L 628 0 
L 628 4666 
z
" transform="scale(0.015625)"/>
      <path id="DejaVuSans-6f" d="M 1959 3097 
Q 1497 3097 1228 2736 
Q 959 2375 959 1747 
Q 959 1119 1226 758 
Q 1494 397 1959 397 
Q 2419 397 2687 759 
Q 2956 1122 2956 1747 
Q 2956 2369 2687 2733 
Q 2419 3097 1959 3097 
z
M 1959 3584 
Q 2709 3584 3137 3096 
Q 3566 2609 3566 1747 
Q 3566 888 3137 398 
Q 2709 -91 1959 -91 
Q 1206 -91 779 398 
Q 353 888 353 1747 
Q 353 2609 779 3096 
Q 1206 3584 1959 3584 
z
" transform="scale(0.015625)"/>
      <path id="DejaVuSans-72" d="M 2631 2963 
Q 2534 3019 2420 3045 
Q 2306 3072 2169 3072 
Q 1681 3072 1420 2755 
Q 1159 2438 1159 1844 
L 1159 0 
L 581 0 
L 581 3500 
L 1159 3500 
L 1159 2956 
Q 1341 3275 1631 3429 
Q 1922 3584 2338 3584 
Q 2397 3584 2469 3576 
Q 2541 3569 2628 3553 
L 2631 2963 
z
" transform="scale(0.015625)"/>
      <path id="DejaVuSans-77" d="M 269 3500 
L 844 3500 
L 1563 769 
L 2278 3500 
L 2956 3500 
L 3675 769 
L 4391 3500 
L 4966 3500 
L 4050 0 
L 3372 0 
L 2619 2869 
L 1863 0 
L 1184 0 
L 269 3500 
z
" transform="scale(0.015625)"/>
      <path id="DejaVuSans-61" d="M 2194 1759 
Q 1497 1759 1228 1600 
Q 959 1441 959 1056 
Q 959 750 1161 570 
Q 1363 391 1709 391 
Q 2188 391 2477 730 
Q 2766 1069 2766 1631 
L 2766 1759 
L 2194 1759 
z
M 3341 1997 
L 3341 0 
L 2766 0 
L 2766 531 
Q 2569 213 2275 61 
Q 1981 -91 1556 -91 
Q 1019 -91 701 211 
Q 384 513 384 1019 
Q 384 1609 779 1909 
Q 1175 2209 1959 2209 
L 2766 2209 
L 2766 2266 
Q 2766 2663 2505 2880 
Q 2244 3097 1772 3097 
Q 1472 3097 1187 3025 
Q 903 2953 641 2809 
L 641 3341 
Q 956 3463 1253 3523 
Q 1550 3584 1831 3584 
Q 2591 3584 2966 3190 
Q 3341 2797 3341 1997 
z
" transform="scale(0.015625)"/>
      <path id="DejaVuSans-64" d="M 2906 2969 
L 2906 4863 
L 3481 4863 
L 3481 0 
L 2906 0 
L 2906 525 
Q 2725 213 2448 61 
Q 2172 -91 1784 -91 
Q 1150 -91 751 415 
Q 353 922 353 1747 
Q 353 2572 751 3078 
Q 1150 3584 1784 3584 
Q 2172 3584 2448 3432 
Q 2725 3281 2906 2969 
z
M 947 1747 
Q 947 1113 1208 752 
Q 1469 391 1925 391 
Q 2381 391 2643 752 
Q 2906 1113 2906 1747 
Q 2906 2381 2643 2742 
Q 2381 3103 1925 3103 
Q 1469 3103 1208 2742 
Q 947 2381 947 1747 
z
" transform="scale(0.015625)"/>
      <path id="DejaVuSans-20" transform="scale(0.015625)"/>
      <path id="DejaVuSans-45" d="M 628 4666 
L 3578 4666 
L 3578 4134 
L 1259 4134 
L 1259 2753 
L 3481 2753 
L 3481 2222 
L 1259 2222 
L 1259 531 
L 3634 531 
L 3634 0 
L 628 0 
L 628 4666 
z
" transform="scale(0.015625)"/>
      <path id="DejaVuSans-75" d="M 544 1381 
L 544 3500 
L 1119 3500 
L 1119 1403 
Q 1119 906 1312 657 
Q 1506 409 1894 409 
Q 2359 409 2629 706 
Q 2900 1003 2900 1516 
L 2900 3500 
L 3475 3500 
L 3475 0 
L 2900 0 
L 2900 538 
Q 2691 219 2414 64 
Q 2138 -91 1772 -91 
Q 1169 -91 856 284 
Q 544 659 544 1381 
z
M 1991 3584 
L 1991 3584 
z
" transform="scale(0.015625)"/>
      <path id="DejaVuSans-6c" d="M 603 4863 
L 1178 4863 
L 1178 0 
L 603 0 
L 603 4863 
z
" transform="scale(0.015625)"/>
      <path id="DejaVuSans-65" d="M 3597 1894 
L 3597 1613 
L 953 1613 
Q 991 1019 1311 708 
Q 1631 397 2203 397 
Q 2534 397 2845 478 
Q 3156 559 3463 722 
L 3463 178 
Q 3153 47 2828 -22 
Q 2503 -91 2169 -91 
Q 1331 -91 842 396 
Q 353 884 353 1716 
Q 353 2575 817 3079 
Q 1281 3584 2069 3584 
Q 2775 3584 3186 3129 
Q 3597 2675 3597 1894 
z
M 3022 2063 
Q 3016 2534 2758 2815 
Q 2500 3097 2075 3097 
Q 1594 3097 1305 2825 
Q 1016 2553 972 2059 
L 3022 2063 
z
" transform="scale(0.015625)"/>
      <path id="DejaVuSans-2014" d="M 313 1978 
L 6088 1978 
L 6088 1528 
L 313 1528 
L 313 1978 
z
" transform="scale(0.015625)"/>
      <path id="DejaVuSans-73" d="M 2834 3397 
L 2834 2853 
Q 2591 2978 2328 3040 
Q 2066 3103 1784 3103 
Q 1356 3103 1142 2972 
Q 928 2841 928 2578 
Q 928 2378 1081 2264 
Q 1234 2150 1697 2047 
L 1894 2003 
Q 2506 1872 2764 1633 
Q 3022 1394 3022 966 
Q 3022 478 2636 193 
Q 2250 -91 1575 -91 
Q 1294 -91 989 -36 
Q 684 19 347 128 
L 347 722 
Q 666 556 975 473 
Q 1284 391 1588 391 
Q 1994 391 2212 530 
Q 2431 669 2431 922 
Q 2431 1156 2273 1281 
Q 2116 1406 1581 1522 
L 1381 1569 
Q 847 1681 609 1914 
Q 372 2147 372 2553 
Q 372 3047 722 3315 
Q 1072 3584 1716 3584 
Q 2034 3584 2315 3537 
Q 2597 3491 2834 3397 
z
" transform="scale(0.015625)"/>
      <path id="DejaVuSans-62" d="M 3116 1747 
Q 3116 2381 2855 2742 
Q 2594 3103 2138 3103 
Q 1681 3103 1420 2742 
Q 1159 2381 1159 1747 
Q 1159 1113 1420 752 
Q 1681 391 2138 391 
Q 2594 391 2855 752 
Q 3116 1113 3116 1747 
z
M 1159 2969 
Q 1341 3281 1617 3432 
Q 1894 3584 2278 3584 
Q 2916 3584 3314 3078 
Q 3713 2572 3713 1747 
Q 3713 922 3314 415 
Q 2916 -91 2278 -91 
Q 1894 -91 1617 61 
Q 1341 213 1159 525 
L 1159 0 
L 581 0 
L 581 4863 
L 1159 4863 
L 1159 2969 
z
" transform="scale(0.015625)"/>
      <path id="DejaVuSans-69" d="M 603 3500 
L 1178 3500 
L 1178 0 
L 603 0 
L 603 3500 
z
M 603 4863 
L 1178 4863 
L 1178 4134 
L 603 4134 
L 603 4863 
z
" transform="scale(0.015625)"/>
      <path id="DejaVuSans-6e" d="M 3513 2113 
L 3513 0 
L 2938 0 
L 2938 2094 
Q 2938 2591 2744 2837 
Q 2550 3084 2163 3084 
Q 1697 3084 1428 2787 
Q 1159 2491 1159 1978 
L 1159 0 
L 581 0 
L 581 3500 
L 1159 3500 
L 1159 2956 
Q 1366 3272 1645 3428 
Q 1925 3584 2291 3584 
Q 2894 3584 3203 3211 
Q 3513 2838 3513 2113 
z
" transform="scale(0.015625)"/>
      <path id="DejaVuSans-79" d="M 2059 -325 
Q 1816 -950 1584 -1140 
Q 1353 -1331 966 -1331 
L 506 -1331 
L 506 -850 
L 844 -850 
Q 1081 -850 1212 -737 
Q 1344 -625 1503 -206 
L 1606 56 
L 191 3500 
L 800 3500 
L 1894 763 
L 2988 3500 
L 3597 3500 
L 2059 -325 
z
" transform="scale(0.015625)"/>
      <path id="DejaVuSans-68" d="M 3513 2113 
L 3513 0 
L 2938 0 
L 2938 2094 
Q 2938 2591 2744 2837 
Q 2550 3084 2163 3084 
Q 1697 3084 1428 2787 
Q 1159 2491 1159 1978 
L 1159 0 
L 581 0 
L 581 4863 
L 1159 4863 
L 1159 2956 
Q 1366 3272 1645 3428 
Q 1925 3584 2291 3584 
Q 2894 3584 3203 3211 
Q 3513 2838 3513 2113 
z
" transform="scale(0.015625)"/>
      <path id="DejaVuSans-3d" d="M 678 2906 
L 4684 2906 
L 4684 2381 
L 678 2381 
L 678 2906 
z
M 678 1631 
L 4684 1631 
L 4684 1100 
L 678 1100 
L 678 1631 
z
" transform="scale(0.015625)"/>
      <path id="DejaVuSans-2e" d="M 684 794 
L 1344 794 
L 1344 0 
L 684 0 
L 684 794 
z
" transform="scale(0.015625)"/>
     </defs>
     <use xlink:href="#DejaVuSans-46"/>
     <use xlink:href="#DejaVuSans-6f" transform="translate(53.894531 0)"/>
     <use xlink:href="#DejaVuSans-72" transform="translate(115.076172 0)"/>
     <use xlink:href="#DejaVuSans-77" transform="translate(156.189453 0)"/>
     <use xlink:href="#DejaVuSans-61" transform="translate(237.976562 0)"/>
     <use xlink:href="#DejaVuSans-72" transform="translate(299.255859 0)"/>
     <use xlink:href="#DejaVuSans-64" transform="translate(338.619141 0)"/>
     <use xlink:href="#DejaVuSans-20" transform="translate(402.095703 0)"/>
     <use xlink:href="#DejaVuSans-45" transform="translate(433.882812 0)"/>
     <use xlink:href="#DejaVuSans-75" transform="translate(497.066406 0)"/>
     <use xlink:href="#DejaVuSans-6c" transform="translate(560.445312 0)"/>
     <use xlink:href="#DejaVuSans-65" transform="translate(588.228516 0)"/>
     <use xlink:href="#DejaVuSans-72" transform="translate(649.751953 0)"/>
     <use xlink:href="#DejaVuSans-20" transform="translate(690.865234 0)"/>
     <use xlink:href="#DejaVuSans-2014" transform="translate(722.652344 0)"/>
     <use xlink:href="#DejaVuSans-20" transform="translate(822.652344 0)"/>
     <use xlink:href="#DejaVuSans-73" transform="translate(854.439453 0)"/>
     <use xlink:href="#DejaVuSans-74" transform="translate(906.539062 0)"/>
     <use xlink:href="#DejaVuSans-61" transform="translate(945.748047 0)"/>
     <use xlink:href="#DejaVuSans-62" transform="translate(1007.027344 0)"/>
     <use xlink:href="#DejaVuSans-69" transform="translate(1070.503906 0)"/>
     <use xlink:href="#DejaVuSans-6c" transform="translate(1098.287109 0)"/>
     <use xlink:href="#DejaVuSans-6e" transform="translate(1126.070312 0)"/>
     <use xlink:href="#DejaVuSans-79" transform="translate(1189.449219 0)"/>
     <use xlink:href="#DejaVuSans-20" transform="translate(1248.628906 0)"/>
     <use xlink:href="#DejaVuSans-28" transform="translate(1280.416016 0)"/>
     <use xlink:href="#DejaVuSans-68" transform="translate(1319.429688 0)"/>
     <use xlink:href="#DejaVuSans-3d" transform="translate(1382.808594 0)"/>
     <use xlink:href="#DejaVuSans-30" transform="translate(1466.597656 0)"/>
     <use xlink:href="#DejaVuSans-2e" transform="translate(1530.220703 0)"/>
     <use xlink:href="#DejaVuSans-33" transform="translate(1562.007812 0)"/>
     <use xlink:href="#DejaVuSans-29" transform="translate(1625.630859 0)"/>
    </g>
   </g>
   <g id="legend_1">
    <g id="patch_7">
     <path d="M 230.629806 107.123125 
L 342.003244 107.123125 
Q 344.603244 107.123125 344.603244 104.523125 
L 344.603244 67.66 
Q 344.603244 65.06 342.003244 65.06 
L 230.629806 65.06 
Q 228.029806 65.06 228.029806 67.66 
L 228.029806 104.523125 
Q 228.029806 107.123125 230.629806 107.123125 
z
" style="fill: #ffffff; opacity: 0.8; stroke: #cccccc; stroke-linejoin: miter"/>
    </g>
    <g id="line2d_25">
     <path d="M 233.229806 75.587969 
L 246.229806 75.587969 
L 259.229806 75.587969 
" style="fill: none; stroke: #0000ff; stroke-width: 2; stroke-linecap: square"/>
    </g>
    <g id="text_15">
     <!-- dokładne -->
     <g transform="translate(269.629806 80.137969) scale(0.13 -0.13)">
      <defs>
       <path id="DejaVuSans-6b" d="M 581 4863 
L 1159 4863 
L 1159 1991 
L 2875 3500 
L 3609 3500 
L 1753 1863 
L 3688 0 
L 2938 0 
L 1159 1709 
L 1159 0 
L 581 0 
L 581 4863 
z
" transform="scale(0.015625)"/>
       <path id="DejaVuSans-142" d="M 622 4863 
L 1197 4863 
L 1197 2981 
L 1588 3263 
L 1825 2931 
L 1197 2491 
L 1197 0 
L 622 0 
L 622 2081 
L 238 1806 
L 6 2138 
L 622 2578 
L 622 4863 
z
" transform="scale(0.015625)"/>
      </defs>
      <use xlink:href="#DejaVuSans-64"/>
      <use xlink:href="#DejaVuSans-6f" transform="translate(63.476562 0)"/>
      <use xlink:href="#DejaVuSans-6b" transform="translate(124.658203 0)"/>
      <use xlink:href="#DejaVuSans-142" transform="translate(182.568359 0)"/>
      <use xlink:href="#DejaVuSans-61" transform="translate(210.986328 0)"/>
      <use xlink:href="#DejaVuSans-64" transform="translate(272.265625 0)"/>
      <use xlink:href="#DejaVuSans-6e" transform="translate(335.742188 0)"/>
      <use xlink:href="#DejaVuSans-65" transform="translate(399.121094 0)"/>
     </g>
    </g>
    <g id="line2d_26">
     <path d="M 233.229806 94.669531 
L 246.229806 94.669531 
L 259.229806 94.669531 
" style="fill: none; stroke: #ff0000; stroke-width: 1.5; stroke-linecap: square"/>
     <g>
      <use xlink:href="#md441258e43" x="246.229806" y="94.669531" style="fill: #ff0000; stroke: #ff0000"/>
     </g>
    </g>
    <g id="text_16">
     <!-- FE (h=0.3) -->
     <g transform="translate(269.629806 99.219531) scale(0.13 -0.13)">
      <use xlink:href="#DejaVuSans-46"/>
      <use xlink:href="#DejaVuSans-45" transform="translate(57.519531 0)"/>
      <use xlink:href="#DejaVuSans-20" transform="translate(120.703125 0)"/>
      <use xlink:href="#DejaVuSans-28" transform="translate(152.490234 0)"/>
      <use xlink:href="#DejaVuSans-68" transform="translate(191.503906 0)"/>
      <use xlink:href="#DejaVuSans-3d" transform="translate(254.882812 0)"/>
      <use xlink:href="#DejaVuSans-30" transform="translate(338.671875 0)"/>
      <use xlink:href="#DejaVuSans-2e" transform="translate(402.294922 0)"/>
      <use xlink:href="#DejaVuSans-33" transform="translate(434.082031 0)"/>
      <use xlink:href="#DejaVuSans-29" transform="translate(497.705078 0)"/>
     </g>
    </g>
   </g>
  </g>
  <g id="axes_2">
   <g id="patch_8">
    <path d="M 399.503244 237.04 
L 693.436488 237.04 
L 693.436488 58.56 
L 399.503244 58.56 
z
" style="fill: #ffffff"/>
   </g>
   <g id="matplotlib.axis_3">
    <g id="xtick_7">
     <g id="line2d_27">
      <path d="M 412.863846 237.04 
L 412.863846 58.56 
" clip-path="url(#pe9906efe9f)" style="fill: none; stroke: #b0b0b0; stroke-opacity: 0.3; stroke-width: 0.8; stroke-linecap: square"/>
     </g>
     <g id="line2d_28">
      <g>
       <use xlink:href="#mcc67ffb059" x="412.863846" y="237.04" style="stroke: #000000; stroke-width: 0.8"/>
      </g>
     </g>
     <g id="text_17">
      <!-- 0 -->
      <g transform="translate(408.728221 253.917969) scale(0.13 -0.13)">
       <use xlink:href="#DejaVuSans-30"/>
      </g>
     </g>
    </g>
    <g id="xtick_8">
     <g id="line2d_29">
      <path d="M 457.399186 237.04 
L 457.399186 58.56 
" clip-path="url(#pe9906efe9f)" style="fill: none; stroke: #b0b0b0; stroke-opacity: 0.3; stroke-width: 0.8; stroke-linecap: square"/>
     </g>
     <g id="line2d_30">
      <g>
       <use xlink:href="#mcc67ffb059" x="457.399186" y="237.04" style="stroke: #000000; stroke-width: 0.8"/>
      </g>
     </g>
     <g id="text_18">
      <!-- 2 -->
      <g transform="translate(453.263561 253.917969) scale(0.13 -0.13)">
       <use xlink:href="#DejaVuSans-32"/>
      </g>
     </g>
    </g>
    <g id="xtick_9">
     <g id="line2d_31">
      <path d="M 501.934526 237.04 
L 501.934526 58.56 
" clip-path="url(#pe9906efe9f)" style="fill: none; stroke: #b0b0b0; stroke-opacity: 0.3; stroke-width: 0.8; stroke-linecap: square"/>
     </g>
     <g id="line2d_32">
      <g>
       <use xlink:href="#mcc67ffb059" x="501.934526" y="237.04" style="stroke: #000000; stroke-width: 0.8"/>
      </g>
     </g>
     <g id="text_19">
      <!-- 4 -->
      <g transform="translate(497.798901 253.917969) scale(0.13 -0.13)">
       <use xlink:href="#DejaVuSans-34"/>
      </g>
     </g>
    </g>
    <g id="xtick_10">
     <g id="line2d_33">
      <path d="M 546.469866 237.04 
L 546.469866 58.56 
" clip-path="url(#pe9906efe9f)" style="fill: none; stroke: #b0b0b0; stroke-opacity: 0.3; stroke-width: 0.8; stroke-linecap: square"/>
     </g>
     <g id="line2d_34">
      <g>
       <use xlink:href="#mcc67ffb059" x="546.469866" y="237.04" style="stroke: #000000; stroke-width: 0.8"/>
      </g>
     </g>
     <g id="text_20">
      <!-- 6 -->
      <g transform="translate(542.334241 253.917969) scale(0.13 -0.13)">
       <use xlink:href="#DejaVuSans-36"/>
      </g>
     </g>
    </g>
    <g id="xtick_11">
     <g id="line2d_35">
      <path d="M 591.005206 237.04 
L 591.005206 58.56 
" clip-path="url(#pe9906efe9f)" style="fill: none; stroke: #b0b0b0; stroke-opacity: 0.3; stroke-width: 0.8; stroke-linecap: square"/>
     </g>
     <g id="line2d_36">
      <g>
       <use xlink:href="#mcc67ffb059" x="591.005206" y="237.04" style="stroke: #000000; stroke-width: 0.8"/>
      </g>
     </g>
     <g id="text_21">
      <!-- 8 -->
      <g transform="translate(586.869581 253.917969) scale(0.13 -0.13)">
       <defs>
        <path id="DejaVuSans-38" d="M 2034 2216 
Q 1584 2216 1326 1975 
Q 1069 1734 1069 1313 
Q 1069 891 1326 650 
Q 1584 409 2034 409 
Q 2484 409 2743 651 
Q 3003 894 3003 1313 
Q 3003 1734 2745 1975 
Q 2488 2216 2034 2216 
z
M 1403 2484 
Q 997 2584 770 2862 
Q 544 3141 544 3541 
Q 544 4100 942 4425 
Q 1341 4750 2034 4750 
Q 2731 4750 3128 4425 
Q 3525 4100 3525 3541 
Q 3525 3141 3298 2862 
Q 3072 2584 2669 2484 
Q 3125 2378 3379 2068 
Q 3634 1759 3634 1313 
Q 3634 634 3220 271 
Q 2806 -91 2034 -91 
Q 1263 -91 848 271 
Q 434 634 434 1313 
Q 434 1759 690 2068 
Q 947 2378 1403 2484 
z
M 1172 3481 
Q 1172 3119 1398 2916 
Q 1625 2713 2034 2713 
Q 2441 2713 2670 2916 
Q 2900 3119 2900 3481 
Q 2900 3844 2670 4047 
Q 2441 4250 2034 4250 
Q 1625 4250 1398 4047 
Q 1172 3844 1172 3481 
z
" transform="scale(0.015625)"/>
       </defs>
       <use xlink:href="#DejaVuSans-38"/>
      </g>
     </g>
    </g>
    <g id="xtick_12">
     <g id="line2d_37">
      <path d="M 635.540546 237.04 
L 635.540546 58.56 
" clip-path="url(#pe9906efe9f)" style="fill: none; stroke: #b0b0b0; stroke-opacity: 0.3; stroke-width: 0.8; stroke-linecap: square"/>
     </g>
     <g id="line2d_38">
      <g>
       <use xlink:href="#mcc67ffb059" x="635.540546" y="237.04" style="stroke: #000000; stroke-width: 0.8"/>
      </g>
     </g>
     <g id="text_22">
      <!-- 10 -->
      <g transform="translate(627.269296 253.917969) scale(0.13 -0.13)">
       <use xlink:href="#DejaVuSans-31"/>
       <use xlink:href="#DejaVuSans-30" transform="translate(63.623047 0)"/>
      </g>
     </g>
    </g>
    <g id="xtick_13">
     <g id="line2d_39">
      <path d="M 680.075886 237.04 
L 680.075886 58.56 
" clip-path="url(#pe9906efe9f)" style="fill: none; stroke: #b0b0b0; stroke-opacity: 0.3; stroke-width: 0.8; stroke-linecap: square"/>
     </g>
     <g id="line2d_40">
      <g>
       <use xlink:href="#mcc67ffb059" x="680.075886" y="237.04" style="stroke: #000000; stroke-width: 0.8"/>
      </g>
     </g>
     <g id="text_23">
      <!-- 12 -->
      <g transform="translate(671.804636 253.917969) scale(0.13 -0.13)">
       <use xlink:href="#DejaVuSans-31"/>
       <use xlink:href="#DejaVuSans-32" transform="translate(63.623047 0)"/>
      </g>
     </g>
    </g>
    <g id="text_24">
     <!-- t -->
     <g transform="translate(543.921663 270.499531) scale(0.13 -0.13)">
      <use xlink:href="#DejaVuSans-74"/>
     </g>
    </g>
   </g>
   <g id="matplotlib.axis_4">
    <g id="ytick_6">
     <g id="line2d_41">
      <path d="M 399.503244 237.04 
L 693.436488 237.04 
" clip-path="url(#pe9906efe9f)" style="fill: none; stroke: #b0b0b0; stroke-opacity: 0.3; stroke-width: 0.8; stroke-linecap: square"/>
     </g>
     <g id="line2d_42">
      <g>
       <use xlink:href="#m8e09c9dec2" x="399.503244" y="237.04" style="stroke: #000000; stroke-width: 0.8"/>
      </g>
     </g>
     <g id="text_25">
      <!-- −15 -->
      <g transform="translate(365.06715 241.978984) scale(0.13 -0.13)">
       <use xlink:href="#DejaVuSans-2212"/>
       <use xlink:href="#DejaVuSans-31" transform="translate(83.789062 0)"/>
       <use xlink:href="#DejaVuSans-35" transform="translate(147.412109 0)"/>
      </g>
     </g>
    </g>
    <g id="ytick_7">
     <g id="line2d_43">
      <path d="M 399.503244 207.293333 
L 693.436488 207.293333 
" clip-path="url(#pe9906efe9f)" style="fill: none; stroke: #b0b0b0; stroke-opacity: 0.3; stroke-width: 0.8; stroke-linecap: square"/>
     </g>
     <g id="line2d_44">
      <g>
       <use xlink:href="#m8e09c9dec2" x="399.503244" y="207.293333" style="stroke: #000000; stroke-width: 0.8"/>
      </g>
     </g>
     <g id="text_26">
      <!-- −10 -->
      <g transform="translate(365.06715 212.232318) scale(0.13 -0.13)">
       <use xlink:href="#DejaVuSans-2212"/>
       <use xlink:href="#DejaVuSans-31" transform="translate(83.789062 0)"/>
       <use xlink:href="#DejaVuSans-30" transform="translate(147.412109 0)"/>
      </g>
     </g>
    </g>
    <g id="ytick_8">
     <g id="line2d_45">
      <path d="M 399.503244 177.546667 
L 693.436488 177.546667 
" clip-path="url(#pe9906efe9f)" style="fill: none; stroke: #b0b0b0; stroke-opacity: 0.3; stroke-width: 0.8; stroke-linecap: square"/>
     </g>
     <g id="line2d_46">
      <g>
       <use xlink:href="#m8e09c9dec2" x="399.503244" y="177.546667" style="stroke: #000000; stroke-width: 0.8"/>
      </g>
     </g>
     <g id="text_27">
      <!-- −5 -->
      <g transform="translate(373.3384 182.485651) scale(0.13 -0.13)">
       <use xlink:href="#DejaVuSans-2212"/>
       <use xlink:href="#DejaVuSans-35" transform="translate(83.789062 0)"/>
      </g>
     </g>
    </g>
    <g id="ytick_9">
     <g id="line2d_47">
      <path d="M 399.503244 147.8 
L 693.436488 147.8 
" clip-path="url(#pe9906efe9f)" style="fill: none; stroke: #b0b0b0; stroke-opacity: 0.3; stroke-width: 0.8; stroke-linecap: square"/>
     </g>
     <g id="line2d_48">
      <g>
       <use xlink:href="#m8e09c9dec2" x="399.503244" y="147.8" style="stroke: #000000; stroke-width: 0.8"/>
      </g>
     </g>
     <g id="text_28">
      <!-- 0 -->
      <g transform="translate(384.231994 152.738984) scale(0.13 -0.13)">
       <use xlink:href="#DejaVuSans-30"/>
      </g>
     </g>
    </g>
    <g id="ytick_10">
     <g id="line2d_49">
      <path d="M 399.503244 118.053333 
L 693.436488 118.053333 
" clip-path="url(#pe9906efe9f)" style="fill: none; stroke: #b0b0b0; stroke-opacity: 0.3; stroke-width: 0.8; stroke-linecap: square"/>
     </g>
     <g id="line2d_50">
      <g>
       <use xlink:href="#m8e09c9dec2" x="399.503244" y="118.053333" style="stroke: #000000; stroke-width: 0.8"/>
      </g>
     </g>
     <g id="text_29">
      <!-- 5 -->
      <g transform="translate(384.231994 122.992318) scale(0.13 -0.13)">
       <use xlink:href="#DejaVuSans-35"/>
      </g>
     </g>
    </g>
    <g id="ytick_11">
     <g id="line2d_51">
      <path d="M 399.503244 88.306667 
L 693.436488 88.306667 
" clip-path="url(#pe9906efe9f)" style="fill: none; stroke: #b0b0b0; stroke-opacity: 0.3; stroke-width: 0.8; stroke-linecap: square"/>
     </g>
     <g id="line2d_52">
      <g>
       <use xlink:href="#m8e09c9dec2" x="399.503244" y="88.306667" style="stroke: #000000; stroke-width: 0.8"/>
      </g>
     </g>
     <g id="text_30">
      <!-- 10 -->
      <g transform="translate(375.960744 93.245651) scale(0.13 -0.13)">
       <use xlink:href="#DejaVuSans-31"/>
       <use xlink:href="#DejaVuSans-30" transform="translate(63.623047 0)"/>
      </g>
     </g>
    </g>
    <g id="ytick_12">
     <g id="line2d_53">
      <path d="M 399.503244 58.56 
L 693.436488 58.56 
" clip-path="url(#pe9906efe9f)" style="fill: none; stroke: #b0b0b0; stroke-opacity: 0.3; stroke-width: 0.8; stroke-linecap: square"/>
     </g>
     <g id="line2d_54">
      <g>
       <use xlink:href="#m8e09c9dec2" x="399.503244" y="58.56" style="stroke: #000000; stroke-width: 0.8"/>
      </g>
     </g>
     <g id="text_31">
      <!-- 15 -->
      <g transform="translate(375.960744 63.498984) scale(0.13 -0.13)">
       <use xlink:href="#DejaVuSans-31"/>
       <use xlink:href="#DejaVuSans-35" transform="translate(63.623047 0)"/>
      </g>
     </g>
    </g>
   </g>
   <g id="line2d_55">
    <path d="M 412.863846 118.053333 
L 415.549394 121.432978 
L 418.234942 124.428647 
L 420.92049 127.083965 
L 423.606038 129.437601 
L 426.291586 131.523831 
L 428.977135 133.373035 
L 431.662683 135.012144 
L 434.348231 136.465026 
L 438.376553 138.340794 
L 442.404875 139.90615 
L 446.433198 141.212464 
L 450.46152 142.302602 
L 455.832616 143.480806 
L 461.203712 144.406497 
L 467.917583 145.289818 
L 474.631453 145.943213 
L 482.688097 146.506905 
L 493.43029 147.001782 
L 506.858031 147.363247 
L 525.656868 147.612244 
L 555.197897 147.750175 
L 627.707697 147.79808 
L 680.075886 147.799817 
L 680.075886 147.799817 
" clip-path="url(#pe9906efe9f)" style="fill: none; stroke: #0000ff; stroke-width: 2; stroke-linecap: square"/>
   </g>
   <g id="line2d_56">
    <path d="M 412.863846 118.053333 
L 468.533021 192.42 
L 524.202196 80.87 
L 579.871371 248.195 
L 635.142968 -1 
" clip-path="url(#pe9906efe9f)" style="fill: none; stroke: #ff0000; stroke-width: 2; stroke-linecap: square"/>
    <defs>
     <path id="m7e5dc89a32" d="M -4 4 
L 4 -4 
M -4 -4 
L 4 4 
" style="stroke: #ff0000"/>
    </defs>
    <g clip-path="url(#pe9906efe9f)">
     <use xlink:href="#m7e5dc89a32" x="412.863846" y="118.053333" style="fill: #ff0000; stroke: #ff0000"/>
     <use xlink:href="#m7e5dc89a32" x="468.533021" y="192.42" style="fill: #ff0000; stroke: #ff0000"/>
     <use xlink:href="#m7e5dc89a32" x="524.202196" y="80.87" style="fill: #ff0000; stroke: #ff0000"/>
     <use xlink:href="#m7e5dc89a32" x="579.871371" y="248.195" style="fill: #ff0000; stroke: #ff0000"/>
     <use xlink:href="#m7e5dc89a32" x="635.142968" y="-1" style="fill: #ff0000; stroke: #ff0000"/>
    </g>
   </g>
   <g id="line2d_57">
    <path d="M 399.503244 147.8 
L 693.436488 147.8 
" clip-path="url(#pe9906efe9f)" style="fill: none; stroke: #000000; stroke-width: 0.5; stroke-linecap: square"/>
   </g>
   <g id="patch_9">
    <path d="M 399.503244 237.04 
L 399.503244 58.56 
" style="fill: none; stroke: #000000; stroke-width: 0.8; stroke-linejoin: miter; stroke-linecap: square"/>
   </g>
   <g id="patch_10">
    <path d="M 693.436488 237.04 
L 693.436488 58.56 
" style="fill: none; stroke: #000000; stroke-width: 0.8; stroke-linejoin: miter; stroke-linecap: square"/>
   </g>
   <g id="patch_11">
    <path d="M 399.503244 237.04 
L 693.436488 237.04 
" style="fill: none; stroke: #000000; stroke-width: 0.8; stroke-linejoin: miter; stroke-linecap: square"/>
   </g>
   <g id="patch_12">
    <path d="M 399.503244 58.56 
L 693.436488 58.56 
" style="fill: none; stroke: #000000; stroke-width: 0.8; stroke-linejoin: miter; stroke-linecap: square"/>
   </g>
   <g id="text_32">
    <!-- Forward Euler — NIESTABILNY (h=2.5) -->
    <g transform="translate(412.568616 52.56) scale(0.14 -0.14)">
     <defs>
      <path id="DejaVuSans-4e" d="M 628 4666 
L 1478 4666 
L 3547 763 
L 3547 4666 
L 4159 4666 
L 4159 0 
L 3309 0 
L 1241 3903 
L 1241 0 
L 628 0 
L 628 4666 
z
" transform="scale(0.015625)"/>
      <path id="DejaVuSans-49" d="M 628 4666 
L 1259 4666 
L 1259 0 
L 628 0 
L 628 4666 
z
" transform="scale(0.015625)"/>
      <path id="DejaVuSans-53" d="M 3425 4513 
L 3425 3897 
Q 3066 4069 2747 4153 
Q 2428 4238 2131 4238 
Q 1616 4238 1336 4038 
Q 1056 3838 1056 3469 
Q 1056 3159 1242 3001 
Q 1428 2844 1947 2747 
L 2328 2669 
Q 3034 2534 3370 2195 
Q 3706 1856 3706 1288 
Q 3706 609 3251 259 
Q 2797 -91 1919 -91 
Q 1588 -91 1214 -16 
Q 841 59 441 206 
L 441 856 
Q 825 641 1194 531 
Q 1563 422 1919 422 
Q 2459 422 2753 634 
Q 3047 847 3047 1241 
Q 3047 1584 2836 1778 
Q 2625 1972 2144 2069 
L 1759 2144 
Q 1053 2284 737 2584 
Q 422 2884 422 3419 
Q 422 4038 858 4394 
Q 1294 4750 2059 4750 
Q 2388 4750 2728 4690 
Q 3069 4631 3425 4513 
z
" transform="scale(0.015625)"/>
      <path id="DejaVuSans-54" d="M -19 4666 
L 3928 4666 
L 3928 4134 
L 2272 4134 
L 2272 0 
L 1638 0 
L 1638 4134 
L -19 4134 
L -19 4666 
z
" transform="scale(0.015625)"/>
      <path id="DejaVuSans-41" d="M 2188 4044 
L 1331 1722 
L 3047 1722 
L 2188 4044 
z
M 1831 4666 
L 2547 4666 
L 4325 0 
L 3669 0 
L 3244 1197 
L 1141 1197 
L 716 0 
L 50 0 
L 1831 4666 
z
" transform="scale(0.015625)"/>
      <path id="DejaVuSans-42" d="M 1259 2228 
L 1259 519 
L 2272 519 
Q 2781 519 3026 730 
Q 3272 941 3272 1375 
Q 3272 1813 3026 2020 
Q 2781 2228 2272 2228 
L 1259 2228 
z
M 1259 4147 
L 1259 2741 
L 2194 2741 
Q 2656 2741 2882 2914 
Q 3109 3088 3109 3444 
Q 3109 3797 2882 3972 
Q 2656 4147 2194 4147 
L 1259 4147 
z
M 628 4666 
L 2241 4666 
Q 2963 4666 3353 4366 
Q 3744 4066 3744 3513 
Q 3744 3084 3544 2831 
Q 3344 2578 2956 2516 
Q 3422 2416 3680 2098 
Q 3938 1781 3938 1306 
Q 3938 681 3513 340 
Q 3088 0 2303 0 
L 628 0 
L 628 4666 
z
" transform="scale(0.015625)"/>
      <path id="DejaVuSans-4c" d="M 628 4666 
L 1259 4666 
L 1259 531 
L 3531 531 
L 3531 0 
L 628 0 
L 628 4666 
z
" transform="scale(0.015625)"/>
      <path id="DejaVuSans-59" d="M -13 4666 
L 666 4666 
L 1959 2747 
L 3244 4666 
L 3922 4666 
L 2272 2222 
L 2272 0 
L 1638 0 
L 1638 2222 
L -13 4666 
z
" transform="scale(0.015625)"/>
     </defs>
     <use xlink:href="#DejaVuSans-46"/>
     <use xlink:href="#DejaVuSans-6f" transform="translate(53.894531 0)"/>
     <use xlink:href="#DejaVuSans-72" transform="translate(115.076172 0)"/>
     <use xlink:href="#DejaVuSans-77" transform="translate(156.189453 0)"/>
     <use xlink:href="#DejaVuSans-61" transform="translate(237.976562 0)"/>
     <use xlink:href="#DejaVuSans-72" transform="translate(299.255859 0)"/>
     <use xlink:href="#DejaVuSans-64" transform="translate(338.619141 0)"/>
     <use xlink:href="#DejaVuSans-20" transform="translate(402.095703 0)"/>
     <use xlink:href="#DejaVuSans-45" transform="translate(433.882812 0)"/>
     <use xlink:href="#DejaVuSans-75" transform="translate(497.066406 0)"/>
     <use xlink:href="#DejaVuSans-6c" transform="translate(560.445312 0)"/>
     <use xlink:href="#DejaVuSans-65" transform="translate(588.228516 0)"/>
     <use xlink:href="#DejaVuSans-72" transform="translate(649.751953 0)"/>
     <use xlink:href="#DejaVuSans-20" transform="translate(690.865234 0)"/>
     <use xlink:href="#DejaVuSans-2014" transform="translate(722.652344 0)"/>
     <use xlink:href="#DejaVuSans-20" transform="translate(822.652344 0)"/>
     <use xlink:href="#DejaVuSans-4e" transform="translate(854.439453 0)"/>
     <use xlink:href="#DejaVuSans-49" transform="translate(929.244141 0)"/>
     <use xlink:href="#DejaVuSans-45" transform="translate(958.736328 0)"/>
     <use xlink:href="#DejaVuSans-53" transform="translate(1021.919922 0)"/>
     <use xlink:href="#DejaVuSans-54" transform="translate(1085.396484 0)"/>
     <use xlink:href="#DejaVuSans-41" transform="translate(1138.730469 0)"/>
     <use xlink:href="#DejaVuSans-42" transform="translate(1207.138672 0)"/>
     <use xlink:href="#DejaVuSans-49" transform="translate(1275.742188 0)"/>
     <use xlink:href="#DejaVuSans-4c" transform="translate(1305.234375 0)"/>
     <use xlink:href="#DejaVuSans-4e" transform="translate(1360.947266 0)"/>
     <use xlink:href="#DejaVuSans-59" transform="translate(1435.751953 0)"/>
     <use xlink:href="#DejaVuSans-20" transform="translate(1496.835938 0)"/>
     <use xlink:href="#DejaVuSans-28" transform="translate(1528.623047 0)"/>
     <use xlink:href="#DejaVuSans-68" transform="translate(1567.636719 0)"/>
     <use xlink:href="#DejaVuSans-3d" transform="translate(1631.015625 0)"/>
     <use xlink:href="#DejaVuSans-32" transform="translate(1714.804688 0)"/>
     <use xlink:href="#DejaVuSans-2e" transform="translate(1778.427734 0)"/>
     <use xlink:href="#DejaVuSans-35" transform="translate(1810.214844 0)"/>
     <use xlink:href="#DejaVuSans-29" transform="translate(1873.837891 0)"/>
    </g>
   </g>
   <g id="legend_2">
    <g id="patch_13">
     <path d="M 462.970863 107.123125 
L 684.336488 107.123125 
Q 686.936488 107.123125 686.936488 104.523125 
L 686.936488 67.66 
Q 686.936488 65.06 684.336488 65.06 
L 462.970863 65.06 
Q 460.370863 65.06 460.370863 67.66 
L 460.370863 104.523125 
Q 460.370863 107.123125 462.970863 107.123125 
z
" style="fill: #ffffff; opacity: 0.8; stroke: #cccccc; stroke-linejoin: miter"/>
    </g>
    <g id="line2d_58">
     <path d="M 465.570863 75.587969 
L 478.570863 75.587969 
L 491.570863 75.587969 
" style="fill: none; stroke: #0000ff; stroke-width: 2; stroke-linecap: square"/>
    </g>
    <g id="text_33">
     <!-- dokładne -->
     <g transform="translate(501.970863 80.137969) scale(0.13 -0.13)">
      <use xlink:href="#DejaVuSans-64"/>
      <use xlink:href="#DejaVuSans-6f" transform="translate(63.476562 0)"/>
      <use xlink:href="#DejaVuSans-6b" transform="translate(124.658203 0)"/>
      <use xlink:href="#DejaVuSans-142" transform="translate(182.568359 0)"/>
      <use xlink:href="#DejaVuSans-61" transform="translate(210.986328 0)"/>
      <use xlink:href="#DejaVuSans-64" transform="translate(272.265625 0)"/>
      <use xlink:href="#DejaVuSans-6e" transform="translate(335.742188 0)"/>
      <use xlink:href="#DejaVuSans-65" transform="translate(399.121094 0)"/>
     </g>
    </g>
    <g id="line2d_59">
     <path d="M 465.570863 94.669531 
L 478.570863 94.669531 
L 491.570863 94.669531 
" style="fill: none; stroke: #ff0000; stroke-width: 2; stroke-linecap: square"/>
     <g>
      <use xlink:href="#m7e5dc89a32" x="478.570863" y="94.669531" style="fill: #ff0000; stroke: #ff0000"/>
     </g>
    </g>
    <g id="text_34">
     <!-- FE (h=2.5) — NIESTABILNY! -->
     <g transform="translate(501.970863 99.219531) scale(0.13 -0.13)">
      <defs>
       <path id="DejaVuSans-21" d="M 966 794 
L 1600 794 
L 1600 0 
L 966 0 
L 966 794 
z
M 966 4666 
L 1600 4666 
L 1600 2619 
L 1538 1503 
L 1031 1503 
L 966 2619 
L 966 4666 
z
" transform="scale(0.015625)"/>
      </defs>
      <use xlink:href="#DejaVuSans-46"/>
      <use xlink:href="#DejaVuSans-45" transform="translate(57.519531 0)"/>
      <use xlink:href="#DejaVuSans-20" transform="translate(120.703125 0)"/>
      <use xlink:href="#DejaVuSans-28" transform="translate(152.490234 0)"/>
      <use xlink:href="#DejaVuSans-68" transform="translate(191.503906 0)"/>
      <use xlink:href="#DejaVuSans-3d" transform="translate(254.882812 0)"/>
      <use xlink:href="#DejaVuSans-32" transform="translate(338.671875 0)"/>
      <use xlink:href="#DejaVuSans-2e" transform="translate(402.294922 0)"/>
      <use xlink:href="#DejaVuSans-35" transform="translate(434.082031 0)"/>
      <use xlink:href="#DejaVuSans-29" transform="translate(497.705078 0)"/>
      <use xlink:href="#DejaVuSans-20" transform="translate(536.71875 0)"/>
      <use xlink:href="#DejaVuSans-2014" transform="translate(568.505859 0)"/>
      <use xlink:href="#DejaVuSans-20" transform="translate(668.505859 0)"/>
      <use xlink:href="#DejaVuSans-4e" transform="translate(700.292969 0)"/>
      <use xlink:href="#DejaVuSans-49" transform="translate(775.097656 0)"/>
      <use xlink:href="#DejaVuSans-45" transform="translate(804.589844 0)"/>
      <use xlink:href="#DejaVuSans-53" transform="translate(867.773438 0)"/>
      <use xlink:href="#DejaVuSans-54" transform="translate(931.25 0)"/>
      <use xlink:href="#DejaVuSans-41" transform="translate(984.583984 0)"/>
      <use xlink:href="#DejaVuSans-42" transform="translate(1052.992188 0)"/>
      <use xlink:href="#DejaVuSans-49" transform="translate(1121.595703 0)"/>
      <use xlink:href="#DejaVuSans-4c" transform="translate(1151.087891 0)"/>
      <use xlink:href="#DejaVuSans-4e" transform="translate(1206.800781 0)"/>
      <use xlink:href="#DejaVuSans-59" transform="translate(1281.605469 0)"/>
      <use xlink:href="#DejaVuSans-21" transform="translate(1342.689453 0)"/>
     </g>
    </g>
   </g>
  </g>
  <g id="text_35">
   <!-- Dlaczego SPICE nie używa Forward Euler -->
   <g transform="translate(199.670469 16.397812) scale(0.14 -0.14)">
    <defs>
     <path id="DejaVuSans-Bold-44" d="M 1791 3756 
L 1791 909 
L 2222 909 
Q 2959 909 3348 1275 
Q 3738 1641 3738 2338 
Q 3738 3031 3350 3393 
Q 2963 3756 2222 3756 
L 1791 3756 
z
M 588 4666 
L 1856 4666 
Q 2919 4666 3439 4514 
Q 3959 4363 4331 4000 
Q 4659 3684 4818 3271 
Q 4978 2859 4978 2338 
Q 4978 1809 4818 1395 
Q 4659 981 4331 666 
Q 3956 303 3431 151 
Q 2906 0 1856 0 
L 588 0 
L 588 4666 
z
" transform="scale(0.015625)"/>
     <path id="DejaVuSans-Bold-6c" d="M 538 4863 
L 1656 4863 
L 1656 0 
L 538 0 
L 538 4863 
z
" transform="scale(0.015625)"/>
     <path id="DejaVuSans-Bold-61" d="M 2106 1575 
Q 1756 1575 1579 1456 
Q 1403 1338 1403 1106 
Q 1403 894 1545 773 
Q 1688 653 1941 653 
Q 2256 653 2472 879 
Q 2688 1106 2688 1447 
L 2688 1575 
L 2106 1575 
z
M 3816 1997 
L 3816 0 
L 2688 0 
L 2688 519 
Q 2463 200 2181 54 
Q 1900 -91 1497 -91 
Q 953 -91 614 226 
Q 275 544 275 1050 
Q 275 1666 698 1953 
Q 1122 2241 2028 2241 
L 2688 2241 
L 2688 2328 
Q 2688 2594 2478 2717 
Q 2269 2841 1825 2841 
Q 1466 2841 1156 2769 
Q 847 2697 581 2553 
L 581 3406 
Q 941 3494 1303 3539 
Q 1666 3584 2028 3584 
Q 2975 3584 3395 3211 
Q 3816 2838 3816 1997 
z
" transform="scale(0.015625)"/>
     <path id="DejaVuSans-Bold-63" d="M 3366 3391 
L 3366 2478 
Q 3138 2634 2908 2709 
Q 2678 2784 2431 2784 
Q 1963 2784 1702 2511 
Q 1441 2238 1441 1747 
Q 1441 1256 1702 982 
Q 1963 709 2431 709 
Q 2694 709 2930 787 
Q 3166 866 3366 1019 
L 3366 103 
Q 3103 6 2833 -42 
Q 2563 -91 2291 -91 
Q 1344 -91 809 395 
Q 275 881 275 1747 
Q 275 2613 809 3098 
Q 1344 3584 2291 3584 
Q 2566 3584 2833 3536 
Q 3100 3488 3366 3391 
z
" transform="scale(0.015625)"/>
     <path id="DejaVuSans-Bold-7a" d="M 366 3500 
L 3419 3500 
L 3419 2719 
L 1575 800 
L 3419 800 
L 3419 0 
L 288 0 
L 288 781 
L 2131 2700 
L 366 2700 
L 366 3500 
z
" transform="scale(0.015625)"/>
     <path id="DejaVuSans-Bold-65" d="M 4031 1759 
L 4031 1441 
L 1416 1441 
Q 1456 1047 1700 850 
Q 1944 653 2381 653 
Q 2734 653 3104 758 
Q 3475 863 3866 1075 
L 3866 213 
Q 3469 63 3072 -14 
Q 2675 -91 2278 -91 
Q 1328 -91 801 392 
Q 275 875 275 1747 
Q 275 2603 792 3093 
Q 1309 3584 2216 3584 
Q 3041 3584 3536 3087 
Q 4031 2591 4031 1759 
z
M 2881 2131 
Q 2881 2450 2695 2645 
Q 2509 2841 2209 2841 
Q 1884 2841 1681 2658 
Q 1478 2475 1428 2131 
L 2881 2131 
z
" transform="scale(0.015625)"/>
     <path id="DejaVuSans-Bold-67" d="M 2919 594 
Q 2688 288 2409 144 
Q 2131 0 1766 0 
Q 1125 0 706 504 
Q 288 1009 288 1791 
Q 288 2575 706 3076 
Q 1125 3578 1766 3578 
Q 2131 3578 2409 3434 
Q 2688 3291 2919 2981 
L 2919 3500 
L 4044 3500 
L 4044 353 
Q 4044 -491 3511 -936 
Q 2978 -1381 1966 -1381 
Q 1638 -1381 1331 -1331 
Q 1025 -1281 716 -1178 
L 716 -306 
Q 1009 -475 1290 -558 
Q 1572 -641 1856 -641 
Q 2406 -641 2662 -400 
Q 2919 -159 2919 353 
L 2919 594 
z
M 2181 2772 
Q 1834 2772 1640 2515 
Q 1447 2259 1447 1791 
Q 1447 1309 1634 1061 
Q 1822 813 2181 813 
Q 2531 813 2725 1069 
Q 2919 1325 2919 1791 
Q 2919 2259 2725 2515 
Q 2531 2772 2181 2772 
z
" transform="scale(0.015625)"/>
     <path id="DejaVuSans-Bold-6f" d="M 2203 2784 
Q 1831 2784 1636 2517 
Q 1441 2250 1441 1747 
Q 1441 1244 1636 976 
Q 1831 709 2203 709 
Q 2569 709 2762 976 
Q 2956 1244 2956 1747 
Q 2956 2250 2762 2517 
Q 2569 2784 2203 2784 
z
M 2203 3584 
Q 3106 3584 3614 3096 
Q 4122 2609 4122 1747 
Q 4122 884 3614 396 
Q 3106 -91 2203 -91 
Q 1297 -91 786 396 
Q 275 884 275 1747 
Q 275 2609 786 3096 
Q 1297 3584 2203 3584 
z
" transform="scale(0.015625)"/>
     <path id="DejaVuSans-Bold-20" transform="scale(0.015625)"/>
     <path id="DejaVuSans-Bold-53" d="M 3834 4519 
L 3834 3531 
Q 3450 3703 3084 3790 
Q 2719 3878 2394 3878 
Q 1963 3878 1756 3759 
Q 1550 3641 1550 3391 
Q 1550 3203 1689 3098 
Q 1828 2994 2194 2919 
L 2706 2816 
Q 3484 2659 3812 2340 
Q 4141 2022 4141 1434 
Q 4141 663 3683 286 
Q 3225 -91 2284 -91 
Q 1841 -91 1394 -6 
Q 947 78 500 244 
L 500 1259 
Q 947 1022 1364 901 
Q 1781 781 2169 781 
Q 2563 781 2772 912 
Q 2981 1044 2981 1288 
Q 2981 1506 2839 1625 
Q 2697 1744 2272 1838 
L 1806 1941 
Q 1106 2091 782 2419 
Q 459 2747 459 3303 
Q 459 4000 909 4375 
Q 1359 4750 2203 4750 
Q 2588 4750 2994 4692 
Q 3400 4634 3834 4519 
z
" transform="scale(0.015625)"/>
     <path id="DejaVuSans-Bold-50" d="M 588 4666 
L 2584 4666 
Q 3475 4666 3951 4270 
Q 4428 3875 4428 3144 
Q 4428 2409 3951 2014 
Q 3475 1619 2584 1619 
L 1791 1619 
L 1791 0 
L 588 0 
L 588 4666 
z
M 1791 3794 
L 1791 2491 
L 2456 2491 
Q 2806 2491 2997 2661 
Q 3188 2831 3188 3144 
Q 3188 3456 2997 3625 
Q 2806 3794 2456 3794 
L 1791 3794 
z
" transform="scale(0.015625)"/>
     <path id="DejaVuSans-Bold-49" d="M 588 4666 
L 1791 4666 
L 1791 0 
L 588 0 
L 588 4666 
z
" transform="scale(0.015625)"/>
     <path id="DejaVuSans-Bold-43" d="M 4288 256 
Q 3956 84 3597 -3 
Q 3238 -91 2847 -91 
Q 1681 -91 1000 561 
Q 319 1213 319 2328 
Q 319 3447 1000 4098 
Q 1681 4750 2847 4750 
Q 3238 4750 3597 4662 
Q 3956 4575 4288 4403 
L 4288 3438 
Q 3953 3666 3628 3772 
Q 3303 3878 2944 3878 
Q 2300 3878 1931 3465 
Q 1563 3053 1563 2328 
Q 1563 1606 1931 1193 
Q 2300 781 2944 781 
Q 3303 781 3628 887 
Q 3953 994 4288 1222 
L 4288 256 
z
" transform="scale(0.015625)"/>
     <path id="DejaVuSans-Bold-45" d="M 588 4666 
L 3834 4666 
L 3834 3756 
L 1791 3756 
L 1791 2888 
L 3713 2888 
L 3713 1978 
L 1791 1978 
L 1791 909 
L 3903 909 
L 3903 0 
L 588 0 
L 588 4666 
z
" transform="scale(0.015625)"/>
     <path id="DejaVuSans-Bold-6e" d="M 4056 2131 
L 4056 0 
L 2931 0 
L 2931 347 
L 2931 1631 
Q 2931 2084 2911 2256 
Q 2891 2428 2841 2509 
Q 2775 2619 2662 2680 
Q 2550 2741 2406 2741 
Q 2056 2741 1856 2470 
Q 1656 2200 1656 1722 
L 1656 0 
L 538 0 
L 538 3500 
L 1656 3500 
L 1656 2988 
Q 1909 3294 2193 3439 
Q 2478 3584 2822 3584 
Q 3428 3584 3742 3212 
Q 4056 2841 4056 2131 
z
" transform="scale(0.015625)"/>
     <path id="DejaVuSans-Bold-69" d="M 538 3500 
L 1656 3500 
L 1656 0 
L 538 0 
L 538 3500 
z
M 538 4863 
L 1656 4863 
L 1656 3950 
L 538 3950 
L 538 4863 
z
" transform="scale(0.015625)"/>
     <path id="DejaVuSans-Bold-75" d="M 500 1363 
L 500 3500 
L 1625 3500 
L 1625 3150 
Q 1625 2866 1622 2436 
Q 1619 2006 1619 1863 
Q 1619 1441 1641 1255 
Q 1663 1069 1716 984 
Q 1784 875 1895 815 
Q 2006 756 2150 756 
Q 2500 756 2700 1025 
Q 2900 1294 2900 1772 
L 2900 3500 
L 4019 3500 
L 4019 0 
L 2900 0 
L 2900 506 
Q 2647 200 2364 54 
Q 2081 -91 1741 -91 
Q 1134 -91 817 281 
Q 500 653 500 1363 
z
" transform="scale(0.015625)"/>
     <path id="DejaVuSans-Bold-17c" d="M 1306 4863 
L 2425 4863 
L 2425 3950 
L 1306 3950 
L 1306 4863 
z
M 366 3500 
L 3419 3500 
L 3419 2719 
L 1575 800 
L 3419 800 
L 3419 0 
L 288 0 
L 288 781 
L 2131 2700 
L 366 2700 
L 366 3500 
z
" transform="scale(0.015625)"/>
     <path id="DejaVuSans-Bold-79" d="M 78 3500 
L 1197 3500 
L 2138 1125 
L 2938 3500 
L 4056 3500 
L 2584 -331 
Q 2363 -916 2067 -1148 
Q 1772 -1381 1288 -1381 
L 641 -1381 
L 641 -647 
L 991 -647 
Q 1275 -647 1404 -556 
Q 1534 -466 1606 -231 
L 1638 -134 
L 78 3500 
z
" transform="scale(0.015625)"/>
     <path id="DejaVuSans-Bold-77" d="M 225 3500 
L 1313 3500 
L 1900 1088 
L 2491 3500 
L 3425 3500 
L 4013 1113 
L 4603 3500 
L 5691 3500 
L 4769 0 
L 3547 0 
L 2956 2406 
L 2369 0 
L 1147 0 
L 225 3500 
z
" transform="scale(0.015625)"/>
     <path id="DejaVuSans-Bold-46" d="M 588 4666 
L 3834 4666 
L 3834 3756 
L 1791 3756 
L 1791 2888 
L 3713 2888 
L 3713 1978 
L 1791 1978 
L 1791 0 
L 588 0 
L 588 4666 
z
" transform="scale(0.015625)"/>
     <path id="DejaVuSans-Bold-72" d="M 3138 2547 
Q 2991 2616 2845 2648 
Q 2700 2681 2553 2681 
Q 2122 2681 1889 2404 
Q 1656 2128 1656 1613 
L 1656 0 
L 538 0 
L 538 3500 
L 1656 3500 
L 1656 2925 
Q 1872 3269 2151 3426 
Q 2431 3584 2822 3584 
Q 2878 3584 2943 3579 
Q 3009 3575 3134 3559 
L 3138 2547 
z
" transform="scale(0.015625)"/>
     <path id="DejaVuSans-Bold-64" d="M 2919 2988 
L 2919 4863 
L 4044 4863 
L 4044 0 
L 2919 0 
L 2919 506 
Q 2688 197 2409 53 
Q 2131 -91 1766 -91 
Q 1119 -91 703 423 
Q 288 938 288 1747 
Q 288 2556 703 3070 
Q 1119 3584 1766 3584 
Q 2128 3584 2408 3439 
Q 2688 3294 2919 2988 
z
M 2181 722 
Q 2541 722 2730 984 
Q 2919 1247 2919 1747 
Q 2919 2247 2730 2509 
Q 2541 2772 2181 2772 
Q 1825 2772 1636 2509 
Q 1447 2247 1447 1747 
Q 1447 1247 1636 984 
Q 1825 722 2181 722 
z
" transform="scale(0.015625)"/>
    </defs>
    <use xlink:href="#DejaVuSans-Bold-44"/>
    <use xlink:href="#DejaVuSans-Bold-6c" transform="translate(83.007812 0)"/>
    <use xlink:href="#DejaVuSans-Bold-61" transform="translate(117.285156 0)"/>
    <use xlink:href="#DejaVuSans-Bold-63" transform="translate(184.765625 0)"/>
    <use xlink:href="#DejaVuSans-Bold-7a" transform="translate(244.042969 0)"/>
    <use xlink:href="#DejaVuSans-Bold-65" transform="translate(302.246094 0)"/>
    <use xlink:href="#DejaVuSans-Bold-67" transform="translate(370.068359 0)"/>
    <use xlink:href="#DejaVuSans-Bold-6f" transform="translate(441.650391 0)"/>
    <use xlink:href="#DejaVuSans-Bold-20" transform="translate(510.351562 0)"/>
    <use xlink:href="#DejaVuSans-Bold-53" transform="translate(545.166016 0)"/>
    <use xlink:href="#DejaVuSans-Bold-50" transform="translate(617.1875 0)"/>
    <use xlink:href="#DejaVuSans-Bold-49" transform="translate(690.478516 0)"/>
    <use xlink:href="#DejaVuSans-Bold-43" transform="translate(727.685547 0)"/>
    <use xlink:href="#DejaVuSans-Bold-45" transform="translate(801.074219 0)"/>
    <use xlink:href="#DejaVuSans-Bold-20" transform="translate(869.384766 0)"/>
    <use xlink:href="#DejaVuSans-Bold-6e" transform="translate(904.199219 0)"/>
    <use xlink:href="#DejaVuSans-Bold-69" transform="translate(975.390625 0)"/>
    <use xlink:href="#DejaVuSans-Bold-65" transform="translate(1009.667969 0)"/>
    <use xlink:href="#DejaVuSans-Bold-20" transform="translate(1077.490234 0)"/>
    <use xlink:href="#DejaVuSans-Bold-75" transform="translate(1112.304688 0)"/>
    <use xlink:href="#DejaVuSans-Bold-17c" transform="translate(1183.496094 0)"/>
    <use xlink:href="#DejaVuSans-Bold-79" transform="translate(1241.699219 0)"/>
    <use xlink:href="#DejaVuSans-Bold-77" transform="translate(1306.884766 0)"/>
    <use xlink:href="#DejaVuSans-Bold-61" transform="translate(1399.267578 0)"/>
    <use xlink:href="#DejaVuSans-Bold-20" transform="translate(1466.748047 0)"/>
    <use xlink:href="#DejaVuSans-Bold-46" transform="translate(1501.5625 0)"/>
    <use xlink:href="#DejaVuSans-Bold-6f" transform="translate(1565.873047 0)"/>
    <use xlink:href="#DejaVuSans-Bold-72" transform="translate(1634.574219 0)"/>
    <use xlink:href="#DejaVuSans-Bold-77" transform="translate(1683.890625 0)"/>
    <use xlink:href="#DejaVuSans-Bold-61" transform="translate(1776.273438 0)"/>
    <use xlink:href="#DejaVuSans-Bold-72" transform="translate(1843.753906 0)"/>
    <use xlink:href="#DejaVuSans-Bold-64" transform="translate(1893.070312 0)"/>
    <use xlink:href="#DejaVuSans-Bold-20" transform="translate(1964.652344 0)"/>
    <use xlink:href="#DejaVuSans-Bold-45" transform="translate(1999.466797 0)"/>
    <use xlink:href="#DejaVuSans-Bold-75" transform="translate(2067.777344 0)"/>
    <use xlink:href="#DejaVuSans-Bold-6c" transform="translate(2138.96875 0)"/>
    <use xlink:href="#DejaVuSans-Bold-65" transform="translate(2173.246094 0)"/>
    <use xlink:href="#DejaVuSans-Bold-72" transform="translate(2241.068359 0)"/>
   </g>
  </g>
 </g>
 <defs>
  <clipPath id="pbeb0d61d6c">
   <rect x="57.17" y="58.56" width="293.933244" height="178.48"/>
  </clipPath>
  <clipPath id="pe9906efe9f">
   <rect x="399.503244" y="58.56" width="293.933244" height="178.48"/>
  </clipPath>
 </defs>
</svg>
