<?xml version="1.0" encoding="utf-8" standalone="no"?>
<!DOCTYPE svg PUBLIC "-//W3C//DTD SVG 1.1//EN"
  "http://www.w3.org/Graphics/SVG/1.1/DTD/svg11.dtd">
<svg xmlns:xlink="http://www.w3.org/1999/xlink" width="576pt" height="288pt" viewBox="0 0 576 288" xmlns="http://www.w3.org/2000/svg" version="1.1">
 <metadata>
  <rdf:RDF xmlns:dc="http://purl.org/dc/elements/1.1/" xmlns:cc="http://creativecommons.org/ns#" xmlns:rdf="http://www.w3.org/1999/02/22-rdf-syntax-ns#">
   <cc:Work>
    <dc:type rdf:resource="http://purl.org/dc/dcmitype/StillImage"/>
    <dc:date>2026-05-07T20:24:21.824512</dc:date>
    <dc:format>image/svg+xml</dc:format>
    <dc:creator>
     <cc:Agent>
      <dc:title>Matplotlib v3.10.9, https://matplotlib.org/</dc:title>
     </cc:Agent>
    </dc:creator>
   </cc:Work>
  </rdf:RDF>
 </metadata>
 <defs>
  <style type="text/css">*{stroke-linejoin: round; stroke-linecap: butt}</style>
 </defs>
 <g id="figure_1">
  <g id="patch_1">
   <path d="M 0 288 
L 576 288 
L 576 0 
L 0 0 
z
" style="fill: #ffffff"/>
  </g>
  <g id="axes_1">
   <g id="patch_2">
    <path d="M 57.17 237.04 
L 561.96 237.04 
L 561.96 31.56 
L 57.17 31.56 
z
" style="fill: #ffffff"/>
   </g>
   <g id="matplotlib.axis_1">
    <g id="xtick_1">
     <g id="line2d_1">
      <path d="M 80.115 237.04 
L 80.115 31.56 
" clip-path="url(#pf8c52d08c7)" style="fill: none; stroke: #b0b0b0; stroke-opacity: 0.3; stroke-width: 0.8; stroke-linecap: square"/>
     </g>
     <g id="line2d_2">
      <defs>
       <path id="md5ec4604ed" d="M 0 0 
L 0 3.5 
" style="stroke: #000000; stroke-width: 0.8"/>
      </defs>
      <g>
       <use xlink:href="#md5ec4604ed" x="80.115" y="237.04" style="stroke: #000000; stroke-width: 0.8"/>
      </g>
     </g>
     <g id="text_1">
      <!-- 0 -->
      <g transform="translate(75.979375 253.917969) scale(0.13 -0.13)">
       <defs>
        <path id="DejaVuSans-30" d="M 2034 4250 
Q 1547 4250 1301 3770 
Q 1056 3291 1056 2328 
Q 1056 1369 1301 889 
Q 1547 409 2034 409 
Q 2525 409 2770 889 
Q 3016 1369 3016 2328 
Q 3016 3291 2770 3770 
Q 2525 4250 2034 4250 
z
M 2034 4750 
Q 2819 4750 3233 4129 
Q 3647 3509 3647 2328 
Q 3647 1150 3233 529 
Q 2819 -91 2034 -91 
Q 1250 -91 836 529 
Q 422 1150 422 2328 
Q 422 3509 836 4129 
Q 1250 4750 2034 4750 
z
" transform="scale(0.015625)"/>
       </defs>
       <use xlink:href="#DejaVuSans-30"/>
      </g>
     </g>
    </g>
    <g id="xtick_2">
     <g id="line2d_3">
      <path d="M 171.895 237.04 
L 171.895 31.56 
" clip-path="url(#pf8c52d08c7)" style="fill: none; stroke: #b0b0b0; stroke-opacity: 0.3; stroke-width: 0.8; stroke-linecap: square"/>
     </g>
     <g id="line2d_4">
      <g>
       <use xlink:href="#md5ec4604ed" x="171.895" y="237.04" style="stroke: #000000; stroke-width: 0.8"/>
      </g>
     </g>
     <g id="text_2">
      <!-- 2 -->
      <g transform="translate(167.759375 253.917969) scale(0.13 -0.13)">
       <defs>
        <path id="DejaVuSans-32" d="M 1228 531 
L 3431 531 
L 3431 0 
L 469 0 
L 469 531 
Q 828 903 1448 1529 
Q 2069 2156 2228 2338 
Q 2531 2678 2651 2914 
Q 2772 3150 2772 3378 
Q 2772 3750 2511 3984 
Q 2250 4219 1831 4219 
Q 1534 4219 1204 4116 
Q 875 4013 500 3803 
L 500 4441 
Q 881 4594 1212 4672 
Q 1544 4750 1819 4750 
Q 2544 4750 2975 4387 
Q 3406 4025 3406 3419 
Q 3406 3131 3298 2873 
Q 3191 2616 2906 2266 
Q 2828 2175 2409 1742 
Q 1991 1309 1228 531 
z
" transform="scale(0.015625)"/>
       </defs>
       <use xlink:href="#DejaVuSans-32"/>
      </g>
     </g>
    </g>
    <g id="xtick_3">
     <g id="line2d_5">
      <path d="M 263.675 237.04 
L 263.675 31.56 
" clip-path="url(#pf8c52d08c7)" style="fill: none; stroke: #b0b0b0; stroke-opacity: 0.3; stroke-width: 0.8; stroke-linecap: square"/>
     </g>
     <g id="line2d_6">
      <g>
       <use xlink:href="#md5ec4604ed" x="263.675" y="237.04" style="stroke: #000000; stroke-width: 0.8"/>
      </g>
     </g>
     <g id="text_3">
      <!-- 4 -->
      <g transform="translate(259.539375 253.917969) scale(0.13 -0.13)">
       <defs>
        <path id="DejaVuSans-34" d="M 2419 4116 
L 825 1625 
L 2419 1625 
L 2419 4116 
z
M 2253 4666 
L 3047 4666 
L 3047 1625 
L 3713 1625 
L 3713 1100 
L 3047 1100 
L 3047 0 
L 2419 0 
L 2419 1100 
L 313 1100 
L 313 1709 
L 2253 4666 
z
" transform="scale(0.015625)"/>
       </defs>
       <use xlink:href="#DejaVuSans-34"/>
      </g>
     </g>
    </g>
    <g id="xtick_4">
     <g id="line2d_7">
      <path d="M 355.455 237.04 
L 355.455 31.56 
" clip-path="url(#pf8c52d08c7)" style="fill: none; stroke: #b0b0b0; stroke-opacity: 0.3; stroke-width: 0.8; stroke-linecap: square"/>
     </g>
     <g id="line2d_8">
      <g>
       <use xlink:href="#md5ec4604ed" x="355.455" y="237.04" style="stroke: #000000; stroke-width: 0.8"/>
      </g>
     </g>
     <g id="text_4">
      <!-- 6 -->
      <g transform="translate(351.319375 253.917969) scale(0.13 -0.13)">
       <defs>
        <path id="DejaVuSans-36" d="M 2113 2584 
Q 1688 2584 1439 2293 
Q 1191 2003 1191 1497 
Q 1191 994 1439 701 
Q 1688 409 2113 409 
Q 2538 409 2786 701 
Q 3034 994 3034 1497 
Q 3034 2003 2786 2293 
Q 2538 2584 2113 2584 
z
M 3366 4563 
L 3366 3988 
Q 3128 4100 2886 4159 
Q 2644 4219 2406 4219 
Q 1781 4219 1451 3797 
Q 1122 3375 1075 2522 
Q 1259 2794 1537 2939 
Q 1816 3084 2150 3084 
Q 2853 3084 3261 2657 
Q 3669 2231 3669 1497 
Q 3669 778 3244 343 
Q 2819 -91 2113 -91 
Q 1303 -91 875 529 
Q 447 1150 447 2328 
Q 447 3434 972 4092 
Q 1497 4750 2381 4750 
Q 2619 4750 2861 4703 
Q 3103 4656 3366 4563 
z
" transform="scale(0.015625)"/>
       </defs>
       <use xlink:href="#DejaVuSans-36"/>
      </g>
     </g>
    </g>
    <g id="xtick_5">
     <g id="line2d_9">
      <path d="M 447.235 237.04 
L 447.235 31.56 
" clip-path="url(#pf8c52d08c7)" style="fill: none; stroke: #b0b0b0; stroke-opacity: 0.3; stroke-width: 0.8; stroke-linecap: square"/>
     </g>
     <g id="line2d_10">
      <g>
       <use xlink:href="#md5ec4604ed" x="447.235" y="237.04" style="stroke: #000000; stroke-width: 0.8"/>
      </g>
     </g>
     <g id="text_5">
      <!-- 8 -->
      <g transform="translate(443.099375 253.917969) scale(0.13 -0.13)">
       <defs>
        <path id="DejaVuSans-38" d="M 2034 2216 
Q 1584 2216 1326 1975 
Q 1069 1734 1069 1313 
Q 1069 891 1326 650 
Q 1584 409 2034 409 
Q 2484 409 2743 651 
Q 3003 894 3003 1313 
Q 3003 1734 2745 1975 
Q 2488 2216 2034 2216 
z
M 1403 2484 
Q 997 2584 770 2862 
Q 544 3141 544 3541 
Q 544 4100 942 4425 
Q 1341 4750 2034 4750 
Q 2731 4750 3128 4425 
Q 3525 4100 3525 3541 
Q 3525 3141 3298 2862 
Q 3072 2584 2669 2484 
Q 3125 2378 3379 2068 
Q 3634 1759 3634 1313 
Q 3634 634 3220 271 
Q 2806 -91 2034 -91 
Q 1263 -91 848 271 
Q 434 634 434 1313 
Q 434 1759 690 2068 
Q 947 2378 1403 2484 
z
M 1172 3481 
Q 1172 3119 1398 2916 
Q 1625 2713 2034 2713 
Q 2441 2713 2670 2916 
Q 2900 3119 2900 3481 
Q 2900 3844 2670 4047 
Q 2441 4250 2034 4250 
Q 1625 4250 1398 4047 
Q 1172 3844 1172 3481 
z
" transform="scale(0.015625)"/>
       </defs>
       <use xlink:href="#DejaVuSans-38"/>
      </g>
     </g>
    </g>
    <g id="xtick_6">
     <g id="line2d_11">
      <path d="M 539.015 237.04 
L 539.015 31.56 
" clip-path="url(#pf8c52d08c7)" style="fill: none; stroke: #b0b0b0; stroke-opacity: 0.3; stroke-width: 0.8; stroke-linecap: square"/>
     </g>
     <g id="line2d_12">
      <g>
       <use xlink:href="#md5ec4604ed" x="539.015" y="237.04" style="stroke: #000000; stroke-width: 0.8"/>
      </g>
     </g>
     <g id="text_6">
      <!-- 10 -->
      <g transform="translate(530.74375 253.917969) scale(0.13 -0.13)">
       <defs>
        <path id="DejaVuSans-31" d="M 794 531 
L 1825 531 
L 1825 4091 
L 703 3866 
L 703 4441 
L 1819 4666 
L 2450 4666 
L 2450 531 
L 3481 531 
L 3481 0 
L 794 0 
L 794 531 
z
" transform="scale(0.015625)"/>
       </defs>
       <use xlink:href="#DejaVuSans-31"/>
       <use xlink:href="#DejaVuSans-30" transform="translate(63.623047 0)"/>
      </g>
     </g>
    </g>
    <g id="text_7">
     <!-- t -->
     <g transform="translate(307.016797 270.499531) scale(0.13 -0.13)">
      <defs>
       <path id="DejaVuSans-74" d="M 1172 4494 
L 1172 3500 
L 2356 3500 
L 2356 3053 
L 1172 3053 
L 1172 1153 
Q 1172 725 1289 603 
Q 1406 481 1766 481 
L 2356 481 
L 2356 0 
L 1766 0 
Q 1100 0 847 248 
Q 594 497 594 1153 
L 594 3053 
L 172 3053 
L 172 3500 
L 594 3500 
L 594 4494 
L 1172 4494 
z
" transform="scale(0.015625)"/>
      </defs>
      <use xlink:href="#DejaVuSans-74"/>
     </g>
    </g>
   </g>
   <g id="matplotlib.axis_2">
    <g id="ytick_1">
     <g id="line2d_13">
      <path d="M 57.17 209.14018 
L 561.96 209.14018 
" clip-path="url(#pf8c52d08c7)" style="fill: none; stroke: #b0b0b0; stroke-opacity: 0.3; stroke-width: 0.8; stroke-linecap: square"/>
     </g>
     <g id="line2d_14">
      <defs>
       <path id="m714b4c734f" d="M 0 0 
L -3.5 0 
" style="stroke: #000000; stroke-width: 0.8"/>
      </defs>
      <g>
       <use xlink:href="#m714b4c734f" x="57.17" y="209.14018" style="stroke: #000000; stroke-width: 0.8"/>
      </g>
     </g>
     <g id="text_8">
      <!-- −4 -->
      <g transform="translate(31.005156 214.079165) scale(0.13 -0.13)">
       <defs>
        <path id="DejaVuSans-2212" d="M 678 2272 
L 4684 2272 
L 4684 1741 
L 678 1741 
L 678 2272 
z
" transform="scale(0.015625)"/>
       </defs>
       <use xlink:href="#DejaVuSans-2212"/>
       <use xlink:href="#DejaVuSans-34" transform="translate(83.789062 0)"/>
      </g>
     </g>
    </g>
    <g id="ytick_2">
     <g id="line2d_15">
      <path d="M 57.17 171.753473 
L 561.96 171.753473 
" clip-path="url(#pf8c52d08c7)" style="fill: none; stroke: #b0b0b0; stroke-opacity: 0.3; stroke-width: 0.8; stroke-linecap: square"/>
     </g>
     <g id="line2d_16">
      <g>
       <use xlink:href="#m714b4c734f" x="57.17" y="171.753473" style="stroke: #000000; stroke-width: 0.8"/>
      </g>
     </g>
     <g id="text_9">
      <!-- −2 -->
      <g transform="translate(31.005156 176.692458) scale(0.13 -0.13)">
       <use xlink:href="#DejaVuSans-2212"/>
       <use xlink:href="#DejaVuSans-32" transform="translate(83.789062 0)"/>
      </g>
     </g>
    </g>
    <g id="ytick_3">
     <g id="line2d_17">
      <path d="M 57.17 134.366767 
L 561.96 134.366767 
" clip-path="url(#pf8c52d08c7)" style="fill: none; stroke: #b0b0b0; stroke-opacity: 0.3; stroke-width: 0.8; stroke-linecap: square"/>
     </g>
     <g id="line2d_18">
      <g>
       <use xlink:href="#m714b4c734f" x="57.17" y="134.366767" style="stroke: #000000; stroke-width: 0.8"/>
      </g>
     </g>
     <g id="text_10">
      <!-- 0 -->
      <g transform="translate(41.89875 139.305751) scale(0.13 -0.13)">
       <use xlink:href="#DejaVuSans-30"/>
      </g>
     </g>
    </g>
    <g id="ytick_4">
     <g id="line2d_19">
      <path d="M 57.17 96.98006 
L 561.96 96.98006 
" clip-path="url(#pf8c52d08c7)" style="fill: none; stroke: #b0b0b0; stroke-opacity: 0.3; stroke-width: 0.8; stroke-linecap: square"/>
     </g>
     <g id="line2d_20">
      <g>
       <use xlink:href="#m714b4c734f" x="57.17" y="96.98006" style="stroke: #000000; stroke-width: 0.8"/>
      </g>
     </g>
     <g id="text_11">
      <!-- 2 -->
      <g transform="translate(41.89875 101.919044) scale(0.13 -0.13)">
       <use xlink:href="#DejaVuSans-32"/>
      </g>
     </g>
    </g>
    <g id="ytick_5">
     <g id="line2d_21">
      <path d="M 57.17 59.593353 
L 561.96 59.593353 
" clip-path="url(#pf8c52d08c7)" style="fill: none; stroke: #b0b0b0; stroke-opacity: 0.3; stroke-width: 0.8; stroke-linecap: square"/>
     </g>
     <g id="line2d_22">
      <g>
       <use xlink:href="#m714b4c734f" x="57.17" y="59.593353" style="stroke: #000000; stroke-width: 0.8"/>
      </g>
     </g>
     <g id="text_12">
      <!-- 4 -->
      <g transform="translate(41.89875 64.532338) scale(0.13 -0.13)">
       <use xlink:href="#DejaVuSans-34"/>
      </g>
     </g>
    </g>
    <g id="text_13">
     <!-- V(t) -->
     <g transform="translate(24.301563 146.366641) rotate(-90) scale(0.13 -0.13)">
      <defs>
       <path id="DejaVuSans-56" d="M 1831 0 
L 50 4666 
L 709 4666 
L 2188 738 
L 3669 4666 
L 4325 4666 
L 2547 0 
L 1831 0 
z
" transform="scale(0.015625)"/>
       <path id="DejaVuSans-28" d="M 1984 4856 
Q 1566 4138 1362 3434 
Q 1159 2731 1159 2009 
Q 1159 1288 1364 580 
Q 1569 -128 1984 -844 
L 1484 -844 
Q 1016 -109 783 600 
Q 550 1309 550 2009 
Q 550 2706 781 3412 
Q 1013 4119 1484 4856 
L 1984 4856 
z
" transform="scale(0.015625)"/>
       <path id="DejaVuSans-29" d="M 513 4856 
L 1013 4856 
Q 1481 4119 1714 3412 
Q 1947 2706 1947 2009 
Q 1947 1309 1714 600 
Q 1481 -109 1013 -844 
L 513 -844 
Q 928 -128 1133 580 
Q 1338 1288 1338 2009 
Q 1338 2731 1133 3434 
Q 928 4138 513 4856 
z
" transform="scale(0.015625)"/>
      </defs>
      <use xlink:href="#DejaVuSans-56"/>
      <use xlink:href="#DejaVuSans-28" transform="translate(68.408203 0)"/>
      <use xlink:href="#DejaVuSans-74" transform="translate(107.421875 0)"/>
      <use xlink:href="#DejaVuSans-29" transform="translate(146.630859 0)"/>
     </g>
    </g>
   </g>
   <g id="line2d_23">
    <path d="M 80.115 134.366767 
L 217.463448 134.366767 
L 217.922808 127.31918 
L 218.841527 83.251766 
L 219.300886 65.38142 
L 219.760245 51.854313 
L 220.219605 43.522097 
L 220.678964 40.909359 
L 221.138323 44.180593 
L 221.597683 53.129847 
L 222.057042 67.193685 
L 222.975761 106.857081 
L 224.813198 195.118849 
L 225.272558 210.888089 
L 225.731917 221.839632 
L 226.191276 227.283982 
L 226.650636 226.87837 
L 227.109995 220.648332 
L 227.569354 208.986104 
L 228.488073 172.597819 
L 230.78487 64.986148 
L 231.244229 51.579802 
L 231.703589 43.385629 
L 232.162948 40.919526 
L 232.622307 44.336755 
L 233.081667 53.422172 
L 233.541026 67.60377 
L 234.459745 107.419439 
L 236.297182 195.564385 
L 236.756542 211.224132 
L 237.215901 222.045027 
L 237.67526 227.345798 
L 238.13462 226.792714 
L 238.593979 220.420597 
L 239.053338 208.630628 
L 239.972057 172.060635 
L 240.431416 149.583017 
L 240.890776 40.9 
L 401.207192 40.9 
L 401.666552 42.345604 
L 402.125911 49.318676 
L 402.58527 61.64628 
L 403.503989 98.972304 
L 405.341426 188.517492 
L 405.800786 205.777177 
L 406.260145 218.540942 
L 406.719505 226.005197 
L 407.178864 227.7 
L 407.638223 223.518648 
L 408.097583 213.724394 
L 408.556942 198.933874 
L 409.475661 158.344744 
L 411.313098 70.870212 
L 411.772457 55.795356 
L 412.231817 45.667267 
L 412.691176 41.123598 
L 413.150536 42.450414 
L 413.609895 49.564179 
L 414.069254 62.01702 
L 414.987973 99.517077 
L 416.82541 188.995565 
L 417.28477 206.155043 
L 417.744129 218.794813 
L 418.203488 226.119089 
L 418.662848 227.666742 
L 419.122207 223.340334 
L 419.581567 213.412251 
L 420.040926 198.507554 
L 420.959645 157.77609 
L 422.337723 89.426408 
L 423.256441 55.478527 
L 423.715801 45.483676 
L 424.17516 41.084805 
L 424.63452 134.366767 
L 539.015 134.366767 
L 539.015 134.366767 
" clip-path="url(#pf8c52d08c7)" style="fill: none; stroke: #0000ff; stroke-width: 2; stroke-linecap: square"/>
   </g>
   <g id="line2d_24">
    <path d="M 80.115 237.04 
L 80.115 31.56 
" clip-path="url(#pf8c52d08c7)" style="fill: none; stroke: #ff0000; stroke-opacity: 0.3; stroke-width: 0.5; stroke-linecap: square"/>
   </g>
   <g id="line2d_25">
    <path d="M 103.06 237.04 
L 103.06 31.56 
" clip-path="url(#pf8c52d08c7)" style="fill: none; stroke: #ff0000; stroke-opacity: 0.3; stroke-width: 0.5; stroke-linecap: square"/>
   </g>
   <g id="line2d_26">
    <path d="M 126.005 237.04 
L 126.005 31.56 
" clip-path="url(#pf8c52d08c7)" style="fill: none; stroke: #ff0000; stroke-opacity: 0.3; stroke-width: 0.5; stroke-linecap: square"/>
   </g>
   <g id="line2d_27">
    <path d="M 148.95 237.04 
L 148.95 31.56 
" clip-path="url(#pf8c52d08c7)" style="fill: none; stroke: #ff0000; stroke-opacity: 0.3; stroke-width: 0.5; stroke-linecap: square"/>
   </g>
   <g id="line2d_28">
    <path d="M 171.895 237.04 
L 171.895 31.56 
" clip-path="url(#pf8c52d08c7)" style="fill: none; stroke: #ff0000; stroke-opacity: 0.3; stroke-width: 0.5; stroke-linecap: square"/>
   </g>
   <g id="line2d_29">
    <path d="M 194.84 237.04 
L 194.84 31.56 
" clip-path="url(#pf8c52d08c7)" style="fill: none; stroke: #ff0000; stroke-opacity: 0.3; stroke-width: 0.5; stroke-linecap: square"/>
   </g>
   <g id="line2d_30">
    <path d="M 217.785 237.04 
L 217.785 31.56 
" clip-path="url(#pf8c52d08c7)" style="fill: none; stroke: #ff0000; stroke-opacity: 0.3; stroke-width: 0.5; stroke-linecap: square"/>
   </g>
   <g id="line2d_31">
    <path d="M 218.992632 237.04 
L 218.992632 31.56 
" clip-path="url(#pf8c52d08c7)" style="fill: none; stroke: #ff0000; stroke-opacity: 0.3; stroke-width: 0.5; stroke-linecap: square"/>
   </g>
   <g id="line2d_32">
    <path d="M 220.200263 237.04 
L 220.200263 31.56 
" clip-path="url(#pf8c52d08c7)" style="fill: none; stroke: #ff0000; stroke-opacity: 0.3; stroke-width: 0.5; stroke-linecap: square"/>
   </g>
   <g id="line2d_33">
    <path d="M 221.407895 237.04 
L 221.407895 31.56 
" clip-path="url(#pf8c52d08c7)" style="fill: none; stroke: #ff0000; stroke-opacity: 0.3; stroke-width: 0.5; stroke-linecap: square"/>
   </g>
   <g id="line2d_34">
    <path d="M 222.615526 237.04 
L 222.615526 31.56 
" clip-path="url(#pf8c52d08c7)" style="fill: none; stroke: #ff0000; stroke-opacity: 0.3; stroke-width: 0.5; stroke-linecap: square"/>
   </g>
   <g id="line2d_35">
    <path d="M 223.823158 237.04 
L 223.823158 31.56 
" clip-path="url(#pf8c52d08c7)" style="fill: none; stroke: #ff0000; stroke-opacity: 0.3; stroke-width: 0.5; stroke-linecap: square"/>
   </g>
   <g id="line2d_36">
    <path d="M 225.030789 237.04 
L 225.030789 31.56 
" clip-path="url(#pf8c52d08c7)" style="fill: none; stroke: #ff0000; stroke-opacity: 0.3; stroke-width: 0.5; stroke-linecap: square"/>
   </g>
   <g id="line2d_37">
    <path d="M 226.238421 237.04 
L 226.238421 31.56 
" clip-path="url(#pf8c52d08c7)" style="fill: none; stroke: #ff0000; stroke-opacity: 0.3; stroke-width: 0.5; stroke-linecap: square"/>
   </g>
   <g id="line2d_38">
    <path d="M 227.446053 237.04 
L 227.446053 31.56 
" clip-path="url(#pf8c52d08c7)" style="fill: none; stroke: #ff0000; stroke-opacity: 0.3; stroke-width: 0.5; stroke-linecap: square"/>
   </g>
   <g id="line2d_39">
    <path d="M 228.653684 237.04 
L 228.653684 31.56 
" clip-path="url(#pf8c52d08c7)" style="fill: none; stroke: #ff0000; stroke-opacity: 0.3; stroke-width: 0.5; stroke-linecap: square"/>
   </g>
   <g id="line2d_40">
    <path d="M 229.861316 237.04 
L 229.861316 31.56 
" clip-path="url(#pf8c52d08c7)" style="fill: none; stroke: #ff0000; stroke-opacity: 0.3; stroke-width: 0.5; stroke-linecap: square"/>
   </g>
   <g id="line2d_41">
    <path d="M 231.068947 237.04 
L 231.068947 31.56 
" clip-path="url(#pf8c52d08c7)" style="fill: none; stroke: #ff0000; stroke-opacity: 0.3; stroke-width: 0.5; stroke-linecap: square"/>
   </g>
   <g id="line2d_42">
    <path d="M 232.276579 237.04 
L 232.276579 31.56 
" clip-path="url(#pf8c52d08c7)" style="fill: none; stroke: #ff0000; stroke-opacity: 0.3; stroke-width: 0.5; stroke-linecap: square"/>
   </g>
   <g id="line2d_43">
    <path d="M 233.484211 237.04 
L 233.484211 31.56 
" clip-path="url(#pf8c52d08c7)" style="fill: none; stroke: #ff0000; stroke-opacity: 0.3; stroke-width: 0.5; stroke-linecap: square"/>
   </g>
   <g id="line2d_44">
    <path d="M 234.691842 237.04 
L 234.691842 31.56 
" clip-path="url(#pf8c52d08c7)" style="fill: none; stroke: #ff0000; stroke-opacity: 0.3; stroke-width: 0.5; stroke-linecap: square"/>
   </g>
   <g id="line2d_45">
    <path d="M 235.899474 237.04 
L 235.899474 31.56 
" clip-path="url(#pf8c52d08c7)" style="fill: none; stroke: #ff0000; stroke-opacity: 0.3; stroke-width: 0.5; stroke-linecap: square"/>
   </g>
   <g id="line2d_46">
    <path d="M 237.107105 237.04 
L 237.107105 31.56 
" clip-path="url(#pf8c52d08c7)" style="fill: none; stroke: #ff0000; stroke-opacity: 0.3; stroke-width: 0.5; stroke-linecap: square"/>
   </g>
   <g id="line2d_47">
    <path d="M 238.314737 237.04 
L 238.314737 31.56 
" clip-path="url(#pf8c52d08c7)" style="fill: none; stroke: #ff0000; stroke-opacity: 0.3; stroke-width: 0.5; stroke-linecap: square"/>
   </g>
   <g id="line2d_48">
    <path d="M 239.522368 237.04 
L 239.522368 31.56 
" clip-path="url(#pf8c52d08c7)" style="fill: none; stroke: #ff0000; stroke-opacity: 0.3; stroke-width: 0.5; stroke-linecap: square"/>
   </g>
   <g id="line2d_49">
    <path d="M 240.73 237.04 
L 240.73 31.56 
" clip-path="url(#pf8c52d08c7)" style="fill: none; stroke: #ff0000; stroke-opacity: 0.3; stroke-width: 0.5; stroke-linecap: square"/>
   </g>
   <g id="line2d_50">
    <path d="M 245.319 237.04 
L 245.319 31.56 
" clip-path="url(#pf8c52d08c7)" style="fill: none; stroke: #ff0000; stroke-opacity: 0.3; stroke-width: 0.5; stroke-linecap: square"/>
   </g>
   <g id="line2d_51">
    <path d="M 263.675 237.04 
L 263.675 31.56 
" clip-path="url(#pf8c52d08c7)" style="fill: none; stroke: #ff0000; stroke-opacity: 0.3; stroke-width: 0.5; stroke-linecap: square"/>
   </g>
   <g id="line2d_52">
    <path d="M 286.62 237.04 
L 286.62 31.56 
" clip-path="url(#pf8c52d08c7)" style="fill: none; stroke: #ff0000; stroke-opacity: 0.3; stroke-width: 0.5; stroke-linecap: square"/>
   </g>
   <g id="line2d_53">
    <path d="M 309.565 237.04 
L 309.565 31.56 
" clip-path="url(#pf8c52d08c7)" style="fill: none; stroke: #ff0000; stroke-opacity: 0.3; stroke-width: 0.5; stroke-linecap: square"/>
   </g>
   <g id="line2d_54">
    <path d="M 332.51 237.04 
L 332.51 31.56 
" clip-path="url(#pf8c52d08c7)" style="fill: none; stroke: #ff0000; stroke-opacity: 0.3; stroke-width: 0.5; stroke-linecap: square"/>
   </g>
   <g id="line2d_55">
    <path d="M 355.455 237.04 
L 355.455 31.56 
" clip-path="url(#pf8c52d08c7)" style="fill: none; stroke: #ff0000; stroke-opacity: 0.3; stroke-width: 0.5; stroke-linecap: square"/>
   </g>
   <g id="line2d_56">
    <path d="M 378.4 237.04 
L 378.4 31.56 
" clip-path="url(#pf8c52d08c7)" style="fill: none; stroke: #ff0000; stroke-opacity: 0.3; stroke-width: 0.5; stroke-linecap: square"/>
   </g>
   <g id="line2d_57">
    <path d="M 401.345 237.04 
L 401.345 31.56 
" clip-path="url(#pf8c52d08c7)" style="fill: none; stroke: #ff0000; stroke-opacity: 0.3; stroke-width: 0.5; stroke-linecap: square"/>
   </g>
   <g id="line2d_58">
    <path d="M 402.552632 237.04 
L 402.552632 31.56 
" clip-path="url(#pf8c52d08c7)" style="fill: none; stroke: #ff0000; stroke-opacity: 0.3; stroke-width: 0.5; stroke-linecap: square"/>
   </g>
   <g id="line2d_59">
    <path d="M 403.760263 237.04 
L 403.760263 31.56 
" clip-path="url(#pf8c52d08c7)" style="fill: none; stroke: #ff0000; stroke-opacity: 0.3; stroke-width: 0.5; stroke-linecap: square"/>
   </g>
   <g id="line2d_60">
    <path d="M 404.967895 237.04 
L 404.967895 31.56 
" clip-path="url(#pf8c52d08c7)" style="fill: none; stroke: #ff0000; stroke-opacity: 0.3; stroke-width: 0.5; stroke-linecap: square"/>
   </g>
   <g id="line2d_61">
    <path d="M 406.175526 237.04 
L 406.175526 31.56 
" clip-path="url(#pf8c52d08c7)" style="fill: none; stroke: #ff0000; stroke-opacity: 0.3; stroke-width: 0.5; stroke-linecap: square"/>
   </g>
   <g id="line2d_62">
    <path d="M 407.383158 237.04 
L 407.383158 31.56 
" clip-path="url(#pf8c52d08c7)" style="fill: none; stroke: #ff0000; stroke-opacity: 0.3; stroke-width: 0.5; stroke-linecap: square"/>
   </g>
   <g id="line2d_63">
    <path d="M 408.590789 237.04 
L 408.590789 31.56 
" clip-path="url(#pf8c52d08c7)" style="fill: none; stroke: #ff0000; stroke-opacity: 0.3; stroke-width: 0.5; stroke-linecap: square"/>
   </g>
   <g id="line2d_64">
    <path d="M 409.798421 237.04 
L 409.798421 31.56 
" clip-path="url(#pf8c52d08c7)" style="fill: none; stroke: #ff0000; stroke-opacity: 0.3; stroke-width: 0.5; stroke-linecap: square"/>
   </g>
   <g id="line2d_65">
    <path d="M 411.006053 237.04 
L 411.006053 31.56 
" clip-path="url(#pf8c52d08c7)" style="fill: none; stroke: #ff0000; stroke-opacity: 0.3; stroke-width: 0.5; stroke-linecap: square"/>
   </g>
   <g id="line2d_66">
    <path d="M 412.213684 237.04 
L 412.213684 31.56 
" clip-path="url(#pf8c52d08c7)" style="fill: none; stroke: #ff0000; stroke-opacity: 0.3; stroke-width: 0.5; stroke-linecap: square"/>
   </g>
   <g id="line2d_67">
    <path d="M 413.421316 237.04 
L 413.421316 31.56 
" clip-path="url(#pf8c52d08c7)" style="fill: none; stroke: #ff0000; stroke-opacity: 0.3; stroke-width: 0.5; stroke-linecap: square"/>
   </g>
   <g id="line2d_68">
    <path d="M 414.628947 237.04 
L 414.628947 31.56 
" clip-path="url(#pf8c52d08c7)" style="fill: none; stroke: #ff0000; stroke-opacity: 0.3; stroke-width: 0.5; stroke-linecap: square"/>
   </g>
   <g id="line2d_69">
    <path d="M 415.836579 237.04 
L 415.836579 31.56 
" clip-path="url(#pf8c52d08c7)" style="fill: none; stroke: #ff0000; stroke-opacity: 0.3; stroke-width: 0.5; stroke-linecap: square"/>
   </g>
   <g id="line2d_70">
    <path d="M 417.044211 237.04 
L 417.044211 31.56 
" clip-path="url(#pf8c52d08c7)" style="fill: none; stroke: #ff0000; stroke-opacity: 0.3; stroke-width: 0.5; stroke-linecap: square"/>
   </g>
   <g id="line2d_71">
    <path d="M 418.251842 237.04 
L 418.251842 31.56 
" clip-path="url(#pf8c52d08c7)" style="fill: none; stroke: #ff0000; stroke-opacity: 0.3; stroke-width: 0.5; stroke-linecap: square"/>
   </g>
   <g id="line2d_72">
    <path d="M 419.459474 237.04 
L 419.459474 31.56 
" clip-path="url(#pf8c52d08c7)" style="fill: none; stroke: #ff0000; stroke-opacity: 0.3; stroke-width: 0.5; stroke-linecap: square"/>
   </g>
   <g id="line2d_73">
    <path d="M 420.667105 237.04 
L 420.667105 31.56 
" clip-path="url(#pf8c52d08c7)" style="fill: none; stroke: #ff0000; stroke-opacity: 0.3; stroke-width: 0.5; stroke-linecap: square"/>
   </g>
   <g id="line2d_74">
    <path d="M 421.874737 237.04 
L 421.874737 31.56 
" clip-path="url(#pf8c52d08c7)" style="fill: none; stroke: #ff0000; stroke-opacity: 0.3; stroke-width: 0.5; stroke-linecap: square"/>
   </g>
   <g id="line2d_75">
    <path d="M 423.082368 237.04 
L 423.082368 31.56 
" clip-path="url(#pf8c52d08c7)" style="fill: none; stroke: #ff0000; stroke-opacity: 0.3; stroke-width: 0.5; stroke-linecap: square"/>
   </g>
   <g id="line2d_76">
    <path d="M 424.29 237.04 
L 424.29 31.56 
" clip-path="url(#pf8c52d08c7)" style="fill: none; stroke: #ff0000; stroke-opacity: 0.3; stroke-width: 0.5; stroke-linecap: square"/>
   </g>
   <g id="line2d_77">
    <path d="M 428.879 237.04 
L 428.879 31.56 
" clip-path="url(#pf8c52d08c7)" style="fill: none; stroke: #ff0000; stroke-opacity: 0.3; stroke-width: 0.5; stroke-linecap: square"/>
   </g>
   <g id="line2d_78">
    <path d="M 447.235 237.04 
L 447.235 31.56 
" clip-path="url(#pf8c52d08c7)" style="fill: none; stroke: #ff0000; stroke-opacity: 0.3; stroke-width: 0.5; stroke-linecap: square"/>
   </g>
   <g id="line2d_79">
    <path d="M 470.18 237.04 
L 470.18 31.56 
" clip-path="url(#pf8c52d08c7)" style="fill: none; stroke: #ff0000; stroke-opacity: 0.3; stroke-width: 0.5; stroke-linecap: square"/>
   </g>
   <g id="line2d_80">
    <path d="M 493.125 237.04 
L 493.125 31.56 
" clip-path="url(#pf8c52d08c7)" style="fill: none; stroke: #ff0000; stroke-opacity: 0.3; stroke-width: 0.5; stroke-linecap: square"/>
   </g>
   <g id="line2d_81">
    <path d="M 516.07 237.04 
L 516.07 31.56 
" clip-path="url(#pf8c52d08c7)" style="fill: none; stroke: #ff0000; stroke-opacity: 0.3; stroke-width: 0.5; stroke-linecap: square"/>
   </g>
   <g id="line2d_82">
    <path d="M 539.015 237.04 
L 539.015 31.56 
" clip-path="url(#pf8c52d08c7)" style="fill: none; stroke: #ff0000; stroke-opacity: 0.3; stroke-width: 0.5; stroke-linecap: square"/>
   </g>
   <g id="line2d_83">
    <defs>
     <path id="m2f7426d494" d="M 0 5 
L 0 -5 
" style="stroke: #ff0000"/>
    </defs>
    <g clip-path="url(#pf8c52d08c7)">
     <use xlink:href="#m2f7426d494" x="80.115" y="134.366767" style="fill: #ff0000; stroke: #ff0000"/>
     <use xlink:href="#m2f7426d494" x="103.06" y="134.366767" style="fill: #ff0000; stroke: #ff0000"/>
     <use xlink:href="#m2f7426d494" x="126.005" y="134.366767" style="fill: #ff0000; stroke: #ff0000"/>
     <use xlink:href="#m2f7426d494" x="148.95" y="134.366767" style="fill: #ff0000; stroke: #ff0000"/>
     <use xlink:href="#m2f7426d494" x="171.895" y="134.366767" style="fill: #ff0000; stroke: #ff0000"/>
     <use xlink:href="#m2f7426d494" x="194.84" y="134.366767" style="fill: #ff0000; stroke: #ff0000"/>
     <use xlink:href="#m2f7426d494" x="217.785" y="134.366767" style="fill: #ff0000; stroke: #ff0000"/>
     <use xlink:href="#m2f7426d494" x="218.992632" y="134.366767" style="fill: #ff0000; stroke: #ff0000"/>
     <use xlink:href="#m2f7426d494" x="220.200263" y="134.366767" style="fill: #ff0000; stroke: #ff0000"/>
     <use xlink:href="#m2f7426d494" x="221.407895" y="134.366767" style="fill: #ff0000; stroke: #ff0000"/>
     <use xlink:href="#m2f7426d494" x="222.615526" y="134.366767" style="fill: #ff0000; stroke: #ff0000"/>
     <use xlink:href="#m2f7426d494" x="223.823158" y="134.366767" style="fill: #ff0000; stroke: #ff0000"/>
     <use xlink:href="#m2f7426d494" x="225.030789" y="134.366767" style="fill: #ff0000; stroke: #ff0000"/>
     <use xlink:href="#m2f7426d494" x="226.238421" y="134.366767" style="fill: #ff0000; stroke: #ff0000"/>
     <use xlink:href="#m2f7426d494" x="227.446053" y="134.366767" style="fill: #ff0000; stroke: #ff0000"/>
     <use xlink:href="#m2f7426d494" x="228.653684" y="134.366767" style="fill: #ff0000; stroke: #ff0000"/>
     <use xlink:href="#m2f7426d494" x="229.861316" y="134.366767" style="fill: #ff0000; stroke: #ff0000"/>
     <use xlink:href="#m2f7426d494" x="231.068947" y="134.366767" style="fill: #ff0000; stroke: #ff0000"/>
     <use xlink:href="#m2f7426d494" x="232.276579" y="134.366767" style="fill: #ff0000; stroke: #ff0000"/>
     <use xlink:href="#m2f7426d494" x="233.484211" y="134.366767" style="fill: #ff0000; stroke: #ff0000"/>
     <use xlink:href="#m2f7426d494" x="234.691842" y="134.366767" style="fill: #ff0000; stroke: #ff0000"/>
     <use xlink:href="#m2f7426d494" x="235.899474" y="134.366767" style="fill: #ff0000; stroke: #ff0000"/>
     <use xlink:href="#m2f7426d494" x="237.107105" y="134.366767" style="fill: #ff0000; stroke: #ff0000"/>
     <use xlink:href="#m2f7426d494" x="238.314737" y="134.366767" style="fill: #ff0000; stroke: #ff0000"/>
     <use xlink:href="#m2f7426d494" x="239.522368" y="134.366767" style="fill: #ff0000; stroke: #ff0000"/>
     <use xlink:href="#m2f7426d494" x="240.73" y="134.366767" style="fill: #ff0000; stroke: #ff0000"/>
     <use xlink:href="#m2f7426d494" x="245.319" y="134.366767" style="fill: #ff0000; stroke: #ff0000"/>
     <use xlink:href="#m2f7426d494" x="263.675" y="134.366767" style="fill: #ff0000; stroke: #ff0000"/>
     <use xlink:href="#m2f7426d494" x="286.62" y="134.366767" style="fill: #ff0000; stroke: #ff0000"/>
     <use xlink:href="#m2f7426d494" x="309.565" y="134.366767" style="fill: #ff0000; stroke: #ff0000"/>
     <use xlink:href="#m2f7426d494" x="332.51" y="134.366767" style="fill: #ff0000; stroke: #ff0000"/>
     <use xlink:href="#m2f7426d494" x="355.455" y="134.366767" style="fill: #ff0000; stroke: #ff0000"/>
     <use xlink:href="#m2f7426d494" x="378.4" y="134.366767" style="fill: #ff0000; stroke: #ff0000"/>
     <use xlink:href="#m2f7426d494" x="401.345" y="134.366767" style="fill: #ff0000; stroke: #ff0000"/>
     <use xlink:href="#m2f7426d494" x="402.552632" y="134.366767" style="fill: #ff0000; stroke: #ff0000"/>
     <use xlink:href="#m2f7426d494" x="403.760263" y="134.366767" style="fill: #ff0000; stroke: #ff0000"/>
     <use xlink:href="#m2f7426d494" x="404.967895" y="134.366767" style="fill: #ff0000; stroke: #ff0000"/>
     <use xlink:href="#m2f7426d494" x="406.175526" y="134.366767" style="fill: #ff0000; stroke: #ff0000"/>
     <use xlink:href="#m2f7426d494" x="407.383158" y="134.366767" style="fill: #ff0000; stroke: #ff0000"/>
     <use xlink:href="#m2f7426d494" x="408.590789" y="134.366767" style="fill: #ff0000; stroke: #ff0000"/>
     <use xlink:href="#m2f7426d494" x="409.798421" y="134.366767" style="fill: #ff0000; stroke: #ff0000"/>
     <use xlink:href="#m2f7426d494" x="411.006053" y="134.366767" style="fill: #ff0000; stroke: #ff0000"/>
     <use xlink:href="#m2f7426d494" x="412.213684" y="134.366767" style="fill: #ff0000; stroke: #ff0000"/>
     <use xlink:href="#m2f7426d494" x="413.421316" y="134.366767" style="fill: #ff0000; stroke: #ff0000"/>
     <use xlink:href="#m2f7426d494" x="414.628947" y="134.366767" style="fill: #ff0000; stroke: #ff0000"/>
     <use xlink:href="#m2f7426d494" x="415.836579" y="134.366767" style="fill: #ff0000; stroke: #ff0000"/>
     <use xlink:href="#m2f7426d494" x="417.044211" y="134.366767" style="fill: #ff0000; stroke: #ff0000"/>
     <use xlink:href="#m2f7426d494" x="418.251842" y="134.366767" style="fill: #ff0000; stroke: #ff0000"/>
     <use xlink:href="#m2f7426d494" x="419.459474" y="134.366767" style="fill: #ff0000; stroke: #ff0000"/>
     <use xlink:href="#m2f7426d494" x="420.667105" y="134.366767" style="fill: #ff0000; stroke: #ff0000"/>
     <use xlink:href="#m2f7426d494" x="421.874737" y="134.366767" style="fill: #ff0000; stroke: #ff0000"/>
     <use xlink:href="#m2f7426d494" x="423.082368" y="134.366767" style="fill: #ff0000; stroke: #ff0000"/>
     <use xlink:href="#m2f7426d494" x="424.29" y="134.366767" style="fill: #ff0000; stroke: #ff0000"/>
     <use xlink:href="#m2f7426d494" x="428.879" y="134.366767" style="fill: #ff0000; stroke: #ff0000"/>
     <use xlink:href="#m2f7426d494" x="447.235" y="134.366767" style="fill: #ff0000; stroke: #ff0000"/>
     <use xlink:href="#m2f7426d494" x="470.18" y="134.366767" style="fill: #ff0000; stroke: #ff0000"/>
     <use xlink:href="#m2f7426d494" x="493.125" y="134.366767" style="fill: #ff0000; stroke: #ff0000"/>
     <use xlink:href="#m2f7426d494" x="516.07" y="134.366767" style="fill: #ff0000; stroke: #ff0000"/>
     <use xlink:href="#m2f7426d494" x="539.015" y="134.366767" style="fill: #ff0000; stroke: #ff0000"/>
    </g>
   </g>
   <g id="patch_3">
    <path d="M 57.17 237.04 
L 57.17 31.56 
" style="fill: none; stroke: #000000; stroke-width: 0.8; stroke-linejoin: miter; stroke-linecap: square"/>
   </g>
   <g id="patch_4">
    <path d="M 561.96 237.04 
L 561.96 31.56 
" style="fill: none; stroke: #000000; stroke-width: 0.8; stroke-linejoin: miter; stroke-linecap: square"/>
   </g>
   <g id="patch_5">
    <path d="M 57.17 237.04 
L 561.96 237.04 
" style="fill: none; stroke: #000000; stroke-width: 0.8; stroke-linejoin: miter; stroke-linecap: square"/>
   </g>
   <g id="patch_6">
    <path d="M 57.17 31.56 
L 561.96 31.56 
" style="fill: none; stroke: #000000; stroke-width: 0.8; stroke-linejoin: miter; stroke-linecap: square"/>
   </g>
   <g id="text_14">
    <g id="patch_7">
     <path d="M 92.897453 167.994453 
L 177.468547 167.994453 
Q 180.768547 167.994453 180.768547 164.694453 
L 180.768547 141.730922 
Q 180.768547 138.430922 177.468547 138.430922 
L 92.897453 138.430922 
Q 89.597453 138.430922 89.597453 141.730922 
L 89.597453 164.694453 
Q 89.597453 167.994453 92.897453 167.994453 
z
" style="fill: #90ee90; opacity: 0.7; stroke: #000000; stroke-linejoin: miter"/>
    </g>
    <!-- DUŻY krok -->
    <g style="fill: #008000" transform="translate(106.175656 150.089203) scale(0.11 -0.11)">
     <defs>
      <path id="DejaVuSans-44" d="M 1259 4147 
L 1259 519 
L 2022 519 
Q 2988 519 3436 956 
Q 3884 1394 3884 2338 
Q 3884 3275 3436 3711 
Q 2988 4147 2022 4147 
L 1259 4147 
z
M 628 4666 
L 1925 4666 
Q 3281 4666 3915 4102 
Q 4550 3538 4550 2338 
Q 4550 1131 3912 565 
Q 3275 0 1925 0 
L 628 0 
L 628 4666 
z
" transform="scale(0.015625)"/>
      <path id="DejaVuSans-55" d="M 556 4666 
L 1191 4666 
L 1191 1831 
Q 1191 1081 1462 751 
Q 1734 422 2344 422 
Q 2950 422 3222 751 
Q 3494 1081 3494 1831 
L 3494 4666 
L 4128 4666 
L 4128 1753 
Q 4128 841 3676 375 
Q 3225 -91 2344 -91 
Q 1459 -91 1007 375 
Q 556 841 556 1753 
L 556 4666 
z
" transform="scale(0.015625)"/>
      <path id="DejaVuSans-17b" d="M 1873 5836 
L 2511 5836 
L 2511 5196 
L 1873 5196 
L 1873 5836 
z
M 359 4666 
L 4025 4666 
L 4025 4184 
L 1075 531 
L 4097 531 
L 4097 0 
L 288 0 
L 288 481 
L 3238 4134 
L 359 4134 
L 359 4666 
z
" transform="scale(0.015625)"/>
      <path id="DejaVuSans-59" d="M -13 4666 
L 666 4666 
L 1959 2747 
L 3244 4666 
L 3922 4666 
L 2272 2222 
L 2272 0 
L 1638 0 
L 1638 2222 
L -13 4666 
z
" transform="scale(0.015625)"/>
      <path id="DejaVuSans-20" transform="scale(0.015625)"/>
      <path id="DejaVuSans-6b" d="M 581 4863 
L 1159 4863 
L 1159 1991 
L 2875 3500 
L 3609 3500 
L 1753 1863 
L 3688 0 
L 2938 0 
L 1159 1709 
L 1159 0 
L 581 0 
L 581 4863 
z
" transform="scale(0.015625)"/>
      <path id="DejaVuSans-72" d="M 2631 2963 
Q 2534 3019 2420 3045 
Q 2306 3072 2169 3072 
Q 1681 3072 1420 2755 
Q 1159 2438 1159 1844 
L 1159 0 
L 581 0 
L 581 3500 
L 1159 3500 
L 1159 2956 
Q 1341 3275 1631 3429 
Q 1922 3584 2338 3584 
Q 2397 3584 2469 3576 
Q 2541 3569 2628 3553 
L 2631 2963 
z
" transform="scale(0.015625)"/>
      <path id="DejaVuSans-6f" d="M 1959 3097 
Q 1497 3097 1228 2736 
Q 959 2375 959 1747 
Q 959 1119 1226 758 
Q 1494 397 1959 397 
Q 2419 397 2687 759 
Q 2956 1122 2956 1747 
Q 2956 2369 2687 2733 
Q 2419 3097 1959 3097 
z
M 1959 3584 
Q 2709 3584 3137 3096 
Q 3566 2609 3566 1747 
Q 3566 888 3137 398 
Q 2709 -91 1959 -91 
Q 1206 -91 779 398 
Q 353 888 353 1747 
Q 353 2609 779 3096 
Q 1206 3584 1959 3584 
z
" transform="scale(0.015625)"/>
     </defs>
     <use xlink:href="#DejaVuSans-44"/>
     <use xlink:href="#DejaVuSans-55" transform="translate(77.001953 0)"/>
     <use xlink:href="#DejaVuSans-17b" transform="translate(150.195312 0)"/>
     <use xlink:href="#DejaVuSans-59" transform="translate(218.701172 0)"/>
     <use xlink:href="#DejaVuSans-20" transform="translate(279.785156 0)"/>
     <use xlink:href="#DejaVuSans-6b" transform="translate(311.572266 0)"/>
     <use xlink:href="#DejaVuSans-72" transform="translate(369.482422 0)"/>
     <use xlink:href="#DejaVuSans-6f" transform="translate(408.345703 0)"/>
     <use xlink:href="#DejaVuSans-6b" transform="translate(469.527344 0)"/>
    </g>
    <!-- (wolna zmiana) -->
    <g style="fill: #008000" transform="translate(92.897453 162.406797) scale(0.11 -0.11)">
     <defs>
      <path id="DejaVuSans-77" d="M 269 3500 
L 844 3500 
L 1563 769 
L 2278 3500 
L 2956 3500 
L 3675 769 
L 4391 3500 
L 4966 3500 
L 4050 0 
L 3372 0 
L 2619 2869 
L 1863 0 
L 1184 0 
L 269 3500 
z
" transform="scale(0.015625)"/>
      <path id="DejaVuSans-6c" d="M 603 4863 
L 1178 4863 
L 1178 0 
L 603 0 
L 603 4863 
z
" transform="scale(0.015625)"/>
      <path id="DejaVuSans-6e" d="M 3513 2113 
L 3513 0 
L 2938 0 
L 2938 2094 
Q 2938 2591 2744 2837 
Q 2550 3084 2163 3084 
Q 1697 3084 1428 2787 
Q 1159 2491 1159 1978 
L 1159 0 
L 581 0 
L 581 3500 
L 1159 3500 
L 1159 2956 
Q 1366 3272 1645 3428 
Q 1925 3584 2291 3584 
Q 2894 3584 3203 3211 
Q 3513 2838 3513 2113 
z
" transform="scale(0.015625)"/>
      <path id="DejaVuSans-61" d="M 2194 1759 
Q 1497 1759 1228 1600 
Q 959 1441 959 1056 
Q 959 750 1161 570 
Q 1363 391 1709 391 
Q 2188 391 2477 730 
Q 2766 1069 2766 1631 
L 2766 1759 
L 2194 1759 
z
M 3341 1997 
L 3341 0 
L 2766 0 
L 2766 531 
Q 2569 213 2275 61 
Q 1981 -91 1556 -91 
Q 1019 -91 701 211 
Q 384 513 384 1019 
Q 384 1609 779 1909 
Q 1175 2209 1959 2209 
L 2766 2209 
L 2766 2266 
Q 2766 2663 2505 2880 
Q 2244 3097 1772 3097 
Q 1472 3097 1187 3025 
Q 903 2953 641 2809 
L 641 3341 
Q 956 3463 1253 3523 
Q 1550 3584 1831 3584 
Q 2591 3584 2966 3190 
Q 3341 2797 3341 1997 
z
" transform="scale(0.015625)"/>
      <path id="DejaVuSans-7a" d="M 353 3500 
L 3084 3500 
L 3084 2975 
L 922 459 
L 3084 459 
L 3084 0 
L 275 0 
L 275 525 
L 2438 3041 
L 353 3041 
L 353 3500 
z
" transform="scale(0.015625)"/>
      <path id="DejaVuSans-6d" d="M 3328 2828 
Q 3544 3216 3844 3400 
Q 4144 3584 4550 3584 
Q 5097 3584 5394 3201 
Q 5691 2819 5691 2113 
L 5691 0 
L 5113 0 
L 5113 2094 
Q 5113 2597 4934 2840 
Q 4756 3084 4391 3084 
Q 3944 3084 3684 2787 
Q 3425 2491 3425 1978 
L 3425 0 
L 2847 0 
L 2847 2094 
Q 2847 2600 2669 2842 
Q 2491 3084 2119 3084 
Q 1678 3084 1418 2786 
Q 1159 2488 1159 1978 
L 1159 0 
L 581 0 
L 581 3500 
L 1159 3500 
L 1159 2956 
Q 1356 3278 1631 3431 
Q 1906 3584 2284 3584 
Q 2666 3584 2933 3390 
Q 3200 3197 3328 2828 
z
" transform="scale(0.015625)"/>
      <path id="DejaVuSans-69" d="M 603 3500 
L 1178 3500 
L 1178 0 
L 603 0 
L 603 3500 
z
M 603 4863 
L 1178 4863 
L 1178 4134 
L 603 4134 
L 603 4863 
z
" transform="scale(0.015625)"/>
     </defs>
     <use xlink:href="#DejaVuSans-28"/>
     <use xlink:href="#DejaVuSans-77" transform="translate(39.013672 0)"/>
     <use xlink:href="#DejaVuSans-6f" transform="translate(120.800781 0)"/>
     <use xlink:href="#DejaVuSans-6c" transform="translate(181.982422 0)"/>
     <use xlink:href="#DejaVuSans-6e" transform="translate(209.765625 0)"/>
     <use xlink:href="#DejaVuSans-61" transform="translate(273.144531 0)"/>
     <use xlink:href="#DejaVuSans-20" transform="translate(334.423828 0)"/>
     <use xlink:href="#DejaVuSans-7a" transform="translate(366.210938 0)"/>
     <use xlink:href="#DejaVuSans-6d" transform="translate(418.701172 0)"/>
     <use xlink:href="#DejaVuSans-69" transform="translate(516.113281 0)"/>
     <use xlink:href="#DejaVuSans-61" transform="translate(543.896484 0)"/>
     <use xlink:href="#DejaVuSans-6e" transform="translate(605.175781 0)"/>
     <use xlink:href="#DejaVuSans-61" transform="translate(668.554688 0)"/>
     <use xlink:href="#DejaVuSans-29" transform="translate(729.833984 0)"/>
    </g>
   </g>
   <g id="text_15">
    <g id="patch_8">
     <path d="M 184.261484 167.994453 
L 274.253516 167.994453 
Q 277.553516 167.994453 277.553516 164.694453 
L 277.553516 141.730922 
Q 277.553516 138.430922 274.253516 138.430922 
L 184.261484 138.430922 
Q 180.961484 138.430922 180.961484 141.730922 
L 180.961484 164.694453 
Q 180.961484 167.994453 184.261484 167.994453 
z
" style="fill: #ffffe0; opacity: 0.7; stroke: #000000; stroke-linejoin: miter"/>
    </g>
    <!-- MAŁY krok -->
    <g style="fill: #ff0000" transform="translate(200.678984 150.089203) scale(0.11 -0.11)">
     <defs>
      <path id="DejaVuSans-4d" d="M 628 4666 
L 1569 4666 
L 2759 1491 
L 3956 4666 
L 4897 4666 
L 4897 0 
L 4281 0 
L 4281 4097 
L 3078 897 
L 2444 897 
L 1241 4097 
L 1241 0 
L 628 0 
L 628 4666 
z
" transform="scale(0.015625)"/>
      <path id="DejaVuSans-41" d="M 2188 4044 
L 1331 1722 
L 3047 1722 
L 2188 4044 
z
M 1831 4666 
L 2547 4666 
L 4325 0 
L 3669 0 
L 3244 1197 
L 1141 1197 
L 716 0 
L 50 0 
L 1831 4666 
z
" transform="scale(0.015625)"/>
      <path id="DejaVuSans-141" d="M 659 4666 
L 1294 4666 
L 1294 2741 
L 2272 3425 
L 2522 3078 
L 1294 2222 
L 1294 531 
L 3566 531 
L 3566 0 
L 659 0 
L 659 1784 
L 197 1453 
L -44 1797 
L 659 2291 
L 659 4666 
z
" transform="scale(0.015625)"/>
     </defs>
     <use xlink:href="#DejaVuSans-4d"/>
     <use xlink:href="#DejaVuSans-41" transform="translate(86.279297 0)"/>
     <use xlink:href="#DejaVuSans-141" transform="translate(154.6875 0)"/>
     <use xlink:href="#DejaVuSans-59" transform="translate(210.888672 0)"/>
     <use xlink:href="#DejaVuSans-20" transform="translate(271.972656 0)"/>
     <use xlink:href="#DejaVuSans-6b" transform="translate(303.759766 0)"/>
     <use xlink:href="#DejaVuSans-72" transform="translate(361.669922 0)"/>
     <use xlink:href="#DejaVuSans-6f" transform="translate(400.533203 0)"/>
     <use xlink:href="#DejaVuSans-6b" transform="translate(461.714844 0)"/>
    </g>
    <!-- (szybka zmiana) -->
    <g style="fill: #ff0000" transform="translate(184.261484 162.406797) scale(0.11 -0.11)">
     <defs>
      <path id="DejaVuSans-73" d="M 2834 3397 
L 2834 2853 
Q 2591 2978 2328 3040 
Q 2066 3103 1784 3103 
Q 1356 3103 1142 2972 
Q 928 2841 928 2578 
Q 928 2378 1081 2264 
Q 1234 2150 1697 2047 
L 1894 2003 
Q 2506 1872 2764 1633 
Q 3022 1394 3022 966 
Q 3022 478 2636 193 
Q 2250 -91 1575 -91 
Q 1294 -91 989 -36 
Q 684 19 347 128 
L 347 722 
Q 666 556 975 473 
Q 1284 391 1588 391 
Q 1994 391 2212 530 
Q 2431 669 2431 922 
Q 2431 1156 2273 1281 
Q 2116 1406 1581 1522 
L 1381 1569 
Q 847 1681 609 1914 
Q 372 2147 372 2553 
Q 372 3047 722 3315 
Q 1072 3584 1716 3584 
Q 2034 3584 2315 3537 
Q 2597 3491 2834 3397 
z
" transform="scale(0.015625)"/>
      <path id="DejaVuSans-79" d="M 2059 -325 
Q 1816 -950 1584 -1140 
Q 1353 -1331 966 -1331 
L 506 -1331 
L 506 -850 
L 844 -850 
Q 1081 -850 1212 -737 
Q 1344 -625 1503 -206 
L 1606 56 
L 191 3500 
L 800 3500 
L 1894 763 
L 2988 3500 
L 3597 3500 
L 2059 -325 
z
" transform="scale(0.015625)"/>
      <path id="DejaVuSans-62" d="M 3116 1747 
Q 3116 2381 2855 2742 
Q 2594 3103 2138 3103 
Q 1681 3103 1420 2742 
Q 1159 2381 1159 1747 
Q 1159 1113 1420 752 
Q 1681 391 2138 391 
Q 2594 391 2855 752 
Q 3116 1113 3116 1747 
z
M 1159 2969 
Q 1341 3281 1617 3432 
Q 1894 3584 2278 3584 
Q 2916 3584 3314 3078 
Q 3713 2572 3713 1747 
Q 3713 922 3314 415 
Q 2916 -91 2278 -91 
Q 1894 -91 1617 61 
Q 1341 213 1159 525 
L 1159 0 
L 581 0 
L 581 4863 
L 1159 4863 
L 1159 2969 
z
" transform="scale(0.015625)"/>
     </defs>
     <use xlink:href="#DejaVuSans-28"/>
     <use xlink:href="#DejaVuSans-73" transform="translate(39.013672 0)"/>
     <use xlink:href="#DejaVuSans-7a" transform="translate(91.113281 0)"/>
     <use xlink:href="#DejaVuSans-79" transform="translate(143.603516 0)"/>
     <use xlink:href="#DejaVuSans-62" transform="translate(202.783203 0)"/>
     <use xlink:href="#DejaVuSans-6b" transform="translate(266.259766 0)"/>
     <use xlink:href="#DejaVuSans-61" transform="translate(322.419922 0)"/>
     <use xlink:href="#DejaVuSans-20" transform="translate(383.699219 0)"/>
     <use xlink:href="#DejaVuSans-7a" transform="translate(415.486328 0)"/>
     <use xlink:href="#DejaVuSans-6d" transform="translate(467.976562 0)"/>
     <use xlink:href="#DejaVuSans-69" transform="translate(565.388672 0)"/>
     <use xlink:href="#DejaVuSans-61" transform="translate(593.171875 0)"/>
     <use xlink:href="#DejaVuSans-6e" transform="translate(654.451172 0)"/>
     <use xlink:href="#DejaVuSans-61" transform="translate(717.830078 0)"/>
     <use xlink:href="#DejaVuSans-29" transform="translate(779.109375 0)"/>
    </g>
   </g>
   <g id="text_16">
    <g id="patch_9">
     <path d="M 303.502656 167.994453 
L 361.517344 167.994453 
Q 364.817344 167.994453 364.817344 164.694453 
L 364.817344 154.048516 
Q 364.817344 150.748516 361.517344 150.748516 
L 303.502656 150.748516 
Q 300.202656 150.748516 300.202656 154.048516 
L 300.202656 164.694453 
Q 300.202656 167.994453 303.502656 167.994453 
z
" style="fill: #90ee90; opacity: 0.7; stroke: #000000; stroke-linejoin: miter"/>
    </g>
    <!-- DUŻY krok -->
    <g style="fill: #008000" transform="translate(303.502656 162.406797) scale(0.11 -0.11)">
     <use xlink:href="#DejaVuSans-44"/>
     <use xlink:href="#DejaVuSans-55" transform="translate(77.001953 0)"/>
     <use xlink:href="#DejaVuSans-17b" transform="translate(150.195312 0)"/>
     <use xlink:href="#DejaVuSans-59" transform="translate(218.701172 0)"/>
     <use xlink:href="#DejaVuSans-20" transform="translate(279.785156 0)"/>
     <use xlink:href="#DejaVuSans-6b" transform="translate(311.572266 0)"/>
     <use xlink:href="#DejaVuSans-72" transform="translate(369.482422 0)"/>
     <use xlink:href="#DejaVuSans-6f" transform="translate(408.345703 0)"/>
     <use xlink:href="#DejaVuSans-6b" transform="translate(469.527344 0)"/>
    </g>
   </g>
   <g id="text_17">
    <!-- Algorytm zmiennokrokowy — gęstość punktów obliczeniowych -->
    <g transform="translate(90.185 25.56) scale(0.14 -0.14)">
     <defs>
      <path id="DejaVuSans-67" d="M 2906 1791 
Q 2906 2416 2648 2759 
Q 2391 3103 1925 3103 
Q 1463 3103 1205 2759 
Q 947 2416 947 1791 
Q 947 1169 1205 825 
Q 1463 481 1925 481 
Q 2391 481 2648 825 
Q 2906 1169 2906 1791 
z
M 3481 434 
Q 3481 -459 3084 -895 
Q 2688 -1331 1869 -1331 
Q 1566 -1331 1297 -1286 
Q 1028 -1241 775 -1147 
L 775 -588 
Q 1028 -725 1275 -790 
Q 1522 -856 1778 -856 
Q 2344 -856 2625 -561 
Q 2906 -266 2906 331 
L 2906 616 
Q 2728 306 2450 153 
Q 2172 0 1784 0 
Q 1141 0 747 490 
Q 353 981 353 1791 
Q 353 2603 747 3093 
Q 1141 3584 1784 3584 
Q 2172 3584 2450 3431 
Q 2728 3278 2906 2969 
L 2906 3500 
L 3481 3500 
L 3481 434 
z
" transform="scale(0.015625)"/>
      <path id="DejaVuSans-65" d="M 3597 1894 
L 3597 1613 
L 953 1613 
Q 991 1019 1311 708 
Q 1631 397 2203 397 
Q 2534 397 2845 478 
Q 3156 559 3463 722 
L 3463 178 
Q 3153 47 2828 -22 
Q 2503 -91 2169 -91 
Q 1331 -91 842 396 
Q 353 884 353 1716 
Q 353 2575 817 3079 
Q 1281 3584 2069 3584 
Q 2775 3584 3186 3129 
Q 3597 2675 3597 1894 
z
M 3022 2063 
Q 3016 2534 2758 2815 
Q 2500 3097 2075 3097 
Q 1594 3097 1305 2825 
Q 1016 2553 972 2059 
L 3022 2063 
z
" transform="scale(0.015625)"/>
      <path id="DejaVuSans-2014" d="M 313 1978 
L 6088 1978 
L 6088 1528 
L 313 1528 
L 313 1978 
z
" transform="scale(0.015625)"/>
      <path id="DejaVuSans-119" d="M 3597 1894 
L 3597 1613 
L 953 1613 
Q 991 1019 1311 708 
Q 1631 397 2203 397 
Q 2534 397 2845 478 
Q 3156 559 3463 722 
L 3463 178 
Q 3153 47 2828 -22 
Q 2503 -91 2169 -91 
Q 1331 -91 842 396 
Q 353 884 353 1716 
Q 353 2575 817 3079 
Q 1281 3584 2069 3584 
Q 2775 3584 3186 3129 
Q 3597 2675 3597 1894 
z
M 3022 2063 
Q 3016 2534 2758 2815 
Q 2500 3097 2075 3097 
Q 1594 3097 1305 2825 
Q 1016 2553 972 2059 
L 3022 2063 
z
M 2551 0 
L 2923 0 
Q 2782 -191 2715 -328 
Q 2648 -466 2648 -563 
Q 2648 -706 2734 -778 
Q 2820 -850 2989 -850 
Q 3089 -850 3185 -826 
Q 3282 -803 3379 -756 
L 3379 -1172 
Q 3260 -1203 3154 -1218 
Q 3048 -1234 2954 -1234 
Q 2573 -1234 2393 -1098 
Q 2214 -963 2214 -672 
Q 2214 -522 2296 -358 
Q 2379 -194 2551 0 
z
" transform="scale(0.015625)"/>
      <path id="DejaVuSans-15b" d="M 2242 5119 
L 2864 5119 
L 1846 3944 
L 1367 3944 
L 2242 5119 
z
M 2834 3397 
L 2834 2853 
Q 2591 2978 2328 3040 
Q 2066 3103 1784 3103 
Q 1356 3103 1142 2972 
Q 928 2841 928 2578 
Q 928 2378 1081 2264 
Q 1234 2150 1697 2047 
L 1894 2003 
Q 2506 1872 2764 1633 
Q 3022 1394 3022 966 
Q 3022 478 2636 193 
Q 2250 -91 1575 -91 
Q 1294 -91 989 -36 
Q 684 19 347 128 
L 347 722 
Q 666 556 975 473 
Q 1284 391 1588 391 
Q 1994 391 2212 530 
Q 2431 669 2431 922 
Q 2431 1156 2273 1281 
Q 2116 1406 1581 1522 
L 1381 1569 
Q 847 1681 609 1914 
Q 372 2147 372 2553 
Q 372 3047 722 3315 
Q 1072 3584 1716 3584 
Q 2034 3584 2315 3537 
Q 2597 3491 2834 3397 
z
" transform="scale(0.015625)"/>
      <path id="DejaVuSans-107" d="M 3122 3366 
L 3122 2828 
Q 2878 2963 2633 3030 
Q 2388 3097 2138 3097 
Q 1578 3097 1268 2742 
Q 959 2388 959 1747 
Q 959 1106 1268 751 
Q 1578 397 2138 397 
Q 2388 397 2633 464 
Q 2878 531 3122 666 
L 3122 134 
Q 2881 22 2623 -34 
Q 2366 -91 2075 -91 
Q 1284 -91 818 406 
Q 353 903 353 1747 
Q 353 2603 823 3093 
Q 1294 3584 2113 3584 
Q 2378 3584 2631 3529 
Q 2884 3475 3122 3366 
z
M 2466 5119 
L 3088 5119 
L 2070 3944 
L 1591 3944 
L 2466 5119 
z
" transform="scale(0.015625)"/>
      <path id="DejaVuSans-70" d="M 1159 525 
L 1159 -1331 
L 581 -1331 
L 581 3500 
L 1159 3500 
L 1159 2969 
Q 1341 3281 1617 3432 
Q 1894 3584 2278 3584 
Q 2916 3584 3314 3078 
Q 3713 2572 3713 1747 
Q 3713 922 3314 415 
Q 2916 -91 2278 -91 
Q 1894 -91 1617 61 
Q 1341 213 1159 525 
z
M 3116 1747 
Q 3116 2381 2855 2742 
Q 2594 3103 2138 3103 
Q 1681 3103 1420 2742 
Q 1159 2381 1159 1747 
Q 1159 1113 1420 752 
Q 1681 391 2138 391 
Q 2594 391 2855 752 
Q 3116 1113 3116 1747 
z
" transform="scale(0.015625)"/>
      <path id="DejaVuSans-75" d="M 544 1381 
L 544 3500 
L 1119 3500 
L 1119 1403 
Q 1119 906 1312 657 
Q 1506 409 1894 409 
Q 2359 409 2629 706 
Q 2900 1003 2900 1516 
L 2900 3500 
L 3475 3500 
L 3475 0 
L 2900 0 
L 2900 538 
Q 2691 219 2414 64 
Q 2138 -91 1772 -91 
Q 1169 -91 856 284 
Q 544 659 544 1381 
z
M 1991 3584 
L 1991 3584 
z
" transform="scale(0.015625)"/>
      <path id="DejaVuSans-f3" d="M 1959 3097 
Q 1497 3097 1228 2736 
Q 959 2375 959 1747 
Q 959 1119 1226 758 
Q 1494 397 1959 397 
Q 2419 397 2687 759 
Q 2956 1122 2956 1747 
Q 2956 2369 2687 2733 
Q 2419 3097 1959 3097 
z
M 1959 3584 
Q 2709 3584 3137 3096 
Q 3566 2609 3566 1747 
Q 3566 888 3137 398 
Q 2709 -91 1959 -91 
Q 1206 -91 779 398 
Q 353 888 353 1747 
Q 353 2609 779 3096 
Q 1206 3584 1959 3584 
z
M 2394 5119 
L 3016 5119 
L 1998 3944 
L 1519 3944 
L 2394 5119 
z
" transform="scale(0.015625)"/>
      <path id="DejaVuSans-63" d="M 3122 3366 
L 3122 2828 
Q 2878 2963 2633 3030 
Q 2388 3097 2138 3097 
Q 1578 3097 1268 2742 
Q 959 2388 959 1747 
Q 959 1106 1268 751 
Q 1578 397 2138 397 
Q 2388 397 2633 464 
Q 2878 531 3122 666 
L 3122 134 
Q 2881 22 2623 -34 
Q 2366 -91 2075 -91 
Q 1284 -91 818 406 
Q 353 903 353 1747 
Q 353 2603 823 3093 
Q 1294 3584 2113 3584 
Q 2378 3584 2631 3529 
Q 2884 3475 3122 3366 
z
" transform="scale(0.015625)"/>
      <path id="DejaVuSans-68" d="M 3513 2113 
L 3513 0 
L 2938 0 
L 2938 2094 
Q 2938 2591 2744 2837 
Q 2550 3084 2163 3084 
Q 1697 3084 1428 2787 
Q 1159 2491 1159 1978 
L 1159 0 
L 581 0 
L 581 4863 
L 1159 4863 
L 1159 2956 
Q 1366 3272 1645 3428 
Q 1925 3584 2291 3584 
Q 2894 3584 3203 3211 
Q 3513 2838 3513 2113 
z
" transform="scale(0.015625)"/>
     </defs>
     <use xlink:href="#DejaVuSans-41"/>
     <use xlink:href="#DejaVuSans-6c" transform="translate(68.408203 0)"/>
     <use xlink:href="#DejaVuSans-67" transform="translate(96.191406 0)"/>
     <use xlink:href="#DejaVuSans-6f" transform="translate(159.667969 0)"/>
     <use xlink:href="#DejaVuSans-72" transform="translate(220.849609 0)"/>
     <use xlink:href="#DejaVuSans-79" transform="translate(261.962891 0)"/>
     <use xlink:href="#DejaVuSans-74" transform="translate(321.142578 0)"/>
     <use xlink:href="#DejaVuSans-6d" transform="translate(360.351562 0)"/>
     <use xlink:href="#DejaVuSans-20" transform="translate(457.763672 0)"/>
     <use xlink:href="#DejaVuSans-7a" transform="translate(489.550781 0)"/>
     <use xlink:href="#DejaVuSans-6d" transform="translate(542.041016 0)"/>
     <use xlink:href="#DejaVuSans-69" transform="translate(639.453125 0)"/>
     <use xlink:href="#DejaVuSans-65" transform="translate(667.236328 0)"/>
     <use xlink:href="#DejaVuSans-6e" transform="translate(728.759766 0)"/>
     <use xlink:href="#DejaVuSans-6e" transform="translate(792.138672 0)"/>
     <use xlink:href="#DejaVuSans-6f" transform="translate(855.517578 0)"/>
     <use xlink:href="#DejaVuSans-6b" transform="translate(916.699219 0)"/>
     <use xlink:href="#DejaVuSans-72" transform="translate(974.609375 0)"/>
     <use xlink:href="#DejaVuSans-6f" transform="translate(1013.472656 0)"/>
     <use xlink:href="#DejaVuSans-6b" transform="translate(1074.654297 0)"/>
     <use xlink:href="#DejaVuSans-6f" transform="translate(1128.939453 0)"/>
     <use xlink:href="#DejaVuSans-77" transform="translate(1190.121094 0)"/>
     <use xlink:href="#DejaVuSans-79" transform="translate(1271.908203 0)"/>
     <use xlink:href="#DejaVuSans-20" transform="translate(1331.087891 0)"/>
     <use xlink:href="#DejaVuSans-2014" transform="translate(1362.875 0)"/>
     <use xlink:href="#DejaVuSans-20" transform="translate(1462.875 0)"/>
     <use xlink:href="#DejaVuSans-67" transform="translate(1494.662109 0)"/>
     <use xlink:href="#DejaVuSans-119" transform="translate(1558.138672 0)"/>
     <use xlink:href="#DejaVuSans-73" transform="translate(1619.662109 0)"/>
     <use xlink:href="#DejaVuSans-74" transform="translate(1671.761719 0)"/>
     <use xlink:href="#DejaVuSans-6f" transform="translate(1710.970703 0)"/>
     <use xlink:href="#DejaVuSans-15b" transform="translate(1772.152344 0)"/>
     <use xlink:href="#DejaVuSans-107" transform="translate(1824.251953 0)"/>
     <use xlink:href="#DejaVuSans-20" transform="translate(1879.232422 0)"/>
     <use xlink:href="#DejaVuSans-70" transform="translate(1911.019531 0)"/>
     <use xlink:href="#DejaVuSans-75" transform="translate(1974.496094 0)"/>
     <use xlink:href="#DejaVuSans-6e" transform="translate(2037.875 0)"/>
     <use xlink:href="#DejaVuSans-6b" transform="translate(2101.253906 0)"/>
     <use xlink:href="#DejaVuSans-74" transform="translate(2159.164062 0)"/>
     <use xlink:href="#DejaVuSans-f3" transform="translate(2198.373047 0)"/>
     <use xlink:href="#DejaVuSans-77" transform="translate(2259.554688 0)"/>
     <use xlink:href="#DejaVuSans-20" transform="translate(2341.341797 0)"/>
     <use xlink:href="#DejaVuSans-6f" transform="translate(2373.128906 0)"/>
     <use xlink:href="#DejaVuSans-62" transform="translate(2434.310547 0)"/>
     <use xlink:href="#DejaVuSans-6c" transform="translate(2497.787109 0)"/>
     <use xlink:href="#DejaVuSans-69" transform="translate(2525.570312 0)"/>
     <use xlink:href="#DejaVuSans-63" transform="translate(2553.353516 0)"/>
     <use xlink:href="#DejaVuSans-7a" transform="translate(2608.333984 0)"/>
     <use xlink:href="#DejaVuSans-65" transform="translate(2660.824219 0)"/>
     <use xlink:href="#DejaVuSans-6e" transform="translate(2722.347656 0)"/>
     <use xlink:href="#DejaVuSans-69" transform="translate(2785.726562 0)"/>
     <use xlink:href="#DejaVuSans-6f" transform="translate(2813.509766 0)"/>
     <use xlink:href="#DejaVuSans-77" transform="translate(2874.691406 0)"/>
     <use xlink:href="#DejaVuSans-79" transform="translate(2956.478516 0)"/>
     <use xlink:href="#DejaVuSans-63" transform="translate(3015.658203 0)"/>
     <use xlink:href="#DejaVuSans-68" transform="translate(3070.638672 0)"/>
    </g>
   </g>
  </g>
 </g>
 <defs>
  <clipPath id="pf8c52d08c7">
   <rect x="57.17" y="31.56" width="504.79" height="205.48"/>
  </clipPath>
 </defs>
</svg>
