<?xml version="1.0" encoding="utf-8" standalone="no"?>
<!DOCTYPE svg PUBLIC "-//W3C//DTD SVG 1.1//EN"
  "http://www.w3.org/Graphics/SVG/1.1/DTD/svg11.dtd">
<svg xmlns:xlink="http://www.w3.org/1999/xlink" width="720pt" height="288pt" viewBox="0 0 720 288" xmlns="http://www.w3.org/2000/svg" version="1.1">
 <metadata>
  <rdf:RDF xmlns:dc="http://purl.org/dc/elements/1.1/" xmlns:cc="http://creativecommons.org/ns#" xmlns:rdf="http://www.w3.org/1999/02/22-rdf-syntax-ns#">
   <cc:Work>
    <dc:type rdf:resource="http://purl.org/dc/dcmitype/StillImage"/>
    <dc:date>2026-05-07T20:24:21.988377</dc:date>
    <dc:format>image/svg+xml</dc:format>
    <dc:creator>
     <cc:Agent>
      <dc:title>Matplotlib v3.10.9, https://matplotlib.org/</dc:title>
     </cc:Agent>
    </dc:creator>
   </cc:Work>
  </rdf:RDF>
 </metadata>
 <defs>
  <style type="text/css">*{stroke-linejoin: round; stroke-linecap: butt}</style>
 </defs>
 <g id="figure_1">
  <g id="patch_1">
   <path d="M 0 288 
L 720 288 
L 720 0 
L 0 0 
z
" style="fill: #ffffff"/>
  </g>
  <g id="axes_1">
   <g id="patch_2">
    <path d="M 52.45 237.04 
L 352.98 237.04 
L 352.98 61.44 
L 52.45 61.44 
z
" style="fill: #ffffff"/>
   </g>
   <g id="matplotlib.axis_1">
    <g id="xtick_1">
     <g id="line2d_1">
      <path d="M 66.110455 237.04 
L 66.110455 61.44 
" clip-path="url(#p5462674ff7)" style="fill: none; stroke: #b0b0b0; stroke-opacity: 0.3; stroke-width: 0.8; stroke-linecap: square"/>
     </g>
     <g id="line2d_2">
      <defs>
       <path id="mf9c3f231a8" d="M 0 0 
L 0 3.5 
" style="stroke: #000000; stroke-width: 0.8"/>
      </defs>
      <g>
       <use xlink:href="#mf9c3f231a8" x="66.110455" y="237.04" style="stroke: #000000; stroke-width: 0.8"/>
      </g>
     </g>
     <g id="text_1">
      <!-- 0.0 -->
      <g transform="translate(55.773423 253.917969) scale(0.13 -0.13)">
       <defs>
        <path id="DejaVuSans-30" d="M 2034 4250 
Q 1547 4250 1301 3770 
Q 1056 3291 1056 2328 
Q 1056 1369 1301 889 
Q 1547 409 2034 409 
Q 2525 409 2770 889 
Q 3016 1369 3016 2328 
Q 3016 3291 2770 3770 
Q 2525 4250 2034 4250 
z
M 2034 4750 
Q 2819 4750 3233 4129 
Q 3647 3509 3647 2328 
Q 3647 1150 3233 529 
Q 2819 -91 2034 -91 
Q 1250 -91 836 529 
Q 422 1150 422 2328 
Q 422 3509 836 4129 
Q 1250 4750 2034 4750 
z
" transform="scale(0.015625)"/>
        <path id="DejaVuSans-2e" d="M 684 794 
L 1344 794 
L 1344 0 
L 684 0 
L 684 794 
z
" transform="scale(0.015625)"/>
       </defs>
       <use xlink:href="#DejaVuSans-30"/>
       <use xlink:href="#DejaVuSans-2e" transform="translate(63.623047 0)"/>
       <use xlink:href="#DejaVuSans-30" transform="translate(95.410156 0)"/>
      </g>
     </g>
    </g>
    <g id="xtick_2">
     <g id="line2d_3">
      <path d="M 120.752273 237.04 
L 120.752273 61.44 
" clip-path="url(#p5462674ff7)" style="fill: none; stroke: #b0b0b0; stroke-opacity: 0.3; stroke-width: 0.8; stroke-linecap: square"/>
     </g>
     <g id="line2d_4">
      <g>
       <use xlink:href="#mf9c3f231a8" x="120.752273" y="237.04" style="stroke: #000000; stroke-width: 0.8"/>
      </g>
     </g>
     <g id="text_2">
      <!-- 0.2 -->
      <g transform="translate(110.415241 253.917969) scale(0.13 -0.13)">
       <defs>
        <path id="DejaVuSans-32" d="M 1228 531 
L 3431 531 
L 3431 0 
L 469 0 
L 469 531 
Q 828 903 1448 1529 
Q 2069 2156 2228 2338 
Q 2531 2678 2651 2914 
Q 2772 3150 2772 3378 
Q 2772 3750 2511 3984 
Q 2250 4219 1831 4219 
Q 1534 4219 1204 4116 
Q 875 4013 500 3803 
L 500 4441 
Q 881 4594 1212 4672 
Q 1544 4750 1819 4750 
Q 2544 4750 2975 4387 
Q 3406 4025 3406 3419 
Q 3406 3131 3298 2873 
Q 3191 2616 2906 2266 
Q 2828 2175 2409 1742 
Q 1991 1309 1228 531 
z
" transform="scale(0.015625)"/>
       </defs>
       <use xlink:href="#DejaVuSans-30"/>
       <use xlink:href="#DejaVuSans-2e" transform="translate(63.623047 0)"/>
       <use xlink:href="#DejaVuSans-32" transform="translate(95.410156 0)"/>
      </g>
     </g>
    </g>
    <g id="xtick_3">
     <g id="line2d_5">
      <path d="M 175.394091 237.04 
L 175.394091 61.44 
" clip-path="url(#p5462674ff7)" style="fill: none; stroke: #b0b0b0; stroke-opacity: 0.3; stroke-width: 0.8; stroke-linecap: square"/>
     </g>
     <g id="line2d_6">
      <g>
       <use xlink:href="#mf9c3f231a8" x="175.394091" y="237.04" style="stroke: #000000; stroke-width: 0.8"/>
      </g>
     </g>
     <g id="text_3">
      <!-- 0.4 -->
      <g transform="translate(165.05706 253.917969) scale(0.13 -0.13)">
       <defs>
        <path id="DejaVuSans-34" d="M 2419 4116 
L 825 1625 
L 2419 1625 
L 2419 4116 
z
M 2253 4666 
L 3047 4666 
L 3047 1625 
L 3713 1625 
L 3713 1100 
L 3047 1100 
L 3047 0 
L 2419 0 
L 2419 1100 
L 313 1100 
L 313 1709 
L 2253 4666 
z
" transform="scale(0.015625)"/>
       </defs>
       <use xlink:href="#DejaVuSans-30"/>
       <use xlink:href="#DejaVuSans-2e" transform="translate(63.623047 0)"/>
       <use xlink:href="#DejaVuSans-34" transform="translate(95.410156 0)"/>
      </g>
     </g>
    </g>
    <g id="xtick_4">
     <g id="line2d_7">
      <path d="M 230.035909 237.04 
L 230.035909 61.44 
" clip-path="url(#p5462674ff7)" style="fill: none; stroke: #b0b0b0; stroke-opacity: 0.3; stroke-width: 0.8; stroke-linecap: square"/>
     </g>
     <g id="line2d_8">
      <g>
       <use xlink:href="#mf9c3f231a8" x="230.035909" y="237.04" style="stroke: #000000; stroke-width: 0.8"/>
      </g>
     </g>
     <g id="text_4">
      <!-- 0.6 -->
      <g transform="translate(219.698878 253.917969) scale(0.13 -0.13)">
       <defs>
        <path id="DejaVuSans-36" d="M 2113 2584 
Q 1688 2584 1439 2293 
Q 1191 2003 1191 1497 
Q 1191 994 1439 701 
Q 1688 409 2113 409 
Q 2538 409 2786 701 
Q 3034 994 3034 1497 
Q 3034 2003 2786 2293 
Q 2538 2584 2113 2584 
z
M 3366 4563 
L 3366 3988 
Q 3128 4100 2886 4159 
Q 2644 4219 2406 4219 
Q 1781 4219 1451 3797 
Q 1122 3375 1075 2522 
Q 1259 2794 1537 2939 
Q 1816 3084 2150 3084 
Q 2853 3084 3261 2657 
Q 3669 2231 3669 1497 
Q 3669 778 3244 343 
Q 2819 -91 2113 -91 
Q 1303 -91 875 529 
Q 447 1150 447 2328 
Q 447 3434 972 4092 
Q 1497 4750 2381 4750 
Q 2619 4750 2861 4703 
Q 3103 4656 3366 4563 
z
" transform="scale(0.015625)"/>
       </defs>
       <use xlink:href="#DejaVuSans-30"/>
       <use xlink:href="#DejaVuSans-2e" transform="translate(63.623047 0)"/>
       <use xlink:href="#DejaVuSans-36" transform="translate(95.410156 0)"/>
      </g>
     </g>
    </g>
    <g id="xtick_5">
     <g id="line2d_9">
      <path d="M 284.677727 237.04 
L 284.677727 61.44 
" clip-path="url(#p5462674ff7)" style="fill: none; stroke: #b0b0b0; stroke-opacity: 0.3; stroke-width: 0.8; stroke-linecap: square"/>
     </g>
     <g id="line2d_10">
      <g>
       <use xlink:href="#mf9c3f231a8" x="284.677727" y="237.04" style="stroke: #000000; stroke-width: 0.8"/>
      </g>
     </g>
     <g id="text_5">
      <!-- 0.8 -->
      <g transform="translate(274.340696 253.917969) scale(0.13 -0.13)">
       <defs>
        <path id="DejaVuSans-38" d="M 2034 2216 
Q 1584 2216 1326 1975 
Q 1069 1734 1069 1313 
Q 1069 891 1326 650 
Q 1584 409 2034 409 
Q 2484 409 2743 651 
Q 3003 894 3003 1313 
Q 3003 1734 2745 1975 
Q 2488 2216 2034 2216 
z
M 1403 2484 
Q 997 2584 770 2862 
Q 544 3141 544 3541 
Q 544 4100 942 4425 
Q 1341 4750 2034 4750 
Q 2731 4750 3128 4425 
Q 3525 4100 3525 3541 
Q 3525 3141 3298 2862 
Q 3072 2584 2669 2484 
Q 3125 2378 3379 2068 
Q 3634 1759 3634 1313 
Q 3634 634 3220 271 
Q 2806 -91 2034 -91 
Q 1263 -91 848 271 
Q 434 634 434 1313 
Q 434 1759 690 2068 
Q 947 2378 1403 2484 
z
M 1172 3481 
Q 1172 3119 1398 2916 
Q 1625 2713 2034 2713 
Q 2441 2713 2670 2916 
Q 2900 3119 2900 3481 
Q 2900 3844 2670 4047 
Q 2441 4250 2034 4250 
Q 1625 4250 1398 4047 
Q 1172 3844 1172 3481 
z
" transform="scale(0.015625)"/>
       </defs>
       <use xlink:href="#DejaVuSans-30"/>
       <use xlink:href="#DejaVuSans-2e" transform="translate(63.623047 0)"/>
       <use xlink:href="#DejaVuSans-38" transform="translate(95.410156 0)"/>
      </g>
     </g>
    </g>
    <g id="xtick_6">
     <g id="line2d_11">
      <path d="M 339.319545 237.04 
L 339.319545 61.44 
" clip-path="url(#p5462674ff7)" style="fill: none; stroke: #b0b0b0; stroke-opacity: 0.3; stroke-width: 0.8; stroke-linecap: square"/>
     </g>
     <g id="line2d_12">
      <g>
       <use xlink:href="#mf9c3f231a8" x="339.319545" y="237.04" style="stroke: #000000; stroke-width: 0.8"/>
      </g>
     </g>
     <g id="text_6">
      <!-- 1.0 -->
      <g transform="translate(328.982514 253.917969) scale(0.13 -0.13)">
       <defs>
        <path id="DejaVuSans-31" d="M 794 531 
L 1825 531 
L 1825 4091 
L 703 3866 
L 703 4441 
L 1819 4666 
L 2450 4666 
L 2450 531 
L 3481 531 
L 3481 0 
L 794 0 
L 794 531 
z
" transform="scale(0.015625)"/>
       </defs>
       <use xlink:href="#DejaVuSans-31"/>
       <use xlink:href="#DejaVuSans-2e" transform="translate(63.623047 0)"/>
       <use xlink:href="#DejaVuSans-30" transform="translate(95.410156 0)"/>
      </g>
     </g>
    </g>
    <g id="text_7">
     <!-- t [s] -->
     <g transform="translate(189.642891 270.499531) scale(0.13 -0.13)">
      <defs>
       <path id="DejaVuSans-74" d="M 1172 4494 
L 1172 3500 
L 2356 3500 
L 2356 3053 
L 1172 3053 
L 1172 1153 
Q 1172 725 1289 603 
Q 1406 481 1766 481 
L 2356 481 
L 2356 0 
L 1766 0 
Q 1100 0 847 248 
Q 594 497 594 1153 
L 594 3053 
L 172 3053 
L 172 3500 
L 594 3500 
L 594 4494 
L 1172 4494 
z
" transform="scale(0.015625)"/>
       <path id="DejaVuSans-20" transform="scale(0.015625)"/>
       <path id="DejaVuSans-5b" d="M 550 4863 
L 1875 4863 
L 1875 4416 
L 1125 4416 
L 1125 -397 
L 1875 -397 
L 1875 -844 
L 550 -844 
L 550 4863 
z
" transform="scale(0.015625)"/>
       <path id="DejaVuSans-73" d="M 2834 3397 
L 2834 2853 
Q 2591 2978 2328 3040 
Q 2066 3103 1784 3103 
Q 1356 3103 1142 2972 
Q 928 2841 928 2578 
Q 928 2378 1081 2264 
Q 1234 2150 1697 2047 
L 1894 2003 
Q 2506 1872 2764 1633 
Q 3022 1394 3022 966 
Q 3022 478 2636 193 
Q 2250 -91 1575 -91 
Q 1294 -91 989 -36 
Q 684 19 347 128 
L 347 722 
Q 666 556 975 473 
Q 1284 391 1588 391 
Q 1994 391 2212 530 
Q 2431 669 2431 922 
Q 2431 1156 2273 1281 
Q 2116 1406 1581 1522 
L 1381 1569 
Q 847 1681 609 1914 
Q 372 2147 372 2553 
Q 372 3047 722 3315 
Q 1072 3584 1716 3584 
Q 2034 3584 2315 3537 
Q 2597 3491 2834 3397 
z
" transform="scale(0.015625)"/>
       <path id="DejaVuSans-5d" d="M 1947 4863 
L 1947 -844 
L 622 -844 
L 622 -397 
L 1369 -397 
L 1369 4416 
L 622 4416 
L 622 4863 
L 1947 4863 
z
" transform="scale(0.015625)"/>
      </defs>
      <use xlink:href="#DejaVuSans-74"/>
      <use xlink:href="#DejaVuSans-20" transform="translate(39.208984 0)"/>
      <use xlink:href="#DejaVuSans-5b" transform="translate(70.996094 0)"/>
      <use xlink:href="#DejaVuSans-73" transform="translate(110.009766 0)"/>
      <use xlink:href="#DejaVuSans-5d" transform="translate(162.109375 0)"/>
     </g>
    </g>
   </g>
   <g id="matplotlib.axis_2">
    <g id="ytick_1">
     <g id="line2d_13">
      <path d="M 52.45 229.058182 
L 352.98 229.058182 
" clip-path="url(#p5462674ff7)" style="fill: none; stroke: #b0b0b0; stroke-opacity: 0.3; stroke-width: 0.8; stroke-linecap: square"/>
     </g>
     <g id="line2d_14">
      <defs>
       <path id="m43b36fd0f2" d="M 0 0 
L -3.5 0 
" style="stroke: #000000; stroke-width: 0.8"/>
      </defs>
      <g>
       <use xlink:href="#m43b36fd0f2" x="52.45" y="229.058182" style="stroke: #000000; stroke-width: 0.8"/>
      </g>
     </g>
     <g id="text_8">
      <!-- −1.0 -->
      <g transform="translate(13.882344 233.997166) scale(0.13 -0.13)">
       <defs>
        <path id="DejaVuSans-2212" d="M 678 2272 
L 4684 2272 
L 4684 1741 
L 678 1741 
L 678 2272 
z
" transform="scale(0.015625)"/>
       </defs>
       <use xlink:href="#DejaVuSans-2212"/>
       <use xlink:href="#DejaVuSans-31" transform="translate(83.789062 0)"/>
       <use xlink:href="#DejaVuSans-2e" transform="translate(147.412109 0)"/>
       <use xlink:href="#DejaVuSans-30" transform="translate(179.199219 0)"/>
      </g>
     </g>
    </g>
    <g id="ytick_2">
     <g id="line2d_15">
      <path d="M 52.45 189.149091 
L 352.98 189.149091 
" clip-path="url(#p5462674ff7)" style="fill: none; stroke: #b0b0b0; stroke-opacity: 0.3; stroke-width: 0.8; stroke-linecap: square"/>
     </g>
     <g id="line2d_16">
      <g>
       <use xlink:href="#m43b36fd0f2" x="52.45" y="189.149091" style="stroke: #000000; stroke-width: 0.8"/>
      </g>
     </g>
     <g id="text_9">
      <!-- −0.5 -->
      <g transform="translate(13.882344 194.088075) scale(0.13 -0.13)">
       <defs>
        <path id="DejaVuSans-35" d="M 691 4666 
L 3169 4666 
L 3169 4134 
L 1269 4134 
L 1269 2991 
Q 1406 3038 1543 3061 
Q 1681 3084 1819 3084 
Q 2600 3084 3056 2656 
Q 3513 2228 3513 1497 
Q 3513 744 3044 326 
Q 2575 -91 1722 -91 
Q 1428 -91 1123 -41 
Q 819 9 494 109 
L 494 744 
Q 775 591 1075 516 
Q 1375 441 1709 441 
Q 2250 441 2565 725 
Q 2881 1009 2881 1497 
Q 2881 1984 2565 2268 
Q 2250 2553 1709 2553 
Q 1456 2553 1204 2497 
Q 953 2441 691 2322 
L 691 4666 
z
" transform="scale(0.015625)"/>
       </defs>
       <use xlink:href="#DejaVuSans-2212"/>
       <use xlink:href="#DejaVuSans-30" transform="translate(83.789062 0)"/>
       <use xlink:href="#DejaVuSans-2e" transform="translate(147.412109 0)"/>
       <use xlink:href="#DejaVuSans-35" transform="translate(179.199219 0)"/>
      </g>
     </g>
    </g>
    <g id="ytick_3">
     <g id="line2d_17">
      <path d="M 52.45 149.24 
L 352.98 149.24 
" clip-path="url(#p5462674ff7)" style="fill: none; stroke: #b0b0b0; stroke-opacity: 0.3; stroke-width: 0.8; stroke-linecap: square"/>
     </g>
     <g id="line2d_18">
      <g>
       <use xlink:href="#m43b36fd0f2" x="52.45" y="149.24" style="stroke: #000000; stroke-width: 0.8"/>
      </g>
     </g>
     <g id="text_10">
      <!-- 0.0 -->
      <g transform="translate(24.775938 154.178984) scale(0.13 -0.13)">
       <use xlink:href="#DejaVuSans-30"/>
       <use xlink:href="#DejaVuSans-2e" transform="translate(63.623047 0)"/>
       <use xlink:href="#DejaVuSans-30" transform="translate(95.410156 0)"/>
      </g>
     </g>
    </g>
    <g id="ytick_4">
     <g id="line2d_19">
      <path d="M 52.45 109.330909 
L 352.98 109.330909 
" clip-path="url(#p5462674ff7)" style="fill: none; stroke: #b0b0b0; stroke-opacity: 0.3; stroke-width: 0.8; stroke-linecap: square"/>
     </g>
     <g id="line2d_20">
      <g>
       <use xlink:href="#m43b36fd0f2" x="52.45" y="109.330909" style="stroke: #000000; stroke-width: 0.8"/>
      </g>
     </g>
     <g id="text_11">
      <!-- 0.5 -->
      <g transform="translate(24.775938 114.269893) scale(0.13 -0.13)">
       <use xlink:href="#DejaVuSans-30"/>
       <use xlink:href="#DejaVuSans-2e" transform="translate(63.623047 0)"/>
       <use xlink:href="#DejaVuSans-35" transform="translate(95.410156 0)"/>
      </g>
     </g>
    </g>
    <g id="ytick_5">
     <g id="line2d_21">
      <path d="M 52.45 69.421818 
L 352.98 69.421818 
" clip-path="url(#p5462674ff7)" style="fill: none; stroke: #b0b0b0; stroke-opacity: 0.3; stroke-width: 0.8; stroke-linecap: square"/>
     </g>
     <g id="line2d_22">
      <g>
       <use xlink:href="#m43b36fd0f2" x="52.45" y="69.421818" style="stroke: #000000; stroke-width: 0.8"/>
      </g>
     </g>
     <g id="text_12">
      <!-- 1.0 -->
      <g transform="translate(24.775938 74.360803) scale(0.13 -0.13)">
       <use xlink:href="#DejaVuSans-31"/>
       <use xlink:href="#DejaVuSans-2e" transform="translate(63.623047 0)"/>
       <use xlink:href="#DejaVuSans-30" transform="translate(95.410156 0)"/>
      </g>
     </g>
    </g>
   </g>
   <g id="line2d_23">
    <path d="M 66.110455 149.24 
L 71.306623 121.23419 
L 74.041449 107.71182 
L 76.22931 97.933862 
L 78.143688 90.328313 
L 79.784583 84.621502 
L 81.425479 79.741998 
L 82.792892 76.353123 
L 84.160304 73.612492 
L 85.254235 71.903303 
L 86.348165 70.634436 
L 87.168613 69.976188 
L 87.98906 69.571847 
L 88.809508 69.422706 
L 89.629956 69.529245 
L 90.450404 69.891121 
L 91.270851 70.507175 
L 92.091299 71.375434 
L 93.185229 72.92051 
L 94.27916 74.900116 
L 95.37309 77.302982 
L 96.740503 80.880708 
L 98.107916 85.066411 
L 99.748811 90.839006 
L 101.663189 98.512984 
L 103.85105 108.356734 
L 106.312393 120.5303 
L 109.594184 137.982337 
L 117.525178 180.739088 
L 119.986522 192.680516 
L 122.174382 202.255904 
L 124.08876 209.652127 
L 125.729656 215.158562 
L 127.097068 219.105246 
L 128.464481 222.430559 
L 129.558412 224.623356 
L 130.652342 226.386953 
L 131.746272 227.711307 
L 132.56672 228.411689 
L 133.387168 228.85846 
L 134.207615 229.05019 
L 135.028063 228.986263 
L 135.848511 228.666885 
L 136.668959 228.093078 
L 137.489406 227.266682 
L 138.583337 225.776593 
L 139.677267 223.850736 
L 140.771197 221.500078 
L 142.13861 217.984992 
L 143.506023 213.858498 
L 145.146918 208.151687 
L 147.061296 200.546138 
L 149.249157 190.76818 
L 151.7105 178.651036 
L 154.992291 161.242645 
L 163.196768 117.050419 
L 165.658111 105.169696 
L 167.845972 95.663544 
L 169.76035 88.338421 
L 171.401245 82.899766 
L 172.768658 79.013729 
L 174.136071 75.752273 
L 175.230001 73.612492 
L 176.323932 71.903303 
L 177.417862 70.634436 
L 178.23831 69.976188 
L 179.058757 69.571847 
L 179.879205 69.422706 
L 180.699653 69.529245 
L 181.520101 69.891121 
L 182.340548 70.507175 
L 183.160996 71.375434 
L 184.254926 72.92051 
L 185.348857 74.900116 
L 186.442787 77.302982 
L 187.8102 80.880708 
L 189.177613 85.066411 
L 190.818508 90.839006 
L 192.732886 98.512984 
L 194.920747 108.356734 
L 197.38209 120.5303 
L 200.663881 137.982337 
L 208.594875 180.739088 
L 211.056218 192.680516 
L 213.244079 202.255904 
L 215.158457 209.652127 
L 216.799353 215.158562 
L 218.166765 219.105246 
L 219.534178 222.430559 
L 220.628109 224.623356 
L 221.722039 226.386953 
L 222.815969 227.711307 
L 223.636417 228.411689 
L 224.456865 228.85846 
L 225.277312 229.05019 
L 226.09776 228.986263 
L 226.918208 228.666885 
L 227.738655 228.093078 
L 228.559103 227.266682 
L 229.653033 225.776593 
L 230.746964 223.850736 
L 231.840894 221.500078 
L 233.208307 217.984992 
L 234.57572 213.858498 
L 236.216615 208.151687 
L 238.130993 200.546138 
L 240.318854 190.76818 
L 242.780197 178.651036 
L 246.061988 161.242645 
L 254.266465 117.050419 
L 256.727808 105.169696 
L 258.915669 95.663544 
L 260.830047 88.338421 
L 262.470942 82.899766 
L 263.838355 79.013729 
L 265.205768 75.752273 
L 266.299698 73.612492 
L 267.393629 71.903303 
L 268.487559 70.634436 
L 269.308007 69.976188 
L 270.128454 69.571847 
L 270.948902 69.422706 
L 271.76935 69.529245 
L 272.589798 69.891121 
L 273.410245 70.507175 
L 274.230693 71.375434 
L 275.324623 72.92051 
L 276.418554 74.900116 
L 277.512484 77.302982 
L 278.879897 80.880708 
L 280.24731 85.066411 
L 281.888205 90.839006 
L 283.802583 98.512984 
L 285.990444 108.356734 
L 288.451787 120.5303 
L 291.733578 137.982337 
L 299.664572 180.739088 
L 302.125915 192.680516 
L 304.313776 202.255904 
L 306.228154 209.652127 
L 307.86905 215.158562 
L 309.236462 219.105246 
L 310.603875 222.430559 
L 311.697806 224.623356 
L 312.791736 226.386953 
L 313.885666 227.711307 
L 314.706114 228.411689 
L 315.526562 228.85846 
L 316.347009 229.05019 
L 317.167457 228.986263 
L 317.987905 228.666885 
L 318.808352 228.093078 
L 319.6288 227.266682 
L 320.72273 225.776593 
L 321.816661 223.850736 
L 322.910591 221.500078 
L 324.278004 217.984992 
L 325.645417 213.858498 
L 327.286312 208.151687 
L 329.20069 200.546138 
L 331.388551 190.76818 
L 333.849894 178.651036 
L 337.131685 161.242645 
L 339.319545 149.24 
L 339.319545 149.24 
" clip-path="url(#p5462674ff7)" style="fill: none; stroke: #0000ff; stroke-opacity: 0.5; stroke-width: 1.5; stroke-linecap: square"/>
   </g>
   <g id="LineCollection_1">
    <path d="M 66.110455 149.24 
L 66.110455 149.24 
" clip-path="url(#p5462674ff7)" style="fill: none; stroke: #ff0000; stroke-width: 1.5"/>
    <path d="M 88.877879 149.24 
L 88.877879 69.421818 
" clip-path="url(#p5462674ff7)" style="fill: none; stroke: #ff0000; stroke-width: 1.5"/>
    <path d="M 111.645303 149.24 
L 111.645303 149.24 
" clip-path="url(#p5462674ff7)" style="fill: none; stroke: #ff0000; stroke-width: 1.5"/>
    <path d="M 134.412727 149.24 
L 134.412727 229.058182 
" clip-path="url(#p5462674ff7)" style="fill: none; stroke: #ff0000; stroke-width: 1.5"/>
    <path d="M 157.180152 149.24 
L 157.180152 149.24 
" clip-path="url(#p5462674ff7)" style="fill: none; stroke: #ff0000; stroke-width: 1.5"/>
    <path d="M 179.947576 149.24 
L 179.947576 69.421818 
" clip-path="url(#p5462674ff7)" style="fill: none; stroke: #ff0000; stroke-width: 1.5"/>
    <path d="M 202.715 149.24 
L 202.715 149.24 
" clip-path="url(#p5462674ff7)" style="fill: none; stroke: #ff0000; stroke-width: 1.5"/>
    <path d="M 225.482424 149.24 
L 225.482424 229.058182 
" clip-path="url(#p5462674ff7)" style="fill: none; stroke: #ff0000; stroke-width: 1.5"/>
    <path d="M 248.249848 149.24 
L 248.249848 149.24 
" clip-path="url(#p5462674ff7)" style="fill: none; stroke: #ff0000; stroke-width: 1.5"/>
    <path d="M 271.017273 149.24 
L 271.017273 69.421818 
" clip-path="url(#p5462674ff7)" style="fill: none; stroke: #ff0000; stroke-width: 1.5"/>
    <path d="M 293.784697 149.24 
L 293.784697 149.24 
" clip-path="url(#p5462674ff7)" style="fill: none; stroke: #ff0000; stroke-width: 1.5"/>
    <path d="M 316.552121 149.24 
L 316.552121 229.058182 
" clip-path="url(#p5462674ff7)" style="fill: none; stroke: #ff0000; stroke-width: 1.5"/>
   </g>
   <g id="line2d_24">
    <defs>
     <path id="m818226ba4e" d="M 0 3 
C 0.795609 3 1.55874 2.683901 2.12132 2.12132 
C 2.683901 1.55874 3 0.795609 3 0 
C 3 -0.795609 2.683901 -1.55874 2.12132 -2.12132 
C 1.55874 -2.683901 0.795609 -3 0 -3 
C -0.795609 -3 -1.55874 -2.683901 -2.12132 -2.12132 
C -2.683901 -1.55874 -3 -0.795609 -3 0 
C -3 0.795609 -2.683901 1.55874 -2.12132 2.12132 
C -1.55874 2.683901 -0.795609 3 0 3 
z
" style="stroke: #ff0000"/>
    </defs>
    <g clip-path="url(#p5462674ff7)">
     <use xlink:href="#m818226ba4e" x="66.110455" y="149.24" style="fill: #ff0000; stroke: #ff0000"/>
     <use xlink:href="#m818226ba4e" x="88.877879" y="69.421818" style="fill: #ff0000; stroke: #ff0000"/>
     <use xlink:href="#m818226ba4e" x="111.645303" y="149.24" style="fill: #ff0000; stroke: #ff0000"/>
     <use xlink:href="#m818226ba4e" x="134.412727" y="229.058182" style="fill: #ff0000; stroke: #ff0000"/>
     <use xlink:href="#m818226ba4e" x="157.180152" y="149.24" style="fill: #ff0000; stroke: #ff0000"/>
     <use xlink:href="#m818226ba4e" x="179.947576" y="69.421818" style="fill: #ff0000; stroke: #ff0000"/>
     <use xlink:href="#m818226ba4e" x="202.715" y="149.24" style="fill: #ff0000; stroke: #ff0000"/>
     <use xlink:href="#m818226ba4e" x="225.482424" y="229.058182" style="fill: #ff0000; stroke: #ff0000"/>
     <use xlink:href="#m818226ba4e" x="248.249848" y="149.24" style="fill: #ff0000; stroke: #ff0000"/>
     <use xlink:href="#m818226ba4e" x="271.017273" y="69.421818" style="fill: #ff0000; stroke: #ff0000"/>
     <use xlink:href="#m818226ba4e" x="293.784697" y="149.24" style="fill: #ff0000; stroke: #ff0000"/>
     <use xlink:href="#m818226ba4e" x="316.552121" y="229.058182" style="fill: #ff0000; stroke: #ff0000"/>
    </g>
   </g>
   <g id="line2d_25">
    <path d="M 66.110455 149.24 
L 316.552121 149.24 
" clip-path="url(#p5462674ff7)" style="fill: none; stroke: #000000; stroke-width: 1.5; stroke-linecap: square"/>
   </g>
   <g id="patch_3">
    <path d="M 52.45 237.04 
L 52.45 61.44 
" style="fill: none; stroke: #000000; stroke-width: 0.8; stroke-linejoin: miter; stroke-linecap: square"/>
   </g>
   <g id="patch_4">
    <path d="M 352.98 237.04 
L 352.98 61.44 
" style="fill: none; stroke: #000000; stroke-width: 0.8; stroke-linejoin: miter; stroke-linecap: square"/>
   </g>
   <g id="patch_5">
    <path d="M 52.45 237.04 
L 352.98 237.04 
" style="fill: none; stroke: #000000; stroke-width: 0.8; stroke-linejoin: miter; stroke-linecap: square"/>
   </g>
   <g id="patch_6">
    <path d="M 52.45 61.44 
L 352.98 61.44 
" style="fill: none; stroke: #000000; stroke-width: 0.8; stroke-linejoin: miter; stroke-linecap: square"/>
   </g>
   <g id="text_13">
    <!-- Dobre próbkowanie ($f_s=12$ &gt; $2f=6$) -->
    <g transform="translate(73.425 55.44) scale(0.14 -0.14)">
     <defs>
      <path id="DejaVuSans-44" d="M 1259 4147 
L 1259 519 
L 2022 519 
Q 2988 519 3436 956 
Q 3884 1394 3884 2338 
Q 3884 3275 3436 3711 
Q 2988 4147 2022 4147 
L 1259 4147 
z
M 628 4666 
L 1925 4666 
Q 3281 4666 3915 4102 
Q 4550 3538 4550 2338 
Q 4550 1131 3912 565 
Q 3275 0 1925 0 
L 628 0 
L 628 4666 
z
" transform="scale(0.015625)"/>
      <path id="DejaVuSans-6f" d="M 1959 3097 
Q 1497 3097 1228 2736 
Q 959 2375 959 1747 
Q 959 1119 1226 758 
Q 1494 397 1959 397 
Q 2419 397 2687 759 
Q 2956 1122 2956 1747 
Q 2956 2369 2687 2733 
Q 2419 3097 1959 3097 
z
M 1959 3584 
Q 2709 3584 3137 3096 
Q 3566 2609 3566 1747 
Q 3566 888 3137 398 
Q 2709 -91 1959 -91 
Q 1206 -91 779 398 
Q 353 888 353 1747 
Q 353 2609 779 3096 
Q 1206 3584 1959 3584 
z
" transform="scale(0.015625)"/>
      <path id="DejaVuSans-62" d="M 3116 1747 
Q 3116 2381 2855 2742 
Q 2594 3103 2138 3103 
Q 1681 3103 1420 2742 
Q 1159 2381 1159 1747 
Q 1159 1113 1420 752 
Q 1681 391 2138 391 
Q 2594 391 2855 752 
Q 3116 1113 3116 1747 
z
M 1159 2969 
Q 1341 3281 1617 3432 
Q 1894 3584 2278 3584 
Q 2916 3584 3314 3078 
Q 3713 2572 3713 1747 
Q 3713 922 3314 415 
Q 2916 -91 2278 -91 
Q 1894 -91 1617 61 
Q 1341 213 1159 525 
L 1159 0 
L 581 0 
L 581 4863 
L 1159 4863 
L 1159 2969 
z
" transform="scale(0.015625)"/>
      <path id="DejaVuSans-72" d="M 2631 2963 
Q 2534 3019 2420 3045 
Q 2306 3072 2169 3072 
Q 1681 3072 1420 2755 
Q 1159 2438 1159 1844 
L 1159 0 
L 581 0 
L 581 3500 
L 1159 3500 
L 1159 2956 
Q 1341 3275 1631 3429 
Q 1922 3584 2338 3584 
Q 2397 3584 2469 3576 
Q 2541 3569 2628 3553 
L 2631 2963 
z
" transform="scale(0.015625)"/>
      <path id="DejaVuSans-65" d="M 3597 1894 
L 3597 1613 
L 953 1613 
Q 991 1019 1311 708 
Q 1631 397 2203 397 
Q 2534 397 2845 478 
Q 3156 559 3463 722 
L 3463 178 
Q 3153 47 2828 -22 
Q 2503 -91 2169 -91 
Q 1331 -91 842 396 
Q 353 884 353 1716 
Q 353 2575 817 3079 
Q 1281 3584 2069 3584 
Q 2775 3584 3186 3129 
Q 3597 2675 3597 1894 
z
M 3022 2063 
Q 3016 2534 2758 2815 
Q 2500 3097 2075 3097 
Q 1594 3097 1305 2825 
Q 1016 2553 972 2059 
L 3022 2063 
z
" transform="scale(0.015625)"/>
      <path id="DejaVuSans-70" d="M 1159 525 
L 1159 -1331 
L 581 -1331 
L 581 3500 
L 1159 3500 
L 1159 2969 
Q 1341 3281 1617 3432 
Q 1894 3584 2278 3584 
Q 2916 3584 3314 3078 
Q 3713 2572 3713 1747 
Q 3713 922 3314 415 
Q 2916 -91 2278 -91 
Q 1894 -91 1617 61 
Q 1341 213 1159 525 
z
M 3116 1747 
Q 3116 2381 2855 2742 
Q 2594 3103 2138 3103 
Q 1681 3103 1420 2742 
Q 1159 2381 1159 1747 
Q 1159 1113 1420 752 
Q 1681 391 2138 391 
Q 2594 391 2855 752 
Q 3116 1113 3116 1747 
z
" transform="scale(0.015625)"/>
      <path id="DejaVuSans-f3" d="M 1959 3097 
Q 1497 3097 1228 2736 
Q 959 2375 959 1747 
Q 959 1119 1226 758 
Q 1494 397 1959 397 
Q 2419 397 2687 759 
Q 2956 1122 2956 1747 
Q 2956 2369 2687 2733 
Q 2419 3097 1959 3097 
z
M 1959 3584 
Q 2709 3584 3137 3096 
Q 3566 2609 3566 1747 
Q 3566 888 3137 398 
Q 2709 -91 1959 -91 
Q 1206 -91 779 398 
Q 353 888 353 1747 
Q 353 2609 779 3096 
Q 1206 3584 1959 3584 
z
M 2394 5119 
L 3016 5119 
L 1998 3944 
L 1519 3944 
L 2394 5119 
z
" transform="scale(0.015625)"/>
      <path id="DejaVuSans-6b" d="M 581 4863 
L 1159 4863 
L 1159 1991 
L 2875 3500 
L 3609 3500 
L 1753 1863 
L 3688 0 
L 2938 0 
L 1159 1709 
L 1159 0 
L 581 0 
L 581 4863 
z
" transform="scale(0.015625)"/>
      <path id="DejaVuSans-77" d="M 269 3500 
L 844 3500 
L 1563 769 
L 2278 3500 
L 2956 3500 
L 3675 769 
L 4391 3500 
L 4966 3500 
L 4050 0 
L 3372 0 
L 2619 2869 
L 1863 0 
L 1184 0 
L 269 3500 
z
" transform="scale(0.015625)"/>
      <path id="DejaVuSans-61" d="M 2194 1759 
Q 1497 1759 1228 1600 
Q 959 1441 959 1056 
Q 959 750 1161 570 
Q 1363 391 1709 391 
Q 2188 391 2477 730 
Q 2766 1069 2766 1631 
L 2766 1759 
L 2194 1759 
z
M 3341 1997 
L 3341 0 
L 2766 0 
L 2766 531 
Q 2569 213 2275 61 
Q 1981 -91 1556 -91 
Q 1019 -91 701 211 
Q 384 513 384 1019 
Q 384 1609 779 1909 
Q 1175 2209 1959 2209 
L 2766 2209 
L 2766 2266 
Q 2766 2663 2505 2880 
Q 2244 3097 1772 3097 
Q 1472 3097 1187 3025 
Q 903 2953 641 2809 
L 641 3341 
Q 956 3463 1253 3523 
Q 1550 3584 1831 3584 
Q 2591 3584 2966 3190 
Q 3341 2797 3341 1997 
z
" transform="scale(0.015625)"/>
      <path id="DejaVuSans-6e" d="M 3513 2113 
L 3513 0 
L 2938 0 
L 2938 2094 
Q 2938 2591 2744 2837 
Q 2550 3084 2163 3084 
Q 1697 3084 1428 2787 
Q 1159 2491 1159 1978 
L 1159 0 
L 581 0 
L 581 3500 
L 1159 3500 
L 1159 2956 
Q 1366 3272 1645 3428 
Q 1925 3584 2291 3584 
Q 2894 3584 3203 3211 
Q 3513 2838 3513 2113 
z
" transform="scale(0.015625)"/>
      <path id="DejaVuSans-69" d="M 603 3500 
L 1178 3500 
L 1178 0 
L 603 0 
L 603 3500 
z
M 603 4863 
L 1178 4863 
L 1178 4134 
L 603 4134 
L 603 4863 
z
" transform="scale(0.015625)"/>
      <path id="DejaVuSans-28" d="M 1984 4856 
Q 1566 4138 1362 3434 
Q 1159 2731 1159 2009 
Q 1159 1288 1364 580 
Q 1569 -128 1984 -844 
L 1484 -844 
Q 1016 -109 783 600 
Q 550 1309 550 2009 
Q 550 2706 781 3412 
Q 1013 4119 1484 4856 
L 1984 4856 
z
" transform="scale(0.015625)"/>
      <path id="DejaVuSans-Oblique-66" d="M 3059 4863 
L 2969 4384 
L 2419 4384 
Q 2106 4384 1964 4261 
Q 1822 4138 1753 3809 
L 1691 3500 
L 2638 3500 
L 2553 3053 
L 1606 3053 
L 1013 0 
L 434 0 
L 1031 3053 
L 481 3053 
L 563 3500 
L 1113 3500 
L 1159 3744 
Q 1278 4363 1576 4613 
Q 1875 4863 2516 4863 
L 3059 4863 
z
" transform="scale(0.015625)"/>
      <path id="DejaVuSans-Oblique-73" d="M 3200 3397 
L 3091 2853 
Q 2863 2978 2609 3040 
Q 2356 3103 2088 3103 
Q 1634 3103 1373 2948 
Q 1113 2794 1113 2528 
Q 1113 2219 1719 2053 
Q 1766 2041 1788 2034 
L 1972 1978 
Q 2547 1819 2739 1644 
Q 2931 1469 2931 1166 
Q 2931 609 2489 259 
Q 2047 -91 1331 -91 
Q 1053 -91 747 -37 
Q 441 16 72 128 
L 184 722 
Q 500 559 806 475 
Q 1113 391 1394 391 
Q 1816 391 2080 572 
Q 2344 753 2344 1031 
Q 2344 1331 1650 1516 
L 1591 1531 
L 1394 1581 
Q 956 1697 753 1886 
Q 550 2075 550 2369 
Q 550 2928 970 3256 
Q 1391 3584 2113 3584 
Q 2397 3584 2667 3537 
Q 2938 3491 3200 3397 
z
" transform="scale(0.015625)"/>
      <path id="DejaVuSans-3d" d="M 678 2906 
L 4684 2906 
L 4684 2381 
L 678 2381 
L 678 2906 
z
M 678 1631 
L 4684 1631 
L 4684 1100 
L 678 1100 
L 678 1631 
z
" transform="scale(0.015625)"/>
      <path id="DejaVuSans-3e" d="M 678 3150 
L 678 3719 
L 4684 2266 
L 4684 1747 
L 678 294 
L 678 863 
L 3897 2003 
L 678 3150 
z
" transform="scale(0.015625)"/>
      <path id="DejaVuSans-29" d="M 513 4856 
L 1013 4856 
Q 1481 4119 1714 3412 
Q 1947 2706 1947 2009 
Q 1947 1309 1714 600 
Q 1481 -109 1013 -844 
L 513 -844 
Q 928 -128 1133 580 
Q 1338 1288 1338 2009 
Q 1338 2731 1133 3434 
Q 928 4138 513 4856 
z
" transform="scale(0.015625)"/>
     </defs>
     <use xlink:href="#DejaVuSans-44" transform="translate(0 0.015625)"/>
     <use xlink:href="#DejaVuSans-6f" transform="translate(77.001953 0.015625)"/>
     <use xlink:href="#DejaVuSans-62" transform="translate(138.183594 0.015625)"/>
     <use xlink:href="#DejaVuSans-72" transform="translate(201.660156 0.015625)"/>
     <use xlink:href="#DejaVuSans-65" transform="translate(242.773438 0.015625)"/>
     <use xlink:href="#DejaVuSans-20" transform="translate(304.296875 0.015625)"/>
     <use xlink:href="#DejaVuSans-70" transform="translate(336.083984 0.015625)"/>
     <use xlink:href="#DejaVuSans-72" transform="translate(399.560547 0.015625)"/>
     <use xlink:href="#DejaVuSans-f3" transform="translate(440.673828 0.015625)"/>
     <use xlink:href="#DejaVuSans-62" transform="translate(501.855469 0.015625)"/>
     <use xlink:href="#DejaVuSans-6b" transform="translate(565.332031 0.015625)"/>
     <use xlink:href="#DejaVuSans-6f" transform="translate(623.242188 0.015625)"/>
     <use xlink:href="#DejaVuSans-77" transform="translate(684.423828 0.015625)"/>
     <use xlink:href="#DejaVuSans-61" transform="translate(766.210938 0.015625)"/>
     <use xlink:href="#DejaVuSans-6e" transform="translate(827.490234 0.015625)"/>
     <use xlink:href="#DejaVuSans-69" transform="translate(890.869141 0.015625)"/>
     <use xlink:href="#DejaVuSans-65" transform="translate(918.652344 0.015625)"/>
     <use xlink:href="#DejaVuSans-20" transform="translate(980.175781 0.015625)"/>
     <use xlink:href="#DejaVuSans-28" transform="translate(1011.962891 0.015625)"/>
     <use xlink:href="#DejaVuSans-Oblique-66" transform="translate(1050.976562 0.015625)"/>
     <use xlink:href="#DejaVuSans-Oblique-73" transform="translate(1086.181641 -16.390625) scale(0.7)"/>
     <use xlink:href="#DejaVuSans-3d" transform="translate(1144.868164 0.015625)"/>
     <use xlink:href="#DejaVuSans-31" transform="translate(1248.139648 0.015625)"/>
     <use xlink:href="#DejaVuSans-32" transform="translate(1311.762695 0.015625)"/>
     <use xlink:href="#DejaVuSans-20" transform="translate(1375.385742 0.015625)"/>
     <use xlink:href="#DejaVuSans-3e" transform="translate(1407.172852 0.015625)"/>
     <use xlink:href="#DejaVuSans-20" transform="translate(1490.961914 0.015625)"/>
     <use xlink:href="#DejaVuSans-32" transform="translate(1522.749023 0.015625)"/>
     <use xlink:href="#DejaVuSans-Oblique-66" transform="translate(1586.37207 0.015625)"/>
     <use xlink:href="#DejaVuSans-3d" transform="translate(1641.05957 0.015625)"/>
     <use xlink:href="#DejaVuSans-36" transform="translate(1744.331055 0.015625)"/>
     <use xlink:href="#DejaVuSans-29" transform="translate(1807.954102 0.015625)"/>
    </g>
   </g>
   <g id="legend_1">
    <g id="patch_7">
     <path d="M 244.43 110.003125 
L 343.88 110.003125 
Q 346.48 110.003125 346.48 107.403125 
L 346.48 70.54 
Q 346.48 67.94 343.88 67.94 
L 244.43 67.94 
Q 241.83 67.94 241.83 70.54 
L 241.83 107.403125 
Q 241.83 110.003125 244.43 110.003125 
z
" style="fill: #ffffff; opacity: 0.8; stroke: #cccccc; stroke-linejoin: miter"/>
    </g>
    <g id="line2d_26">
     <path d="M 247.03 78.467969 
L 260.03 78.467969 
L 273.03 78.467969 
" style="fill: none; stroke: #0000ff; stroke-opacity: 0.5; stroke-width: 1.5; stroke-linecap: square"/>
    </g>
    <g id="text_14">
     <!-- ciągły -->
     <g transform="translate(283.43 83.017969) scale(0.13 -0.13)">
      <defs>
       <path id="DejaVuSans-63" d="M 3122 3366 
L 3122 2828 
Q 2878 2963 2633 3030 
Q 2388 3097 2138 3097 
Q 1578 3097 1268 2742 
Q 959 2388 959 1747 
Q 959 1106 1268 751 
Q 1578 397 2138 397 
Q 2388 397 2633 464 
Q 2878 531 3122 666 
L 3122 134 
Q 2881 22 2623 -34 
Q 2366 -91 2075 -91 
Q 1284 -91 818 406 
Q 353 903 353 1747 
Q 353 2603 823 3093 
Q 1294 3584 2113 3584 
Q 2378 3584 2631 3529 
Q 2884 3475 3122 3366 
z
" transform="scale(0.015625)"/>
       <path id="DejaVuSans-105" d="M 2194 1759 
Q 1497 1759 1228 1600 
Q 959 1441 959 1056 
Q 959 750 1161 570 
Q 1363 391 1709 391 
Q 2188 391 2477 730 
Q 2766 1069 2766 1631 
L 2766 1759 
L 2194 1759 
z
M 3341 1997 
L 3341 0 
L 2766 0 
L 2766 531 
Q 2569 213 2275 61 
Q 1981 -91 1556 -91 
Q 1019 -91 701 211 
Q 384 513 384 1019 
Q 384 1609 779 1909 
Q 1175 2209 1959 2209 
L 2766 2209 
L 2766 2266 
Q 2766 2663 2505 2880 
Q 2244 3097 1772 3097 
Q 1472 3097 1187 3025 
Q 903 2953 641 2809 
L 641 3341 
Q 956 3463 1253 3523 
Q 1550 3584 1831 3584 
Q 2591 3584 2966 3190 
Q 3341 2797 3341 1997 
z
M 2775 0 
L 3147 0 
Q 3006 -191 2939 -328 
Q 2872 -466 2872 -563 
Q 2872 -706 2958 -778 
Q 3044 -850 3213 -850 
Q 3313 -850 3409 -826 
Q 3506 -803 3603 -756 
L 3603 -1172 
Q 3484 -1203 3378 -1218 
Q 3272 -1234 3178 -1234 
Q 2797 -1234 2617 -1098 
Q 2438 -963 2438 -672 
Q 2438 -522 2520 -358 
Q 2603 -194 2775 0 
z
" transform="scale(0.015625)"/>
       <path id="DejaVuSans-67" d="M 2906 1791 
Q 2906 2416 2648 2759 
Q 2391 3103 1925 3103 
Q 1463 3103 1205 2759 
Q 947 2416 947 1791 
Q 947 1169 1205 825 
Q 1463 481 1925 481 
Q 2391 481 2648 825 
Q 2906 1169 2906 1791 
z
M 3481 434 
Q 3481 -459 3084 -895 
Q 2688 -1331 1869 -1331 
Q 1566 -1331 1297 -1286 
Q 1028 -1241 775 -1147 
L 775 -588 
Q 1028 -725 1275 -790 
Q 1522 -856 1778 -856 
Q 2344 -856 2625 -561 
Q 2906 -266 2906 331 
L 2906 616 
Q 2728 306 2450 153 
Q 2172 0 1784 0 
Q 1141 0 747 490 
Q 353 981 353 1791 
Q 353 2603 747 3093 
Q 1141 3584 1784 3584 
Q 2172 3584 2450 3431 
Q 2728 3278 2906 2969 
L 2906 3500 
L 3481 3500 
L 3481 434 
z
" transform="scale(0.015625)"/>
       <path id="DejaVuSans-142" d="M 622 4863 
L 1197 4863 
L 1197 2981 
L 1588 3263 
L 1825 2931 
L 1197 2491 
L 1197 0 
L 622 0 
L 622 2081 
L 238 1806 
L 6 2138 
L 622 2578 
L 622 4863 
z
" transform="scale(0.015625)"/>
       <path id="DejaVuSans-79" d="M 2059 -325 
Q 1816 -950 1584 -1140 
Q 1353 -1331 966 -1331 
L 506 -1331 
L 506 -850 
L 844 -850 
Q 1081 -850 1212 -737 
Q 1344 -625 1503 -206 
L 1606 56 
L 191 3500 
L 800 3500 
L 1894 763 
L 2988 3500 
L 3597 3500 
L 2059 -325 
z
" transform="scale(0.015625)"/>
      </defs>
      <use xlink:href="#DejaVuSans-63"/>
      <use xlink:href="#DejaVuSans-69" transform="translate(54.980469 0)"/>
      <use xlink:href="#DejaVuSans-105" transform="translate(82.763672 0)"/>
      <use xlink:href="#DejaVuSans-67" transform="translate(144.042969 0)"/>
      <use xlink:href="#DejaVuSans-142" transform="translate(207.519531 0)"/>
      <use xlink:href="#DejaVuSans-79" transform="translate(235.9375 0)"/>
     </g>
    </g>
    <g id="line2d_27">
     <path d="M 260.03 102.099531 
L 260.03 95.843281 
" style="fill: none; stroke: #ff0000; stroke-width: 1.5"/>
    </g>
    <g id="line2d_28">
     <path d="M 247.03 102.099531 
L 273.03 102.099531 
" style="fill: none; stroke: #000000; stroke-width: 1.5; stroke-linecap: square"/>
    </g>
    <g id="line2d_29">
     <g>
      <use xlink:href="#m818226ba4e" x="260.03" y="95.843281" style="fill: #ff0000; stroke: #ff0000"/>
     </g>
    </g>
    <g id="text_15">
     <!-- $f_s$=12 Hz -->
     <g transform="translate(283.43 102.099531) scale(0.13 -0.13)">
      <defs>
       <path id="DejaVuSans-48" d="M 628 4666 
L 1259 4666 
L 1259 2753 
L 3553 2753 
L 3553 4666 
L 4184 4666 
L 4184 0 
L 3553 0 
L 3553 2222 
L 1259 2222 
L 1259 0 
L 628 0 
L 628 4666 
z
" transform="scale(0.015625)"/>
       <path id="DejaVuSans-7a" d="M 353 3500 
L 3084 3500 
L 3084 2975 
L 922 459 
L 3084 459 
L 3084 0 
L 275 0 
L 275 525 
L 2438 3041 
L 353 3041 
L 353 3500 
z
" transform="scale(0.015625)"/>
      </defs>
      <use xlink:href="#DejaVuSans-Oblique-66" transform="translate(0 0.015625)"/>
      <use xlink:href="#DejaVuSans-Oblique-73" transform="translate(35.205078 -16.390625) scale(0.7)"/>
      <use xlink:href="#DejaVuSans-3d" transform="translate(74.40918 0.015625)"/>
      <use xlink:href="#DejaVuSans-31" transform="translate(158.198242 0.015625)"/>
      <use xlink:href="#DejaVuSans-32" transform="translate(221.821289 0.015625)"/>
      <use xlink:href="#DejaVuSans-20" transform="translate(285.444336 0.015625)"/>
      <use xlink:href="#DejaVuSans-48" transform="translate(317.231445 0.015625)"/>
      <use xlink:href="#DejaVuSans-7a" transform="translate(392.426758 0.015625)"/>
     </g>
    </g>
   </g>
  </g>
  <g id="axes_2">
   <g id="patch_8">
    <path d="M 405.43 237.04 
L 705.96 237.04 
L 705.96 61.44 
L 405.43 61.44 
z
" style="fill: #ffffff"/>
   </g>
   <g id="matplotlib.axis_3">
    <g id="xtick_7">
     <g id="line2d_30">
      <path d="M 419.090455 237.04 
L 419.090455 61.44 
" clip-path="url(#pd70e1b2c05)" style="fill: none; stroke: #b0b0b0; stroke-opacity: 0.3; stroke-width: 0.8; stroke-linecap: square"/>
     </g>
     <g id="line2d_31">
      <g>
       <use xlink:href="#mf9c3f231a8" x="419.090455" y="237.04" style="stroke: #000000; stroke-width: 0.8"/>
      </g>
     </g>
     <g id="text_16">
      <!-- 0.0 -->
      <g transform="translate(408.753423 253.917969) scale(0.13 -0.13)">
       <use xlink:href="#DejaVuSans-30"/>
       <use xlink:href="#DejaVuSans-2e" transform="translate(63.623047 0)"/>
       <use xlink:href="#DejaVuSans-30" transform="translate(95.410156 0)"/>
      </g>
     </g>
    </g>
    <g id="xtick_8">
     <g id="line2d_32">
      <path d="M 473.732273 237.04 
L 473.732273 61.44 
" clip-path="url(#pd70e1b2c05)" style="fill: none; stroke: #b0b0b0; stroke-opacity: 0.3; stroke-width: 0.8; stroke-linecap: square"/>
     </g>
     <g id="line2d_33">
      <g>
       <use xlink:href="#mf9c3f231a8" x="473.732273" y="237.04" style="stroke: #000000; stroke-width: 0.8"/>
      </g>
     </g>
     <g id="text_17">
      <!-- 0.2 -->
      <g transform="translate(463.395241 253.917969) scale(0.13 -0.13)">
       <use xlink:href="#DejaVuSans-30"/>
       <use xlink:href="#DejaVuSans-2e" transform="translate(63.623047 0)"/>
       <use xlink:href="#DejaVuSans-32" transform="translate(95.410156 0)"/>
      </g>
     </g>
    </g>
    <g id="xtick_9">
     <g id="line2d_34">
      <path d="M 528.374091 237.04 
L 528.374091 61.44 
" clip-path="url(#pd70e1b2c05)" style="fill: none; stroke: #b0b0b0; stroke-opacity: 0.3; stroke-width: 0.8; stroke-linecap: square"/>
     </g>
     <g id="line2d_35">
      <g>
       <use xlink:href="#mf9c3f231a8" x="528.374091" y="237.04" style="stroke: #000000; stroke-width: 0.8"/>
      </g>
     </g>
     <g id="text_18">
      <!-- 0.4 -->
      <g transform="translate(518.03706 253.917969) scale(0.13 -0.13)">
       <use xlink:href="#DejaVuSans-30"/>
       <use xlink:href="#DejaVuSans-2e" transform="translate(63.623047 0)"/>
       <use xlink:href="#DejaVuSans-34" transform="translate(95.410156 0)"/>
      </g>
     </g>
    </g>
    <g id="xtick_10">
     <g id="line2d_36">
      <path d="M 583.015909 237.04 
L 583.015909 61.44 
" clip-path="url(#pd70e1b2c05)" style="fill: none; stroke: #b0b0b0; stroke-opacity: 0.3; stroke-width: 0.8; stroke-linecap: square"/>
     </g>
     <g id="line2d_37">
      <g>
       <use xlink:href="#mf9c3f231a8" x="583.015909" y="237.04" style="stroke: #000000; stroke-width: 0.8"/>
      </g>
     </g>
     <g id="text_19">
      <!-- 0.6 -->
      <g transform="translate(572.678878 253.917969) scale(0.13 -0.13)">
       <use xlink:href="#DejaVuSans-30"/>
       <use xlink:href="#DejaVuSans-2e" transform="translate(63.623047 0)"/>
       <use xlink:href="#DejaVuSans-36" transform="translate(95.410156 0)"/>
      </g>
     </g>
    </g>
    <g id="xtick_11">
     <g id="line2d_38">
      <path d="M 637.657727 237.04 
L 637.657727 61.44 
" clip-path="url(#pd70e1b2c05)" style="fill: none; stroke: #b0b0b0; stroke-opacity: 0.3; stroke-width: 0.8; stroke-linecap: square"/>
     </g>
     <g id="line2d_39">
      <g>
       <use xlink:href="#mf9c3f231a8" x="637.657727" y="237.04" style="stroke: #000000; stroke-width: 0.8"/>
      </g>
     </g>
     <g id="text_20">
      <!-- 0.8 -->
      <g transform="translate(627.320696 253.917969) scale(0.13 -0.13)">
       <use xlink:href="#DejaVuSans-30"/>
       <use xlink:href="#DejaVuSans-2e" transform="translate(63.623047 0)"/>
       <use xlink:href="#DejaVuSans-38" transform="translate(95.410156 0)"/>
      </g>
     </g>
    </g>
    <g id="xtick_12">
     <g id="line2d_40">
      <path d="M 692.299545 237.04 
L 692.299545 61.44 
" clip-path="url(#pd70e1b2c05)" style="fill: none; stroke: #b0b0b0; stroke-opacity: 0.3; stroke-width: 0.8; stroke-linecap: square"/>
     </g>
     <g id="line2d_41">
      <g>
       <use xlink:href="#mf9c3f231a8" x="692.299545" y="237.04" style="stroke: #000000; stroke-width: 0.8"/>
      </g>
     </g>
     <g id="text_21">
      <!-- 1.0 -->
      <g transform="translate(681.962514 253.917969) scale(0.13 -0.13)">
       <use xlink:href="#DejaVuSans-31"/>
       <use xlink:href="#DejaVuSans-2e" transform="translate(63.623047 0)"/>
       <use xlink:href="#DejaVuSans-30" transform="translate(95.410156 0)"/>
      </g>
     </g>
    </g>
    <g id="text_22">
     <!-- t [s] -->
     <g transform="translate(542.622891 270.499531) scale(0.13 -0.13)">
      <use xlink:href="#DejaVuSans-74"/>
      <use xlink:href="#DejaVuSans-20" transform="translate(39.208984 0)"/>
      <use xlink:href="#DejaVuSans-5b" transform="translate(70.996094 0)"/>
      <use xlink:href="#DejaVuSans-73" transform="translate(110.009766 0)"/>
      <use xlink:href="#DejaVuSans-5d" transform="translate(162.109375 0)"/>
     </g>
    </g>
   </g>
   <g id="matplotlib.axis_4">
    <g id="ytick_6">
     <g id="line2d_42">
      <path d="M 405.43 229.058182 
L 705.96 229.058182 
" clip-path="url(#pd70e1b2c05)" style="fill: none; stroke: #b0b0b0; stroke-opacity: 0.3; stroke-width: 0.8; stroke-linecap: square"/>
     </g>
     <g id="line2d_43">
      <g>
       <use xlink:href="#m43b36fd0f2" x="405.43" y="229.058182" style="stroke: #000000; stroke-width: 0.8"/>
      </g>
     </g>
     <g id="text_23">
      <!-- −1.0 -->
      <g transform="translate(366.862344 233.997166) scale(0.13 -0.13)">
       <use xlink:href="#DejaVuSans-2212"/>
       <use xlink:href="#DejaVuSans-31" transform="translate(83.789062 0)"/>
       <use xlink:href="#DejaVuSans-2e" transform="translate(147.412109 0)"/>
       <use xlink:href="#DejaVuSans-30" transform="translate(179.199219 0)"/>
      </g>
     </g>
    </g>
    <g id="ytick_7">
     <g id="line2d_44">
      <path d="M 405.43 189.149091 
L 705.96 189.149091 
" clip-path="url(#pd70e1b2c05)" style="fill: none; stroke: #b0b0b0; stroke-opacity: 0.3; stroke-width: 0.8; stroke-linecap: square"/>
     </g>
     <g id="line2d_45">
      <g>
       <use xlink:href="#m43b36fd0f2" x="405.43" y="189.149091" style="stroke: #000000; stroke-width: 0.8"/>
      </g>
     </g>
     <g id="text_24">
      <!-- −0.5 -->
      <g transform="translate(366.862344 194.088075) scale(0.13 -0.13)">
       <use xlink:href="#DejaVuSans-2212"/>
       <use xlink:href="#DejaVuSans-30" transform="translate(83.789062 0)"/>
       <use xlink:href="#DejaVuSans-2e" transform="translate(147.412109 0)"/>
       <use xlink:href="#DejaVuSans-35" transform="translate(179.199219 0)"/>
      </g>
     </g>
    </g>
    <g id="ytick_8">
     <g id="line2d_46">
      <path d="M 405.43 149.24 
L 705.96 149.24 
" clip-path="url(#pd70e1b2c05)" style="fill: none; stroke: #b0b0b0; stroke-opacity: 0.3; stroke-width: 0.8; stroke-linecap: square"/>
     </g>
     <g id="line2d_47">
      <g>
       <use xlink:href="#m43b36fd0f2" x="405.43" y="149.24" style="stroke: #000000; stroke-width: 0.8"/>
      </g>
     </g>
     <g id="text_25">
      <!-- 0.0 -->
      <g transform="translate(377.755938 154.178984) scale(0.13 -0.13)">
       <use xlink:href="#DejaVuSans-30"/>
       <use xlink:href="#DejaVuSans-2e" transform="translate(63.623047 0)"/>
       <use xlink:href="#DejaVuSans-30" transform="translate(95.410156 0)"/>
      </g>
     </g>
    </g>
    <g id="ytick_9">
     <g id="line2d_48">
      <path d="M 405.43 109.330909 
L 705.96 109.330909 
" clip-path="url(#pd70e1b2c05)" style="fill: none; stroke: #b0b0b0; stroke-opacity: 0.3; stroke-width: 0.8; stroke-linecap: square"/>
     </g>
     <g id="line2d_49">
      <g>
       <use xlink:href="#m43b36fd0f2" x="405.43" y="109.330909" style="stroke: #000000; stroke-width: 0.8"/>
      </g>
     </g>
     <g id="text_26">
      <!-- 0.5 -->
      <g transform="translate(377.755938 114.269893) scale(0.13 -0.13)">
       <use xlink:href="#DejaVuSans-30"/>
       <use xlink:href="#DejaVuSans-2e" transform="translate(63.623047 0)"/>
       <use xlink:href="#DejaVuSans-35" transform="translate(95.410156 0)"/>
      </g>
     </g>
    </g>
    <g id="ytick_10">
     <g id="line2d_50">
      <path d="M 405.43 69.421818 
L 705.96 69.421818 
" clip-path="url(#pd70e1b2c05)" style="fill: none; stroke: #b0b0b0; stroke-opacity: 0.3; stroke-width: 0.8; stroke-linecap: square"/>
     </g>
     <g id="line2d_51">
      <g>
       <use xlink:href="#m43b36fd0f2" x="405.43" y="69.421818" style="stroke: #000000; stroke-width: 0.8"/>
      </g>
     </g>
     <g id="text_27">
      <!-- 1.0 -->
      <g transform="translate(377.755938 74.360803) scale(0.13 -0.13)">
       <use xlink:href="#DejaVuSans-31"/>
       <use xlink:href="#DejaVuSans-2e" transform="translate(63.623047 0)"/>
       <use xlink:href="#DejaVuSans-30" transform="translate(95.410156 0)"/>
      </g>
     </g>
    </g>
   </g>
   <g id="line2d_52">
    <path d="M 419.090455 149.24 
L 424.286623 121.23419 
L 427.021449 107.71182 
L 429.20931 97.933862 
L 431.123688 90.328313 
L 432.764583 84.621502 
L 434.405479 79.741998 
L 435.772892 76.353123 
L 437.140304 73.612492 
L 438.234235 71.903303 
L 439.328165 70.634436 
L 440.148613 69.976188 
L 440.96906 69.571847 
L 441.789508 69.422706 
L 442.609956 69.529245 
L 443.430404 69.891121 
L 444.250851 70.507175 
L 445.071299 71.375434 
L 446.165229 72.92051 
L 447.25916 74.900116 
L 448.35309 77.302982 
L 449.720503 80.880708 
L 451.087916 85.066411 
L 452.728811 90.839006 
L 454.643189 98.512984 
L 456.83105 108.356734 
L 459.292393 120.5303 
L 462.574184 137.982337 
L 470.505178 180.739088 
L 472.966522 192.680516 
L 475.154382 202.255904 
L 477.06876 209.652127 
L 478.709656 215.158562 
L 480.077068 219.105246 
L 481.444481 222.430559 
L 482.538412 224.623356 
L 483.632342 226.386953 
L 484.726272 227.711307 
L 485.54672 228.411689 
L 486.367168 228.85846 
L 487.187615 229.05019 
L 488.008063 228.986263 
L 488.828511 228.666885 
L 489.648959 228.093078 
L 490.469406 227.266682 
L 491.563337 225.776593 
L 492.657267 223.850736 
L 493.751197 221.500078 
L 495.11861 217.984992 
L 496.486023 213.858498 
L 498.126918 208.151687 
L 500.041296 200.546138 
L 502.229157 190.76818 
L 504.6905 178.651036 
L 507.972291 161.242645 
L 516.176768 117.050419 
L 518.638111 105.169696 
L 520.825972 95.663544 
L 522.74035 88.338421 
L 524.381245 82.899766 
L 525.748658 79.013729 
L 527.116071 75.752273 
L 528.210001 73.612492 
L 529.303932 71.903303 
L 530.397862 70.634436 
L 531.21831 69.976188 
L 532.038757 69.571847 
L 532.859205 69.422706 
L 533.679653 69.529245 
L 534.500101 69.891121 
L 535.320548 70.507175 
L 536.140996 71.375434 
L 537.234926 72.92051 
L 538.328857 74.900116 
L 539.422787 77.302982 
L 540.7902 80.880708 
L 542.157613 85.066411 
L 543.798508 90.839006 
L 545.712886 98.512984 
L 547.900747 108.356734 
L 550.36209 120.5303 
L 553.643881 137.982337 
L 561.574875 180.739088 
L 564.036218 192.680516 
L 566.224079 202.255904 
L 568.138457 209.652127 
L 569.779353 215.158562 
L 571.146765 219.105246 
L 572.514178 222.430559 
L 573.608109 224.623356 
L 574.702039 226.386953 
L 575.795969 227.711307 
L 576.616417 228.411689 
L 577.436865 228.85846 
L 578.257312 229.05019 
L 579.07776 228.986263 
L 579.898208 228.666885 
L 580.718655 228.093078 
L 581.539103 227.266682 
L 582.633033 225.776593 
L 583.726964 223.850736 
L 584.820894 221.500078 
L 586.188307 217.984992 
L 587.55572 213.858498 
L 589.196615 208.151687 
L 591.110993 200.546138 
L 593.298854 190.76818 
L 595.760197 178.651036 
L 599.041988 161.242645 
L 607.246465 117.050419 
L 609.707808 105.169696 
L 611.895669 95.663544 
L 613.810047 88.338421 
L 615.450942 82.899766 
L 616.818355 79.013729 
L 618.185768 75.752273 
L 619.279698 73.612492 
L 620.373629 71.903303 
L 621.467559 70.634436 
L 622.288007 69.976188 
L 623.108454 69.571847 
L 623.928902 69.422706 
L 624.74935 69.529245 
L 625.569798 69.891121 
L 626.390245 70.507175 
L 627.210693 71.375434 
L 628.304623 72.92051 
L 629.398554 74.900116 
L 630.492484 77.302982 
L 631.859897 80.880708 
L 633.22731 85.066411 
L 634.868205 90.839006 
L 636.782583 98.512984 
L 638.970444 108.356734 
L 641.431787 120.5303 
L 644.713578 137.982337 
L 652.644572 180.739088 
L 655.105915 192.680516 
L 657.293776 202.255904 
L 659.208154 209.652127 
L 660.84905 215.158562 
L 662.216462 219.105246 
L 663.583875 222.430559 
L 664.677806 224.623356 
L 665.771736 226.386953 
L 666.865666 227.711307 
L 667.686114 228.411689 
L 668.506562 228.85846 
L 669.327009 229.05019 
L 670.147457 228.986263 
L 670.967905 228.666885 
L 671.788352 228.093078 
L 672.6088 227.266682 
L 673.70273 225.776593 
L 674.796661 223.850736 
L 675.890591 221.500078 
L 677.258004 217.984992 
L 678.625417 213.858498 
L 680.266312 208.151687 
L 682.18069 200.546138 
L 684.368551 190.76818 
L 686.829894 178.651036 
L 690.111685 161.242645 
L 692.299545 149.24 
L 692.299545 149.24 
" clip-path="url(#pd70e1b2c05)" style="fill: none; stroke: #0000ff; stroke-opacity: 0.3; stroke-width: 1.5; stroke-linecap: square"/>
   </g>
   <g id="LineCollection_2">
    <path d="M 419.090455 149.24 
L 419.090455 149.24 
" clip-path="url(#pd70e1b2c05)" style="fill: none; stroke: #ff0000; stroke-width: 1.5"/>
    <path d="M 487.392727 149.24 
L 487.392727 229.058182 
" clip-path="url(#pd70e1b2c05)" style="fill: none; stroke: #ff0000; stroke-width: 1.5"/>
    <path d="M 555.695 149.24 
L 555.695 149.24 
" clip-path="url(#pd70e1b2c05)" style="fill: none; stroke: #ff0000; stroke-width: 1.5"/>
    <path d="M 623.997273 149.24 
L 623.997273 69.421818 
" clip-path="url(#pd70e1b2c05)" style="fill: none; stroke: #ff0000; stroke-width: 1.5"/>
   </g>
   <g id="line2d_53">
    <defs>
     <path id="m7748ee8a22" d="M -3 3 
L 3 -3 
M -3 -3 
L 3 3 
" style="stroke: #ff0000"/>
    </defs>
    <g clip-path="url(#pd70e1b2c05)">
     <use xlink:href="#m7748ee8a22" x="419.090455" y="149.24" style="fill: #ff0000; stroke: #ff0000"/>
     <use xlink:href="#m7748ee8a22" x="487.392727" y="229.058182" style="fill: #ff0000; stroke: #ff0000"/>
     <use xlink:href="#m7748ee8a22" x="555.695" y="149.24" style="fill: #ff0000; stroke: #ff0000"/>
     <use xlink:href="#m7748ee8a22" x="623.997273" y="69.421818" style="fill: #ff0000; stroke: #ff0000"/>
    </g>
   </g>
   <g id="line2d_54">
    <path d="M 419.090455 149.24 
L 623.997273 149.24 
" clip-path="url(#pd70e1b2c05)" style="fill: none; stroke: #000000; stroke-width: 1.5; stroke-linecap: square"/>
   </g>
   <g id="line2d_55">
    <path d="M 419.090455 149.24 
L 430.30324 169.595239 
L 436.319857 180.045792 
L 441.242543 188.166924 
L 445.618264 194.970411 
L 449.720503 200.929686 
L 453.275776 205.724332 
L 456.83105 210.141579 
L 460.112841 213.858498 
L 463.121149 216.942955 
L 466.129457 219.703484 
L 468.864283 221.920816 
L 471.599109 223.850736 
L 474.060452 225.335595 
L 476.521795 226.576697 
L 478.983138 227.570066 
L 481.444481 228.31252 
L 483.905824 228.801681 
L 486.093685 229.022565 
L 488.281546 229.041507 
L 490.469406 228.85846 
L 492.657267 228.473888 
L 495.11861 227.801589 
L 497.579953 226.877633 
L 500.041296 225.704981 
L 502.502639 224.287388 
L 504.963983 222.629396 
L 507.698808 220.511718 
L 510.433634 218.1122 
L 513.441942 215.158562 
L 516.450251 211.889534 
L 519.732042 207.982037 
L 523.287315 203.372239 
L 526.842588 198.400757 
L 530.944827 192.258506 
L 535.320548 185.286465 
L 540.243235 177.010622 
L 546.259851 166.423908 
L 554.737811 150.996909 
L 567.044527 128.642154 
L 573.061143 118.202801 
L 577.98383 110.094136 
L 582.359551 103.304089 
L 586.46179 97.359305 
L 590.017063 92.578598 
L 593.572336 88.176473 
L 596.854127 84.474475 
L 599.862436 81.404433 
L 602.870744 78.658954 
L 605.60557 76.455794 
L 608.340395 74.540454 
L 610.801739 73.06902 
L 613.263082 71.841584 
L 615.724425 70.862078 
L 618.185768 70.133641 
L 620.647111 69.658605 
L 622.834972 69.450332 
L 625.022832 69.444018 
L 627.210693 69.639679 
L 629.398554 70.03682 
L 631.859897 70.723164 
L 634.32124 71.661021 
L 636.782583 72.847387 
L 639.243926 74.278461 
L 641.705269 75.94966 
L 644.440095 78.081638 
L 647.174921 80.495008 
L 650.183229 83.463301 
L 653.191537 86.746305 
L 656.473328 90.668195 
L 660.028602 95.292489 
L 663.583875 100.277234 
L 667.686114 106.433138 
L 672.061835 113.417665 
L 676.984521 121.70484 
L 683.001138 132.301298 
L 691.75258 148.235998 
L 692.299545 149.24 
L 692.299545 149.24 
" clip-path="url(#pd70e1b2c05)" style="fill: none; stroke-dasharray: 5.55,2.4; stroke-dashoffset: 0; stroke: #ff0000; stroke-opacity: 0.7; stroke-width: 1.5"/>
   </g>
   <g id="patch_9">
    <path d="M 405.43 237.04 
L 405.43 61.44 
" style="fill: none; stroke: #000000; stroke-width: 0.8; stroke-linejoin: miter; stroke-linecap: square"/>
   </g>
   <g id="patch_10">
    <path d="M 705.96 237.04 
L 705.96 61.44 
" style="fill: none; stroke: #000000; stroke-width: 0.8; stroke-linejoin: miter; stroke-linecap: square"/>
   </g>
   <g id="patch_11">
    <path d="M 405.43 237.04 
L 705.96 237.04 
" style="fill: none; stroke: #000000; stroke-width: 0.8; stroke-linejoin: miter; stroke-linecap: square"/>
   </g>
   <g id="patch_12">
    <path d="M 405.43 61.44 
L 705.96 61.44 
" style="fill: none; stroke: #000000; stroke-width: 0.8; stroke-linejoin: miter; stroke-linecap: square"/>
   </g>
   <g id="text_28">
    <!-- ALIASING ($f_s=4$ &lt; $2f=6$) -->
    <g transform="translate(466.725 55.44) scale(0.14 -0.14)">
     <defs>
      <path id="DejaVuSans-41" d="M 2188 4044 
L 1331 1722 
L 3047 1722 
L 2188 4044 
z
M 1831 4666 
L 2547 4666 
L 4325 0 
L 3669 0 
L 3244 1197 
L 1141 1197 
L 716 0 
L 50 0 
L 1831 4666 
z
" transform="scale(0.015625)"/>
      <path id="DejaVuSans-4c" d="M 628 4666 
L 1259 4666 
L 1259 531 
L 3531 531 
L 3531 0 
L 628 0 
L 628 4666 
z
" transform="scale(0.015625)"/>
      <path id="DejaVuSans-49" d="M 628 4666 
L 1259 4666 
L 1259 0 
L 628 0 
L 628 4666 
z
" transform="scale(0.015625)"/>
      <path id="DejaVuSans-53" d="M 3425 4513 
L 3425 3897 
Q 3066 4069 2747 4153 
Q 2428 4238 2131 4238 
Q 1616 4238 1336 4038 
Q 1056 3838 1056 3469 
Q 1056 3159 1242 3001 
Q 1428 2844 1947 2747 
L 2328 2669 
Q 3034 2534 3370 2195 
Q 3706 1856 3706 1288 
Q 3706 609 3251 259 
Q 2797 -91 1919 -91 
Q 1588 -91 1214 -16 
Q 841 59 441 206 
L 441 856 
Q 825 641 1194 531 
Q 1563 422 1919 422 
Q 2459 422 2753 634 
Q 3047 847 3047 1241 
Q 3047 1584 2836 1778 
Q 2625 1972 2144 2069 
L 1759 2144 
Q 1053 2284 737 2584 
Q 422 2884 422 3419 
Q 422 4038 858 4394 
Q 1294 4750 2059 4750 
Q 2388 4750 2728 4690 
Q 3069 4631 3425 4513 
z
" transform="scale(0.015625)"/>
      <path id="DejaVuSans-4e" d="M 628 4666 
L 1478 4666 
L 3547 763 
L 3547 4666 
L 4159 4666 
L 4159 0 
L 3309 0 
L 1241 3903 
L 1241 0 
L 628 0 
L 628 4666 
z
" transform="scale(0.015625)"/>
      <path id="DejaVuSans-47" d="M 3809 666 
L 3809 1919 
L 2778 1919 
L 2778 2438 
L 4434 2438 
L 4434 434 
Q 4069 175 3628 42 
Q 3188 -91 2688 -91 
Q 1594 -91 976 548 
Q 359 1188 359 2328 
Q 359 3472 976 4111 
Q 1594 4750 2688 4750 
Q 3144 4750 3555 4637 
Q 3966 4525 4313 4306 
L 4313 3634 
Q 3963 3931 3569 4081 
Q 3175 4231 2741 4231 
Q 1884 4231 1454 3753 
Q 1025 3275 1025 2328 
Q 1025 1384 1454 906 
Q 1884 428 2741 428 
Q 3075 428 3337 486 
Q 3600 544 3809 666 
z
" transform="scale(0.015625)"/>
      <path id="DejaVuSans-3c" d="M 4684 3150 
L 1459 2003 
L 4684 863 
L 4684 294 
L 678 1747 
L 678 2266 
L 4684 3719 
L 4684 3150 
z
" transform="scale(0.015625)"/>
     </defs>
     <use xlink:href="#DejaVuSans-41" transform="translate(0 0.015625)"/>
     <use xlink:href="#DejaVuSans-4c" transform="translate(68.408203 0.015625)"/>
     <use xlink:href="#DejaVuSans-49" transform="translate(124.121094 0.015625)"/>
     <use xlink:href="#DejaVuSans-41" transform="translate(153.613281 0.015625)"/>
     <use xlink:href="#DejaVuSans-53" transform="translate(222.021484 0.015625)"/>
     <use xlink:href="#DejaVuSans-49" transform="translate(285.498047 0.015625)"/>
     <use xlink:href="#DejaVuSans-4e" transform="translate(314.990234 0.015625)"/>
     <use xlink:href="#DejaVuSans-47" transform="translate(389.794922 0.015625)"/>
     <use xlink:href="#DejaVuSans-20" transform="translate(467.285156 0.015625)"/>
     <use xlink:href="#DejaVuSans-28" transform="translate(499.072266 0.015625)"/>
     <use xlink:href="#DejaVuSans-Oblique-66" transform="translate(538.085938 0.015625)"/>
     <use xlink:href="#DejaVuSans-Oblique-73" transform="translate(573.291016 -16.390625) scale(0.7)"/>
     <use xlink:href="#DejaVuSans-3d" transform="translate(631.977539 0.015625)"/>
     <use xlink:href="#DejaVuSans-34" transform="translate(735.249023 0.015625)"/>
     <use xlink:href="#DejaVuSans-20" transform="translate(798.87207 0.015625)"/>
     <use xlink:href="#DejaVuSans-3c" transform="translate(830.65918 0.015625)"/>
     <use xlink:href="#DejaVuSans-20" transform="translate(914.448242 0.015625)"/>
     <use xlink:href="#DejaVuSans-32" transform="translate(946.235352 0.015625)"/>
     <use xlink:href="#DejaVuSans-Oblique-66" transform="translate(1009.858398 0.015625)"/>
     <use xlink:href="#DejaVuSans-3d" transform="translate(1064.545898 0.015625)"/>
     <use xlink:href="#DejaVuSans-36" transform="translate(1167.817383 0.015625)"/>
     <use xlink:href="#DejaVuSans-29" transform="translate(1231.44043 0.015625)"/>
    </g>
   </g>
   <g id="legend_2">
    <g id="patch_13">
     <path d="M 569.368594 129.084687 
L 696.86 129.084687 
Q 699.46 129.084687 699.46 126.484687 
L 699.46 70.54 
Q 699.46 67.94 696.86 67.94 
L 569.368594 67.94 
Q 566.768594 67.94 566.768594 70.54 
L 566.768594 126.484687 
Q 566.768594 129.084687 569.368594 129.084687 
z
" style="fill: #ffffff; opacity: 0.8; stroke: #cccccc; stroke-linejoin: miter"/>
    </g>
    <g id="line2d_56">
     <path d="M 571.968594 78.467969 
L 584.968594 78.467969 
L 597.968594 78.467969 
" style="fill: none; stroke: #0000ff; stroke-opacity: 0.3; stroke-width: 1.5; stroke-linecap: square"/>
    </g>
    <g id="text_29">
     <!-- oryginał 3 Hz -->
     <g transform="translate(608.368594 83.017969) scale(0.13 -0.13)">
      <defs>
       <path id="DejaVuSans-33" d="M 2597 2516 
Q 3050 2419 3304 2112 
Q 3559 1806 3559 1356 
Q 3559 666 3084 287 
Q 2609 -91 1734 -91 
Q 1441 -91 1130 -33 
Q 819 25 488 141 
L 488 750 
Q 750 597 1062 519 
Q 1375 441 1716 441 
Q 2309 441 2620 675 
Q 2931 909 2931 1356 
Q 2931 1769 2642 2001 
Q 2353 2234 1838 2234 
L 1294 2234 
L 1294 2753 
L 1863 2753 
Q 2328 2753 2575 2939 
Q 2822 3125 2822 3475 
Q 2822 3834 2567 4026 
Q 2313 4219 1838 4219 
Q 1578 4219 1281 4162 
Q 984 4106 628 3988 
L 628 4550 
Q 988 4650 1302 4700 
Q 1616 4750 1894 4750 
Q 2613 4750 3031 4423 
Q 3450 4097 3450 3541 
Q 3450 3153 3228 2886 
Q 3006 2619 2597 2516 
z
" transform="scale(0.015625)"/>
      </defs>
      <use xlink:href="#DejaVuSans-6f"/>
      <use xlink:href="#DejaVuSans-72" transform="translate(61.181641 0)"/>
      <use xlink:href="#DejaVuSans-79" transform="translate(102.294922 0)"/>
      <use xlink:href="#DejaVuSans-67" transform="translate(161.474609 0)"/>
      <use xlink:href="#DejaVuSans-69" transform="translate(224.951172 0)"/>
      <use xlink:href="#DejaVuSans-6e" transform="translate(252.734375 0)"/>
      <use xlink:href="#DejaVuSans-61" transform="translate(316.113281 0)"/>
      <use xlink:href="#DejaVuSans-142" transform="translate(377.392578 0)"/>
      <use xlink:href="#DejaVuSans-20" transform="translate(405.810547 0)"/>
      <use xlink:href="#DejaVuSans-33" transform="translate(437.597656 0)"/>
      <use xlink:href="#DejaVuSans-20" transform="translate(501.220703 0)"/>
      <use xlink:href="#DejaVuSans-48" transform="translate(533.007812 0)"/>
      <use xlink:href="#DejaVuSans-7a" transform="translate(608.203125 0)"/>
     </g>
    </g>
    <g id="line2d_57">
     <path d="M 571.968594 97.549531 
L 584.968594 97.549531 
L 597.968594 97.549531 
" style="fill: none; stroke-dasharray: 5.55,2.4; stroke-dashoffset: 0; stroke: #ff0000; stroke-opacity: 0.7; stroke-width: 1.5"/>
    </g>
    <g id="text_30">
     <!-- alias 1 Hz -->
     <g transform="translate(608.368594 102.099531) scale(0.13 -0.13)">
      <defs>
       <path id="DejaVuSans-6c" d="M 603 4863 
L 1178 4863 
L 1178 0 
L 603 0 
L 603 4863 
z
" transform="scale(0.015625)"/>
      </defs>
      <use xlink:href="#DejaVuSans-61"/>
      <use xlink:href="#DejaVuSans-6c" transform="translate(61.279297 0)"/>
      <use xlink:href="#DejaVuSans-69" transform="translate(89.0625 0)"/>
      <use xlink:href="#DejaVuSans-61" transform="translate(116.845703 0)"/>
      <use xlink:href="#DejaVuSans-73" transform="translate(178.125 0)"/>
      <use xlink:href="#DejaVuSans-20" transform="translate(230.224609 0)"/>
      <use xlink:href="#DejaVuSans-31" transform="translate(262.011719 0)"/>
      <use xlink:href="#DejaVuSans-20" transform="translate(325.634766 0)"/>
      <use xlink:href="#DejaVuSans-48" transform="translate(357.421875 0)"/>
      <use xlink:href="#DejaVuSans-7a" transform="translate(432.617188 0)"/>
     </g>
    </g>
    <g id="line2d_58">
     <path d="M 584.968594 121.181094 
L 584.968594 114.924844 
" style="fill: none; stroke: #ff0000; stroke-width: 1.5"/>
    </g>
    <g id="line2d_59">
     <path d="M 571.968594 121.181094 
L 597.968594 121.181094 
" style="fill: none; stroke: #000000; stroke-width: 1.5; stroke-linecap: square"/>
    </g>
    <g id="line2d_60">
     <g>
      <use xlink:href="#m7748ee8a22" x="584.968594" y="114.924844" style="fill: #ff0000; stroke: #ff0000"/>
     </g>
    </g>
    <g id="text_31">
     <!-- $f_s$=4 Hz -->
     <g transform="translate(608.368594 121.181094) scale(0.13 -0.13)">
      <use xlink:href="#DejaVuSans-Oblique-66" transform="translate(0 0.015625)"/>
      <use xlink:href="#DejaVuSans-Oblique-73" transform="translate(35.205078 -16.390625) scale(0.7)"/>
      <use xlink:href="#DejaVuSans-3d" transform="translate(74.40918 0.015625)"/>
      <use xlink:href="#DejaVuSans-34" transform="translate(158.198242 0.015625)"/>
      <use xlink:href="#DejaVuSans-20" transform="translate(221.821289 0.015625)"/>
      <use xlink:href="#DejaVuSans-48" transform="translate(253.608398 0.015625)"/>
      <use xlink:href="#DejaVuSans-7a" transform="translate(328.803711 0.015625)"/>
     </g>
    </g>
   </g>
  </g>
  <g id="text_32">
   <!-- Twierdzenie Nyquista — próbkowanie -->
   <g transform="translate(212.718906 16.957812) scale(0.14 -0.14)">
    <defs>
     <path id="DejaVuSans-Bold-54" d="M 31 4666 
L 4331 4666 
L 4331 3756 
L 2784 3756 
L 2784 0 
L 1581 0 
L 1581 3756 
L 31 3756 
L 31 4666 
z
" transform="scale(0.015625)"/>
     <path id="DejaVuSans-Bold-77" d="M 225 3500 
L 1313 3500 
L 1900 1088 
L 2491 3500 
L 3425 3500 
L 4013 1113 
L 4603 3500 
L 5691 3500 
L 4769 0 
L 3547 0 
L 2956 2406 
L 2369 0 
L 1147 0 
L 225 3500 
z
" transform="scale(0.015625)"/>
     <path id="DejaVuSans-Bold-69" d="M 538 3500 
L 1656 3500 
L 1656 0 
L 538 0 
L 538 3500 
z
M 538 4863 
L 1656 4863 
L 1656 3950 
L 538 3950 
L 538 4863 
z
" transform="scale(0.015625)"/>
     <path id="DejaVuSans-Bold-65" d="M 4031 1759 
L 4031 1441 
L 1416 1441 
Q 1456 1047 1700 850 
Q 1944 653 2381 653 
Q 2734 653 3104 758 
Q 3475 863 3866 1075 
L 3866 213 
Q 3469 63 3072 -14 
Q 2675 -91 2278 -91 
Q 1328 -91 801 392 
Q 275 875 275 1747 
Q 275 2603 792 3093 
Q 1309 3584 2216 3584 
Q 3041 3584 3536 3087 
Q 4031 2591 4031 1759 
z
M 2881 2131 
Q 2881 2450 2695 2645 
Q 2509 2841 2209 2841 
Q 1884 2841 1681 2658 
Q 1478 2475 1428 2131 
L 2881 2131 
z
" transform="scale(0.015625)"/>
     <path id="DejaVuSans-Bold-72" d="M 3138 2547 
Q 2991 2616 2845 2648 
Q 2700 2681 2553 2681 
Q 2122 2681 1889 2404 
Q 1656 2128 1656 1613 
L 1656 0 
L 538 0 
L 538 3500 
L 1656 3500 
L 1656 2925 
Q 1872 3269 2151 3426 
Q 2431 3584 2822 3584 
Q 2878 3584 2943 3579 
Q 3009 3575 3134 3559 
L 3138 2547 
z
" transform="scale(0.015625)"/>
     <path id="DejaVuSans-Bold-64" d="M 2919 2988 
L 2919 4863 
L 4044 4863 
L 4044 0 
L 2919 0 
L 2919 506 
Q 2688 197 2409 53 
Q 2131 -91 1766 -91 
Q 1119 -91 703 423 
Q 288 938 288 1747 
Q 288 2556 703 3070 
Q 1119 3584 1766 3584 
Q 2128 3584 2408 3439 
Q 2688 3294 2919 2988 
z
M 2181 722 
Q 2541 722 2730 984 
Q 2919 1247 2919 1747 
Q 2919 2247 2730 2509 
Q 2541 2772 2181 2772 
Q 1825 2772 1636 2509 
Q 1447 2247 1447 1747 
Q 1447 1247 1636 984 
Q 1825 722 2181 722 
z
" transform="scale(0.015625)"/>
     <path id="DejaVuSans-Bold-7a" d="M 366 3500 
L 3419 3500 
L 3419 2719 
L 1575 800 
L 3419 800 
L 3419 0 
L 288 0 
L 288 781 
L 2131 2700 
L 366 2700 
L 366 3500 
z
" transform="scale(0.015625)"/>
     <path id="DejaVuSans-Bold-6e" d="M 4056 2131 
L 4056 0 
L 2931 0 
L 2931 347 
L 2931 1631 
Q 2931 2084 2911 2256 
Q 2891 2428 2841 2509 
Q 2775 2619 2662 2680 
Q 2550 2741 2406 2741 
Q 2056 2741 1856 2470 
Q 1656 2200 1656 1722 
L 1656 0 
L 538 0 
L 538 3500 
L 1656 3500 
L 1656 2988 
Q 1909 3294 2193 3439 
Q 2478 3584 2822 3584 
Q 3428 3584 3742 3212 
Q 4056 2841 4056 2131 
z
" transform="scale(0.015625)"/>
     <path id="DejaVuSans-Bold-20" transform="scale(0.015625)"/>
     <path id="DejaVuSans-Bold-4e" d="M 588 4666 
L 1931 4666 
L 3628 1466 
L 3628 4666 
L 4769 4666 
L 4769 0 
L 3425 0 
L 1728 3200 
L 1728 0 
L 588 0 
L 588 4666 
z
" transform="scale(0.015625)"/>
     <path id="DejaVuSans-Bold-79" d="M 78 3500 
L 1197 3500 
L 2138 1125 
L 2938 3500 
L 4056 3500 
L 2584 -331 
Q 2363 -916 2067 -1148 
Q 1772 -1381 1288 -1381 
L 641 -1381 
L 641 -647 
L 991 -647 
Q 1275 -647 1404 -556 
Q 1534 -466 1606 -231 
L 1638 -134 
L 78 3500 
z
" transform="scale(0.015625)"/>
     <path id="DejaVuSans-Bold-71" d="M 2181 2772 
Q 1825 2772 1636 2509 
Q 1447 2247 1447 1747 
Q 1447 1247 1636 984 
Q 1825 722 2181 722 
Q 2541 722 2730 984 
Q 2919 1247 2919 1747 
Q 2919 2247 2730 2509 
Q 2541 2772 2181 2772 
z
M 2919 506 
Q 2688 197 2409 53 
Q 2131 -91 1766 -91 
Q 1119 -91 703 423 
Q 288 938 288 1747 
Q 288 2556 703 3067 
Q 1119 3578 1766 3578 
Q 2131 3578 2409 3434 
Q 2688 3291 2919 2981 
L 2919 3500 
L 4044 3500 
L 4044 -1331 
L 2919 -1331 
L 2919 506 
z
" transform="scale(0.015625)"/>
     <path id="DejaVuSans-Bold-75" d="M 500 1363 
L 500 3500 
L 1625 3500 
L 1625 3150 
Q 1625 2866 1622 2436 
Q 1619 2006 1619 1863 
Q 1619 1441 1641 1255 
Q 1663 1069 1716 984 
Q 1784 875 1895 815 
Q 2006 756 2150 756 
Q 2500 756 2700 1025 
Q 2900 1294 2900 1772 
L 2900 3500 
L 4019 3500 
L 4019 0 
L 2900 0 
L 2900 506 
Q 2647 200 2364 54 
Q 2081 -91 1741 -91 
Q 1134 -91 817 281 
Q 500 653 500 1363 
z
" transform="scale(0.015625)"/>
     <path id="DejaVuSans-Bold-73" d="M 3272 3391 
L 3272 2541 
Q 2913 2691 2578 2766 
Q 2244 2841 1947 2841 
Q 1628 2841 1473 2761 
Q 1319 2681 1319 2516 
Q 1319 2381 1436 2309 
Q 1553 2238 1856 2203 
L 2053 2175 
Q 2913 2066 3209 1816 
Q 3506 1566 3506 1031 
Q 3506 472 3093 190 
Q 2681 -91 1863 -91 
Q 1516 -91 1145 -36 
Q 775 19 384 128 
L 384 978 
Q 719 816 1070 734 
Q 1422 653 1784 653 
Q 2113 653 2278 743 
Q 2444 834 2444 1013 
Q 2444 1163 2330 1236 
Q 2216 1309 1875 1350 
L 1678 1375 
Q 931 1469 631 1722 
Q 331 1975 331 2491 
Q 331 3047 712 3315 
Q 1094 3584 1881 3584 
Q 2191 3584 2531 3537 
Q 2872 3491 3272 3391 
z
" transform="scale(0.015625)"/>
     <path id="DejaVuSans-Bold-74" d="M 1759 4494 
L 1759 3500 
L 2913 3500 
L 2913 2700 
L 1759 2700 
L 1759 1216 
Q 1759 972 1856 886 
Q 1953 800 2241 800 
L 2816 800 
L 2816 0 
L 1856 0 
Q 1194 0 917 276 
Q 641 553 641 1216 
L 641 2700 
L 84 2700 
L 84 3500 
L 641 3500 
L 641 4494 
L 1759 4494 
z
" transform="scale(0.015625)"/>
     <path id="DejaVuSans-Bold-61" d="M 2106 1575 
Q 1756 1575 1579 1456 
Q 1403 1338 1403 1106 
Q 1403 894 1545 773 
Q 1688 653 1941 653 
Q 2256 653 2472 879 
Q 2688 1106 2688 1447 
L 2688 1575 
L 2106 1575 
z
M 3816 1997 
L 3816 0 
L 2688 0 
L 2688 519 
Q 2463 200 2181 54 
Q 1900 -91 1497 -91 
Q 953 -91 614 226 
Q 275 544 275 1050 
Q 275 1666 698 1953 
Q 1122 2241 2028 2241 
L 2688 2241 
L 2688 2328 
Q 2688 2594 2478 2717 
Q 2269 2841 1825 2841 
Q 1466 2841 1156 2769 
Q 847 2697 581 2553 
L 581 3406 
Q 941 3494 1303 3539 
Q 1666 3584 2028 3584 
Q 2975 3584 3395 3211 
Q 3816 2838 3816 1997 
z
" transform="scale(0.015625)"/>
     <path id="DejaVuSans-Bold-2014" d="M 344 2156 
L 6056 2156 
L 6056 1350 
L 344 1350 
L 344 2156 
z
" transform="scale(0.015625)"/>
     <path id="DejaVuSans-Bold-70" d="M 1656 506 
L 1656 -1331 
L 538 -1331 
L 538 3500 
L 1656 3500 
L 1656 2988 
Q 1888 3294 2169 3439 
Q 2450 3584 2816 3584 
Q 3463 3584 3878 3070 
Q 4294 2556 4294 1747 
Q 4294 938 3878 423 
Q 3463 -91 2816 -91 
Q 2450 -91 2169 54 
Q 1888 200 1656 506 
z
M 2400 2772 
Q 2041 2772 1848 2508 
Q 1656 2244 1656 1747 
Q 1656 1250 1848 986 
Q 2041 722 2400 722 
Q 2759 722 2948 984 
Q 3138 1247 3138 1747 
Q 3138 2247 2948 2509 
Q 2759 2772 2400 2772 
z
" transform="scale(0.015625)"/>
     <path id="DejaVuSans-Bold-f3" d="M 2203 2784 
Q 1831 2784 1636 2517 
Q 1441 2250 1441 1747 
Q 1441 1244 1636 976 
Q 1831 709 2203 709 
Q 2569 709 2762 976 
Q 2956 1244 2956 1747 
Q 2956 2250 2762 2517 
Q 2569 2784 2203 2784 
z
M 2203 3584 
Q 3106 3584 3614 3096 
Q 4122 2609 4122 1747 
Q 4122 884 3614 396 
Q 3106 -91 2203 -91 
Q 1297 -91 786 396 
Q 275 884 275 1747 
Q 275 2609 786 3096 
Q 1297 3584 2203 3584 
z
M 2694 5119 
L 3578 5119 
L 2425 3944 
L 1813 3944 
L 2694 5119 
z
" transform="scale(0.015625)"/>
     <path id="DejaVuSans-Bold-62" d="M 2400 722 
Q 2759 722 2948 984 
Q 3138 1247 3138 1747 
Q 3138 2247 2948 2509 
Q 2759 2772 2400 2772 
Q 2041 2772 1848 2508 
Q 1656 2244 1656 1747 
Q 1656 1250 1848 986 
Q 2041 722 2400 722 
z
M 1656 2988 
Q 1888 3294 2169 3439 
Q 2450 3584 2816 3584 
Q 3463 3584 3878 3070 
Q 4294 2556 4294 1747 
Q 4294 938 3878 423 
Q 3463 -91 2816 -91 
Q 2450 -91 2169 54 
Q 1888 200 1656 506 
L 1656 0 
L 538 0 
L 538 4863 
L 1656 4863 
L 1656 2988 
z
" transform="scale(0.015625)"/>
     <path id="DejaVuSans-Bold-6b" d="M 538 4863 
L 1656 4863 
L 1656 2216 
L 2944 3500 
L 4244 3500 
L 2534 1894 
L 4378 0 
L 3022 0 
L 1656 1459 
L 1656 0 
L 538 0 
L 538 4863 
z
" transform="scale(0.015625)"/>
     <path id="DejaVuSans-Bold-6f" d="M 2203 2784 
Q 1831 2784 1636 2517 
Q 1441 2250 1441 1747 
Q 1441 1244 1636 976 
Q 1831 709 2203 709 
Q 2569 709 2762 976 
Q 2956 1244 2956 1747 
Q 2956 2250 2762 2517 
Q 2569 2784 2203 2784 
z
M 2203 3584 
Q 3106 3584 3614 3096 
Q 4122 2609 4122 1747 
Q 4122 884 3614 396 
Q 3106 -91 2203 -91 
Q 1297 -91 786 396 
Q 275 884 275 1747 
Q 275 2609 786 3096 
Q 1297 3584 2203 3584 
z
" transform="scale(0.015625)"/>
    </defs>
    <use xlink:href="#DejaVuSans-Bold-54"/>
    <use xlink:href="#DejaVuSans-Bold-77" transform="translate(57.212891 0)"/>
    <use xlink:href="#DejaVuSans-Bold-69" transform="translate(149.595703 0)"/>
    <use xlink:href="#DejaVuSans-Bold-65" transform="translate(183.873047 0)"/>
    <use xlink:href="#DejaVuSans-Bold-72" transform="translate(251.695312 0)"/>
    <use xlink:href="#DejaVuSans-Bold-64" transform="translate(301.011719 0)"/>
    <use xlink:href="#DejaVuSans-Bold-7a" transform="translate(372.59375 0)"/>
    <use xlink:href="#DejaVuSans-Bold-65" transform="translate(430.796875 0)"/>
    <use xlink:href="#DejaVuSans-Bold-6e" transform="translate(498.619141 0)"/>
    <use xlink:href="#DejaVuSans-Bold-69" transform="translate(569.810547 0)"/>
    <use xlink:href="#DejaVuSans-Bold-65" transform="translate(604.087891 0)"/>
    <use xlink:href="#DejaVuSans-Bold-20" transform="translate(671.910156 0)"/>
    <use xlink:href="#DejaVuSans-Bold-4e" transform="translate(706.724609 0)"/>
    <use xlink:href="#DejaVuSans-Bold-79" transform="translate(790.416016 0)"/>
    <use xlink:href="#DejaVuSans-Bold-71" transform="translate(855.601562 0)"/>
    <use xlink:href="#DejaVuSans-Bold-75" transform="translate(927.183594 0)"/>
    <use xlink:href="#DejaVuSans-Bold-69" transform="translate(998.375 0)"/>
    <use xlink:href="#DejaVuSans-Bold-73" transform="translate(1032.652344 0)"/>
    <use xlink:href="#DejaVuSans-Bold-74" transform="translate(1092.173828 0)"/>
    <use xlink:href="#DejaVuSans-Bold-61" transform="translate(1139.976562 0)"/>
    <use xlink:href="#DejaVuSans-Bold-20" transform="translate(1207.457031 0)"/>
    <use xlink:href="#DejaVuSans-Bold-2014" transform="translate(1242.271484 0)"/>
    <use xlink:href="#DejaVuSans-Bold-20" transform="translate(1342.271484 0)"/>
    <use xlink:href="#DejaVuSans-Bold-70" transform="translate(1377.085938 0)"/>
    <use xlink:href="#DejaVuSans-Bold-72" transform="translate(1448.667969 0)"/>
    <use xlink:href="#DejaVuSans-Bold-f3" transform="translate(1497.984375 0)"/>
    <use xlink:href="#DejaVuSans-Bold-62" transform="translate(1566.685547 0)"/>
    <use xlink:href="#DejaVuSans-Bold-6b" transform="translate(1638.267578 0)"/>
    <use xlink:href="#DejaVuSans-Bold-6f" transform="translate(1702.146484 0)"/>
    <use xlink:href="#DejaVuSans-Bold-77" transform="translate(1770.847656 0)"/>
    <use xlink:href="#DejaVuSans-Bold-61" transform="translate(1863.230469 0)"/>
    <use xlink:href="#DejaVuSans-Bold-6e" transform="translate(1930.710938 0)"/>
    <use xlink:href="#DejaVuSans-Bold-69" transform="translate(2001.902344 0)"/>
    <use xlink:href="#DejaVuSans-Bold-65" transform="translate(2036.179688 0)"/>
   </g>
  </g>
 </g>
 <defs>
  <clipPath id="p5462674ff7">
   <rect x="52.45" y="61.44" width="300.53" height="175.6"/>
  </clipPath>
  <clipPath id="pd70e1b2c05">
   <rect x="405.43" y="61.44" width="300.53" height="175.6"/>
  </clipPath>
 </defs>
</svg>
