<?xml version="1.0" encoding="utf-8" standalone="no"?>
<!DOCTYPE svg PUBLIC "-//W3C//DTD SVG 1.1//EN"
  "http://www.w3.org/Graphics/SVG/1.1/DTD/svg11.dtd">
<svg xmlns:xlink="http://www.w3.org/1999/xlink" width="27.311502pt" height="157.68pt" viewBox="0 0 27.311502 157.68" xmlns="http://www.w3.org/2000/svg" version="1.1">
 <metadata>
  <rdf:RDF xmlns:dc="http://purl.org/dc/elements/1.1/" xmlns:cc="http://creativecommons.org/ns#" xmlns:rdf="http://www.w3.org/1999/02/22-rdf-syntax-ns#">
   <cc:Work>
    <dc:type rdf:resource="http://purl.org/dc/dcmitype/StillImage"/>
    <dc:date>2026-05-07T20:20:13.358195</dc:date>
    <dc:format>image/svg+xml</dc:format>
    <dc:creator>
     <cc:Agent>
      <dc:title>Matplotlib v3.10.9, https://matplotlib.org/</dc:title>
     </cc:Agent>
    </dc:creator>
   </cc:Work>
  </rdf:RDF>
 </metadata>
 <defs>
  <style type="text/css">*{stroke-linejoin: round; stroke-linecap: butt}</style>
 </defs>
 <g id="figure_1">
  <g id="patch_1">
   <path d="M 0 157.68 
L 27.311502 157.68 
L 27.311502 0 
L 0 0 
L 0 157.68 
z
" style="fill: none"/>
  </g>
  <g id="axes_1">
   <g id="line2d_1">
    <path d="M 13.655751 24.93572 
L 13.655751 75.605743 
M 22.639797 75.605743 
L 4.671704 75.605743 
M 22.639797 82.074257 
L 4.671704 82.074257 
M 13.655751 82.074257 
L 13.655751 132.74428 
" clip-path="url(#p9b263f46e5)" style="fill: none; stroke: #000000; stroke-width: 2; stroke-linecap: round"/>
   </g>
   <g id="text_1">
    <!-- C -->
    <g transform="translate(8.767782 18.430539) scale(0.14 -0.14)">
     <defs>
      <path id="DejaVuSans-43" d="M 4122 4306 
L 4122 3641 
Q 3803 3938 3442 4084 
Q 3081 4231 2675 4231 
Q 1875 4231 1450 3742 
Q 1025 3253 1025 2328 
Q 1025 1406 1450 917 
Q 1875 428 2675 428 
Q 3081 428 3442 575 
Q 3803 722 4122 1019 
L 4122 359 
Q 3791 134 3420 21 
Q 3050 -91 2638 -91 
Q 1578 -91 968 557 
Q 359 1206 359 2328 
Q 359 3453 968 4101 
Q 1578 4750 2638 4750 
Q 3056 4750 3426 4639 
Q 3797 4528 4122 4306 
z
" transform="scale(0.015625)"/>
     </defs>
     <use xlink:href="#DejaVuSans-43"/>
    </g>
   </g>
   <g id="patch_2">
    <path d="M 13.655751 27.630934 
C 14.37053 27.630934 15.05613 27.34695 15.561555 26.841525 
C 16.06698 26.336099 16.350965 25.6505 16.350965 24.93572 
C 16.350965 24.220941 16.06698 23.535342 15.561555 23.029916 
C 15.05613 22.524491 14.37053 22.240506 13.655751 22.240506 
C 12.940972 22.240506 12.255372 22.524491 11.749947 23.029916 
C 11.244522 23.535342 10.960537 24.220941 10.960537 24.93572 
C 10.960537 25.6505 11.244522 26.336099 11.749947 26.841525 
C 12.255372 27.34695 12.940972 27.630934 13.655751 27.630934 
z
" clip-path="url(#p9b263f46e5)" style="fill: #ffffff; stroke: #000000; stroke-width: 2; stroke-linejoin: miter"/>
   </g>
   <g id="text_2">
    <!-- a -->
    <g transform="translate(9.366063 15.735325) scale(0.14 -0.14)">
     <defs>
      <path id="DejaVuSans-61" d="M 2194 1759 
Q 1497 1759 1228 1600 
Q 959 1441 959 1056 
Q 959 750 1161 570 
Q 1363 391 1709 391 
Q 2188 391 2477 730 
Q 2766 1069 2766 1631 
L 2766 1759 
L 2194 1759 
z
M 3341 1997 
L 3341 0 
L 2766 0 
L 2766 531 
Q 2569 213 2275 61 
Q 1981 -91 1556 -91 
Q 1019 -91 701 211 
Q 384 513 384 1019 
Q 384 1609 779 1909 
Q 1175 2209 1959 2209 
L 2766 2209 
L 2766 2266 
Q 2766 2663 2505 2880 
Q 2244 3097 1772 3097 
Q 1472 3097 1187 3025 
Q 903 2953 641 2809 
L 641 3341 
Q 956 3463 1253 3523 
Q 1550 3584 1831 3584 
Q 2591 3584 2966 3190 
Q 3341 2797 3341 1997 
z
" transform="scale(0.015625)"/>
     </defs>
     <use xlink:href="#DejaVuSans-61"/>
    </g>
   </g>
   <g id="patch_3">
    <path d="M 13.655751 135.439494 
C 14.37053 135.439494 15.05613 135.155509 15.561555 134.650084 
C 16.06698 134.144658 16.350965 133.459059 16.350965 132.74428 
C 16.350965 132.0295 16.06698 131.343901 15.561555 130.838475 
C 15.05613 130.33305 14.37053 130.049066 13.655751 130.049066 
C 12.940972 130.049066 12.255372 130.33305 11.749947 130.838475 
C 11.244522 131.343901 10.960537 132.0295 10.960537 132.74428 
C 10.960537 133.459059 11.244522 134.144658 11.749947 134.650084 
C 12.255372 135.155509 12.940972 135.439494 13.655751 135.439494 
z
" clip-path="url(#p9b263f46e5)" style="fill: #ffffff; stroke: #000000; stroke-width: 2; stroke-linejoin: miter"/>
   </g>
   <g id="text_3">
    <!-- b -->
    <g transform="translate(9.211845 149.670925) scale(0.14 -0.14)">
     <defs>
      <path id="DejaVuSans-62" d="M 3116 1747 
Q 3116 2381 2855 2742 
Q 2594 3103 2138 3103 
Q 1681 3103 1420 2742 
Q 1159 2381 1159 1747 
Q 1159 1113 1420 752 
Q 1681 391 2138 391 
Q 2594 391 2855 752 
Q 3116 1113 3116 1747 
z
M 1159 2969 
Q 1341 3281 1617 3432 
Q 1894 3584 2278 3584 
Q 2916 3584 3314 3078 
Q 3713 2572 3713 1747 
Q 3713 922 3314 415 
Q 2916 -91 2278 -91 
Q 1894 -91 1617 61 
Q 1341 213 1159 525 
L 1159 0 
L 581 0 
L 581 4863 
L 1159 4863 
L 1159 2969 
z
" transform="scale(0.015625)"/>
     </defs>
     <use xlink:href="#DejaVuSans-62"/>
    </g>
   </g>
  </g>
 </g>
 <defs>
  <clipPath id="p9b263f46e5">
   <rect x="0" y="0" width="27.311502" height="157.68"/>
  </clipPath>
 </defs>
</svg>
